/* XPM */
static char *bg_bright_xpm[] = {
/* columns rows colors chars-per-pixel */
"101 34 254 2",
"1  c #CACAC9",
"*  c #CACACA",
"C  c #C0BFBF",
"@  c #CACACB",
"ZX c #D9D9D9",
"Z  c #C0BFC0",
":. c #A0A1A0",
"q. c #A0A1A1",
"5X c #969696",
"jX c #AFB0B0",
"8X c #969697",
"m. c #A5A5A4",
")  c #A5A5A5",
"D  c #BEBFBE",
"oX c #9B9A9A",
"_  c #A5A5A6",
"F  c #BEBFBF",
"lX c #B4B4B4",
">X c #9B9A9B",
"[  c #AAA9A9",
"b. c #AAA9AA",
"u  c #C3C3C3",
"HX c #D2D2D1",
"0  c #C8C7C8",
"OX c #999A99",
"#X c #999A9A",
"T  c #A8A9A8",
"B. c #9E9E9D",
"Y  c #A8A9A9",
"t. c #9E9E9E",
"j. c #9E9E9F",
"o. c #ADADAD",
"=. c #A3A2A2",
"vX c #BCBCBC",
"0. c #A3A2A3",
"#  c #CBCBCA",
".  c #CBCBCB",
"b  c #C1C0C0",
"X  c #CBCBCC",
"AX c #DADADA",
"n  c #C1C0C1",
"SX c #DADADB",
"sX c #929392",
"dX c #929393",
"!  c #A1A2A1",
"N. c #A1A2A2",
",X c #979797",
"r. c #A6A6A5",
"`  c #A6A6A6",
"A  c #BFC0BF",
" X c #A6A6A7",
"R. c #9C9B9B",
"S  c #BFC0C0",
"E. c #9C9B9C",
"a. c #ABAAAA",
"5. c #ABAAAB",
"y  c #C4C4C4",
"NX c #D3D3D3",
"7  c #C9C8C8",
"2  c #C9C8C9",
"[. c #9A9B9A",
"7X c #9A9B9B",
"p. c #A9AAA9",
"{. c #9F9F9E",
"$. c #A9AAAA",
"e. c #9F9F9F",
"}. c #9F9FA0",
"hX c #AEAEAE",
"*X c #A4A3A3",
"9  c #C7C8C8",
"c. c #A4A3A4",
"+  c #CCCCCB",
"bX c #CCCCCC",
"FX c #DBDBDA",
"f  c #C2C1C1",
"DX c #DBDBDB",
"l  c #C2C1C2",
"*. c #A2A3A2",
"eX c #989897",
",. c #A2A3A3",
";X c #989898",
"JX c #B1B2B2",
"v. c #A7A7A6",
"'  c #A7A7A7",
"m  c #C0C1C0",
"A. c #9D9C9C",
"]  c #A7A7A8",
"M  c #C0C1C1",
"zX c #B6B6B6",
"W. c #9D9C9D",
"s. c #ACABAB",
"+. c #ACABAC",
"t  c #C5C5C5",
"<  c #CAC9C9",
":  c #CAC9CA",
"%X c #9B9C9C",
"(. c #A0A09F",
"2. c #AAABAB",
"-. c #A0A0A0",
"|. c #A0A0A1",
"qX c #969596",
"5  c #C8C9C8",
"!. c #A5A4A4",
"3  c #C8C9C9",
"<. c #A5A4A5",
"L  c #BEBEBE",
"K  c #BEBEBF",
"p  c #C3C2C2",
"d  c #C3C2C3",
"iX c #949594",
"0X c #949595",
"/  c #A3A4A3",
"1X c #A3A4A4",
"-X c #999998",
"@X c #999999",
"3X c #99999A",
"6. c #A8A8A7",
"W  c #A8A8A8",
"g  c #C1C2C1",
"I. c #9E9D9D",
"E  c #A8A8A9",
"k  c #C1C2C2",
"k. c #9E9D9E",
"X. c #ADACAC",
"r  c #C6C6C6",
"GX c #D5D5D4",
"&  c #CBCACA",
"%  c #CBCACB",
"U. c #9C9D9C",
"C. c #9C9D9D",
"PX c #929292",
"|  c #ABACAB",
".X c #A1A1A0",
"@. c #ABACAC",
"Q  c #A1A1A1",
"M. c #A1A1A2",
"uX c #979697",
",  c #C9CAC9",
"K. c #A6A5A5",
"G  c #BFBFBE",
">  c #C9CACA",
"%. c #A6A5A6",
"V  c #BFBFBF",
"N  c #BFBFC0",
"nX c #CECECE",
"9. c #A4A5A4",
"u. c #A4A5A5",
"'. c #9A9A9A",
"2X c #9A9A9B",
"U  c #A9A9A8",
"I  c #A9A9A9",
"a  c #C2C3C2",
"P. c #9F9E9E",
"d. c #A9A9AA",
"xX c #B8B8B8",
"D. c #9F9E9F",
"KX c #AEADAD",
"e  c #C7C7C7",
"w  c #C7C7C8",
"VX c #D6D6D6",
"O  c #CCCBCB",
"tX c #9D9E9D",
"LX c #939392",
"). c #9D9E9E",
"pX c #939393",
"O. c #ACADAC",
"x. c #A2A2A1",
"~  c #A2A2A2",
"rX c #989797",
">. c #A2A2A3",
"kX c #B1B1B1",
"$  c #CACBCA",
"8. c #A7A6A6",
"B  c #C0C0BF",
"=  c #CACBCB",
"~. c #A7A6A7",
"c  c #C0C0C0",
"x  c #C0C0C1",
"wX c #969796",
"6X c #969797",
"H. c #A5A6A5",
"&X c #A5A6A6",
"$X c #9B9B9A",
"Y. c #9B9B9B",
"T. c #9B9B9C",
"J. c #AAAAA9",
"{  c #AAAAAA",
"h. c #A09F9F",
"#. c #AAAAAB",
"z. c #A09FA0",
"q  c #C8C8C7",
"4  c #C8C8C8",
"8  c #C8C8C9",
"XX c #9E9F9E",
"l. c #9E9F9F",
"gX c #949494",
"Q. c #A3A3A2",
"^  c #A3A3A3",
"4X c #999898",
"&. c #A3A3A4",
":X c #999899",
"   c #CBCCCB",
"f. c #A8A7A7",
"v  c #C1C1C0",
"o  c #CBCCCC",
"i. c #A8A7A8",
"h  c #C1C1C1",
"j  c #C1C1C2",
"mX c #D0D0D0",
"<X c #979898",
"g. c #A6A7A6",
"`. c #9C9C9B",
"1. c #A6A7A7",
"Z. c #9C9C9C",
"_. c #9C9C9D",
"}  c #ABABAB",
"4. c #ABABAC",
";. c #A1A0A0",
"cX c #BABABA",
"w. c #A1A0A1",
"6  c #C9C9C8",
"-  c #C9C9C9",
"J  c #BFBEBE",
";  c #C9C9CA",
"CX c #D8D8D8",
"H  c #BFBEBF",
"y. c #9FA09F",
"/. c #9FA0A0",
"9X c #959595",
"^. c #A4A4A3",
"(  c #A4A4A4",
"]. c #9A9999",
"G. c #A4A4A5",
"=X c #9A999A",
"R  c #A9A8A8",
"z  c #C2C2C1",
"P  c #A9A8A9",
"i  c #C2C2C2",
"s  c #C2C2C3",
"MX c #D1D1D2",
"yX c #989998",
"+X c #989999",
"7. c #A7A8A7",
"S. c #9D9D9C",
"n. c #A7A8A8",
"V. c #9D9D9D",
"aX c #939292",
"3. c #ACACAB",
"fX c #939293",
" . c #ACACAC",
"L. c #A2A1A1",
".. c #ACACAD",
"BX c #D4D5D4",
"F. c #A2A1A2",
/* pixels */
"  . . .     X . o . X X O X . . . X . . . .   . . O . . X . . X . . X   X .   X O .   O   . . X O O + . . . . . . . . . .   . . X .   O . . . X . . . . . . .   o . . O . O . . . . + O . X   O . . . . X ",
"@ # @ $ % @ & @ @ * * $ * * # @ @ * . # $ * # # . @ % & = $ = * @ @ * = # # * & * # # * = & & = @ = @ & $ * . $ * * $ * $ $ @ & * * * $ * . & % . = * = * % . # # # $ . $ # & # % $ * $ $ & * * % $ $ $ = ",
"* - ; : > : , > - < > > , * ; , * * > : - : > ; * : > 1 < , * 1 1 - , 1 ; : - , > ; * * : : 1 : : < ; - * * - < < < ; > < > 1 , , : - : ; > ; * * * * : - < : * 1 1 < 1 : : - < 1 : > ; , * 1 1 * : 1 > ; ",
"2 3 2 - - - - 3 2 2 - - - - 4 5 - - 3 5 6 7 - 3 3 - 2 2 5 3 - - 3 - 6 - - - 5 - - - - - 3 7 2 2 - 7 - 7 3 2 6 3 4 3 3 - - 7 2 2 - 5 8 6 3 - 6 6 - 2 - - 3 2 - 3 6 - 3 - - 5 - 2 - 7 2 6 6 - 3 2 - 6 - 8 3 ",
"4 4 9 4 4 4 4 4 4 4 0 4 4 q 4 4 4 4 4 4 q 4 0 4 4 q 0 4 4 4 4 4 4 4 4 4 4 4 4 4 4 4 9 4 q 4 4 4 4 9 0 4 9 4 4 4 4 4 4 4 4 4 9 4 4 4 4 4 q 4 4 4 0 4 4 4 0 4 4 4 0 9 q 4 4 4 4 4 9 9 4 w 4 9 4 4 0 4 4 4 4 ",
"e e e e e e e e e e e e e e e e e e e e e e e e e e e e e e e e e e e e e e e e e e e e e e e e e e e e e e e e e e e e e e e e e e e e e e e e e e e e e e e e e e e e e e e e e e e e e e e e e e e e e ",
"r r r r r r r r r r r r r r r r r r r r r r r r r r r r r r r r r r r r r r r r r r r r r r r r r r r r r r r r r r r r r r r r r r r r r r r r r r r r r r r r r r r r r r r r r r r r r r r r r r r r r ",
"t t t t t t t t t t t t t t t t t t t t t t t t t t t t t t t t t t t t t t t t t t t t t t t t t t t t t t t t t t t t t t t t t t t t t t t t t t t t t t t t t t t t t t t t t t t t t t t t t t t t t ",
"y y y y y y y y y y y y y y y y y y y y y y y y y y y y y y y y y y y y y y y y y y y y y y y y y y y y y y y y y y y y y y y y y y y y y y y y y y y y y y y y y y y y y y y y y y y y y y y y y y y y y ",
"u u u u u u u u u u u u u u u u u u u u u u u u u u u u u u u u u u u u u u u u u u u u u u u u u u u u u u u u u u u u u u u u u u u u u u u u u u u u u u u u u u u u u u u u u u u u u u u u u u u u u ",
"i i i i i i i i i i p i i i i i i i i i i i i i i i i i i i i i i a i i i i i i a i i i i i a i i i i i i i i i i i a i i i p i i i i i i s i i i i i i i i i i p i i i i i i i i i a i i p d i i a i i a ",
"f g h f h j g g h h h g h k f g h g h f g h g h h f f h j h i h h j f f l l h h h k k h f g f h h f j l f h h h f h j h l z i h h g h g j l h h h h h h h j j f h j g h g j h f k h f g k k h h f f f h h ",
"x c v c b b n n n m n M n M b v M m m M x v m x x n h v n b n n m v h b c m v c b v M b x m n v c m x c M x h x c x c c h b c x M m m M b v v n c c c x c M b b x m b c M h m M M x x n b m b m h x b M n ",
"N c B V c c B c B C Z A c S Z S B c S S Z Z B B c Z B S c V N V B B Z S B S c c Z c B A C V S N c c c Z B c c B c V Z c S A S A c c N C c B B c S A S N V Z c Z B c c Z c Z A c c S c c C C c S c B A c c ",
"V D V F D V V G G H V V F V H D V V V V V V V V J F V V V F V H V V J H G V V V V F F V V V V G V V V F V G V H V G K V H V V V V V F V F F G H F V H V G J V G V V F F F V H V V V V V V G H V V V F V H ",
"L L L L L L L L L L L L L L L L L L L L L L L L L L L L L L L L L L L L L L L L L L L L L L L L L L L L L L L L L L L L L L L L L L L L L L L L L L L L L L L L L L L L L L L L L L L L L L L L L L L L L ",
"P I I I U P Y I T P R Y P Y I I U I Y I P P P I I U I I P U P U I I Y I E E E I P I I I W I I I P U Y P U Y P I I U I I P P I I R Y U U I T P U I I I E I Y P P R U Y P R E T U E E R U R Y P U U I I Y Y ",
"Q Q Q ! ~ ~ ~ ^ ^ / ^ ( ( ( ( ) ) _ _ ` ` ' ' ' ' ] W W T W I I [ { { { { { } } } } |  . ...X.o.o.o.o.o.o. . . .O. .+.@.} } } #.{ { { { $.I I E E W W ' ' ' ' ` ` ` ) %.) ) ) ( ( ( / &.^ *.=.~ ~ Q Q Q Q ",
"-.-.;.:.Q Q ~ ~ ~ >.,.^ ^ / ( ( <.) ) ) ) ` ` ` 1.1.' W ] W W Y I I I I $.{ { 2.} } } 3.+.4. . . . . . . . . .3.| 4.} } } 5.{ { $.I I I I P W W 6.7.' ' 8.` ` ) ) ) ) ) 9.( ( ( ^ ^ *.0.~ ~ ~ Q Q q.w.-.-.",
"e.-.-.-.-.-.Q Q Q ~ ~ ~ ^ ^ ^ ^ ( ( ( ( ) ) ) r.` ` ` ' ' ' ' W W W Y I I I { { { { } } } } @.@. . . . . . . .} } } 5.{ { { { I I I I W W W ' ' ' ' 8.` ` ` ) ) ) ( ( ( ( ^ ^ ^ =.~ ~ ~ Q Q Q -.-.-.-.-.e.",
"t.e.e.e.y.-.-.q.-.Q Q ~ ~ ~ 0.=.^ ^ ^ ( ( ( u.) ) ) ` ` ` ' ' ' ' i.W P T R I p.I { { { a.} } 4.s.}  .| @.| } } 2.{ { { d.p.I W R W W f.' ' ' ' g.` ` ) ) ) ( ) ( ( ^ ^ ^ ~ ,.~ ~ ~ Q Q -.;.-.y.h.e.e.e.j.",
"k.t.t.t.l.e.-.z.z.-.-.Q Q Q x.x.~ ^ ^ ^ ^ c./ ( u.) ) ) r.` ` v.` ' ' f.W W R T I $.{ { { { #.} } } } } } } 5.{ { { b.b.I U W W W n.' ' v.' ` ` %.) ) m.) <.^ / ^ ^ ^ ^ ~ M.N.Q Q Q Q -.h.z.z.e.e.t.t.t.B.",
"V.V.V.V.t.t.e.e.e.e.e.-.-.q.Q Q Q ~ ~ ~ ~ ^ ^ ( ( ( ( ( ) ) ` ` ` ` ` ' ' ' W W W I U I I { b.{ { } } } { { { { I I I I W W W ' ' ' ` ` ` ` ` ) ) ( ( ( ( ( ^ ^ ~ ~ ~ x.Q Q Q Q -.-.-.e.e.e.e.t.B.V.V.V.C.",
"Z.A.S.V.V.k.t.t.D.t.e.h.z.-.-.-.q.Q F.M.~ ~ ~ ^ ^ &.( ( ( G.) ) H.) H.` ' ' ' ' 7.W E I I I p.I { { { { { p.J.I I I W W ' ' ' ' ` ` ) K.) ) ) 9.( ( ( ^ ^ ^ ~ ~ ~ L.F.Q Q -.-.-.-.e.e.P.P.t.t.I.V.U.A.A.Z.",
"Y.T.R.E.Z.W.V.V.B.k.t.t.t.e.y.h.z.-.w.w.Q Q Q ~ ~ Q.^ ^ ( / ( u.!.) ) ` ` ` ~.v.' ' i.W W I I I I $.{ p.I I I U W W 7.' ' ' ' ` %.) ) ) u.u.( ^ ^.^ ^ *.~ ~ Q Q Q Q ;.-.-./.(.e.l.e.t.I.).V.V._.Z.Z.`.`.Y.",
"'.Y.Y.Y.Y.Z.Z.Z.V.V.V.t.t.t.e.e.e.e.-.-.-.Q Q Q Q ~ ~ ~ ^ ^ ^ ( ( ( ( ) ) ) ` ` ` ' ' ' ' W W I I I I I I I W i.' ' ' ' ` ` ` ) ) ) ( ( ( ( ^ ^ ^ ~ ~ ~ Q Q Q Q -.-.-.e.e.e.e.t.t.t.V.V.V.Z.Z.Z.Y.Y.Y.Y.'.",
"].'.[.'.Y.Y.R.T.Z.A.A.V.V.).t.t.{.t.e.e.}.-.-.-.|.Q Q M.~ ,.~ ^ ^ c.^ ( !.( ) ) ) ` ` ` v.' W ' W W P W W 7.] '  X8.` ` _ ) ) ( ( ( ^ ^ ^ ^ =.~ ~ L.Q Q .Xw.:.-.(.e.e.XXXXt.t.k.V.V.S._.Z.`.Y.Y.[.oX'.'.OX",
"+X@X#X'.#X'.$XY.Y.%X`.Z.Z.V.V.V.k.t.t.t.t.e.e.-.-.-.;.Q Q F.~ ~ ~ Q.^ ^ c.( ( ( <.) ) &X` ` 1.~.' ' ' ' 1.' g.` ` &X) ) G.( ( ( *X^ ^ ~ ~ ~ ~ ~ Q Q w.-.-.-.(.e.D.t.t.).V.V.V._.Z.Z.%XZ.Y.[.'.'.@X=X=X@X-X",
";X;X@X:X@X@X'.'.'.Y.Y.Y.Y.Z.Z.Z.V.V.V.V.t.t.t.{.e.e.-.-.-.Q Q ~ ~ ~ ~ ~ ^ ^ ^ ( ( ( ( ) ) ) ` ` ` ` ` ` ` ` ` ) ) ) ( ( ( ( ( ^ 0.~ ~ ~ ~ ~ Q Q -.-.-.e.e.e.t.t.t.V.V.V.V.Z.Z.Z.Y.Y.Y.>X'.'.'.@X@X@X@X;X;X",
",X<X;X;X;X-X@X@X@X'.'.'.'.Y.T.R.Z.U.Z.V.V.I.V.t.t.e.e.e.e.-.-.Q Q Q Q Q ~ ~ =.^ ^ 1X( ( ( ) G.) ) &XH.) ) ) u.G.( ( ( ^ ^ ^ ~ ~ ~ F.Q Q Q Q -.-.y.e.e.e.XXt.B.I.V.V._.Z.Z.E.T.Y.'.2X'.'.3X@X@X4X;X;X;X,X,X",
"5X6X,X,X,X,X;X;X@X@X@X=X=X'.7X7XY.Z.Z.Z.Z.C.W.V.t.).t.D.{.e.e.e.-.-.Q w.Q Q ~ ~ ~ >.^ ^ ^ ^ *Xc.( ( ( ( / ( ( c.^ ^ ^ ^ ~ ~ M.Q Q .XQ -.-.h.e.e.e.l.t.t.).V.V.W.Z.Z.R.Z.Y.'.>X'.'.#X@X@X-X;X;X,X,X,X,X8X5X",
"9X5X5X5X,X,X,X,X;X;X;X@X@X@X'.'.'.Y.Y.Y.Y.Z.Z.Z.V.V.V.t.t.t.t.e.e.e.-.-.-.Q Q Q Q Q ~ ~ ~ ^ ^ ^ ^ ^ ^ ^ ^ ^ ^ ^ ~ ~ ~ Q Q Q Q Q -.-.-.e.e.e.t.t.t.t.V.V.V.Z.Z.Z.Y.Y.Y.Y.'.'.'.@X@X@X;X;X;X,X,X,X,X5X5X5X9X",
"0X9XqX5X5X5X5XwX,XeXrX;X-X+X4X@X'.'.'.2X'.Y.Y.Y.Z.Z._.V.V.tXt.t.t.l.e.e.(.-.-.;.-.|.:.Q Q L.M.~ ~ ~ ~ ~ ~ ~ Q ! N.Q :.w..X:.-.-.e.e.j.{.t.t.t.B.V.V.Z.Z.Z.Y.Y.Y.Y.oX'.'.].@X:X4XyX;X,XeX,XuX5X5X5X9XqXiX9X",
"pXpXaXpXsXaXdXfXpXdXpXgX5X;XY.S.XX-.^ ) ' I } hXjXkXlXzXxXcXvXL c i y r 4 * bXnXmXMXNXBXVXCXZXAXSXDXDXDXFXAXZXCXVXGXNXHXmXnXbX* 4 r y i c L vXcXxXzXlXJXjXKX} I ' ) ^ Q e.W.7X;X5XgXpXpXLXaXPXpXLXaXaXdXqX"
};
