/* XPM */
static const char *bg_black_xpm[] = {
/* columns rows colors chars-per-pixel */
"104 37 475 2",
"=. c #858584",
"&. c #858585",
"Z  c #8E8E8D",
"O+ c #8E8E8E",
"-  c #979796",
"<  c #979797",
"hO c #2D2D2C",
"lO c #2D2D2D",
"DO c #2D2D2E",
"{o c #303130",
"1O c #303131",
"8O c #333232",
";O c #333233",
"Io c #363636",
"6O c #363637",
"7o c #393A39",
"no c #393A3A",
"Fo c #3C3B3B",
"_o c #3C3B3C",
"Qo c #3F3F3E",
"AX c #3F3F3F",
"DX c #3F3F40",
";X c #424342",
"vX c #424343",
"ao c #454444",
"eo c #454445",
"ZX c #484847",
"]O c #B5B6B6",
"N. c #484848",
"%X c #484849",
"kX c #4B4C4B",
"#o c #4B4C4C",
"OX c #4E4D4D",
"@o c #4E4D4E",
"gX c #515150",
"0X c #515151",
"K. c #515152",
"LX c #545554",
"{. c #545555",
"PX c #575656",
"f  c #C4C4C4",
"sX c #575657",
"pX c #5A5A59",
"~. c #5A5A5A",
"^. c #5A5A5B",
"WO c #757575",
"i. c #7E7E7F",
"[  c #878788",
"m  c #909090",
"l  c #909091",
";+ c #262626",
"%  c #999998",
"~O c #99999A",
"*O c #2F2F2F",
"tO c #2F2F30",
"AO c #323332",
"}o c #323333",
"Ro c #353434",
"}  c #A2A2A2",
"#O c #353435",
"Lo c #383838",
"co c #383839",
"Wo c #3B3C3B",
" + c #ABABAA",
"1o c #3B3C3C",
"+O c #3E3D3E",
"Do c #414140",
"l. c #414141",
"Ao c #414142",
"c. c #444544",
"=o c #444545",
"=X c #474646",
"xX c #474647",
"CX c #4A4A49",
"Z. c #4A4A4A",
"to c #4A4A4B",
"Vo c #4D4E4D",
"D  c #BAB9BA",
"!X c #4D4E4E",
"WX c #504F4F",
"5o c #504F50",
"f. c #535352",
"d. c #535353",
"}. c #535354",
"tX c #565757",
"UX c #595858",
"_. c #595859",
"&  c #D8D8D8",
"%+ c #6E6E6D",
"RO c #6E6E6E",
"EO c #717271",
"7. c #808080",
"4. c #808081",
"^  c #898989",
"~  c #89898A",
"u  c #929292",
"s  c #929293",
"qO c #2B2C2C",
"nO c #2E2D2D",
",O c #2E2D2E",
"MO c #313130",
"=O c #313131",
"]o c #343534",
"|o c #343535",
"'o c #373636",
"(O c #A4A4A5",
":O c #373637",
"Ho c #3A3A39",
"Uo c #3A3A3A",
"Go c #3A3A3B",
"'X c #3D3E3D",
"go c #3D3E3E",
"wo c #403F3F",
"Mo c #403F40",
"(o c #434342",
"z. c #434343",
"<X c #434344",
"*X c #464746",
"4X c #464747",
"|O c #B6B6B6",
"OO c #494848",
"[O c #B6B6B7",
".o c #494849",
"VX c #4C4C4B",
"S. c #4C4C4C",
"D. c #4C4C4D",
"EX c #4F504F",
"H. c #4F5050",
"z  c #BFBFBF",
"qX c #525151",
"fX c #525152",
"uo c #555554",
"Y. c #555555",
"[. c #555556",
"Q. c #585958",
"`. c #585959",
"/. c #5B5A5A",
"IO c #5E5E5E",
"u. c #7F7E7E",
"y. c #7F7E7F",
";. c #828282",
"-. c #828283",
"]  c #888787",
"`  c #888788",
"G  c #8B8B8B",
"J  c #8B8B8C",
"3. c #8E8F8F",
"j  c #919091",
"GO c #272626",
"5  c #949494",
"LO c #272627",
"6  c #949495",
"jO c #2A2A2A",
"bO c #2D2E2D",
"=+ c #2D2E2E",
"X+ c #9D9D9D",
"0O c #302F2F",
"yO c #302F30",
"%O c #333332",
"-O c #333333",
"$O c #333334",
"Eo c #363736",
"iO c #363737",
"vo c #393838",
"bo c #393839",
"0o c #3C3C3B",
"2o c #3C3C3C",
")o c #3F403F",
"-o c #3F4040",
"do c #424141",
"MX c #424142",
" o c #454544",
"v. c #454545",
"po c #454546",
"M. c #484948",
"5O c #484949",
"{O c #B8B8B8",
"Bo c #4B4A4A",
"6X c #4B4A4B",
"8X c #4E4E4D",
"oX c #4E4E4E",
"^o c #4E4E4F",
"BX c #515252",
"dX c #545353",
"P. c #545354",
"E. c #575757",
"IX c #575758",
"). c #5A5B5A",
"d  c #CACAC9",
"*+ c #5D5C5C",
"e  c #CACACA",
"2  c #D3D3D4",
"TO c #696969",
"$+ c #727272",
"e. c #7E7F7E",
"r. c #7E7F7F",
"8. c #818080",
"9. c #818081",
"#. c #848484",
"$. c #848485",
"'  c #878888",
"/  c #8A8989",
"!  c #8A898A",
"C  c #8D8D8D",
"N  c #8D8D8E",
"h  c #909191",
"a  c #939292",
"JO c #262726",
"r  c #939293",
"KO c #262727",
"xO c #292828",
",  c #969696",
"=  c #969697",
"o+ c #999A9A",
"kO c #2C2C2C",
"<O c #2F302F",
"dO c #2F3030",
"2O c #323131",
"sO c #323132",
"zo c #353535",
"4O c #353536",
"XO c #383939",
"(  c #A8A8A7",
")O c #A8A8A8",
"8o c #3B3A3A",
"mo c #3B3A3B",
"]X c #3E3E3D",
"mX c #3E3E3E",
")X c #3E3E3F",
">X c #414241",
"|X c #414242",
"`O c #B1B1B1",
"-X c #444343",
"/X c #444344",
"No c #474746",
"n. c #474747",
"%o c #474748",
"lX c #4A4B4A",
"HX c #4A4B4B",
"io c #4D4C4C",
"+X c #4D4C4D",
"4o c #50504F",
".X c #505050",
"J. c #505051",
"wX c #535453",
"L. c #535454",
"U. c #565555",
"uX c #595958",
"!. c #595959",
"o  c #D8D9D8",
"p. c #7D7D7D",
"0. c #808180",
"q. c #808181",
">. c #838282",
",. c #838283",
"|  c #868686",
"X. c #868687",
"W  c #898A89",
"E  c #898A8A",
"U  c #8C8B8B",
"L  c #8C8B8C",
"b  c #8F8F8F",
"x  c #8F8F90",
"i  c #929392",
"t  c #929393",
"0  c #959494",
"7  c #959495",
"+  c #989898",
"@  c #989899",
"gO c #2E2E2D",
"wO c #2E2E2E",
"fO c #2E2E2F",
"BO c #313231",
"/O c #A1A1A1",
"VO c #343333",
"uO c #343334",
" O c #373736",
"6o c #373737",
".O c #373738",
"ko c #3A3B3A",
"`X c #3A3B3B",
"ho c #3D3C3C",
"SX c #3D3C3D",
"{X c #40403F",
":X c #404040",
"!o c #404041",
"GX c #434443",
"so c #434444",
"'O c #B3B3B3",
"2X c #464545",
"cX c #464546",
"Zo c #494948",
"$X c #494949",
"V. c #49494A",
"yo c #4C4D4C",
"oO c #4C4D4D",
"jX c #4F4E4E",
"Co c #4F4E4F",
" X c #525251",
"k. c #525252",
"j. c #525253",
"]. c #555655",
"T. c #555656",
"YX c #585757",
"oo c #585758",
"(. c #5B5B5B",
"3  c #CECECF",
"YO c #646464",
"*  c #D4D3D4",
"QO c #797A7A",
"t. c #7F7F7E",
"w. c #7F7F7F",
"<. c #828382",
"1. c #828383",
"+. c #858484",
"*. c #858485",
"_  c #888887",
")  c #888888",
"P  c #8B8C8B",
"K  c #8B8C8C",
"B  c #8E8D8D",
"V  c #8E8D8E",
"k  c #919190",
"g  c #919191",
"-+ c #272726",
"9  c #949594",
"HO c #272727",
"8  c #949595",
">  c #979696",
"FO c #2A2B2A",
":  c #979697",
"cO c #2A2B2B",
"vO c #2D2C2D",
"rO c #30302F",
"^O c #9D9E9E",
"9O c #303030",
"3O c #333434",
"aO c #363535",
"Jo c #393938",
",o c #393939",
"CO c #39393A",
"ZO c #3C3D3C",
">o c #3C3D3D",
"fo c #3F3E3E",
"qo c #3F3E3F",
"nX c #424241",
"   c #424242",
"~o c #424243",
"^X c #454645",
"/o c #454646",
"~X c #484747",
"&X c #484748",
"$o c #4B4B4A",
"#X c #4B4B4B",
"@X c #4B4B4C",
"QX c #4E4F4E",
"9X c #4E4F4F",
"RX c #515050",
"KX c #515051",
"|. c #545453",
"eX c #545454",
"TX c #545455",
"aX c #575857",
"UO c #606161",
"!O c #7E7D7E",
"6. c #818180",
"5. c #818181",
"++ c #818182",
"@. c #848584",
"%. c #848585",
" . c #878686",
"o. c #878687",
"Q  c #8A8A89",
"R  c #8A8A8A",
"S  c #8D8E8D",
"A  c #8D8E8E",
"n  c #908F8F",
"v  c #908F90",
"p  c #939392",
"y  c #939393",
";  c #969796",
"1  c #969797",
"$  c #999898",
"O. c #9C9C9C",
"SO c #2F2E2F",
"PO c #323231",
"&O c #323232",
"To c #323233",
".+ c #A5A5A4",
"Yo c #353636",
"Ko c #383737",
"xo c #383738",
"9o c #3B3B3A",
"<o c #3B3B3B",
"{  c #A8A9A9",
"jo c #3B3B3C",
"_X c #3E3F3E",
"[X c #3E3F3F",
"T  c #AEAEAE",
"(X c #414040",
"}X c #414041",
"1X c #444443",
"x. c #444444",
"*o c #444445",
"m. c #474847",
"}O c #B7B7B6",
"5X c #474848",
"ro c #4A4949",
"zX c #4A494A",
"NX c #4D4D4C",
"F. c #4D4D4D",
"JX c #4D4D4E",
"hX c #505150",
"+o c #505151",
"h. c #535252",
"s. c #535253",
"rX c #565655",
"R. c #565656",
"'. c #565657",
"X  c #DBDBDB",
"#+ c #7A7A7A",
"@+ c #7D7E7E",
":. c #838382",
"2. c #838383",
".. c #868786",
"H  c #8C8C8B",
"I  c #8C8C8C",
"c  c #8F908F",
".  c #FFFFFF",
"q  c #959594",
"4  c #959595",
"O  c #989998",
"zO c #2B2B2B",
"#  c #989999",
"mO c #2E2F2E",
"eO c #2E2F2F",
"NO c #313030",
">O c #313031",
"7O c #343433",
"Po c #343434",
"[o c #343435",
"`o c #373837",
"pO c #373838",
"@O c #3A3939",
"lo c #3A393A",
"_O c #AAABAA",
":o c #3D3D3C",
"3o c #3D3D3D",
";o c #3D3D3E",
"FX c #404140",
"So c #404141",
",X c #434242",
"bX c #434243",
"F  c #B3B4B3",
"&o c #464645",
"Y  c #B3B4B4",
"b. c #464646",
"3X c #464647",
"B. c #494A49",
"C. c #494A4A",
"M  c #B9B9B9",
"A. c #4C4B4B",
"7X c #4C4B4C",
"Xo c #4F4F4E",
"G. c #4F4F4F",
"XX c #4F4F50",
"a. c #525352",
"g. c #525353",
"I. c #555454",
"Oo c #555455",
"yX c #585857",
"W. c #585858",
"iX c #585859",
"w  c #CECFCE",
"&+ c #646565",
/* pixels */
"                                                                                                                                                                                                              . ",
"X X X X X X X X X X X X X X X X X X X X X X X X X X X X X X X X X X X X X X X X X X X X X X X X X X X X X X X X X X X X X X X X X X X X X X X X X X X X X X X X X X X X X X X X X X X X X X X X X X X X X X X   ",
"o O + + + O O @ + # + @ @ $ @ + + + @ + + + + O + + $ + + @ + + @ + + @ O @ + O @ $ + O $ O + + @ $ $ % + + + + + + + + + + O + + @ + O $ + + + @ + + + + + + + O # + + $ + $ + + + + % $ + @ O $ + + + + @ &   ",
"* = - = ; : = > = = , , ; , , - = = , < - ; , - - < = : > 1 ; 1 , = = , 1 - - , > , - - , 1 > > 1 = 1 = > ; , < ; , , ; , ; ; = > , , , ; , < > : < 1 , 1 , : < - - - ; < ; - > - : ; , ; ; > , , : ; ; ; 1 2   ",
"3 4 5 6 7 8 7 9 8 5 0 8 8 9 4 6 9 4 4 8 7 5 7 8 6 4 7 8 q 0 9 4 q q 5 9 q 6 7 5 9 8 6 4 4 7 7 q 7 7 0 6 5 4 4 5 0 0 0 6 8 0 8 q 9 9 7 5 7 6 8 6 4 4 4 4 7 5 0 7 4 q q 0 q 7 7 5 0 q 7 8 6 9 4 q q 4 7 q 8 6 w   ",
"e r t r y y y y t r r y y y y u i y y t i p a y t t y r r i t y y t y p y y y i y y y y y t a r r y a y a t r p t u t t y y a r r y i s p t y p p y r y y t r y t p y t y y i y r y a r p p y t r y p y s t d   ",
"f g g h g g g g g g g j g g k g g g g g g k g j g g k j g g g g g g g g g g g g g g g h g k g g g g h j g h g g g g g g g g g h g g g g g k g g g j g g g j g g g j h k g g g g g h h g l g h g g j g g g g f   ",
"z x x c x c v c x b b b b x b b b b n b b b b c b b b b b b b b c b b b n b x b b c n b c b x b c n c c b c c c b b b b b c n b b b b b b b b x v b b b b b c b b b b b b b b c x b b m x b b b b b b x b b z   ",
"M N B V C C N N V C Z Z A B N C B B N C B C S N V A C C C S C N C Z C C V S S B A S B Z A Z B C S C S S N C S N S S C S N S C N Z V B Z A N B B B C N A Z N C C B S V A C C C S C S C C N B S V C S B C Z A D   ",
"F G H J K L P L I G P U P H P H H L G P L H P I P I P K P J L G L I G K J U I J K L U P J K J L J U J K L G U J L H P K P L G H H P K L G L U P I L U K U P G P G P L U I L L I H G U H P L I J L H U K J L Y   ",
"T R E W Q ! ! W ~ E E ! E W E R R W ! ! R R Q R E W ! E ~ E E R R Q ! ! W E ! ! ^ R ! E W R E E R Q R ! ^ ! R ^ E W ! Q ! / R ! R ! R R R ! ! R R ! / E R Q W Q Q ! R R E R R Q R ~ R R R Q R W ~ R R Q ! W T   ",
"( ) ) ) ) ) ) _ ) ) ) ) ) _ ) ) ` ) ) ) ' ) ) ' ) ) ) ) ) ) ) ) ` ) ) ` ) ) ) ) _ ) ) ] ) ) _ _ ) ) ) ) ) ) ) ) ` ) ) ` ` [ ' ) ` ) ) ) ' ) ) _ ) ) ) ) ) ) ` ) ) ' _ ' ' ) _ ) ) ) ) ) ) _ ] ` ) ` ) ) ) _ {   ",
"} | | | | | | | | | |  .| | | | | | | | | | | | | | | | | | | | | | ..| | | | | | ..| | | | | ..| | | | | | | | | | | ..| | |  .| | | | | | X.| | | | | | | | | |  .| | | | | | | | | ..| |  .o.| | ..| | ..}   ",
"O.+.@.#.+.#.$.@.@.#.#.#.@.#.%.+.@.#.@.#.+.@.#.@.#.#.+.+.#.$.#.&.#.#.$.+.+.*.*.#.#.#.%.%.#.+.@.+.#.#.+.$.*.+.#.#.#.+.#.$.#.*.=.&.#.#.@.#.@.$.*.#.#.#.#.#.#.#.$.$.+.#.$.@.#.@.$.#.+.%.#.+.@.%.%.#.#.+.+.+.#.#.O.  ",
"4 -.;.:.;.>.>.,.,.,.<.,.1.,.1.>.:.1.<.<.1.-.:.<.-.-.,.2.:.,.>.,.,.<.:.2.>.;.<.:.;.>.:.1.>.-.<.,.:.;.<.-.;.1.-.2.-.;.-.;.;.2.>.;.-.1.<.<.1.>.:.:.,.;.;.;.-.;.1.>.>.-.<.>.;.1.2.<.1.1.-.-.,.>.<.>.<.2.-.>.1.,.,   ",
"3.4.5.6.7.5.5.6.5.6.8.9.0.5.q.9.q.6.5.q.q.9.9.6.6.5.9.6.q.5.7.4.7.6.6.9.q.6.q.5.5.9.5.6.0.8.7.q.4.5.5.5.9.6.5.5.6.5.7.9.5.q.0.q.0.5.5.4.8.5.6.6.5.q.0.q.4.7.9.5.9.6.5.5.9.5.9.0.5.5.q.5.5.8.8.5.q.5.6.0.5.5.b   ",
"^ w.e.w.r.e.w.w.t.t.y.w.w.r.w.y.e.w.w.w.w.w.w.w.w.u.r.w.w.w.r.w.y.w.w.u.y.t.w.w.w.w.r.r.w.w.w.w.t.w.w.w.r.w.t.w.y.w.t.i.w.y.w.w.w.w.w.r.w.r.r.t.y.r.w.y.w.t.u.w.t.w.w.r.r.r.w.y.w.w.w.w.w.w.t.y.w.w.w.r.w.y._   ",
";.p.p.p.p.p.p.p.p.p.p.p.p.p.p.p.p.p.p.p.p.p.p.p.p.p.p.p.p.p.p.p.p.p.p.p.p.p.p.p.p.p.p.p.p.p.p.p.p.p.p.p.p.p.p.p.p.p.p.p.p.p.p.p.p.p.p.p.p.p.p.p.p.p.p.p.p.p.p.p.p.p.p.p.p.p.p.p.p.p.p.p.p.p.p.p.p.p.p.p.p.p.;.  ",
"a.s.d.d.d.f.s.g.d.a.s.h.g.s.g.d.d.f.d.g.d.s.s.s.d.d.f.d.d.s.f.s.f.d.d.g.d.j.j.j.d.s.d.d.d.k.d.d.d.s.f.g.s.f.g.s.d.d.f.d.d.s.s.d.d.h.g.f.f.d.a.s.f.d.d.d.j.d.g.s.s.h.f.g.s.h.j.a.f.j.j.h.f.h.g.s.f.f.d.d.g.g.d.  ",
"l.z.z.x.c.v.v.b.n.m.M.N.B.V.C.Z.A.S.D.D.F.F.G.G.G.H.J.K.k.a.k.L.P.I.U.Y.T.Y.R.E.E.W.W.Q.!.~.^./.(.(.(.(.(.(.~.~.~.).!._.`.W.E.E.'.R.].[.Y.{.}.|.j.j.k. X.X.XG.XXoXF.OXS.+X@X#X@XV.V.$XM.%X&X*X=Xv.v.x.-X-X-X;X  ",
":X>X  ,X;X<X1Xv.v.2X3X4X5XN.M.C.Z.6X#X#X7XA.F.8XoX9X9X.X0XJ.0XqXg.wXeXeXeX{.R.rXtXE.E.yXuX_.iXpX~.~.~.~.~.~.pX~.uXQ.iXaXE.E.sXrXR.{.eXeXdX}.s.k.fXgXhXXXG.jXoXOXS.S.kX#X#XlXzXZ.$XN.N.*XxXcXv.v.<X1XvXbX  nXl.  ",
"mX:Xl.l.l.MX  x.x.1Xv.v.b.n.n.N.N.$XZ.Z.Z.#XS.S.NXF.F.oXG..X.X.X0X XBXg.d.d.eXY.R.R.R.E.E.W.W.`.`.!.!.!.!.!.!.!.W.E.E.sXR.R.R.Y.eXd.d.d.k.k.0X.X.X.XG.jXF.F.F.VXS.#XCXzXC.$XZXN.n.=Xb.v.v.x.x.x.    l.l.l.:XAX  ",
"SXmXAXDXAXFXl.  vX  GXz.2X2XcXxX=X&XN.N.$X$XZ.HX#XS.S.JXF.oXH.H.G..XKX0Xs.a.h.d.LXeXT.R.R.PXE.IXiXUXW.!.Q.`.Q.yXYXtXR.R.Y.TXLXd.k.h.k.0XRX.XEXH.WXQX!XOXS.S.7XZ.#X$X$XN.N.~Xb.4Xv.^Xv./XGX  ,X  FX(X:XDX:X)X_X  ",
"`XSX'XmX]X[X{Xl.}X}X|XnXx.-Xx. o ob.n.m.N.N..oM.Z.HX#XVXkXNXoX8XXooXEXG.RXk. Xh.a.L.{.Y.Y.T.T.'.ooW.W.W.ooW.yXsXrXrXY.OoOoP.f.qXfXk.+o.X.XXoG.!X@o+X#oVX$o#X6XN.M.~X%oZXn.&o*o=ox.-Xx.z.>X(X}X}X-oAX'X;omX:o>o  ",
",o<o1o2o2o3o]XAXAXAX:X:X    vXz.z.x.v.&ob.b.n.n.$X$XZ.Z.Z.#XS.F.F.F.oXoXG.4o5o0X0Xk.d.f.eXeXY.OoR.rXE.E.E.R.R.R.Y.eXeXd.d.fX0X0X5o.XG.oXoXF.F.F.S.#XZ.Z.Z.$X$Xn.n.b.b.b. ox.z.z.z.    l.:XAXAXAXmX:o2o2o2o`X<o  ",
"6o7o8o9o<o0oSX;o3oqomXwo(X}XnX>XMXvXz.eo*ob.v.2Xn.&X%X$X$Xroto7XS.yoS.yo8XG.WX.X.XhXBXj.d.}.eXLXeXY.rXrXT.].LXuoeXeXd.0X0X.X.X.XXXoXF.S.ioS.S.#XlXZ.$X$XN.ZXn.v.cXpoaoeosoz.>XnXdol.:XAXfofo'Xgohojoko8o8olo,o  ",
"zoxocovobonomo0o<o:oSXmXmXmXMoFX(X}X  bXbXsox.x.pob.NoZX~X$XM.B.HXBoS.#oF.F.VoCoXoEX4oKXk.qXd.d.wX|.{.Y.LX|.d.d.f. XqXhXH.4oG.G.@o+X7X7X7XHXHXZ.N.ZoZXN.*X&o&ox.x.1Xz.,XAoMXSoDo:X[XAXmXho>o1oFoGoHoloJoJoKoLo  ",
"PoIo6o6o6oLo,oUolo<o<o2o3o3omXAXAX:X:Xl.l.  z.z.x.x.v.b.b.n.n.N.$X$XZ.Z.#X#XS.F.F.oXG.G..X.X0XfXd.d.d.eXd.d.d.k.KXH..XG.G.oXF.F.S.#X#XZ.Z.$X$XN.n.n.b.b.v.x.x.z.z.  l.l.:X:XAXAXmX3o3o2o<o<onoUo,oLo6o6o6oYoIo  ",
"ToRoYoEoIo6oKovocono8o8oWo<o>omX3oQomX-o{X!o|XnX  ~oGXx.*ov.4Xb.n.n..oN.$XBoZ.7XA.S.8XoXoXXo5o0X.X0X Xs.BXqXhXJ..X^ojXoXOXD.@X#XZ.Z.B.N.N.%on.=Xb./oaox.x.(obX;Xl.Do-o)o_X_Xgo'XSX_o<o9oGo,oJoLo`oEo'oIozo]o[o  ",
"{o}oPo|ozo|oIo O6o.OXOJoUoHo<o0o_oSX3ogomXmXAX{Xl.l.MX,Xz.x.eob.cXcXNon.&X.oCXZ.V.6XS.kXoOoXoX9XCoH.5o5o4o9XG.QXoXoXoOkX#oto$XzXC.OO5Xn.b.&ob.&ov.1Xz.bX  l.l.Do{XqomX+O>o2o_o_oGo@OnoXO,oxoEoIoYoPo#O#O$O%O&O  ",
"*O=O&O-O;O-OPozozoIo6o6oLoLo,oUoUo<o2o2o2o3omXmXQoMo:Xl.l.>Xz.z.v.v.v.v.b.n.n.N.$X$XC.Z.#XS.S.F.F.F.F.F.F.F.F.F.S.S.#XZ.Z.$X$X$Xn.xXb.v.v.v.v.z.z.  l.l.:X:XAXmXmX3o2o2o2o<oUoUo,oLoLo6o:OIozozoPo-O-O-O&O=O>O  ",
",O<O1O=O2O=O%O3O-OPoIo4OIoIo.OcovoUokoUo<o0oho2o'XmXAX-oAX:Xl.>X<Xz.x.x.x.v./o=XN.&X5O$X$X$X#Xto#XS.oOyoS.@XA.HXtoB.$X$XN.%o~Xb.v.v.eox.x.z.GXl.l.FXDX-oAX_X3o:ohojo<oGoUo7oboco.OIo6Ozo4O[o7O-O8O=O=O=O9O0O0O  ",
"qOwOeOrOtOyOrO&O=O-OPouO#O#OYoiOiOxo,o,oHono`Xmo_o3o>omXqoQo-owo:X  MXz.bX1X1Xv./opo3Xn.&XN.N.OO.oroV.V.B.M.$X$X.oN.5X5Xn.b.&o*o<X/X(oz.|X  (XMo{XAX[XmX3o>ojo<omoUoHovo,opOIo:OaOzo|oPo3O%O&OsO<OdO*OrOfOgOhO  ",
"jOkOlOwOwO*O*O9O9O=O&O&O-OPoPozozoIo6o6oLopO,o,oUo<o<o2o3o3o+OmXAX:X:Xl.l.  z.z.z.x.x.v.b.b.n.n.N.N.N.N.N.N.N.n.n.cXb.v.x.x.z.z.z.  l.l.:X:XAXmXmXmX3o_o<o<oUo,o,opOLo6o6oIozozoPoPo-O&O&O=O9O*O*O*OwOwOlOkOzO  ",
"xOcOzOvOlObOnOlOmO<OMONOBO%O}o8OVOzo4Ozo6OIoKoLoLo7oCOGo<o1oZO3o3o'X[XMowoDol.l.,X  ~o;Xz.x.ao*o2X^Xv.pov.2X2Xx.c.=o-X;XbX(o;Xl.l.:Xwo)XQo3o3o3o:o<o<oUo,o,oLoLopO6o'oIozoRoVO;O8OAOBO9OMO<OSObODObOkOvOFOkOvO  ",
"GOHOHOGOHOJOGOKOLOHOKOHOjOlOPO6o9o_X  N.@XXXeXW.IOUOYOTOROEOWOQO!O;.| R Z u , ~O^O/O(O)O_OT `O'O]O[O{O{O{O}O|O'O`OT  +)O.+/OX+o+4 u O+R | ++@+#+WO$+%+TO&+UO*+W.eXWXkXN.x.AXmoiOBO=+jOHOHO-+GO;+HO-+GOGOKOvOvO  ",
"                                                                                                                                                                                                                "
};
