<?xml version="1.0" encoding="UTF-8" standalone="no"?>
<svg
   xmlns:dc="http://purl.org/dc/elements/1.1/"
   xmlns:cc="http://creativecommons.org/ns#"
   xmlns:rdf="http://www.w3.org/1999/02/22-rdf-syntax-ns#"
   xmlns:svg="http://www.w3.org/2000/svg"
   xmlns="http://www.w3.org/2000/svg"
   xmlns:sodipodi="http://sodipodi.sourceforge.net/DTD/sodipodi-0.dtd"
   xmlns:inkscape="http://www.inkscape.org/namespaces/inkscape"
   enable-background="new 0 0 128 128"
   id="Layer_1"
   version="1.1"
   viewBox="0 0 128 128"
   xml:space="preserve"
   sodipodi:docname="clean.svg"
   inkscape:version="0.92.3 (2405546, 2018-03-11)"><metadata
     id="metadata19"><rdf:RDF><cc:Work
         rdf:about=""><dc:format>image/svg+xml</dc:format><dc:type
           rdf:resource="http://purl.org/dc/dcmitype/StillImage" /><dc:title /></cc:Work></rdf:RDF></metadata><defs
     id="defs17" /><sodipodi:namedview
     pagecolor="#ffffff"
     bordercolor="#666666"
     borderopacity="1"
     objecttolerance="10"
     gridtolerance="10"
     guidetolerance="10"
     inkscape:pageopacity="0"
     inkscape:pageshadow="2"
     inkscape:window-width="1257"
     inkscape:window-height="828"
     id="namedview15"
     showgrid="false"
     inkscape:zoom="1.84375"
     inkscape:cx="-30.915254"
     inkscape:cy="71.322034"
     inkscape:window-x="0"
     inkscape:window-y="0"
     inkscape:window-maximized="0"
     inkscape:current-layer="Layer_1" /><g
     id="g832"
     transform="matrix(1.2307692,0,0,1.2307692,-14.769229,-14.769227)"
     style="fill:#707070;fill-opacity:1"><path
       id="path2"
       d="M 94.2,40 90,108.1 c -0.1,2.1 -1.9,3.9 -4,3.9 H 42 c -2.1,0 -3.9,-1.8 -4,-3.9 L 33.8,40 h -4 l 4.2,68.4 c 0.3,4.2 3.8,7.6 8,7.6 h 44 c 4.2,0 7.7,-3.4 8,-7.6 L 98.2,40 Z"
       inkscape:connector-curvature="0"
       style="fill:#707070;fill-opacity:1" /><path
       id="path4"
       d="M 102,22 H 26 c -2.2,0 -4,1.8 -4,4 v 8 c 0,2.2 1.8,4 4,4 h 76 c 2.2,0 4,-1.8 4,-4 v -8 c 0,-2.2 -1.8,-4 -4,-4 z m 0,12 H 26 v -8 h 76 z"
       inkscape:connector-curvature="0"
       style="fill:#707070;fill-opacity:1" /><path
       id="path6"
       d="m 65,103.7 c -0.6,0 -1,-0.4 -1,-1 V 45 c 0,-0.6 0.4,-1 1,-1 0.6,0 1,0.4 1,1 v 57.7 c 0,0.5 -0.4,1 -1,1 z"
       inkscape:connector-curvature="0"
       style="fill:#707070;fill-opacity:1" /><path
       id="path8"
       d="m 79.8,103.7 c 0,0 0,0 0,0 -0.6,0 -1,-0.5 -1,-1 L 81,45 c 0,-0.6 0.5,-1 1,-1 0.6,0 1,0.5 1,1 l -2.2,57.7 c 0,0.5 -0.4,1 -1,1 z"
       inkscape:connector-curvature="0"
       style="fill:#707070;fill-opacity:1" /><path
       id="path10"
       d="m 49.7,103.7 c -0.5,0 -1,-0.4 -1,-1 L 46.2,45 c 0,-0.6 0.4,-1 1,-1 0.5,0 1,0.4 1,1 l 2.5,57.7 c 0,0.5 -0.4,0.9 -1,1 0,0 0,0 0,0 z"
       inkscape:connector-curvature="0"
       style="fill:#707070;fill-opacity:1" /><path
       id="path12"
       d="m 53,20 v -2 c 0,-1.1 0.9,-2 2,-2 h 20 c 1.1,0 2,0.9 2,2 v 2 h 4 v -2 c 0,-3.3 -2.7,-6 -6,-6 H 55 c -3.3,0 -6,2.7 -6,6 v 2 z"
       inkscape:connector-curvature="0"
       style="fill:#707070;fill-opacity:1" /></g></svg>