<?xml version="1.0" encoding="UTF-8" standalone="no"?>
<!-- Created with Inkscape (http://www.inkscape.org/) -->

<svg
   xmlns:dc="http://purl.org/dc/elements/1.1/"
   xmlns:cc="http://creativecommons.org/ns#"
   xmlns:rdf="http://www.w3.org/1999/02/22-rdf-syntax-ns#"
   xmlns:svg="http://www.w3.org/2000/svg"
   xmlns="http://www.w3.org/2000/svg"
   xmlns:sodipodi="http://sodipodi.sourceforge.net/DTD/sodipodi-0.dtd"
   xmlns:inkscape="http://www.inkscape.org/namespaces/inkscape"
   width="32"
   height="32"
   id="svg3016"
   version="1.1"
   inkscape:version="0.48.5 r10040"
   sodipodi:docname="codelite-logo-low-res-root.svg">
  <defs
     id="defs3018" />
  <sodipodi:namedview
     id="base"
     pagecolor="#ffffff"
     bordercolor="#666666"
     borderopacity="1.0"
     inkscape:pageopacity="0.0"
     inkscape:pageshadow="2"
     inkscape:zoom="5"
     inkscape:cx="28.787601"
     inkscape:cy="7.2091335"
     inkscape:document-units="px"
     inkscape:current-layer="layer1"
     showgrid="false"
     inkscape:showpageshadow="false"
     inkscape:window-width="1872"
     inkscape:window-height="1027"
     inkscape:window-x="1920"
     inkscape:window-y="31"
     inkscape:window-maximized="1"
     showborder="false" />
  <metadata
     id="metadata3021">
    <rdf:RDF>
      <cc:Work
         rdf:about="">
        <dc:format>image/svg+xml</dc:format>
        <dc:type
           rdf:resource="http://purl.org/dc/dcmitype/StillImage" />
        <dc:title />
      </cc:Work>
    </rdf:RDF>
  </metadata>
  <g
     inkscape:label="Layer 1"
     inkscape:groupmode="layer"
     id="layer1"
     transform="translate(0,-1020.3622)">
    <rect
       style="fill:#1190e6;fill-opacity:1;stroke:none"
       id="rect3024"
       width="15"
       height="15"
       x="0"
       y="1020.3622" />
    <rect
       style="fill:#ffd748;fill-opacity:1;stroke:none"
       id="rect3024-2"
       width="15"
       height="15"
       x="0"
       y="1037.3622" />
    <rect
       style="fill:#6eca60;fill-opacity:1;stroke:none"
       id="rect3024-0"
       width="15"
       height="15"
       x="17"
       y="1037.3622" />
    <g
       transform="matrix(1.2888888,0,0,1.2285714,0.32093437,-241.66693)"
       id="g4">
      <path
         style="fill:#95a5a6"
         inkscape:connector-curvature="0"
         d="m 3,1031.4 v 10 c 0,4.2 3.6322,8 9,10 5.368,-2 9,-5.8 9,-10 v -10 H 3 z"
         id="path6" />
      <path
         style="fill:#ecf0f1"
         inkscape:connector-curvature="0"
         d="m 3,1030.4 v 10 c 0,4.2 3.6322,8 9,10 5.368,-2 9,-5.8 9,-10 v -10 H 3 z"
         id="path8" />
      <path
         style="fill:#bdc3c7"
         inkscape:connector-curvature="0"
         d="m 3,1030.4 v 10 c 0,4.2 3.6322,8 9,10 v -20 H 3 z"
         id="path10" />
      <path
         style="fill:#c0392b"
         inkscape:connector-curvature="0"
         d="m 5,1032.4 v 8 c 0,3.4 2.8251,6.4 7,8 4.175,-1.6 7,-4.6 7,-8 v -8 H 5 z"
         id="path12" />
      <path
         style="fill:#e74c3c"
         inkscape:connector-curvature="0"
         d="m 12,1032.4 v 16 c 4.175,-1.6 7,-4.6 7,-8 v -8 h -7 z"
         id="path14" />
      <path
         style="fill:#c0392b"
         inkscape:connector-curvature="0"
         d="m 9.1562,1036.5 -1.4062,1.4 2.844,2.9 -2.844,2.8 1.4062,1.4 2.8438,-2.8 2.844,2.8 1.406,-1.4 -2.844,-2.8 2.844,-2.8 -1.438,-1.5 -2.812,2.9 -2.8438,-2.9 z"
         id="path16" />
      <path
         style="fill:#ecf0f1"
         inkscape:connector-curvature="0"
         d="m 9.1562,1035.5 -1.4062,1.4 2.844,2.9 -2.844,2.8 1.4062,1.4 2.8438,-2.8 2.844,2.8 1.406,-1.4 -2.844,-2.8 2.844,-2.8 -1.438,-1.5 -2.812,2.9 -2.8438,-2.9 z"
         id="path18" />
    </g>
  </g>
</svg>
