<?xml version="1.0" encoding="UTF-8" standalone="no"?>
<svg
   xmlns:dc="http://purl.org/dc/elements/1.1/"
   xmlns:cc="http://creativecommons.org/ns#"
   xmlns:rdf="http://www.w3.org/1999/02/22-rdf-syntax-ns#"
   xmlns:svg="http://www.w3.org/2000/svg"
   xmlns="http://www.w3.org/2000/svg"
   xmlns:sodipodi="http://sodipodi.sourceforge.net/DTD/sodipodi-0.dtd"
   xmlns:inkscape="http://www.inkscape.org/namespaces/inkscape"
   enable-background="new 0 0 512 512"
   id="Layer_1"
   version="1.1"
   viewBox="0 0 512 512"
   xml:space="preserve"
   sodipodi:docname="cog.svg"
   inkscape:version="0.92.3 (2405546, 2018-03-11)"><metadata
     id="metadata13"><rdf:RDF><cc:Work
         rdf:about=""><dc:format>image/svg+xml</dc:format><dc:type
           rdf:resource="http://purl.org/dc/dcmitype/StillImage" /></cc:Work></rdf:RDF></metadata><defs
     id="defs11" /><sodipodi:namedview
     pagecolor="#ffffff"
     bordercolor="#666666"
     borderopacity="1"
     objecttolerance="10"
     gridtolerance="10"
     guidetolerance="10"
     inkscape:pageopacity="0"
     inkscape:pageshadow="2"
     inkscape:window-width="1344"
     inkscape:window-height="936"
     id="namedview9"
     showgrid="false"
     inkscape:zoom="0.4609375"
     inkscape:cx="-123.66102"
     inkscape:cy="256"
     inkscape:window-x="0"
     inkscape:window-y="0"
     inkscape:window-maximized="0"
     inkscape:current-layer="Layer_1" /><g
     id="g6"
     style="fill:#3465a4;fill-opacity:1"><path
       d="M256,153.5c56.5,0,102.5,46,102.5,102.5s-46,102.5-102.5,102.5s-102.5-46-102.5-102.5   S199.5,153.5,256,153.5 M256,131.5c-68.6,0-124.5,55.8-124.5,124.5S187.4,380.5,256,380.5S380.5,324.6,380.5,256   S324.6,131.5,256,131.5L256,131.5z"
       fill="#6A6E7C"
       id="path2"
       style="fill:#3465a4;fill-opacity:1" /><path
       d="M278.4,22l10.1,53.8c1.5,8.1,7.5,14.7,15.4,17.1c11.5,3.4,22.5,7.9,32.5,13.3c3.3,1.8,6.9,2.6,10.4,2.6   c4.4,0,8.7-1.3,12.4-3.8l45.8-31.4l33.2,33.2L407,152.6c-4.7,6.8-5.1,15.6-1.2,22.9c5.3,9.8,9.7,20.4,13,31.6   c2.4,7.9,8.9,13.8,17,15.3l54.1,10.2v46.9l-54.1,10.1c-8.1,1.5-14.7,7.4-17,15.3c-3.4,11.4-7.9,22.2-13.3,32.2   c-3.9,7.3-3.5,16.1,1.2,22.9l31,45.3l-33.2,33.1L359,407.2c-3.7-2.6-8.1-3.8-12.4-3.8c-3.6,0-7.1,0.9-10.4,2.6   c-10,5.4-20.9,9.8-32.2,13.1c-7.9,2.3-13.9,8.9-15.4,17.1L278.5,490h-46.9l-10.2-54.4c-1.5-8-7.3-14.6-15.2-17   c-10.9-3.4-21.3-7.7-30.9-12.9c-3.3-1.8-6.9-2.6-10.5-2.6c-4.4,0-8.7,1.3-12.4,3.8l-44.9,30.7l-33.2-33.2l30.7-44.9   c4.6-6.8,5.1-15.6,1.2-22.9c-5.4-9.9-9.8-20.6-13.1-31.8c-2.4-7.9-8.9-13.8-17-15.3L22,279.4v-46.9l54.1-10.1   c8.1-1.5,14.6-7.4,17-15.3c3.3-11,7.6-21.5,12.8-31.2c3.9-7.2,3.4-16-1.2-22.8l-31.1-45.5l33.2-33.2l45.2,30.9   c3.7,2.6,8.1,3.8,12.4,3.8c3.6,0,7.2-0.9,10.5-2.7c9.7-5.3,20.2-9.7,31.2-13c7.8-2.4,13.7-8.9,15.2-17L231.5,22H278.4 M286.1,0   h-62.2c-5.9,0-11.5,4.7-12.5,10.4l-11.6,62c-12.3,3.8-24.2,8.7-35.3,14.7l-51.5-35.3c-2.1-1.4-4.6-2.1-7.1-2.1   c-3.4,0-6.8,1.2-9.1,3.6l-44,44c-4.1,4.1-4.8,11.4-1.5,16.2l35.5,51.8c-6,11.1-10.8,23-14.5,35.3l-61.7,11.6   C4.7,213.4,0,219,0,224.8V287c0,5.9,4.7,11.5,10.4,12.5L72,311.1c3.8,12.6,8.7,24.7,14.8,36l-35.1,51.3c-3.3,4.8-2.6,12.1,1.5,16.2   l44,44c2.4,2.4,5.8,3.6,9.1,3.6c2.5,0,5-0.7,7.1-2.1l51.3-35.1c11,6,22.7,10.8,34.9,14.6l11.6,62c1.1,5.7,6.7,10.4,12.5,10.4h62.2   c5.9,0,11.5-4.7,12.5-10.4l11.5-61.4c12.7-3.7,24.9-8.7,36.4-14.8l51.9,35.5c2.1,1.4,4.6,2.1,7.1,2.1c3.4,0,6.8-1.2,9.1-3.6l44-44   c4.1-4.1,4.8-11.4,1.5-16.2l-35.3-51.6c6.2-11.5,11.3-23.7,15.1-36.4l61.6-11.6c5.7-1.1,10.4-6.7,10.4-12.5v-62.2   c0-5.9-4.7-11.5-10.4-12.5l-61.7-11.6c-3.7-12.5-8.7-24.4-14.7-35.7l35.7-52.2c3.3-4.8,2.6-12.1-1.5-16.2l-44-44   c-2.4-2.4-5.8-3.6-9.1-3.6c-2.5,0-5,0.7-7.1,2.1l-52.2,35.7c-11.6-6.2-23.9-11.3-36.8-15l-11.5-61.4C297.6,4.7,292,0,286.1,0   L286.1,0z"
       fill="#6A6E7C"
       id="path4"
       style="fill:#3465a4;fill-opacity:1" /></g></svg>