<?xml version="1.0" ?><svg id="Layer_1" style="enable-background:new 0 0 128 128;" version="1.1" viewBox="0 0 128 128" xml:space="preserve" xmlns="http://www.w3.org/2000/svg" xmlns:xlink="http://www.w3.org/1999/xlink"><style type="text/css">
	.st0{fill:#267CB5;}
	.st1{fill:#FFFFFF;}
</style><circle class="st0" cx="64" cy="64" r="64"/><path class="st1" d="M103,57h-9.1c-0.5,0-0.8-0.3-1-0.7c-0.7-2.6-1.7-5-3-7.3c-0.2-0.4-0.2-0.9,0.1-1.2l6.4-6.4c0.4-0.4,0.4-1,0-1.4  L88,31.5c-0.4-0.4-1-0.4-1.4,0l-6.4,6.4c-0.3,0.3-0.8,0.4-1.2,0.2c-2.3-1.3-4.7-2.3-7.3-3c-0.4-0.1-0.7-0.5-0.7-1V25  c0-0.6-0.4-1-1-1H58c-0.6,0-1,0.4-1,1v9.1c0,0.5-0.3,0.8-0.7,1c-2.6,0.7-5,1.7-7.3,3c-0.4,0.2-0.9,0.2-1.2-0.1  c-1.4-1.4-4.9-4.9-6.4-6.4c-0.4-0.4-1-0.4-1.4,0L31.5,40c-0.4,0.4-0.4,1,0,1.4l6.4,6.4c0.3,0.3,0.4,0.8,0.2,1.2  c-1.3,2.3-2.3,4.7-3,7.3c-0.1,0.4-0.5,0.7-1,0.7H25c-0.6,0-1,0.4-1,1v12c0,0.6,0.4,1,1,1h9.1c0.5,0,0.8,0.3,1,0.7  c0.7,2.6,1.7,5,3,7.3c0.2,0.4,0.2,0.9-0.1,1.2c-1.4,1.4-4.9,4.9-6.4,6.4c-0.4,0.4-0.4,1,0,1.4l8.5,8.5c0.4,0.4,1,0.4,1.4,0l6.4-6.4  c0.3-0.3,0.8-0.4,1.2-0.2c2.3,1.3,4.7,2.3,7.3,3C56.8,93,57,93.5,57,94v9c0,0.6,0.5,1,1.1,1h12c0.6,0,0.9-0.4,0.9-1v-9  c0-0.5,0.4-0.9,0.8-1.1c2.6-0.7,5-1.7,7.3-3c0.4-0.2,0.9-0.2,1.2,0.1c1.4,1.4,4.9,4.9,6.4,6.4c0.4,0.4,1,0.4,1.4,0l8.5-8.5  c0.4-0.4,0.4-1,0-1.4l-6.4-6.4c-0.3-0.3-0.4-0.8-0.2-1.2c1.3-2.3,2.3-4.6,3-7.2c0.1-0.4,0.5-0.7,1-0.7h9.1c0.5,0.1,0.9-0.4,0.9-1V58  C104,57.4,103.6,57,103,57z M64,82c-9.9,0-18-8.1-18-18s8.1-18,18-18s18,8.1,18,18S73.9,82,64,82z"/></svg>