<?xml version="1.0" ?><!DOCTYPE svg  PUBLIC '-//W3C//DTD SVG 1.1//EN'  'http://www.w3.org/Graphics/SVG/1.1/DTD/svg11.dtd'><svg enable-background="new 0 0 512 512" height="512px" id="Layer_1" version="1.1" viewBox="0 0 512 512" width="512px" xml:space="preserve" xmlns="http://www.w3.org/2000/svg" xmlns:xlink="http://www.w3.org/1999/xlink"><g><radialGradient cx="-1820.864258" cy="226.586914" gradientTransform="matrix(-0.6303 -0.1111 -0.016651 0.094458 -653.464905 278.845764)" gradientUnits="userSpaceOnUse" id="SVGID_1_" r="435.095062"><stop offset="0" style="stop-color:#000000"/><stop offset="0.581818" style="stop-color:#000000;stop-opacity:0.3"/><stop offset="1" style="stop-color:#000000;stop-opacity:0"/></radialGradient><path d="M213.64502,453.74707c-2.470703,14.025391,55.428223,35.956055,129.318848,48.984375   c73.894531,13.02832,135.802734,12.225586,138.273438-1.800781c2.475586-14.025391-55.423828-35.956055-129.318359-48.984375   C278.027344,438.917969,216.119629,439.72168,213.64502,453.74707z" fill="url(#SVGID_1_)"/><g><linearGradient gradientTransform="matrix(0.7071 -0.7071 0.7071 0.7071 220.577148 541.015625)" gradientUnits="userSpaceOnUse" id="SVGID_2_" x1="227.67627" x2="227.67627" y1="-85.200684" y2="-102.00238"><stop offset="0" style="stop-color:#666666"/><stop offset="0.775229" style="stop-color:#000000"/><stop offset="1" style="stop-color:#1A1A1A"/></linearGradient><path d="M293.448242,335.376953c3.823242,3.828125,16.633789-2.80957,28.638672-14.816406    c12.012695-12.008789,18.662109-24.845703,14.84082-28.644531c-3.804688-3.819336-16.637695,2.830078-28.642578,14.836914    C296.282227,318.757812,289.634766,331.578125,293.448242,335.376953z" fill="url(#SVGID_2_)"/><linearGradient gradientTransform="matrix(0.7071 -0.7071 0.7071 0.7071 220.577148 541.015625)" gradientUnits="userSpaceOnUse" id="SVGID_3_" x1="196.938477" x2="258.428711" y1="-78.484375" y2="-78.484375"><stop offset="0" style="stop-color:#2B2C33"/><stop offset="0.09633" style="stop-color:#898D9C"/><stop offset="0.302752" style="stop-color:#C5C7CF"/><stop offset="0.37156" style="stop-color:#4B4C56"/><stop offset="0.440367" style="stop-color:#24242F"/><stop offset="0.527523" style="stop-color:#2D2E33"/><stop offset="0.651376" style="stop-color:#F2F4F6"/><stop offset="0.807339" style="stop-color:#F2F4FA"/><stop offset="0.894495" style="stop-color:#42454D"/><stop offset="0.963303" style="stop-color:#8E8F99"/></linearGradient><path d="M322.086914,320.560547c-12.004883,12.006836-24.81543,18.644531-28.638672,14.816406    l14.861328,14.853516c3.807617,3.823242,16.633789-2.826172,28.644531-14.808594    c11.987305-12.012695,18.644531-24.849609,14.833008-28.665039l-14.859375-14.84082    C340.749023,295.714844,334.099609,308.551758,322.086914,320.560547z" fill="url(#SVGID_3_)"/><path d="M322.086914,320.560547c-12.004883,12.006836-24.81543,18.644531-28.638672,14.816406    l1.530273,1.539062c3.819336,3.814453,16.62793-2.831055,28.636719-14.831055    c12.010742-11.99707,18.658203-24.828125,14.844727-28.645508l-1.532227-1.523438    C340.749023,295.714844,334.099609,308.551758,322.086914,320.560547z" fill="#A6A8AB" opacity="0.5"/><path d="M335.408203,333.87793c-12.00293,12-24.823242,18.645508-28.636719,14.826172    l1.538086,1.526367c3.807617,3.823242,16.633789-2.826172,28.644531-14.808594    c11.987305-12.012695,18.644531-24.849609,14.833008-28.665039l-1.525391-1.522461    C354.068359,309.041992,347.416992,321.87207,335.408203,333.87793z" fill="#A6A8AB" opacity="0.5"/><linearGradient gradientTransform="matrix(0.7071 -0.7071 0.7071 0.7071 220.577148 541.015625)" gradientUnits="userSpaceOnUse" id="SVGID_4_" x1="196.932617" x2="258.428711" y1="43.443359" y2="43.443359"><stop offset="0" style="stop-color:#000000"/><stop offset="0.087156" style="stop-color:#19191A"/><stop offset="0.302752" style="stop-color:#313133"/><stop offset="0.46789" style="stop-color:#000000"/><stop offset="0.522936" style="stop-color:#000000"/><stop offset="0.591743" style="stop-color:#333131"/><stop offset="0.706422" style="stop-color:#807E7E"/><stop offset="0.752294" style="stop-color:#A4A4A4"/><stop offset="0.802752" style="stop-color:#B3B3B3"/><stop offset="0.862385" style="stop-color:#404040"/><stop offset="1" style="stop-color:#1A1A1A"/></linearGradient><path d="M336.954102,335.421875c-12.010742,11.982422-24.836914,18.631836-28.644531,14.808594    l157.576172,157.592773c3.81543,3.8125,16.631836-2.828125,28.640625-14.829102    c12.000977-12.013672,18.658203-24.833984,14.844727-28.649414L351.787109,306.756836    C355.598633,310.572266,348.941406,323.40918,336.954102,335.421875z" fill="url(#SVGID_4_)"/><linearGradient gradientTransform="matrix(0.7071 -0.7071 0.7071 0.7071 220.577148 541.015625)" gradientUnits="userSpaceOnUse" id="SVGID_5_" x1="201.537598" x2="253.824219" y1="-101.364258" y2="-101.364258"><stop offset="0" style="stop-color:#898D9C"/><stop offset="0.302752" style="stop-color:#C5C7CF"/><stop offset="0.37156" style="stop-color:#4B4C56"/><stop offset="0.440367" style="stop-color:#24242F"/><stop offset="0.527523" style="stop-color:#2D2E33"/><stop offset="0.651376" style="stop-color:#F2F4F6"/><stop offset="0.807339" style="stop-color:#F2F4FA"/><stop offset="1" style="stop-color:#8E8F99"/></linearGradient><path d="M332.916992,294.59082c-0.081055-0.097656-0.104492-0.28125-0.209961-0.402344    c-0.458008-0.435547-1.061523-0.667969-1.768555-0.785156c-3.142578-1.852539-9.178711-5.274414-17.663086-9.354492    c-3.851562,5.240234-7.957031,10.313477-12.668945,15.03125c-4.695312,4.689453-9.770508,8.798828-15.006836,12.657227    c4.138672,8.617188,7.833008,14.943359,9.827148,18.177734c0.123047,0.692383,0.371094,1.311523,0.811523,1.748047    c0.098633,0.09668,0.270508,0.104492,0.391602,0.173828c0.202148,0.318359,0.334961,0.541016,0.334961,0.541016l0.27832-0.222656    c4.076172,1.655273,13.90918-3.895508,23.166016-13.412109c9.261719-9.523438,14.567383-19.507812,12.827148-23.56543    l0.181641-0.262695C333.417969,294.915039,333.227539,294.795898,332.916992,294.59082z" fill="url(#SVGID_5_)"/><linearGradient gradientTransform="matrix(0.7071 -0.7071 0.7071 0.7071 220.577148 541.015625)" gradientUnits="userSpaceOnUse" id="SVGID_6_" x1="230.085938" x2="247.234802" y1="-103.483887" y2="-108.148048"><stop offset="0.591743" style="stop-color:#FFFFFF;stop-opacity:0"/><stop offset="0.931193" style="stop-color:#666666"/><stop offset="1" style="stop-color:#808080"/></linearGradient><path d="M332.916992,294.59082c-0.081055-0.097656-0.104492-0.28125-0.209961-0.402344    c-0.458008-0.435547-1.061523-0.667969-1.768555-0.785156c-3.142578-1.852539-9.178711-5.274414-17.663086-9.354492    c-3.851562,5.240234-7.957031,10.313477-12.668945,15.03125c-4.695312,4.689453-9.770508,8.798828-15.006836,12.657227    c4.138672,8.617188,7.833008,14.943359,9.827148,18.177734c0.123047,0.692383,0.371094,1.311523,0.811523,1.748047    c0.098633,0.09668,0.270508,0.104492,0.391602,0.173828c0.202148,0.318359,0.334961,0.541016,0.334961,0.541016l0.27832-0.222656    c4.076172,1.655273,13.90918-3.895508,23.166016-13.412109c9.261719-9.523438,14.567383-19.507812,12.827148-23.56543    l0.181641-0.262695C333.417969,294.915039,333.227539,294.795898,332.916992,294.59082z" fill="url(#SVGID_6_)"/><linearGradient gradientTransform="matrix(-0.7071 0.7071 0.7071 0.7071 1248.500977 -486.90918)" gradientUnits="userSpaceOnUse" id="SVGID_7_" x1="1228.439453" x2="1245.58667" y1="-103.485352" y2="-108.149071"><stop offset="0.591743" style="stop-color:#FFFFFF;stop-opacity:0"/><stop offset="0.986239" style="stop-color:#808080"/></linearGradient><path d="M296.141602,331.364258c-0.109375-0.081055-0.294922-0.092773-0.398438-0.209961    c-0.433594-0.446289-0.669922-1.049805-0.794922-1.764648c-1.855469-3.140625-5.262695-9.176758-9.34082-17.670898    c5.228516-3.839844,10.303711-7.949219,15.010742-12.655273c4.704102-4.712891,8.822266-9.780273,12.673828-15.008789    c8.611328,4.142578,14.931641,7.829102,18.171875,9.811523c0.702148,0.128906,1.30957,0.386719,1.748047,0.833008    c0.092773,0.099609,0.104492,0.272461,0.185547,0.365234c0.327148,0.228516,0.53125,0.357422,0.53125,0.357422l-0.220703,0.274414    c1.65918,4.082031-3.887695,13.90332-13.413086,23.15625c-9.539062,9.265625-19.527344,14.570312-23.553711,12.822266    l-0.275391,0.198242C296.46582,331.873047,296.336914,331.683594,296.141602,331.364258z" fill="url(#SVGID_7_)"/><linearGradient gradientTransform="matrix(0.7071 -0.7071 0.7071 0.7071 220.577148 541.015625)" gradientUnits="userSpaceOnUse" id="SVGID_8_" x1="227.686035" x2="227.677658" y1="159.121582" y2="149.345581"><stop offset="0" style="stop-color:#232323"/><stop offset="0.665138" style="stop-color:#232323;stop-opacity:0.5"/><stop offset="1" style="stop-color:#808080;stop-opacity:0.5"/></linearGradient><path d="M494.526367,492.994141c12.000977-12.013672,18.658203-24.833984,14.844727-28.649414    l-43.485352,43.478516C469.701172,511.635742,482.517578,504.995117,494.526367,492.994141z" fill="url(#SVGID_8_)"/><linearGradient gradientTransform="matrix(0.7071 -0.7071 0.7071 0.7071 220.577148 541.015625)" gradientUnits="userSpaceOnUse" id="SVGID_9_" x1="227.680176" x2="227.680176" y1="-115.037109" y2="-106.86792"><stop offset="0" style="stop-color:#232323"/><stop offset="1" style="stop-color:#232323;stop-opacity:0"/></linearGradient><path d="M305.97168,304.447266c5.723633-5.720703,10.271484-11.764648,13.379883-17.388672    c-1.857422-0.94043-3.87207-1.929688-6.076172-3.009766c-3.851562,5.240234-7.957031,10.313477-12.668945,15.03125    c-4.695312,4.689453-9.770508,8.798828-15.006836,12.657227c1.049805,2.169922,2.067383,4.192383,3.011719,6.073242    C294.239258,314.704102,300.259766,310.160156,305.97168,304.447266z" fill="url(#SVGID_9_)" opacity="0.5"/><linearGradient gradientTransform="matrix(0.7071 -0.7071 0.7071 0.7071 220.577148 541.015625)" gradientUnits="userSpaceOnUse" id="SVGID_10_" x1="227.679199" x2="227.679199" y1="-120.742188" y2="-134.184387"><stop offset="0" style="stop-color:#666666"/><stop offset="0.775229" style="stop-color:#000000"/><stop offset="1" style="stop-color:#1A1A1A"/></linearGradient><path d="M273.895508,307.132812c3.050781,3.047852,13.311523-2.259766,22.916016-11.870117    c9.604492-9.59668,14.925781-19.87207,11.874023-22.905273c-3.054688-3.058594-13.317383,2.256836-22.919922,11.865234    C276.158203,293.829102,270.845703,304.083984,273.895508,307.132812z" fill="url(#SVGID_10_)"/><linearGradient gradientTransform="matrix(0.7071 -0.7071 0.7071 0.7071 220.577148 541.015625)" gradientUnits="userSpaceOnUse" id="SVGID_11_" x1="203.084473" x2="252.279297" y1="-117.033203" y2="-117.033203"><stop offset="0" style="stop-color:#2B2C33"/><stop offset="0.09633" style="stop-color:#898D9C"/><stop offset="0.302752" style="stop-color:#C5C7CF"/><stop offset="0.37156" style="stop-color:#4B4C56"/><stop offset="0.440367" style="stop-color:#24242F"/><stop offset="0.527523" style="stop-color:#2D2E33"/><stop offset="0.651376" style="stop-color:#F2F4F6"/><stop offset="0.807339" style="stop-color:#F2F4FA"/><stop offset="0.894495" style="stop-color:#42454D"/><stop offset="0.963303" style="stop-color:#8E8F99"/></linearGradient><path d="M296.811523,295.262695c-9.604492,9.610352-19.865234,14.917969-22.916016,11.870117    l9.532227,9.517578c3.038086,3.041992,13.306641-2.260742,22.912109-11.851562    c9.585938-9.615234,14.913086-19.883789,11.861328-22.931641l-9.515625-9.509766    C311.737305,275.390625,306.416016,285.666016,296.811523,295.262695z" fill="url(#SVGID_11_)"/><path d="M296.811523,295.262695c-9.604492,9.610352-19.865234,14.917969-22.916016,11.870117    l1.219727,1.222656c3.055664,3.050781,13.308594-2.258789,22.915039-11.869141    c9.603516-9.605469,14.924805-19.857422,11.874023-22.916016l-1.21875-1.212891    C311.737305,275.390625,306.416016,285.666016,296.811523,295.262695z" fill="#A6A8AB" opacity="0.5"/><path d="M305.099609,303.55957c-9.604492,9.59668-19.855469,14.917969-22.90332,11.865234    l1.231445,1.225586c3.038086,3.041992,13.306641-2.260742,22.912109-11.851562    c9.585938-9.615234,14.913086-19.883789,11.861328-22.931641l-1.223633-1.223633    C320.026367,283.691406,314.705078,293.958984,305.099609,303.55957z" fill="#A6A8AB" opacity="0.5"/><linearGradient gradientTransform="matrix(0.7071 -0.7071 0.7071 0.7071 220.577148 541.015625)" gradientUnits="userSpaceOnUse" id="SVGID_12_" x1="227.66748" x2="227.66748" y1="-148.338867" y2="-159.097336"><stop offset="0" style="stop-color:#666666"/><stop offset="0.775229" style="stop-color:#000000"/><stop offset="1" style="stop-color:#1A1A1A"/></linearGradient><path d="M258.832031,285.125c2.443359,2.446289,10.640625-1.796875,18.328125-9.483398    c7.680664-7.6875,11.94043-15.90332,9.495117-18.336914c-2.44043-2.446289-10.648438,1.80957-18.334961,9.49707    C260.645508,274.490234,256.394043,282.69043,258.832031,285.125z" fill="url(#SVGID_12_)"/><linearGradient gradientTransform="matrix(0.7071 -0.7071 0.7071 0.7071 220.577148 541.015625)" gradientUnits="userSpaceOnUse" id="SVGID_13_" x1="207.994629" x2="247.343262" y1="-138.699707" y2="-138.699707"><stop offset="0" style="stop-color:#2B2C33"/><stop offset="0.09633" style="stop-color:#898D9C"/><stop offset="0.302752" style="stop-color:#C5C7CF"/><stop offset="0.37156" style="stop-color:#4B4C56"/><stop offset="0.440367" style="stop-color:#24242F"/><stop offset="0.527523" style="stop-color:#2D2E33"/><stop offset="0.651376" style="stop-color:#F2F4F6"/><stop offset="0.807339" style="stop-color:#F2F4FA"/><stop offset="0.894495" style="stop-color:#42454D"/><stop offset="0.963303" style="stop-color:#8E8F99"/></linearGradient><path d="M277.160156,275.641602c-7.6875,7.686523-15.884766,11.929688-18.328125,9.483398    l17.060547,17.057617c2.442383,2.446289,10.648438-1.800781,18.334961-9.479492    c7.670898-7.689453,11.932617-15.901367,9.491211-18.337891l-17.063477-17.060547    C289.100586,259.738281,284.84082,267.954102,277.160156,275.641602z" fill="url(#SVGID_13_)"/><path d="M277.160156,275.641602c-7.6875,7.686523-15.884766,11.929688-18.328125,9.483398    l0.969727,0.976562c2.450195,2.447266,10.643555-1.804688,18.331055-9.489258c7.680664-7.68457,11.936523-15.888672,9.5-18.327148    l-0.977539-0.980469C289.100586,259.738281,284.84082,267.954102,277.160156,275.641602z" fill="#A6A8AB" opacity="0.5"/><path d="M293.234375,291.723633c-7.676758,7.677734-15.880859,11.928711-18.317383,9.481445    l0.975586,0.977539c2.442383,2.446289,10.648438-1.800781,18.334961-9.479492    c7.670898-7.689453,11.932617-15.901367,9.491211-18.337891l-0.976562-0.976562    C305.18457,275.827148,300.923828,284.039062,293.234375,291.723633z" fill="#A6A8AB" opacity="0.5"/></g><g><linearGradient gradientTransform="matrix(0.7071 -0.7071 0.7071 0.7071 220.577148 541.015625)" gradientUnits="userSpaceOnUse" id="SVGID_14_" x1="122.512207" x2="338.290009" y1="-197.69873" y2="-428.744263"><stop offset="0" style="stop-color:#BBBFC0"/><stop offset="1" style="stop-color:#7C7E7C"/></linearGradient><path d="M270.770508,52.010742c59.988281,59.970215,60.000977,157.217773,0.003906,217.219727    c-60.001953,60.001953-157.252441,60.001953-217.243164,0.007812C-6.466797,209.228516-6.466797,111.98291,53.533203,51.987793    C113.525879-8.011719,210.772461-8.005859,270.770508,52.010742z" fill="url(#SVGID_14_)"/><linearGradient gradientTransform="matrix(0.7071 -0.7071 0.7071 0.7071 220.577148 541.015625)" gradientUnits="userSpaceOnUse" id="SVGID_15_" x1="226.47168" x2="349.289734" y1="-308.363281" y2="-439.871521"><stop offset="0" style="stop-color:#CCCCCC;stop-opacity:0"/><stop offset="1" style="stop-color:#FFFFFF"/></linearGradient><path d="M53.533203,51.987793c-27.358398,27.364746-42.09082,62.487305-44.500977,98.282227    c3.522461-33.8125,18.196289-66.664062,44.103516-92.585449c59.998535-59.993652,157.23291-59.994629,217.235352,0.013672    c32.631836,32.616699,47.37793,76.279297,44.506836,118.966309c4.637695-44.48584-10.013672-90.592773-44.107422-124.653809    C210.772461-8.005859,113.525879-8.011719,53.533203,51.987793z" fill="url(#SVGID_15_)" opacity="0.4"/><linearGradient gradientTransform="matrix(-0.7071 0.7071 -0.7071 -0.7071 1668.399414 -72.786621)" gradientUnits="userSpaceOnUse" id="SVGID_16_" x1="1227.75" x2="1351.156738" y1="902.955078" y2="770.816528"><stop offset="0" style="stop-color:#CCCCCC;stop-opacity:0"/><stop offset="1" style="stop-color:#B3B3B3"/></linearGradient><path d="M270.030273,268.49707c27.358398-27.368652,42.098633-62.48291,44.506836-98.277832    c-3.532227,33.799316-18.196289,66.651855-44.099609,92.575684c-59.996094,59.977539-157.249023,59.977539-217.241211-0.008789    c-32.641602-32.625-45.439941-77.189941-42.577148-119.867188c-4.630859,44.467773,8.074219,91.483398,42.169434,125.566406    C112.789062,328.494141,210.029297,328.498047,270.030273,268.49707z" fill="url(#SVGID_16_)"/><path d="M54.274414,268.49707c59.594727,59.581055,156.163086,59.581055,215.767578-0.013672    c59.584961-59.583008,59.592773-156.166016,0-215.747559C210.445312-6.868164,113.86084-6.868164,54.27002,52.737793    C-5.320312,112.325195-5.316406,208.908691,54.274414,268.49707z" fill="none"/><linearGradient gradientTransform="matrix(0.7071 -0.7071 0.7071 0.7071 220.577148 541.015625)" gradientUnits="userSpaceOnUse" id="SVGID_17_" x1="333.421875" x2="122.332306" y1="-426.53418" y2="-194.496994"><stop offset="0" style="stop-color:#404040"/><stop offset="1" style="stop-color:#343434"/></linearGradient><path d="M48.602051,47.041992c-62.731934,62.728516-62.731934,164.405273,0.003906,227.125977    c62.715332,62.723633,164.380859,62.723633,227.114746-0.003906c62.714844-62.716797,62.719727-164.399414,0.007812-227.108887    C212.986816-15.683594,111.317383-15.681641,48.602051,47.041992z M270.041992,268.483398    c-59.604492,59.594727-156.172852,59.594727-215.767578,0.013672C-5.316406,208.908691-5.320312,112.325195,54.27002,52.737793    C113.86084-6.868164,210.445312-6.868164,270.041992,52.73584C329.634766,112.317383,329.626953,208.900391,270.041992,268.483398    z" fill="url(#SVGID_17_)"/><linearGradient gradientTransform="matrix(0.7071 -0.7071 0.7071 0.7071 220.577148 541.015625)" gradientUnits="userSpaceOnUse" id="SVGID_18_" x1="330.24707" x2="125.493439" y1="-423.043457" y2="-197.970963"><stop offset="0" style="stop-color:#666666"/><stop offset="0.504587" style="stop-color:#333333"/><stop offset="1" style="stop-color:#808080"/></linearGradient><path d="M52.009277,50.448242c-60.846191,60.857422-60.850098,159.46582,0,220.318359    c60.842285,60.833984,159.449219,60.841797,220.29541-0.018555c60.84668-60.835938,60.844727-159.444336,0-220.280273    C211.458496-10.383789,112.847656-10.391602,52.009277,50.448242z M270.041992,268.483398    c-59.604492,59.594727-156.172852,59.594727-215.767578,0.013672C-5.316406,208.908691-5.320312,112.325195,54.27002,52.737793    C113.86084-6.868164,210.445312-6.868164,270.041992,52.73584C329.634766,112.317383,329.626953,208.900391,270.041992,268.483398    z" fill="url(#SVGID_18_)" opacity="0.5"/><path d="M65.065918,257.712891c53.629395,53.634766,140.530762,53.624023,194.192871-0.012695    c53.628906-53.624023,53.628906-140.538086,0-194.173828c-53.658203-53.644531-140.563477-53.644531-194.192871,0    C11.422363,117.162109,11.422363,204.078125,65.065918,257.712891z" fill="none"/><linearGradient gradientTransform="matrix(0.7071 -0.7071 0.7071 0.7071 220.577148 541.015625)" gradientUnits="userSpaceOnUse" id="SVGID_19_" x1="228.605469" x2="320.470673" y1="-310.62207" y2="-402.487274"><stop offset="0" style="stop-color:#CCCCCC;stop-opacity:0"/><stop offset="1" style="stop-color:#FFFFFF"/></linearGradient><path d="M27.212402,135.304688c50.874023,9.377441,143.570312,19.628418,270.739746,6.004395    c-4.027344-28.454102-16.819336-55.896484-38.693359-77.782715c-53.658203-53.644531-140.563477-53.644531-194.192871,0    C44.724121,83.863281,32.133789,109.015625,27.212402,135.304688z" fill="url(#SVGID_19_)"/><linearGradient gradientTransform="matrix(0.7071 -0.7071 0.7071 0.7071 220.577148 541.015625)" gradientUnits="userSpaceOnUse" id="SVGID_20_" x1="200.735352" x2="112.55619" y1="-284.966797" y2="-202.147125"><stop offset="0" style="stop-color:#CCCCCC;stop-opacity:0"/><stop offset="1" style="stop-color:#CCCCCC"/></linearGradient><path d="M163.037109,244.341309c-72.257324,0.01416-131.54541-39.26709-137.94043-89.336914    c-1.493652,36.978027,11.718262,74.446289,39.969238,102.708496c53.629395,53.634766,140.530762,53.624023,194.192871-0.012695    c26.094727-26.114746,39.395508-60.111328,40.078125-94.313965    C287.795898,209.383301,231.221191,244.357422,163.037109,244.341309z" fill="url(#SVGID_20_)"/><linearGradient gradientTransform="matrix(0.7071 -0.7071 0.7071 0.7071 220.577148 541.015625)" gradientUnits="userSpaceOnUse" id="SVGID_21_" x1="194.652344" x2="114.809303" y1="-282.566406" y2="-215.842072"><stop offset="0" style="stop-color:#CCCCCC;stop-opacity:0"/><stop offset="1" style="stop-color:#FFFFFF"/></linearGradient><path d="M260.068359,243.152344c-53.631836,53.640625-140.563477,53.640625-194.192871,0    c-21.924805-21.912598-34.68457-49.395508-38.635254-77.89502c-0.942383-3.353027-1.70166-6.771484-2.143555-10.25293    c-1.493652,36.978027,11.718262,74.446289,39.969238,102.708496c53.629395,53.634766,140.530762,53.624023,194.192871-0.012695    c26.094727-26.114746,39.395508-60.111328,40.078125-94.313965c-0.164062,0.661133-0.427734,1.308105-0.62207,1.976074    C294.71582,193.816406,281.946289,221.26709,260.068359,243.152344z" fill="url(#SVGID_21_)" opacity="0.3"/></g></g></svg>