<?xml version="1.0" encoding="UTF-8" standalone="no"?>
<svg
   xmlns:dc="http://purl.org/dc/elements/1.1/"
   xmlns:cc="http://creativecommons.org/ns#"
   xmlns:rdf="http://www.w3.org/1999/02/22-rdf-syntax-ns#"
   xmlns:svg="http://www.w3.org/2000/svg"
   xmlns="http://www.w3.org/2000/svg"
   xmlns:sodipodi="http://sodipodi.sourceforge.net/DTD/sodipodi-0.dtd"
   xmlns:inkscape="http://www.inkscape.org/namespaces/inkscape"
   height="48"
   viewBox="0 0 48 48"
   width="48"
   id="svg2"
   version="1.1"
   inkscape:version="0.48.5 r10040"
   sodipodi:docname="edit-cut.svg">
  <metadata
     id="metadata18">
    <rdf:RDF>
      <cc:Work
         rdf:about="">
        <dc:format>image/svg+xml</dc:format>
        <dc:type
           rdf:resource="http://purl.org/dc/dcmitype/StillImage" />
        <dc:title></dc:title>
      </cc:Work>
    </rdf:RDF>
  </metadata>
  <defs
     id="defs16" />
  <sodipodi:namedview
     pagecolor="#ffffff"
     bordercolor="#666666"
     borderopacity="1"
     objecttolerance="10"
     gridtolerance="10"
     guidetolerance="10"
     inkscape:pageopacity="0"
     inkscape:pageshadow="2"
     inkscape:window-width="640"
     inkscape:window-height="480"
     id="namedview14"
     showgrid="false"
     inkscape:zoom="4.9166667"
     inkscape:cx="24"
     inkscape:cy="24"
     inkscape:window-x="753"
     inkscape:window-y="207"
     inkscape:window-maximized="0"
     inkscape:current-layer="svg2" />
  <path
     d="M0 0h48v48h-48z"
     fill="none"
     id="path4" />
  <circle
     cx="12"
     cy="36"
     fill="none"
     r="4"
     id="circle6" />
  <circle
     cx="24"
     cy="24"
     fill="none"
     r="1"
     id="circle8" />
  <circle
     cx="12"
     cy="12"
     fill="none"
     r="4"
     id="circle10" />
  <path
     d="M19.28 15.28c.45-1 .72-2.11.72-3.28 0-4.42-3.58-8-8-8s-8 3.58-8 8 3.58 8 8 8c1.17 0 2.28-.27 3.28-.72l4.72 4.72-4.72 4.72c-1-.45-2.11-.72-3.28-.72-4.42 0-8 3.58-8 8s3.58 8 8 8 8-3.58 8-8c0-1.17-.27-2.28-.72-3.28l4.72-4.72 14 14h6v-2l-24.72-24.72zm-7.28.72c-2.21 0-4-1.79-4-4s1.79-4 4-4 4 1.79 4 4-1.79 4-4 4zm0 24c-2.21 0-4-1.79-4-4s1.79-4 4-4 4 1.79 4 4-1.79 4-4 4zm12-15c-.55 0-1-.45-1-1s.45-1 1-1 1 .45 1 1-.45 1-1 1zm14-19l-12 12 4 4 14-14v-2z"
     id="path12" />
</svg>
