<?xml version="1.0" ?><!DOCTYPE svg  PUBLIC '-//W3C//DTD SVG 1.1//EN'  'http://www.w3.org/Graphics/SVG/1.1/DTD/svg11.dtd'><svg enable-background="new 0 0 48 48" height="48px" version="1.1" viewBox="0 0 48 48" width="48px" xml:space="preserve" xmlns="http://www.w3.org/2000/svg" xmlns:xlink="http://www.w3.org/1999/xlink"><g id="Expanded"><g><g><path d="M24,20c-11.215,0-20-3.953-20-9s8.785-9,20-9s20,3.953,20,9S35.215,20,24,20z M24,4C15.486,4,6,6.875,6,11s9.486,7,18,7     s18-2.875,18-7S32.514,4,24,4z"/></g><g><path d="M24,28c-11.215,0-20-3.953-20-9v-8c0-0.553,0.447-1,1-1s1,0.447,1,1v8c0,4.125,9.486,7,18,7s18-2.875,18-7v-8     c0-0.553,0.447-1,1-1s1,0.447,1,1v8C44,24.047,35.215,28,24,28z"/></g><g><path d="M24,37c-11.215,0-20-3.953-20-9v-9c0-0.553,0.447-1,1-1s1,0.447,1,1v9c0,4.125,9.486,7,18,7s18-2.875,18-7v-9     c0-0.553,0.447-1,1-1s1,0.447,1,1v9C44,33.047,35.215,37,24,37z"/></g><g><path d="M24,46c-11.215,0-20-3.953-20-9v-9c0-0.553,0.447-1,1-1s1,0.447,1,1v9c0,4.125,9.486,7,18,7s18-2.875,18-7v-9     c0-0.553,0.447-1,1-1s1,0.447,1,1v9C44,42.047,35.215,46,24,46z"/></g></g></g></svg>