<?xml version="1.0" encoding="UTF-8" standalone="no"?>
<svg
   xmlns:dc="http://purl.org/dc/elements/1.1/"
   xmlns:cc="http://creativecommons.org/ns#"
   xmlns:rdf="http://www.w3.org/1999/02/22-rdf-syntax-ns#"
   xmlns:svg="http://www.w3.org/2000/svg"
   xmlns="http://www.w3.org/2000/svg"
   xmlns:sodipodi="http://sodipodi.sourceforge.net/DTD/sodipodi-0.dtd"
   xmlns:inkscape="http://www.inkscape.org/namespaces/inkscape"
   version="1.1"
   viewBox="0 0 48 48"
   id="svg2"
   inkscape:version="0.91 r13725"
   sodipodi:docname="db-column.svg"
   width="48"
   height="48">
  <metadata
     id="metadata41">
    <rdf:RDF>
      <cc:Work
         rdf:about="">
        <dc:format>image/svg+xml</dc:format>
        <dc:type
           rdf:resource="http://purl.org/dc/dcmitype/StillImage" />
        <dc:title></dc:title>
      </cc:Work>
    </rdf:RDF>
  </metadata>
  <sodipodi:namedview
     pagecolor="#ffffff"
     bordercolor="#666666"
     borderopacity="1"
     objecttolerance="10"
     gridtolerance="10"
     guidetolerance="10"
     inkscape:pageopacity="0"
     inkscape:pageshadow="2"
     inkscape:window-width="1707"
     inkscape:window-height="913"
     id="namedview39"
     showgrid="false"
     inkscape:showpageshadow="false"
     inkscape:zoom="2.4583333"
     inkscape:cx="64"
     inkscape:cy="44.542373"
     inkscape:window-x="-8"
     inkscape:window-y="-8"
     inkscape:window-maximized="1"
     inkscape:current-layer="svg2" />
  <defs
     id="defs4">
    <linearGradient
       id="def0"
       x1="55.228268"
       x2="55.228268"
       y1="1.5451168"
       y2="109.70261"
       gradientTransform="matrix(3.3711083,0,0,1.8827954,-5.8181818,-4.363637)"
       gradientUnits="userSpaceOnUse">
      <stop
         offset="0"
         stop-color="#B3E2FF"
         id="stop7" />
      <stop
         offset="1"
         stop-color="#99CCFF"
         id="stop9" />
    </linearGradient>
  </defs>
  <g
     id="g11"
     transform="matrix(0.34375,0,0,0.45833333,2,2.0000003)">
    <path
       d="M 128,96 0,96 0,0 l 128,0 0,96 z"
       id="path13"
       inkscape:connector-curvature="0"
       style="fill:#0099ff" />
    <path
       d="m 1.33333,1.33334 125.33367,0 0,93.33336 -125.33367,0 0,-93.33336 z"
       id="path15"
       inkscape:connector-curvature="0"
       style="fill:url(#def0)" />
    <path
       d="m 2.66667,2.66666 122.66633,0 0,90.66664 -122.66633,0 0,-90.66664 z"
       id="path17"
       inkscape:connector-curvature="0"
       style="fill:#ffffff" />
    <path
       d="m 125.333,14.6667 -122.66633,0 0,-12.00004 122.66633,0 0,12.00004 z"
       id="path19"
       inkscape:connector-curvature="0"
       style="fill:#deffff" />
    <path
       d="m 2.66667,14.6667 122.66633,0 0,-1.3334 -122.66633,0 0,1.3334 z"
       id="path21"
       inkscape:connector-curvature="0"
       style="fill:#b4e2ff" />
    <path
       d="m 40,93.3333 1.3333,0 0,-90.66664 -1.3333,0 0,90.66664 z"
       id="path23"
       inkscape:connector-curvature="0"
       style="fill:#b4e2ff" />
    <path
       d="m 86.6667,93.3333 1.3333,0 0,-90.66664 -1.3333,0 0,90.66664 z"
       id="path25"
       inkscape:connector-curvature="0"
       style="fill:#b4e2ff" />
    <path
       d="m 2.66667,28 122.66633,0 0,-1.3333 -122.66633,0 0,1.3333 z"
       id="path27"
       inkscape:connector-curvature="0"
       style="fill:#b4e2ff" />
    <path
       d="m 2.66667,41.3333 122.66633,0 0,-1.3333 -122.66633,0 0,1.3333 z"
       id="path29"
       inkscape:connector-curvature="0"
       style="fill:#b4e2ff" />
    <path
       d="m 2.66667,54.6667 122.66633,0 0,-1.3334 -122.66633,0 0,1.3334 z"
       id="path31"
       inkscape:connector-curvature="0"
       style="fill:#b4e2ff" />
    <path
       d="m 2.66667,68 122.66633,0 0,-1.3347 -122.66633,0 0,1.3347 z"
       id="path33"
       inkscape:connector-curvature="0"
       style="fill:#b4e2ff" />
    <path
       d="m 2.66667,81.3333 122.66633,0 0,-1.3333 -122.66633,0 0,1.3333 z"
       id="path35"
       inkscape:connector-curvature="0"
       style="fill:#b4e2ff" />
    <path
       d="m 88,0 -48,0 0,96 48,0 m -4,-4 -40,0 0,-88 40,0 0,88 z"
       id="path37"
       inkscape:connector-curvature="0"
       style="fill:#ffcc00" />
  </g>
</svg>
