<?xml version="1.0" encoding="UTF-8" standalone="no"?>
<!-- Created with Inkscape (http://www.inkscape.org/) -->

<svg
   xmlns:svg="http://www.w3.org/2000/svg"
   xmlns="http://www.w3.org/2000/svg"
   version="1.1"
   width="24"
   height="24"
   id="svg3745">
  <defs
     id="defs3747" />
  <g
     transform="translate(0,8)"
     id="layer1">
    <path
       d="M 10.81691,10.839897 C 9.248478,12.395634 6.7158392,12.385342 5.1601026,10.81691 3.6043661,9.248478 3.6146578,6.715839 5.1830898,5.160103 5.2425382,5.101135 5.3038234,5.04405 5.366855,4.9889292 L 8,8 10.81691,10.839897 z M 6,11 5,10 2,13 3,14 6,11 z"
       id="path3765"
       style="opacity:0.5;fill:#606060;fill-opacity:1;stroke:none" />
    <path
       d="m 12.18309,-1.839897 c 1.568432,-1.555737 4.101071,-1.545445 5.656807,0.022987 1.555737,1.568432 1.545445,4.101071 -0.02299,5.656807 -0.05945,0.058968 -0.120733,0.116053 -0.183765,0.1711738 L 15,1 12.18309,-1.839897 z M 21,-4 l -1,-1 -3,3 1,1 3,-3 z"
       id="path3767"
       style="opacity:0.5;fill:#606060;fill-opacity:1;stroke:none" />
  </g>
</svg>
