<?xml version="1.0" encoding="UTF-8" standalone="no"?>
<svg
   xmlns:dc="http://purl.org/dc/elements/1.1/"
   xmlns:cc="http://creativecommons.org/ns#"
   xmlns:rdf="http://www.w3.org/1999/02/22-rdf-syntax-ns#"
   xmlns:svg="http://www.w3.org/2000/svg"
   xmlns="http://www.w3.org/2000/svg"
   xmlns:sodipodi="http://sodipodi.sourceforge.net/DTD/sodipodi-0.dtd"
   xmlns:inkscape="http://www.inkscape.org/namespaces/inkscape"
   enable-background="new 0 0 128 128"
   height="16"
   id="Layer_1"
   version="1.1"
   viewBox="0 0 16 16"
   width="16"
   xml:space="preserve"
   inkscape:version="0.48.5 r10040"
   sodipodi:docname="download.svg"><metadata
     id="metadata9"><rdf:RDF><cc:Work
         rdf:about=""><dc:format>image/svg+xml</dc:format><dc:type
           rdf:resource="http://purl.org/dc/dcmitype/StillImage" /><dc:title></dc:title></cc:Work></rdf:RDF></metadata><defs
     id="defs7" /><sodipodi:namedview
     pagecolor="#ffffff"
     bordercolor="#666666"
     borderopacity="1"
     objecttolerance="10"
     gridtolerance="10"
     guidetolerance="10"
     inkscape:pageopacity="0"
     inkscape:pageshadow="2"
     inkscape:window-width="1106"
     inkscape:window-height="719"
     id="namedview5"
     showgrid="false"
     inkscape:zoom="4"
     inkscape:cx="42.625"
     inkscape:cy="-39.768172"
     inkscape:window-x="2326"
     inkscape:window-y="148"
     inkscape:window-maximized="0"
     inkscape:current-layer="Layer_1" /><path
     d="m 10,3.3333333 c 1.639625,0 2.976125,1.763 2.9995,3.9413334 -0.0025,0.044333 -0.0044,0.08916 -0.0044,0.125 0,0.6348333 0.336,1.1816666 0.80275,1.3073333 C 14.494625,8.8938333 15,9.7181667 15,10.666667 c 0,1.102833 -0.672875,2 -1.5,2 H 2.8135 C 2.766125,12.645827 2.716875,12.629507 2.6665,12.618493 1.700625,12.401 1,11.300167 1,10 1,8.5293333 1.897,7.3333333 3,7.3333333 3.55225,7.3333333 4,6.7363333 4,6 4,5.265 4.44875,4.6666667 5,4.6666667 c 0.327625,0 0.6255,0.2083333 0.816875,0.571 C 6.004375,5.5925 6.3095,5.8035 6.63475,5.8035 c 0.00737,0 0.014625,0 0.0225,0 C 6.99025,5.7929667 7.297875,5.5626667 7.477625,5.1883333 8.034125,4.0266667 8.977,3.3333333 10,3.3333333 M 10,2 C 8.583,2 7.34525,2.9883333 6.63475,4.47 6.273,3.7845 5.67725,3.3333333 5,3.3333333 3.895,3.3333333 3,4.5266667 3,6 1.34275,6 0,7.7903333 0,10 c 0,1.981167 1.082,3.614 2.5,3.933 V 14 h 11 C 14.880875,14 16,12.507833 16,10.666667 16,9.0515 15.138625,7.7063333 13.995125,7.3996667 c 0,-0.02284 0.0049,-0.043667 0.0049,-0.066333 0,-2.9453333 -1.791,-5.3333333 -4,-5.3333333 l 0,0 z"
     id="path3"
     inkscape:connector-curvature="0"
     style="fill:#db600e;fill-opacity:1" /></svg>