<?xml version="1.0" encoding="UTF-8" standalone="no"?>
<svg
   xmlns:dc="http://purl.org/dc/elements/1.1/"
   xmlns:cc="http://creativecommons.org/ns#"
   xmlns:rdf="http://www.w3.org/1999/02/22-rdf-syntax-ns#"
   xmlns:svg="http://www.w3.org/2000/svg"
   xmlns="http://www.w3.org/2000/svg"
   xmlns:sodipodi="http://sodipodi.sourceforge.net/DTD/sodipodi-0.dtd"
   xmlns:inkscape="http://www.inkscape.org/namespaces/inkscape"
   height="32"
   version="1.1"
   viewBox="0 0 32 32"
   width="32"
   xml:space="preserve"
   id="svg2"
   inkscape:version="0.91 r13725"
   sodipodi:docname="download.svg"><metadata
     id="metadata12"><rdf:RDF><cc:Work
         rdf:about=""><dc:format>image/svg+xml</dc:format><dc:type
           rdf:resource="http://purl.org/dc/dcmitype/StillImage" /><dc:title></dc:title></cc:Work></rdf:RDF></metadata><defs
     id="defs10" /><sodipodi:namedview
     pagecolor="#ffffff"
     bordercolor="#666666"
     borderopacity="1"
     objecttolerance="10"
     gridtolerance="10"
     guidetolerance="10"
     inkscape:pageopacity="0"
     inkscape:pageshadow="2"
     inkscape:window-width="1578"
     inkscape:window-height="908"
     id="namedview8"
     showgrid="false"
     inkscape:zoom="11.53125"
     inkscape:cx="4.1192412"
     inkscape:cy="9.2628726"
     inkscape:window-x="377"
     inkscape:window-y="206"
     inkscape:window-maximized="0"
     inkscape:current-layer="svg2" /><g
     id="Layer_1"
     transform="translate(0,12)" /><g
     id="cloud"
     transform="translate(0,6)"
     style="fill:#ff8001;fill-opacity:1;stroke:none"><path
       d="M 24,4 C 23.621,4 23.262,4.061 22.898,4.111 21.504,1.646 18.926,0 16,0 13.012,0 10.434,1.666 9.059,4.1 8.707,4.053 8.355,4 8,4 3.59,4 0,7.588 0,12 c 0,4.414 3.59,8 8,8 l 16,0 c 4.41,0 8,-3.586 8,-8 C 32,7.588 28.41,4 24,4 Z M 24,16 8,16 C 5.793,16 4,14.205 4,12 4,9.807 5.941,8.115 8.004,8.055 c 0.008,0.943 0.172,1.869 0.5,2.744 L 12.25,9.397 C 12.082,8.953 12,8.482 12,8 12,5.795 13.793,4 16,4 17.293,4 18.465,4.641 19.199,5.639 17.27,7.1 16,9.395 16,12 l 4,0 c 0,-2.205 1.793,-4 4,-4 2.207,0 4,1.795 4,4 0,2.205 -1.793,4 -4,4 z"
       style="fill:#ff8001;fill-opacity:1;stroke:none"
       id="path6"
       inkscape:connector-curvature="0" /></g></svg>