<?xml version="1.0" encoding="UTF-8" standalone="no"?>
<svg
   xmlns:dc="http://purl.org/dc/elements/1.1/"
   xmlns:cc="http://creativecommons.org/ns#"
   xmlns:rdf="http://www.w3.org/1999/02/22-rdf-syntax-ns#"
   xmlns:svg="http://www.w3.org/2000/svg"
   xmlns="http://www.w3.org/2000/svg"
   xmlns:sodipodi="http://sodipodi.sourceforge.net/DTD/sodipodi-0.dtd"
   xmlns:inkscape="http://www.inkscape.org/namespaces/inkscape"
   height="24"
   version="1.1"
   width="24"
   id="svg10"
   sodipodi:docname="execute.svg"
   inkscape:version="0.92.1 r15371">
  <metadata
     id="metadata16">
    <rdf:RDF>
      <cc:Work
         rdf:about="">
        <dc:format>image/svg+xml</dc:format>
        <dc:type
           rdf:resource="http://purl.org/dc/dcmitype/StillImage" />
      </cc:Work>
    </rdf:RDF>
  </metadata>
  <defs
     id="defs14" />
  <sodipodi:namedview
     pagecolor="#ffffff"
     bordercolor="#666666"
     borderopacity="1"
     objecttolerance="10"
     gridtolerance="10"
     guidetolerance="10"
     inkscape:pageopacity="0"
     inkscape:pageshadow="2"
     inkscape:window-width="1080"
     inkscape:window-height="702"
     id="namedview12"
     showgrid="false"
     inkscape:zoom="9.8333333"
     inkscape:cx="12"
     inkscape:cy="12"
     inkscape:window-x="0"
     inkscape:window-y="0"
     inkscape:window-maximized="0"
     inkscape:current-layer="svg10" />
  <path
     style="fill:#267cb5;stroke-width:1.04206026;fill-opacity:1"
     inkscape:connector-curvature="0"
     id="path2"
     d="m 15.66352,1.5567301 v 1.0420602 c -0.325123,0.104206 -0.642952,0.208412 -0.911803,0.4168241 L 13.970172,2.1819662 13.22093,2.9114083 14.002476,3.7450565 c -0.175067,0.208412 -0.291777,0.6252361 -0.358469,0.9378542 h -1.106668 v 1.0420602 h 1.106668 c 0.06669,0.312618 0.183402,0.6252361 0.358469,0.8336481 l -0.781546,0.8336482 0.749242,0.7294421 0.781545,-0.7294421 c 0.268851,0.104206 0.58668,0.208412 0.911802,0.3126181 V 8.8511515 H 16.70558 V 7.7048853 C 17.030702,7.6006792 17.348531,7.4964732 17.617382,7.3922672 L 18.398928,8.1217093 19.148169,7.3922672 18.366624,6.558619 C 18.54169,6.350207 18.658401,6.0375889 18.725092,5.7249709 H 19.83176 V 4.6829107 H 18.725092 C 18.658401,4.3702926 18.54169,3.9534685 18.366624,3.7450565 L 19.148169,2.9114083 18.398928,2.1819662 17.617382,3.0156144 C 17.348531,2.8072023 17.030702,2.7029963 16.70558,2.5987903 V 1.5567301 Z m 0.52103,2.0841204 c 0.862825,0 1.56309,0.6252361 1.56309,1.5630903 0,0.8336481 -0.700265,1.5630903 -1.56309,1.5630903 -0.862826,0 -1.563091,-0.7294422 -1.563091,-1.5630903 0,-0.9378542 0.700265,-1.5630903 1.563091,-1.5630903 z" />
  <path
     style="fill:#267cb5;stroke-width:1.04206026;fill-opacity:1"
     inkscape:connector-curvature="0"
     id="path4"
     d="m 9.4111583,4.5787047 -2.1166327,0.104206 v 2.1883264 c -0.3753501,0 -0.7419468,0.104206 -1.1072931,0.208412 L 5.0801477,5.2039408 3.2890546,6.246001 4.3636271,8.1217093 C 4.0623675,8.4343274 3.7938286,8.6427394 3.5495697,8.9553575 L 1.6608356,7.9132973 0.61877536,9.6847996 2.5075095,10.831066 C 2.3675608,11.143684 2.2481407,11.560508 2.1818657,11.977332 H 1.574e-8 l 5.210301e-5,2.08412 H 2.21443 c 0.065337,0.416825 0.1561007,0.729443 0.2930274,1.146267 l -1.88873414,1.04206 1.04206024,1.771502 1.8887341,-1.04206 c 0.2479061,0.312618 0.5218637,0.52103 0.8140574,0.833648 l -1.1070848,1.875709 1.8236054,1.04206 1.0745725,-1.875709 c 0.3750374,0.104206 0.7774811,0.208412 1.1723177,0.312618 v 2.188327 h 2.0841204 v -2.188327 c 0.3751417,-0.104206 0.7419468,-0.208412 1.1066678,-0.312618 l 1.10771,1.875709 1.791302,-1.04206 -1.075407,-1.875709 c 0.302198,-0.312618 0.570007,-0.52103 0.814892,-0.833648 l 1.888213,1.04206 1.075406,-1.771502 -1.921559,-1.04206 c 0.139636,-0.416824 0.259473,-0.833648 0.325123,-1.146267 h 2.182074 V 11.873126 H 14.49115 C 14.4255,11.560508 14.334841,11.143684 14.198331,10.831066 L 16.086544,9.6847996 15.044484,7.9132973 13.156271,8.9553575 C 12.90826,8.7469455 12.634198,8.4343274 12.341379,8.2259154 L 13.449089,6.246001 11.625484,5.2039408 10.55112,7.0796491 C 10.175978,6.9754431 9.7737431,6.8712371 9.3785939,6.8712371 l 0.032512,-2.2925324 z m -1.0420602,5.314507 c 1.7266939,0 3.1261809,1.3546783 3.1261809,3.1261803 0,1.667297 -1.399487,3.126181 -3.1261809,3.126181 -1.7265895,0 -3.1261806,-1.458884 -3.1261806,-3.126181 0,-1.771502 1.3995911,-3.1261803 3.1261806,-3.1261803 z" />
  <path
     style="fill:#bdc3c7;stroke-width:1.04206026"
     inkscape:connector-curvature="0"
     id="path6"
     d="m 18.7897,6.6628251 v 1.1462662 c -0.281356,0 -0.55646,0.104206 -0.813849,0.208412 l -0.553334,-0.9378542 -0.912845,0.5210301 0.554376,0.9378542 c -0.233421,0.2084121 -0.436623,0.4168241 -0.618983,0.6252361 l -0.944107,-0.6252361 -0.52103,0.9378542 0.944107,0.5210301 c -0.100038,0.3126183 -0.188613,0.6252363 -0.228212,0.8336483 h -1.074364 v 1.04206 h 1.074364 c 0.0396,0.312618 0.128174,0.625236 0.228212,0.833648 l -0.944107,0.52103 0.52103,0.937855 0.944107,-0.521031 c 0.18236,0.208412 0.385562,0.416824 0.618983,0.625237 l -0.554376,0.937854 0.912845,0.52103 0.553334,-0.937854 c 0.257389,0.104206 0.532493,0.208412 0.813849,0.208412 v 1.04206 h 1.04206 v -1.04206 c 0.281357,0 0.55646,-0.104206 0.813849,-0.208412 l 0.553334,0.937854 0.912845,-0.52103 -0.554376,-0.937854 c 0.233421,-0.208413 0.436623,-0.416825 0.618984,-0.625237 l 0.944106,0.521031 0.52103,-0.937855 -0.944106,-0.52103 c 0.100038,-0.208412 0.188613,-0.52103 0.228211,-0.833648 h 1.074364 v -1.04206 h -1.074364 c -0.0396,-0.208412 -0.128173,-0.52103 -0.228211,-0.8336483 L 23.641532,9.4763876 23.120502,8.5385334 22.176396,9.1637695 C 21.994035,8.9553575 21.790833,8.7469455 21.557412,8.5385334 L 22.111788,7.6006792 21.198943,7.0796491 20.645609,8.0175033 C 20.38822,7.9132973 20.113117,7.8090913 19.83176,7.8090913 V 6.6628251 Z m 0.52103,2.0841204 c 1.439085,0 2.605151,1.2504722 2.605151,2.6051505 0,1.458884 -1.166066,2.60515 -2.605151,2.60515 -1.439085,0 -2.60515,-1.146266 -2.60515,-2.60515 0,-1.3546783 1.166065,-2.6051505 2.60515,-2.6051505 z" />
</svg>
