<?xml version="1.0" encoding="UTF-8" standalone="no"?>
<!-- Created with Inkscape (http://www.inkscape.org/) -->

<svg
   xmlns:svg="http://www.w3.org/2000/svg"
   xmlns="http://www.w3.org/2000/svg"
   xmlns:xlink="http://www.w3.org/1999/xlink"
   version="1.0"
   width="24"
   height="24"
   id="svg4602">
  <defs
     id="defs4604">
    <radialGradient
       cx="605.71429"
       cy="486.64789"
       r="117.14286"
       fx="605.71429"
       fy="486.64789"
       id="radialGradient4536"
       xlink:href="#linearGradient5060"
       gradientUnits="userSpaceOnUse"
       gradientTransform="matrix(-2.774389,0,0,1.969706,112.7623,-872.8854)" />
    <linearGradient
       id="linearGradient5060">
      <stop
         id="stop5062"
         style="stop-color:#000000;stop-opacity:1"
         offset="0" />
      <stop
         id="stop5064"
         style="stop-color:#000000;stop-opacity:0"
         offset="1" />
    </linearGradient>
    <radialGradient
       cx="605.71429"
       cy="486.64789"
       r="117.14286"
       fx="605.71429"
       fy="486.64789"
       id="radialGradient4534"
       xlink:href="#linearGradient5060"
       gradientUnits="userSpaceOnUse"
       gradientTransform="matrix(2.774389,0,0,1.969706,-1891.633,-872.8854)" />
    <linearGradient
       id="linearGradient5048">
      <stop
         id="stop5050"
         style="stop-color:#000000;stop-opacity:0"
         offset="0" />
      <stop
         id="stop5056"
         style="stop-color:#000000;stop-opacity:1"
         offset="0.5" />
      <stop
         id="stop5052"
         style="stop-color:#000000;stop-opacity:0"
         offset="1" />
    </linearGradient>
    <linearGradient
       x1="302.85715"
       y1="366.64789"
       x2="302.85715"
       y2="609.50507"
       id="linearGradient4532"
       xlink:href="#linearGradient5048"
       gradientUnits="userSpaceOnUse"
       gradientTransform="matrix(2.774389,0,0,1.969706,-1892.179,-872.8854)" />
    <linearGradient
       id="linearGradient3931">
      <stop
         id="stop3933"
         style="stop-color:#8d8f8a;stop-opacity:1"
         offset="0" />
      <stop
         id="stop3935"
         style="stop-color:#cbcbcb;stop-opacity:1"
         offset="1" />
    </linearGradient>
    <linearGradient
       x1="-51.786404"
       y1="50.786446"
       x2="-51.786404"
       y2="2.9062471"
       id="linearGradient4547"
       xlink:href="#linearGradient3931"
       gradientUnits="userSpaceOnUse"
       gradientTransform="matrix(0.4383743,0,0,0.4575444,30.782346,-0.7786496)" />
    <linearGradient
       id="linearGradient3600">
      <stop
         id="stop3602"
         style="stop-color:#f4f4f4;stop-opacity:1"
         offset="0" />
      <stop
         id="stop3604"
         style="stop-color:#dbdbdb;stop-opacity:1"
         offset="1" />
    </linearGradient>
    <linearGradient
       x1="25.132275"
       y1="6.7287393"
       x2="25.132275"
       y2="47.013336"
       id="linearGradient4545"
       xlink:href="#linearGradient3600"
       gradientUnits="userSpaceOnUse"
       gradientTransform="matrix(0.5428805,0,0,0.4889072,-1.4703092,-0.2337718)" />
    <linearGradient
       id="linearGradient4873">
      <stop
         id="stop4875"
         style="stop-color:#ffffff;stop-opacity:1"
         offset="0" />
      <stop
         id="stop4877"
         style="stop-color:#ffffff;stop-opacity:0"
         offset="1" />
    </linearGradient>
    <linearGradient
       x1="21.628975"
       y1="2.1102102"
       x2="22.245434"
       y2="43.366352"
       id="linearGradient2502"
       xlink:href="#linearGradient4873"
       gradientUnits="userSpaceOnUse"
       gradientTransform="matrix(0.3167426,0,0,0.310739,-3.8023578,0.982695)" />
    <linearGradient
       id="linearGradient3533">
      <stop
         id="stop3535"
         style="stop-color:#93b9dd;stop-opacity:1"
         offset="0" />
      <stop
         id="stop3545"
         style="stop-color:#6396cd;stop-opacity:1"
         offset="1" />
    </linearGradient>
    <linearGradient
       x1="15.372947"
       y1="5.0471625"
       x2="15.372947"
       y2="22.599676"
       id="linearGradient2510"
       xlink:href="#linearGradient3533"
       gradientUnits="userSpaceOnUse"
       gradientTransform="matrix(0.3167426,0,0,0.310739,-3.8023578,0.982695)" />
    <linearGradient
       id="linearGradient4559">
      <stop
         id="stop4561"
         style="stop-color:#cacaca;stop-opacity:1"
         offset="0" />
      <stop
         id="stop4563"
         style="stop-color:#949492;stop-opacity:1"
         offset="1" />
    </linearGradient>
    <linearGradient
       x1="17.288921"
       y1="2.184907"
       x2="15.179585"
       y2="5.8214641"
       id="linearGradient4565"
       xlink:href="#linearGradient4559"
       gradientUnits="userSpaceOnUse"
       gradientTransform="translate(-0.44117649,2)" />
    <linearGradient
       id="linearGradient8589">
      <stop
         id="stop8591"
         style="stop-color:#fefefe;stop-opacity:1"
         offset="0" />
      <stop
         id="stop8593"
         style="stop-color:#cbcbcb;stop-opacity:1"
         offset="1" />
    </linearGradient>
    <linearGradient
       x1="32.892288"
       y1="8.0590115"
       x2="36.358372"
       y2="5.4565363"
       id="linearGradient4543"
       xlink:href="#linearGradient8589"
       gradientUnits="userSpaceOnUse"
       gradientTransform="matrix(0.541631,0,0,0.5202974,-1.3813843,1.6981438)" />
  </defs>
  <g
     transform="translate(0.44117647,0)"
     id="layer1">
    <g
       transform="matrix(0.46055693,0,0,0.5168524,2.2998613,-0.5781821)"
       id="g3490"
       style="stroke-width:1.88256383;stroke-miterlimit:4;stroke-dasharray:none;display:inline">
      <g
         transform="matrix(0.02165152,0,0,0.01485743,43.0076,42.68539)"
         id="g5022"
         style="stroke-width:104.96237946;stroke-miterlimit:4;stroke-dasharray:none;display:inline">
        <rect
           width="1339.6335"
           height="478.35718"
           x="-1559.2523"
           y="-150.69685"
           id="rect4173"
           style="opacity:0.40206185;fill:url(#linearGradient4532);fill-opacity:1;fill-rule:nonzero;stroke:none;stroke-width:104.96237946;marker:none;visibility:visible;display:inline;overflow:visible" />
        <path
           d="m -219.61876,-150.68038 c 0,0 0,478.33079 0,478.33079 142.874166,0.90045 345.40022,-107.16966 345.40014,-239.196175 0,-132.026537 -159.436816,-239.134595 -345.40014,-239.134615 z"
           id="path5058"
           style="opacity:0.40206185;fill:url(#radialGradient4534);fill-opacity:1;fill-rule:nonzero;stroke:none;stroke-width:104.96237946;marker:none;visibility:visible;display:inline;overflow:visible" />
        <path
           d="m -1559.2523,-150.68038 c 0,0 0,478.33079 0,478.33079 -142.8742,0.90045 -345.4002,-107.16966 -345.4002,-239.196175 0,-132.026537 159.4368,-239.134595 345.4002,-239.134615 z"
           id="path5018"
           style="opacity:0.40206185;fill:url(#radialGradient4536);fill-opacity:1;fill-rule:nonzero;stroke:none;stroke-width:104.96237946;marker:none;visibility:visible;display:inline;overflow:visible" />
      </g>
    </g>
    <path
       d="m 6.058393,2.4995699 c 4.354059,0 4.708123,10e-8 9.062183,10e-8 0.7638,0.2373053 4.867172,2.9408449 5.938678,4.8127818 0,5.7293572 0,9.4587192 0,15.1880792 -6.333619,0 -8.667243,0 -15.000861,0 l 0,-20.0008611 z"
       id="rect2594"
       style="fill:url(#linearGradient4545);fill-opacity:1;stroke:url(#linearGradient4547);stroke-width:0.99913895;stroke-linecap:butt;stroke-linejoin:round;stroke-miterlimit:4;stroke-opacity:1;stroke-dasharray:none;stroke-dashoffset:0;display:inline" />
    <g
       transform="translate(3.5588235,5)"
       id="g9712"
       style="display:inline">
      <g
         transform="translate(-1.5907386,-1.0136892)"
         id="g9714"
         style="display:inline" />
      <g
         transform="translate(-70.604705,-2.1799939)"
         id="g2630"
         style="display:inline" />
      <g
         id="g9717" />
      <g
         transform="matrix(0.9248169,0,0,0.9248169,-221.70753,13.0581)"
         id="g9719" />
      <g
         transform="matrix(0.9248169,0,0,0.9248169,-221.70753,13.0581)"
         id="g9721"
         style="display:inline" />
      <g
         transform="matrix(0.9248169,0,0,0.9248169,-270.77652,-10.260991)"
         id="g9723" />
      <g
         transform="matrix(0.9248169,0,0,0.9248169,-236.49197,13.317533)"
         id="g9725" />
      <g
         transform="matrix(0.9248169,0,0,0.9248169,-236.49197,13.317533)"
         id="g9727"
         style="display:inline" />
      <g
         transform="matrix(0.9248169,0,0,0.9248169,-285.56096,-10.001558)"
         id="g9729" />
      <g
         transform="matrix(0.9248169,0,0,0.9248169,-220.44778,16.571925)"
         id="g9731" />
      <g
         transform="matrix(0.9248169,0,0,0.9248169,-220.44778,16.571925)"
         id="g9733"
         style="display:inline" />
      <g
         transform="matrix(0.9248169,0,0,0.9248169,-269.51677,-6.7471662)"
         id="g9735" />
      <g
         transform="matrix(0.9248169,0,0,0.9248169,-335.99732,22.698689)"
         id="g9737" />
      <g
         transform="matrix(0.9248169,0,0,0.9248169,-335.99732,22.698689)"
         id="g9739"
         style="display:inline" />
      <g
         transform="matrix(0.9248169,0,0,0.9248169,-385.06631,-0.6204021)"
         id="g9741" />
      <g
         transform="matrix(0.9248169,0,0,0.9248169,-278.60865,-29.839987)"
         id="g9743" />
      <g
         transform="matrix(0.9248169,0,0,0.9248169,-278.60865,-29.839987)"
         id="g9745"
         style="display:inline" />
      <g
         transform="matrix(0.9248169,0,0,0.9248169,-397.47554,-3.4577368)"
         id="g9747" />
      <g
         transform="matrix(0.9248169,0,0,0.9248169,-397.47554,-3.4577368)"
         id="g9749" />
      <g
         transform="matrix(0.9248169,0,0,0.9248169,-397.47554,-3.4577368)"
         id="g2558" />
      <g
         transform="matrix(0.9248169,0,0,0.9248169,-470.53387,-11.184438)"
         id="g9752"
         style="display:inline" />
      <g
         transform="matrix(0.9248169,0,0,0.9248169,-470.53387,-11.184438)"
         id="g9754" />
      <g
         transform="matrix(0.9248169,0,0,0.9248169,-470.53387,-11.184438)"
         id="g9756"
         style="display:inline" />
      <g
         transform="matrix(0.9248169,0,0,0.9248169,-325.77755,-2.9465341)"
         id="g9758" />
      <g
         transform="matrix(0.9248169,0,0,0.9248169,-170.10432,1.9182516)"
         id="g9760" />
      <g
         transform="matrix(0.9248169,0,0,0.9248169,-497.66484,-35.271408)"
         id="g9762" />
      <g
         transform="matrix(0.9248169,0,0,0.9248169,-497.66484,-35.271408)"
         id="g9764"
         style="display:inline" />
      <g
         transform="matrix(0.9248169,0,0,0.9248169,-497.66484,-35.271408)"
         id="g9766" />
      <g
         transform="matrix(0.9248169,0,0,0.9248169,-468.59127,-22.101001)"
         id="g9768"
         style="display:inline" />
      <g
         transform="matrix(0.9248169,0,0,0.9248169,-468.59127,-22.101001)"
         id="g9770" />
      <g
         transform="matrix(0.9248169,0,0,0.9248169,-468.59127,-22.101001)"
         id="g9772"
         style="display:inline" />
      <g
         transform="matrix(0.9248169,0,0,0.9248169,-323.83495,-13.863096)"
         id="g9774" />
      <g
         transform="matrix(0.9248169,0,0,0.9248169,-168.16172,-8.9983112)"
         id="g9776" />
      <g
         transform="matrix(0.9248169,0,0,0.9248169,-495.72225,-46.187971)"
         id="g9778" />
      <g
         transform="matrix(0.9248169,0,0,0.9248169,-495.72225,-46.187971)"
         id="g9780"
         style="display:inline" />
      <g
         transform="matrix(0.9248169,0,0,0.9248169,-495.72225,-46.187971)"
         id="g9782" />
      <g
         transform="matrix(0.9248169,0,0,0.9248169,-535.8485,3.0487265)"
         id="g9784" />
      <g
         transform="matrix(0.9248169,0,0,0.9248169,-535.8485,3.0487265)"
         id="g9786"
         style="display:inline" />
      <g
         transform="matrix(0.9248169,0,0,0.9248169,-584.91749,-20.270364)"
         id="g9788" />
      <g
         transform="matrix(0.9248169,0,0,0.9248169,-271.28964,-4.822798)"
         id="g9790" />
      <g
         transform="matrix(0.9248169,0,0,0.9248169,-271.28964,-4.822798)"
         id="g9792"
         style="display:inline" />
      <g
         transform="matrix(0.9248169,0,0,0.9248169,-390.15653,21.559457)"
         id="g9794" />
      <g
         transform="matrix(0.9248169,0,0,0.9248169,-390.15653,21.559457)"
         id="g9796" />
      <g
         transform="matrix(0.9248169,0,0,0.9248169,-390.15653,21.559457)"
         id="g9798" />
      <g
         transform="matrix(0.9248169,0,0,0.9248169,-463.21486,13.832751)"
         id="g9800"
         style="display:inline" />
      <g
         transform="matrix(0.9248169,0,0,0.9248169,-463.21486,13.832751)"
         id="g9802" />
      <g
         transform="matrix(0.9248169,0,0,0.9248169,-463.21486,13.832751)"
         id="g9804"
         style="display:inline" />
      <g
         transform="matrix(0.9248169,0,0,0.9248169,-318.45854,22.070659)"
         id="g9806" />
      <g
         transform="matrix(0.9248169,0,0,0.9248169,-162.78531,26.935445)"
         id="g9808" />
      <g
         transform="matrix(0.9248169,0,0,0.9248169,-490.34583,-10.254218)"
         id="g9810" />
      <g
         transform="matrix(0.9248169,0,0,0.9248169,-490.34583,-10.254218)"
         id="g9812"
         style="display:inline" />
      <g
         transform="matrix(0.9248169,0,0,0.9248169,-490.34583,-10.254218)"
         id="g9814" />
      <g
         transform="matrix(0.9248169,0,0,0.9248169,-461.27226,2.9161882)"
         id="g9816"
         style="display:inline" />
      <g
         transform="matrix(0.9248169,0,0,0.9248169,-461.27226,2.9161882)"
         id="g9818" />
      <g
         transform="matrix(0.9248169,0,0,0.9248169,-461.27226,2.9161882)"
         id="g9820"
         style="display:inline" />
      <g
         transform="matrix(0.9248169,0,0,0.9248169,-316.51594,11.154093)"
         id="g9822" />
      <g
         transform="matrix(0.9248169,0,0,0.9248169,-160.84271,16.018879)"
         id="g9824" />
      <g
         transform="matrix(0.9248169,0,0,0.9248169,-488.40324,-21.170781)"
         id="g9826" />
      <g
         transform="matrix(0.9248169,0,0,0.9248169,-488.40324,-21.170781)"
         id="g9828"
         style="display:inline" />
      <g
         transform="matrix(0.9248169,0,0,0.9248169,-488.40324,-21.170781)"
         id="g9830" />
      <path
         d="M 2.06,10.016632 C 1.5157275,9.4686714 1.0748421,8.7245504 1.0748421,7.9311387 c 0,-1.3656113 1.5327086,-2.8547587 3.0188745,-2.8547587 0.7845985,0 1.5447049,0.1765746 2.1081774,0.7098357 L 4.5,7.5 l 5.997881,0 c 0,0 0,-5.9978758 0,-5.9978758 L 8.655258,3.3318452 C 7.42454,2.1453703 6.001896,1.5236803 4.1855145,1.5040666 c -3.6950948,-0.0399 -6.6421123,2.9131139 -6.682965,6.5221074 0.026821,3.173558 2.04836761,4.819614 4.5804956,6.168911"
         id="path3372"
         style="fill:url(#linearGradient2510);fill-opacity:1;stroke:#538ec6;stroke-width:1.00424838;stroke-linecap:butt;stroke-linejoin:round;stroke-miterlimit:4;stroke-opacity:1;stroke-dasharray:none" />
      <path
         d="M 1.8974971,11.249758 C 0.7360412,10.437895 0.26441038,9.3032085 0,7.960344 -0.00161958,6.2032966 2.312046,3.9741847 4.1119264,4 4.9990879,4.0127247 6.534992,4.5900861 7.646591,5.6361429 L 6.876843,6.5 9.5,6.5 c 0,0 0,-2.6790505 0,-2.6790505 L 8.701255,4.6539329 C 7.5257,3.3675302 5.9692528,2.5 4.1303702,2.5 0.9171141,2.5 -1.5,5.1084506 -1.5,8.0609425 c 0.082154,2.5132415 1.43857624,4.0178345 3.547068,5.0700135"
         id="path3370"
         style="opacity:0.4;fill:none;stroke:url(#linearGradient2502);stroke-width:1.00424838;stroke-linecap:butt;stroke-linejoin:miter;stroke-miterlimit:4;stroke-opacity:1;stroke-dasharray:none" />
    </g>
    <path
       d="m 15.058824,2.5 c 0,2.262965 0,5 0,5 0,0 4.653658,0 6,0 0,-0.836587 -4.820468,-4.9857176 -6,-5 z"
       id="path12038"
       style="fill:url(#linearGradient4543);fill-opacity:1;fill-rule:evenodd;stroke:url(#linearGradient4565);stroke-width:1;stroke-linecap:butt;stroke-linejoin:round;stroke-miterlimit:4;stroke-opacity:1;stroke-dasharray:none;display:inline" />
    <rect
       width="10"
       height="1.0000002"
       rx="0.17857145"
       ry="0.50000012"
       x="8.5588236"
       y="14"
       id="rect2874"
       style="fill:#babdb6;fill-opacity:1;stroke:none;display:inline" />
    <rect
       width="10"
       height="1.0000002"
       rx="0.17857145"
       ry="0.50000012"
       x="8.5588236"
       y="16"
       id="rect2892"
       style="fill:#babdb6;fill-opacity:1;stroke:none;display:inline" />
    <rect
       width="10"
       height="1.0000002"
       rx="0.17857145"
       ry="0.50000012"
       x="8.5588236"
       y="18"
       id="rect1984"
       style="fill:#babdb6;fill-opacity:1;stroke:none;display:inline" />
  </g>
</svg>
