<?xml version="1.0" encoding="UTF-8" standalone="no"?>
<svg
   xmlns:dc="http://purl.org/dc/elements/1.1/"
   xmlns:cc="http://creativecommons.org/ns#"
   xmlns:rdf="http://www.w3.org/1999/02/22-rdf-syntax-ns#"
   xmlns:svg="http://www.w3.org/2000/svg"
   xmlns="http://www.w3.org/2000/svg"
   xmlns:sodipodi="http://sodipodi.sourceforge.net/DTD/sodipodi-0.dtd"
   xmlns:inkscape="http://www.inkscape.org/namespaces/inkscape"
   enable-background="new 45.6 168.9 504 504"
   id="Layer_1"
   version="1.1"
   viewBox="45.6 168.9 504 504"
   xml:space="preserve"
   inkscape:version="0.91 r13725"
   sodipodi:docname="folder-yellow-opened.svg"><metadata
     id="metadata11"><rdf:RDF><cc:Work
         rdf:about=""><dc:format>image/svg+xml</dc:format><dc:type
           rdf:resource="http://purl.org/dc/dcmitype/StillImage" /><dc:title></dc:title></cc:Work></rdf:RDF></metadata><defs
     id="defs9" /><sodipodi:namedview
     pagecolor="#ffffff"
     bordercolor="#666666"
     borderopacity="1"
     objecttolerance="10"
     gridtolerance="10"
     guidetolerance="10"
     inkscape:pageopacity="0"
     inkscape:pageshadow="2"
     inkscape:window-width="1148"
     inkscape:window-height="704"
     id="namedview7"
     showgrid="false"
     inkscape:zoom="0.46825397"
     inkscape:cx="13.881356"
     inkscape:cy="252"
     inkscape:window-x="800"
     inkscape:window-y="127"
     inkscape:window-maximized="0"
     inkscape:current-layer="Layer_1" /><path
     d="m 460.91849,250.07387 -189.46654,0 -47.45218,-55.23488 -118.40233,0 c -26.121516,0 -47.338118,24.82913 -47.338118,55.1021 l 0,331.01103 c 0,30.40575 21.33067,55.10212 47.338118,55.10212 l 367.29817,0 c 20.18999,0 35.58914,-17.92478 35.58914,-41.42617 l 0,-289.45209 c -0.11407,-30.27296 -21.44474,-55.10211 -47.56626,-55.10211 z"
     id="path3"
     inkscape:connector-curvature="0"
     style="fill:#ffa000" /><path
     d="m 494.72308,390.56949 -347.10169,0 c -24.47351,0 -46.46241,15.58415 -50.31358,36.86458 l -43.853571,208.72017 409.092981,0 c 24.47353,0 46.46243,-15.58415 50.31359,-36.86459 l 32.30008,-156.27142 c 6.33579,-26.76176 -18.26196,-52.44874 -50.43781,-52.44874 z"
     id="path5"
     inkscape:connector-curvature="0"
     style="fill:#ffca28" /></svg>