<?xml version="1.0" encoding="UTF-8" standalone="no"?>
<svg
   xmlns:dc="http://purl.org/dc/elements/1.1/"
   xmlns:cc="http://creativecommons.org/ns#"
   xmlns:rdf="http://www.w3.org/1999/02/22-rdf-syntax-ns#"
   xmlns:svg="http://www.w3.org/2000/svg"
   xmlns="http://www.w3.org/2000/svg"
   xmlns:sodipodi="http://sodipodi.sourceforge.net/DTD/sodipodi-0.dtd"
   xmlns:inkscape="http://www.inkscape.org/namespaces/inkscape"
   enable-background="new 45.6 168.9 504 504"
   id="Layer_1"
   version="1.1"
   viewBox="45.6 168.9 504 504"
   xml:space="preserve"
   inkscape:version="0.91 r13725"
   sodipodi:docname="folder-yellow.svg"><metadata
     id="metadata11"><rdf:RDF><cc:Work
         rdf:about=""><dc:format>image/svg+xml</dc:format><dc:type
           rdf:resource="http://purl.org/dc/dcmitype/StillImage" /><dc:title></dc:title></cc:Work></rdf:RDF></metadata><defs
     id="defs9" /><sodipodi:namedview
     pagecolor="#ffffff"
     bordercolor="#666666"
     borderopacity="1"
     objecttolerance="10"
     gridtolerance="10"
     guidetolerance="10"
     inkscape:pageopacity="0"
     inkscape:pageshadow="2"
     inkscape:window-width="1237"
     inkscape:window-height="669"
     id="namedview7"
     showgrid="false"
     inkscape:zoom="0.46825397"
     inkscape:cx="13.881356"
     inkscape:cy="252"
     inkscape:window-x="0"
     inkscape:window-y="0"
     inkscape:window-maximized="0"
     inkscape:current-layer="Layer_1" /><path
     d="m 467.11086,235.6 -207.45458,0 -46.08914,-43.1 -115.276311,0 c -25.343675,0 -46.089134,19.4 -46.089134,43.1 l 0,86.2 460.998305,0 0,-43.1 c 0,-23.7 -20.74545,-43.1 -46.08914,-43.1 z"
     id="path3"
     inkscape:connector-curvature="0"
     style="fill:#ffa000" /><path
     d="m 466.89735,244.61695 -370.528601,0 c -25.461084,0 -46.302647,25.30491 -46.302647,56.21864 l 0,281.09322 c 0,30.91373 20.841563,56.21865 46.302647,56.21865 l 370.528601,0 c 25.46108,0 46.30265,-25.30492 46.30265,-56.21865 l 0,-281.09322 c 0,-30.91373 -20.84157,-56.21864 -46.30265,-56.21864 z"
     id="path5"
     inkscape:connector-curvature="0"
     style="fill:#ffca28" /></svg>