<?xml version="1.0" encoding="UTF-8" standalone="no"?>
<svg
   xmlns:dc="http://purl.org/dc/elements/1.1/"
   xmlns:cc="http://creativecommons.org/ns#"
   xmlns:rdf="http://www.w3.org/1999/02/22-rdf-syntax-ns#"
   xmlns:svg="http://www.w3.org/2000/svg"
   xmlns="http://www.w3.org/2000/svg"
   xmlns:sodipodi="http://sodipodi.sourceforge.net/DTD/sodipodi-0.dtd"
   xmlns:inkscape="http://www.inkscape.org/namespaces/inkscape"
   enable-background="new 0 0 48 48"
   height="48px"
   id="Layer_1"
   version="1.1"
   viewBox="0 0 48 48"
   width="48px"
   xml:space="preserve"
   sodipodi:docname="home.svg"
   inkscape:version="0.92.3 (2405546, 2018-03-11)"><metadata
     id="metadata9"><rdf:RDF><cc:Work
         rdf:about=""><dc:format>image/svg+xml</dc:format><dc:type
           rdf:resource="http://purl.org/dc/dcmitype/StillImage" /><dc:title /></cc:Work></rdf:RDF></metadata><defs
     id="defs7" /><sodipodi:namedview
     pagecolor="#ffffff"
     bordercolor="#666666"
     borderopacity="1"
     objecttolerance="10"
     gridtolerance="10"
     guidetolerance="10"
     inkscape:pageopacity="0"
     inkscape:pageshadow="2"
     inkscape:window-width="1602"
     inkscape:window-height="1347"
     id="namedview5"
     showgrid="false"
     inkscape:zoom="5"
     inkscape:cx="-46.59322"
     inkscape:cy="24"
     inkscape:window-x="-2"
     inkscape:window-y="0"
     inkscape:window-maximized="0"
     inkscape:current-layer="Layer_1" /><path
     d="m 46.59925,23.686498 c -0.415666,0.416751 -1.090986,0.416751 -1.506653,0 l -9.752333,-9.751149 c -0.06982,-0.05564 -0.129825,-0.115643 -0.185466,-0.186558 L 30.976317,9.5714437 C 30.906492,9.515806 30.846491,9.4558006 30.790849,9.3848861 L 23.999457,2.5935588 2.9074041,23.686498 c -0.4156659,0.416751 -1.0909868,0.416751 -1.5066529,0 -0.41566594,-0.415663 -0.41566594,-1.090978 0,-1.506639 L 23.116847,0.46397258 c 0.03382,-0.0512772 0.05782,-0.11018859 0.102556,-0.15710059 0.214927,-0.21383135 0.498583,-0.31311032 0.780059,-0.30656442299 0.281473,-0.006549997 0.565129,0.091642203 0.780054,0.30656442299 0.04691,0.0458211 0.06764,0.10473314 0.104732,0.15710059 L 30.545375,6.1272314 V 3.2699641 c 0,0 0,0 0,0 0,-0.6022191 0.487672,-1.0909764 1.090986,-1.0909764 h 4.363948 c 0.302204,0 0.57495,0.1221894 0.771328,0.3196561 0.19856,0.1974667 0.31966,0.4702106 0.31966,0.7713203 V 12.67309 l 9.507951,9.506769 c 0.415667,0.415661 0.415667,1.090976 2e-6,1.506639 z M 34.909325,4.3609406 h -2.181974 v 3.9482435 l 2.181974,2.1819529 z M 8.7256377,21.816563 c 0.6022251,0 1.0909881,0.488758 1.0909881,1.090977 v 20.728552 c 0,1.205529 0.9775232,2.181953 2.1819732,2.181953 h 6.545922 v 0 -14.182695 c 0,-0.60331 0.487671,-1.090974 1.090986,-1.090974 h 8.727897 c 0.603315,0 1.090984,0.487664 1.090984,1.090974 v 14.182695 0 h 6.545923 c 1.205543,0 2.181974,-0.976424 2.181974,-2.181953 V 22.90754 c 0,-0.602219 0.487671,-1.090977 1.090989,-1.090977 0.603315,0 1.090986,0.488758 1.090986,1.090977 v 20.728552 c 0,2.409967 -1.953957,4.363907 -4.363949,4.363907 H 11.998599 c -2.4099902,0 -4.3639483,-1.95394 -4.3639483,-4.363907 V 22.90754 c 0,-0.603311 0.4887615,-1.090977 1.090987,-1.090977 z M 27.272416,45.816954 V 32.725238 h -6.545923 v 13.091716 0 z"
     id="path2"
     inkscape:connector-curvature="0"
     style="clip-rule:evenodd;fill:#204a87;fill-opacity:1;fill-rule:evenodd;stroke:#204a87;stroke-width:0;stroke-miterlimit:4;stroke-dasharray:none;stroke-opacity:1" /></svg>