<?xml version="1.0" encoding="UTF-8" standalone="no"?>
<svg
   xmlns:dc="http://purl.org/dc/elements/1.1/"
   xmlns:cc="http://creativecommons.org/ns#"
   xmlns:rdf="http://www.w3.org/1999/02/22-rdf-syntax-ns#"
   xmlns:svg="http://www.w3.org/2000/svg"
   xmlns="http://www.w3.org/2000/svg"
   xmlns:sodipodi="http://sodipodi.sourceforge.net/DTD/sodipodi-0.dtd"
   xmlns:inkscape="http://www.inkscape.org/namespaces/inkscape"
   height="24px"
   id="Layer_1"
   version="1.2"
   viewBox="0 0 24 24"
   width="24px"
   xml:space="preserve"
   sodipodi:docname="home.svg"
   inkscape:version="0.92.1 r15371"><metadata
     id="metadata9"><rdf:RDF><cc:Work
         rdf:about=""><dc:format>image/svg+xml</dc:format><dc:type
           rdf:resource="http://purl.org/dc/dcmitype/StillImage" /><dc:title></dc:title></cc:Work></rdf:RDF></metadata><defs
     id="defs7" /><sodipodi:namedview
     pagecolor="#ffffff"
     bordercolor="#666666"
     borderopacity="1"
     objecttolerance="10"
     gridtolerance="10"
     guidetolerance="10"
     inkscape:pageopacity="0"
     inkscape:pageshadow="2"
     inkscape:window-width="1645"
     inkscape:window-height="974"
     id="namedview5"
     showgrid="false"
     inkscape:zoom="9.8333333"
     inkscape:cx="-8.5423729"
     inkscape:cy="12"
     inkscape:window-x="0"
     inkscape:window-y="0"
     inkscape:window-maximized="0"
     inkscape:current-layer="Layer_1" /><path
     d="M 12,2.4 C 12,2.4 4.5768,8.808 0.4284,12.2784 0.1848,12.4992 0,12.8208 0,13.2 c 0,0.6636 0.5364,1.2 1.2,1.2 h 2.4 v 8.4 c 0,0.6636 0.5364,1.2 1.2,1.2 h 3.6 c 0.6636,0 1.2,-0.5376 1.2,-1.2 V 18 h 4.8 v 4.8 c 0,0.6624 0.5364,1.2 1.2,1.2 h 3.6 c 0.6636,0 1.2,-0.5364 1.2,-1.2 v -8.4 h 2.4 c 0.6636,0 1.2,-0.5364 1.2,-1.2 0,-0.3792 -0.1848,-0.7008 -0.4596,-0.9216 C 19.4208,8.808 12,2.4 12,2.4 Z"
     id="path2"
     style="fill:#267cb5;fill-opacity:1;stroke-width:1.20000005"
     inkscape:connector-curvature="0" /></svg>