<?xml version="1.0" ?><!DOCTYPE svg  PUBLIC '-//W3C//DTD SVG 1.1//EN'  'http://www.w3.org/Graphics/SVG/1.1/DTD/svg11.dtd'><svg enable-background="new 0 0 96 96" height="96px" id="link" version="1.1" viewBox="0 0 96 96" width="96px" xml:space="preserve" xmlns="http://www.w3.org/2000/svg" xmlns:xlink="http://www.w3.org/1999/xlink"><path d="M84.523,44.968L73.21,56.281c-0.644,0.645-1.308,1.238-2.002,1.789c-2.644,2.121-5.635,3.586-8.768,4.412  c-2.843,0.777-5.812,1.004-8.732,0.688c-2.716-0.283-5.402-1.033-7.913-2.256c-2.362-1.133-4.575-2.682-6.526-4.633  c-1.951-1.951-3.5-4.164-4.632-6.526c3.126-2.22,7.496-1.923,10.289,0.87c2.871,2.871,6.562,4.426,10.317,4.66  c2.68,0.162,5.409-0.348,7.885-1.535c1.604-0.756,3.104-1.803,4.426-3.125l11.313-11.314c6.251-6.25,6.294-16.334,0.043-22.585  c-6.244-6.244-16.419-6.293-22.67-0.042l-8.697,8.697c-3.289-0.884-6.683-1.223-10.062-1.039c0.552-0.693,1.146-1.358,1.789-2.001  l11.313-11.313c9.369-9.369,24.572-9.369,33.941,0S93.893,35.599,84.523,44.968z"/><path d="M56.239,73.252L44.925,84.566c-9.369,9.369-24.48,9.461-33.856,0.084C1.7,75.281,1.615,59.994,10.984,50.625l11.313-11.314  c0.644-0.644,1.308-1.237,2.001-1.789c2.645-2.122,5.636-3.585,8.769-4.413c2.842-0.778,5.812-1.004,8.733-0.686  c2.715,0.283,5.402,1.033,7.913,2.255c2.361,1.132,4.575,2.681,6.526,4.632c1.951,1.952,3.5,4.165,4.631,6.526  c-3.125,2.221-7.494,1.924-10.288-0.87c-2.871-2.871-6.562-4.426-10.316-4.66c-2.68-0.163-5.409,0.347-7.884,1.535  c-1.605,0.756-3.104,1.803-4.426,3.125L16.641,56.281c-6.25,6.252-6.25,16.377,0,22.627c6.251,6.252,16.377,6.252,22.627,0  l8.697-8.697c3.281,0.877,6.689,1.217,10.062,1.041C57.477,71.945,56.883,72.609,56.239,73.252z"/></svg>