<?xml version="1.0" ?><!DOCTYPE svg  PUBLIC '-//W3C//DTD SVG 1.1//EN'  'http://www.w3.org/Graphics/SVG/1.1/DTD/svg11.dtd'><svg enable-background="new 0 0 52 52" height="52px" id="Layer_1" version="1.1" viewBox="0 0 52 52" width="52px" xml:space="preserve" xmlns="http://www.w3.org/2000/svg" xmlns:xlink="http://www.w3.org/1999/xlink"><g><path d="M41.552,28.738l0.835,0.836c3.257,3.256,3.257,8.556,0,11.813c-2.695,2.695-6.787,3.152-9.965,1.387   c-0.26-0.145-0.513-0.307-0.76-0.48c-0.107-0.076-0.214-0.152-0.318-0.232c-0.076-0.061-0.152-0.121-0.227-0.183   c-0.186-0.155-0.369-0.316-0.543-0.491l-0.836-0.835l-6.497-6.497c-1.725-1.725-2.526-4.021-2.421-6.283   c0.003-0.084,0.003-0.167,0.01-0.25c0.015-0.199,0.041-0.398,0.07-0.598c0.008-0.057,0.014-0.113,0.023-0.169   c0.037-0.218,0.084-0.436,0.139-0.651c0.009-0.035,0.016-0.07,0.024-0.104c0.062-0.231,0.134-0.46,0.216-0.687   c0.006-0.018,0.011-0.035,0.018-0.053c0.087-0.237,0.186-0.471,0.295-0.7c0.003-0.007,0.017-0.002,0.021-0.008   c0.114-0.236,0.205-0.502,0.386-0.684c0,0,0.001-0.001,0.001-0.001c0.366-0.366,0.587-0.904,0.957-1.311   c0.092-0.101,0.17-0.212,0.268-0.309c0.793-0.793,1.709-1.389,2.685-1.796l-5.521-5.521c-0.871,0.577-1.699,1.248-2.466,2.015   c-0.191,0.191-0.376,0.386-0.555,0.583c-0.097,0.107-0.188,0.218-0.281,0.327c-0.079,0.092-0.16,0.181-0.235,0.274   c-0.125,0.152-0.242,0.307-0.36,0.463c-0.04,0.052-0.082,0.103-0.12,0.155c-0.134,0.181-0.261,0.365-0.386,0.549   c-0.019,0.029-0.04,0.057-0.059,0.086c-0.135,0.203-0.265,0.409-0.39,0.617c-0.006,0.011,0.228,0.021,0.222,0.032   C15.388,20.69,15,21.371,15,22.068c0,0,0,0.001,0,0.002c-3,5.745-1.484,12.607,3.188,17.279l1.238,1.359l5.913,5.973   c0.253,0.254,0.485,0.492,0.75,0.726c0.053,0.047,0.092,0.093,0.146,0.138c6.224,5.305,15.573,5.02,21.455-0.863   c6.188-6.186,6.184-16.217-0.004-22.403l-5.975-5.974C42.673,21.716,42.618,25.353,41.552,28.738z" fill="#231F20"/><path d="M11.448,22.262l-0.835-0.835c-3.257-3.257-3.257-8.556,0-11.813c2.696-2.696,6.787-3.153,9.965-1.387   c0.26,0.145,0.513,0.308,0.76,0.481c0.107,0.076,0.213,0.152,0.317,0.233C21.732,9,21.808,9.06,21.883,9.122   c0.186,0.156,0.369,0.316,0.543,0.491l0.835,0.835l6.497,6.498c1.725,1.725,2.526,4.021,2.421,6.283   c-0.003,0.083-0.003,0.167-0.01,0.25c-0.015,0.2-0.041,0.399-0.07,0.598c-0.008,0.057-0.014,0.113-0.023,0.169   c-0.037,0.218-0.084,0.436-0.139,0.651c-0.009,0.035-0.016,0.07-0.023,0.104c-0.063,0.231-0.135,0.46-0.217,0.687   c-0.006,0.018-0.012,0.035-0.018,0.053c-0.088,0.237-0.186,0.471-0.295,0.7c-0.003,0.007-0.018-0.064-0.021-0.058   C31.25,26.618,31.16,27,30.979,27c-0.001,0-0.002,0-0.002,0c-0.365,1-0.586,0.971-0.956,1.378   c-0.092,0.101-0.171,0.245-0.268,0.342c-0.793,0.794-1.709,1.405-2.685,1.813l5.52,5.528c0.871-0.576,1.699-1.242,2.467-2.01   c0.19-0.191,0.375-0.385,0.555-0.582c0.098-0.107,0.188-0.218,0.281-0.326c0.078-0.092,0.16-0.181,0.235-0.274   c0.124-0.152,0.242-0.306,0.36-0.462c0.039-0.051,0.082-0.102,0.119-0.154c0.135-0.181,0.262-0.365,0.387-0.549   c0.019-0.029,0.039-0.057,0.059-0.086c0.135-0.203,0.265-0.41,0.39-0.617c0.007-0.012-0.228-0.021-0.222-0.032   C37.612,30.31,38,29.629,38,28.932c0,0,0-0.001,0-0.002c3-5.745,1.484-12.608-3.188-17.28l-1.238-1.359l-5.913-5.973   c-0.253-0.253-0.485-0.492-0.75-0.725c-0.053-0.047-0.092-0.093-0.146-0.139C20.541-1.85,11.193-1.565,5.311,4.318   c-6.187,6.187-6.184,16.217,0.003,22.404l5.975,5.974C10.327,29.284,10.382,25.647,11.448,22.262z" fill="#231F20"/></g></svg>