<?xml version="1.0" encoding="UTF-8" standalone="no"?>
<!-- Created with Inkscape (http://www.inkscape.org/) -->
<svg
   xmlns:dc="http://purl.org/dc/elements/1.1/"
   xmlns:cc="http://creativecommons.org/ns#"
   xmlns:rdf="http://www.w3.org/1999/02/22-rdf-syntax-ns#"
   xmlns:svg="http://www.w3.org/2000/svg"
   xmlns="http://www.w3.org/2000/svg"
   xmlns:xlink="http://www.w3.org/1999/xlink"
   xmlns:sodipodi="http://sodipodi.sourceforge.net/DTD/sodipodi-0.dtd"
   xmlns:inkscape="http://www.inkscape.org/namespaces/inkscape"
   version="1.0"
   width="24"
   height="24"
   id="svg11300"
   sodipodi:version="0.32"
   inkscape:version="0.46"
   sodipodi:docname="alacarte.svg"
   inkscape:output_extension="org.inkscape.output.svg.inkscape">
  <metadata
     id="metadata66">
    <rdf:RDF>
      <cc:Work
         rdf:about="">
        <dc:format>image/svg+xml</dc:format>
        <dc:type
           rdf:resource="http://purl.org/dc/dcmitype/StillImage" />
      </cc:Work>
    </rdf:RDF>
  </metadata>
  <sodipodi:namedview
     inkscape:window-height="706"
     inkscape:window-width="640"
     inkscape:pageshadow="2"
     inkscape:pageopacity="0.0"
     guidetolerance="10.0"
     gridtolerance="10.0"
     objecttolerance="10.0"
     borderopacity="1.0"
     bordercolor="#666666"
     pagecolor="#ffffff"
     id="base"
     showgrid="false"
     inkscape:zoom="20.75"
     inkscape:cx="12"
     inkscape:cy="12"
     inkscape:window-x="647"
     inkscape:window-y="71"
     inkscape:current-layer="g5568" />
  <defs
     id="defs3">
    <inkscape:perspective
       sodipodi:type="inkscape:persp3d"
       inkscape:vp_x="0 : 12 : 1"
       inkscape:vp_y="0 : 1000 : 0"
       inkscape:vp_z="24 : 12 : 1"
       inkscape:persp3d-origin="12 : 8 : 1"
       id="perspective68" />
    <linearGradient
       id="linearGradient7400">
      <stop
         id="stop7402"
         style="stop-color:black;stop-opacity:0"
         offset="0" />
      <stop
         id="stop7404"
         style="stop-color:black;stop-opacity:1"
         offset="0.35000691" />
      <stop
         id="stop7406"
         style="stop-color:black;stop-opacity:0"
         offset="1" />
    </linearGradient>
    <linearGradient
       id="linearGradient6814">
      <stop
         id="stop6816"
         style="stop-color:#e6e6e6;stop-opacity:1"
         offset="0" />
      <stop
         id="stop6818"
         style="stop-color:#fafafa;stop-opacity:1"
         offset="1" />
    </linearGradient>
    <linearGradient
       id="linearGradient6806">
      <stop
         id="stop6808"
         style="stop-color:white;stop-opacity:1"
         offset="0" />
      <stop
         id="stop6810"
         style="stop-color:white;stop-opacity:0"
         offset="1" />
    </linearGradient>
    <linearGradient
       id="linearGradient3155-40">
      <stop
         id="stop2541"
         style="stop-color:#181818;stop-opacity:1"
         offset="0" />
      <stop
         id="stop2543"
         style="stop-color:#dbdbdb;stop-opacity:1"
         offset="0.13482948" />
      <stop
         id="stop2545"
         style="stop-color:#a4a4a4;stop-opacity:1"
         offset="0.20224422" />
      <stop
         id="stop2547"
         style="stop-color:white;stop-opacity:1"
         offset="0.26965895" />
      <stop
         id="stop2549"
         style="stop-color:#8d8d8d;stop-opacity:1"
         offset="0.44650277" />
      <stop
         id="stop2551"
         style="stop-color:#959595;stop-opacity:1"
         offset="0.57114136" />
      <stop
         id="stop2553"
         style="stop-color:#cecece;stop-opacity:1"
         offset="0.72038066" />
      <stop
         id="stop2555"
         style="stop-color:#181818;stop-opacity:1"
         offset="1" />
    </linearGradient>
    <linearGradient
       id="linearGradient3290-678">
      <stop
         id="stop2607"
         style="stop-color:#ece5a5;stop-opacity:1"
         offset="0" />
      <stop
         id="stop2609"
         style="stop-color:#fcfbf2;stop-opacity:1"
         offset="1" />
    </linearGradient>
    <linearGradient
       id="linearGradient3191-577">
      <stop
         id="stop2613"
         style="stop-color:#dbce48;stop-opacity:1"
         offset="0" />
      <stop
         id="stop2615"
         style="stop-color:#c5b625;stop-opacity:1"
         offset="1" />
    </linearGradient>
    <linearGradient
       id="linearGradient5048">
      <stop
         id="stop5050"
         style="stop-color:black;stop-opacity:0"
         offset="0" />
      <stop
         id="stop5056"
         style="stop-color:black;stop-opacity:1"
         offset="0.5" />
      <stop
         id="stop5052"
         style="stop-color:black;stop-opacity:0"
         offset="1" />
    </linearGradient>
    <linearGradient
       id="linearGradient5060">
      <stop
         id="stop5062"
         style="stop-color:black;stop-opacity:1"
         offset="0" />
      <stop
         id="stop5064"
         style="stop-color:black;stop-opacity:0"
         offset="1" />
    </linearGradient>
    <radialGradient
       cx="605.71429"
       cy="486.64789"
       r="117.14286"
       fx="605.71429"
       fy="486.64789"
       id="radialGradient5615"
       xlink:href="#linearGradient5060"
       gradientUnits="userSpaceOnUse"
       gradientTransform="matrix(0.01144616,0,0,0.01235292,11.676854,16.470853)" />
    <radialGradient
       cx="605.71429"
       cy="486.64789"
       r="117.14286"
       fx="605.71429"
       fy="486.64789"
       id="radialGradient5618"
       xlink:href="#linearGradient5060"
       gradientUnits="userSpaceOnUse"
       gradientTransform="matrix(-0.01144615,0,0,0.01235292,9.3231445,16.470853)" />
    <linearGradient
       x1="302.85715"
       y1="366.64789"
       x2="302.85715"
       y2="609.50507"
       id="linearGradient5621"
       xlink:href="#linearGradient5048"
       gradientUnits="userSpaceOnUse"
       gradientTransform="matrix(0.03344674,0,0,0.01235292,-1.5886099,16.470834)" />
    <linearGradient
       x1="27.975767"
       y1="13"
       x2="27.991301"
       y2="8"
       id="linearGradient5547"
       xlink:href="#linearGradient6814"
       gradientUnits="userSpaceOnUse"
       gradientTransform="matrix(0.5238095,0,0,0.6,-3.1904763,-3.8000007)" />
    <linearGradient
       x1="18"
       y1="46"
       x2="18"
       y2="32.999397"
       id="linearGradient5550"
       xlink:href="#linearGradient7400"
       gradientUnits="userSpaceOnUse"
       gradientTransform="matrix(0.6668419,0,0,0.1879386,-3.0010513,-3.7248767)" />
    <radialGradient
       cx="6.75"
       cy="25.539635"
       r="15.5"
       fx="6.75"
       fy="25.539635"
       id="radialGradient5553"
       xlink:href="#linearGradient6806"
       gradientUnits="userSpaceOnUse"
       gradientTransform="matrix(0.6772791,0.01158434,-0.015557,0.8457258,-0.5577965,-8.5589646)" />
    <linearGradient
       x1="25"
       y1="49"
       x2="25"
       y2="13.178486"
       id="linearGradient5556"
       xlink:href="#linearGradient6814"
       gradientUnits="userSpaceOnUse"
       gradientTransform="matrix(0.5925648,0,0,0.487164,-4.3141194,-1.1277542)" />
    <linearGradient
       x1="23.575972"
       y1="25.356892"
       x2="23.575972"
       y2="31.210939"
       id="linearGradient5562"
       xlink:href="#linearGradient3155-40"
       gradientUnits="userSpaceOnUse"
       gradientTransform="matrix(0.415777,-0.4174938,0.518983,0.5146192,-15.747227,2.6503673)"
       spreadMethod="pad" />
    <linearGradient
       x1="9"
       y1="29.056757"
       x2="9"
       y2="26.02973"
       id="linearGradient5564"
       xlink:href="#linearGradient3290-678"
       gradientUnits="userSpaceOnUse"
       gradientTransform="matrix(0.4040235,-0.4056919,0.6073752,0.602268,-17.636692,0.462492)" />
    <linearGradient
       x1="5.5178981"
       y1="37.371799"
       x2="9.5220556"
       y2="41.391716"
       id="linearGradient5566"
       xlink:href="#linearGradient3191-577"
       gradientUnits="userSpaceOnUse"
       gradientTransform="matrix(0.3763801,0.03615261,0.03669995,0.374874,-2.2182805,-1.1331002)" />
  </defs>
  <g
     id="g5568">
    <g
       id="g5623">
      <rect
         width="16.149996"
         height="2.9999959"
         x="2.4250076"
         y="21"
         id="rect3706"
         style="opacity:0.25;fill:url(#linearGradient5621);fill-opacity:1;fill-rule:nonzero;stroke:none;stroke-width:1.04588675;marker:none;visibility:visible;display:inline;overflow:visible" />
      <path
         d="m 2.4249998,21.00013 c 0,0 0,2.999835 0,2.999835 -0.5894469,0.0056 -1.42499984,-0.672111 -1.42499984,-1.500107 0,-0.827998 0.65777994,-1.499728 1.42499984,-1.499728 z"
         id="path3708"
         style="opacity:0.25;fill:url(#radialGradient5618);fill-opacity:1;fill-rule:nonzero;stroke:none;stroke-width:1.04588675;marker:none;visibility:visible;display:inline;overflow:visible" />
      <path
         d="m 18.574998,21.00013 c 0,0 0,2.999835 0,2.999835 0.589449,0.0056 1.425001,-0.672111 1.425001,-1.500107 0,-0.827998 -0.65778,-1.499728 -1.425001,-1.499728 z"
         id="path3710"
         style="opacity:0.25;fill:url(#radialGradient5615);fill-opacity:1;fill-rule:nonzero;stroke:none;stroke-width:1.04588675;marker:none;visibility:visible;display:inline;overflow:visible" />
    </g>
    <rect
       width="16.00008"
       height="19.000078"
       rx="0.50000376"
       ry="0.5"
       x="2.4999604"
       y="3.4999614"
       id="rect6802"
       style="fill:url(#linearGradient5556);fill-opacity:1;stroke:#aaa;stroke-width:0.9999209;stroke-linecap:round;stroke-linejoin:round;stroke-miterlimit:4;stroke-opacity:1;stroke-dasharray:none" />
    <rect
       width="14.000244"
       height="18.000244"
       rx="0.23333833"
       ry="0.22500379"
       x="3.4998777"
       y="3.4998782"
       id="rect6804"
       style="fill:none;stroke:url(#radialGradient5553);stroke-width:0.99975532;stroke-linecap:round;stroke-linejoin:round;stroke-miterlimit:4;stroke-opacity:1;stroke-dasharray:none" />
    <rect
       width="22.005781"
       height="2.4432025"
       x="1"
       y="2.4770973"
       id="rect7392"
       style="opacity:0.4;fill:url(#linearGradient5550);fill-opacity:1;stroke:none" />
    <rect
       width="22"
       height="3"
       x="1.0000001"
       y="1"
       id="rect6028"
       style="fill:url(#linearGradient5547);fill-opacity:1;stroke:none" />
    <rect
       width="22"
       height="1"
       x="1.0000001"
       y="4"
       id="rect6800"
       style="fill:#aaa;fill-opacity:1;stroke:none" />
    <rect
       width="14.499623"
       height="2.4996231"
       x="3.2501884"
       y="18.250189"
       id="rect5731"
       style="fill:#f07650;fill-opacity:1;stroke:#eb4b19;stroke-width:0.50037693999999999;stroke-linecap:square;stroke-linejoin:miter;stroke-miterlimit:10;stroke-opacity:1;stroke-dasharray:none" />
    <path
       d="m 5,2 0,0.9999997 1.6,0 L 6.6,2 5,2 z m 2.3905106,0 0,0.9999997 L 8,2.9999997 8,2 7.3905106,2 z m 1.1313868,0 0,0.9999997 1.1678826,0 L 9.68978,2 8.5218974,2 z m 1.7518246,0 0,0.9999997 0.926278,0 L 11.2,2 10.273722,2 z M 12,2 l 0,0.9999997 1.777372,0 L 13.777372,2 12,2 z m 2.416057,0 0,0.9999997 0.583943,0 L 15,2 14.416057,2 z M 5,6.999999 l 0,0.9999998 1.3,0 0,-0.9999998 -1.3,0 z m 2.5,0 0,0.9999998 2.2,0 0,-0.9999998 -2.2,0 z m 2.9,0 0,0.9999998 0.4,0 0,-0.9999998 -0.4,0 z m 1.1,0 0,0.9999998 1,0 0,-0.9999998 -1,0 z m 1.7,0 0,0.9999998 0.8,0 0,-0.9999998 -0.8,0 z m -8.2,3 0,1 1.6,0 0,-1 -1.6,0 z m 2.5,0 0,1 1,0 0,-1 -1,0 z m 1.5,0 0,1 0.8,0 0,-1 -0.8,0 z m 1.7,0 0,1 1.3,0 0,-1 -1.3,0 z m 2,0 0,1 1.7,0 0,-1 -1.7,0 z M 5,13.000001 5,14 l 0.5,0 0,-0.999999 -0.5,0 z m 1,0 L 6,14 l 0.8,0 0,-0.999999 -0.8,0 z m 1.5,0 0,0.999999 2.1,0 0,-0.999999 -2.1,0 z m 3,0 0,0.999999 1.5,0 0,-0.999999 -1.5,0 z M 5,16 l 0,1 1.7,0 0,-1 -1.7,0 z m 2.6,0 0,1 1.4,0 0,-1 -1.4,0 z m 2.1,0 0,1 0.8,0 0,-1 -0.8,0 z m 1.7,0 0,1 1.3,0 0,-1 -1.3,0 z"
       id="path5721"
       style="fill:#999;fill-opacity:1;stroke:none" />
    <path
       d="m 5,19 0,1 0.6,0 0,-1 -0.6,0 z m 1.5,0 0,1 1.5,0 0,-1 -1.5,0 z m 2.3,0 0,1 1.2,0 0,-1 -1.2,0 z"
       id="rect7428"
       style="fill:#4d4d4d;fill-opacity:1;stroke:none;display:inline;enable-background:new" />
    <g
       transform="matrix(0.8819815,0,0,0.884118,10.221372,5.7860724)"
       id="g8626">
      <path
         d="m 2.0488085,11.037368 c 0.2865424,-0.207707 1.1479509,0.256388 1.9603385,1.061945 0.8104458,0.803629 1.2601996,1.641331 1.0575577,1.930575 -7.708e-4,0.0011 0.01977,0.01774 0.01898,0.01882 L 15.224149,3.8683779 C 15.481557,3.6099071 15.011041,2.7247557 14.172862,1.893626 13.334685,1.0624962 12.444681,0.59856571 12.187272,0.85703737 L 2.0488085,11.037368 z"
         id="rect2383"
         style="fill:url(#linearGradient5562);fill-opacity:1;stroke:#0c0c0c;stroke-width:0.56621987;stroke-linecap:butt;stroke-linejoin:round;stroke-miterlimit:4;stroke-opacity:1;stroke-dasharray:none;stroke-dashoffset:0" />
      <path
         d="m 10.565423,2.4840909 c 0.286542,-0.2077065 1.147951,0.2563879 1.960338,1.0619443 0.810445,0.8036291 1.260199,1.6413295 1.057557,1.9305744 -7.69e-4,0.0011 0.01977,0.017738 0.01898,0.018821 L 15.154234,3.9383089 C 15.562715,3.5297289 15.124956,2.8454879 14.172862,1.893626 13.360476,1.0880699 12.499066,0.6239749 12.212525,0.83168148 l -0.02525,0.0253559 -1.621849,1.62705352 z"
         id="rect3175"
         style="opacity:0.8;fill:#ffb6ed;fill-opacity:1;stroke:#e28ccd;stroke-width:0.56621987;stroke-linecap:butt;stroke-linejoin:round;stroke-miterlimit:4;stroke-opacity:1;stroke-dasharray:none;stroke-dashoffset:0" />
      <path
         d="m 2.0488079,11.037368 c 0.286543,-0.207708 1.1479512,0.256388 1.960339,1.061943 0.8104449,0.80363 1.2601992,1.641332 1.0575579,1.930577 -7.714e-4,0.0011 0.01977,0.01774 0.01898,0.01882 l 6.9820302,-7.0108637 0.02525,-0.025356 c 7.9e-4,-0.00108 -0.01975,-0.01772 -0.01898,-0.01882 C 12.276628,6.7044221 11.826873,5.8667226 11.01643,5.0630931 10.204041,4.2575368 9.3426319,3.7934425 9.0560897,4.0011493 l -0.025251,0.025355 -6.9820304,7.0108637 z"
         id="path3208"
         style="opacity:0.6;fill:#0c0c0c;fill-opacity:1;stroke:none" />
      <path
         d="m 0.25980529,15.79419 4.77185621,-1.725488 0.039308,-0.03926 C 5.2736124,13.740202 4.8185731,12.902156 4.0081274,12.098526 3.1957395,11.29297 2.335449,10.831246 2.0489062,11.038953 L 0.25980529,15.79419 z"
         id="path3270"
         style="fill:url(#linearGradient5564);fill-opacity:1;fill-rule:evenodd;stroke:url(#linearGradient5566);stroke-width:0.56621987;stroke-linecap:butt;stroke-linejoin:miter;stroke-miterlimit:4;stroke-opacity:1;stroke-dasharray:none" />
      <path
         d="M 0.7444326,14.506276 0.25922075,15.788967 1.560593,15.315574 C 1.446907,15.182439 1.3413094,15.047739 1.2062351,14.913801 1.0507282,14.759602 0.89915498,14.633134 0.7444326,14.506276 z"
         id="path3281"
         style="fill:#0c0c0c;fill-opacity:1;fill-rule:evenodd;stroke:#0c0c0c;stroke-width:0.56621987;stroke-linecap:butt;stroke-linejoin:miter;stroke-miterlimit:4;stroke-opacity:1;stroke-dasharray:none" />
    </g>
  </g>
</svg>
