<?xml version="1.0" encoding="UTF-8" standalone="no"?>
<svg
   xmlns:dc="http://purl.org/dc/elements/1.1/"
   xmlns:cc="http://creativecommons.org/ns#"
   xmlns:rdf="http://www.w3.org/1999/02/22-rdf-syntax-ns#"
   xmlns:svg="http://www.w3.org/2000/svg"
   xmlns="http://www.w3.org/2000/svg"
   xmlns:sodipodi="http://sodipodi.sourceforge.net/DTD/sodipodi-0.dtd"
   xmlns:inkscape="http://www.inkscape.org/namespaces/inkscape"
   height="32"
   version="1.1"
   viewBox="0 0 32 32"
   width="32"
   xml:space="preserve"
   id="svg2"
   inkscape:version="0.91 r13725"
   sodipodi:docname="mime-php.svg"><metadata
     id="metadata17"><rdf:RDF><cc:Work
         rdf:about=""><dc:format>image/svg+xml</dc:format><dc:type
           rdf:resource="http://purl.org/dc/dcmitype/StillImage" /><dc:title></dc:title></cc:Work></rdf:RDF></metadata><defs
     id="defs15" /><sodipodi:namedview
     pagecolor="#ffffff"
     bordercolor="#666666"
     borderopacity="1"
     objecttolerance="10"
     gridtolerance="10"
     guidetolerance="10"
     inkscape:pageopacity="0"
     inkscape:pageshadow="2"
     inkscape:window-width="2560"
     inkscape:window-height="1385"
     id="namedview13"
     showgrid="false"
     inkscape:zoom="5.6568542"
     inkscape:cx="-12.928301"
     inkscape:cy="-7.7507849"
     inkscape:window-x="-8"
     inkscape:window-y="-8"
     inkscape:window-maximized="1"
     inkscape:current-layer="svg2" /><g
     id="Layer_2"
     transform="matrix(0.06123637,0,0,0.06611953,0.35968964,-0.33575556)"
     style="fill:#003dae;fill-opacity:1"><g
       id="g5"
       style="fill:#003dae;fill-opacity:1"><path
         d="m 103.462,207.061 c 15.821,0 26.365,2.92 31.637,8.761 5.267,5.841 6.522,15.867 3.766,30.074 -2.879,14.795 -8.423,25.355 -16.641,31.682 -8.218,6.328 -20.724,9.488 -37.513,9.488 l -25.33,0 15.549,-80.005 28.532,0 z M 2,368.057 l 41.643,0 9.877,-50.823 35.669,0 c 15.739,0 28.686,-1.65 38.85,-4.96 10.165,-3.305 19.402,-8.848 27.717,-16.63 6.978,-6.415 12.624,-13.49 16.948,-21.227 4.319,-7.731 7.388,-16.267 9.202,-25.601 4.406,-22.66 1.081,-40.31 -9.965,-52.955 -11.046,-12.645 -28.619,-18.967 -52.709,-18.967 l -80.078,0 L 2,368.057 Z"
         id="path7"
         inkscape:connector-curvature="0"
         style="fill:#003dae;fill-opacity:1" /><path
         d="m 212.49,126.071 41.314,0 -9.878,50.823 36.806,0 c 23.157,0 39.132,4.042 47.924,12.117 8.791,8.08 11.425,21.17 7.91,39.266 l -17.286,88.957 -41.97,0 16.436,-84.582 c 1.87,-9.622 1.184,-16.185 -2.064,-19.684 -3.248,-3.5 -10.159,-5.251 -20.729,-5.251 l -33.02,0 -21.283,109.516 -41.315,0 37.155,-191.162 z"
         id="path9"
         inkscape:connector-curvature="0"
         style="fill:#003dae;fill-opacity:1" /><path
         d="m 428.49,207.061 c 15.821,0 26.365,2.92 31.637,8.761 5.269,5.841 6.523,15.867 3.766,30.074 -2.879,14.795 -8.421,25.355 -16.641,31.682 -8.218,6.328 -20.724,9.488 -37.513,9.488 l -25.329,0 15.549,-80.005 28.531,0 z m -101.461,160.996 41.643,0 9.876,-50.823 35.669,0 c 15.739,0 28.686,-1.65 38.851,-4.96 10.164,-3.305 19.401,-8.848 27.717,-16.63 6.979,-6.415 12.624,-13.49 16.948,-21.227 4.318,-7.731 7.388,-16.267 9.201,-25.601 4.406,-22.66 1.082,-40.31 -9.965,-52.955 -11.046,-12.645 -28.619,-18.967 -52.709,-18.967 l -80.076,0 -37.155,191.163 z"
         id="path11"
         inkscape:connector-curvature="0"
         style="fill:#003dae;fill-opacity:1" /></g></g></svg>