<?xml version="1.0" encoding="UTF-8" standalone="no"?>
<svg
   xmlns:dc="http://purl.org/dc/elements/1.1/"
   xmlns:cc="http://creativecommons.org/ns#"
   xmlns:rdf="http://www.w3.org/1999/02/22-rdf-syntax-ns#"
   xmlns:svg="http://www.w3.org/2000/svg"
   xmlns="http://www.w3.org/2000/svg"
   xmlns:sodipodi="http://sodipodi.sourceforge.net/DTD/sodipodi-0.dtd"
   xmlns:inkscape="http://www.inkscape.org/namespaces/inkscape"
   id="Lager_1"
   version="1.1"
   viewBox="0 0 32 32"
   xml:space="preserve"
   inkscape:version="0.91 r13725"
   sodipodi:docname="mime-html.svg"
   width="32"
   height="32"><metadata
     id="metadata17"><rdf:RDF><cc:Work
         rdf:about=""><dc:format>image/svg+xml</dc:format><dc:type
           rdf:resource="http://purl.org/dc/dcmitype/StillImage" /><dc:title></dc:title></cc:Work></rdf:RDF></metadata><defs
     id="defs15" /><sodipodi:namedview
     pagecolor="#ffffff"
     bordercolor="#666666"
     borderopacity="1"
     objecttolerance="10"
     gridtolerance="10"
     guidetolerance="10"
     inkscape:pageopacity="0"
     inkscape:pageshadow="2"
     inkscape:window-width="2560"
     inkscape:window-height="1385"
     id="namedview13"
     showgrid="false"
     inkscape:zoom="1"
     inkscape:cx="64"
     inkscape:cy="59.389831"
     inkscape:window-x="-8"
     inkscape:window-y="-8"
     inkscape:window-maximized="1"
     inkscape:current-layer="Lager_1" /><g
     id="g3"
     transform="matrix(0.32,0,0,0.32,-4.48,-4.48)"><g
       id="g5"><g
         id="g7"><circle
           cx="64"
           cy="64"
           r="50"
           style="fill:#f0652a"
           id="circle9" /></g></g><path
       d="M 40.2,39 44.5,87.5 63.9,93 83.4,87.5 87.8,39 40.2,39 Z m 38.2,15.8 -22.8,0 0.5,6.1 21.7,0 -1.7,18.4 -12.1,3.3 0,0 -0.1,0 -12.2,-3.4 -0.7,-9.3 5.9,0 0.4,4.7 6.6,1.8 6.6,-1.8 0.7,-7.7 -20.5,0 -1.6,-18 29.8,0 -0.5,5.9 z"
       style="fill:#ffffff"
       id="path11"
       inkscape:connector-curvature="0" /></g></svg>