<?xml version="1.0" encoding="UTF-8" standalone="no"?>
<svg
   xmlns:dc="http://purl.org/dc/elements/1.1/"
   xmlns:cc="http://creativecommons.org/ns#"
   xmlns:rdf="http://www.w3.org/1999/02/22-rdf-syntax-ns#"
   xmlns:svg="http://www.w3.org/2000/svg"
   xmlns="http://www.w3.org/2000/svg"
   xmlns:sodipodi="http://sodipodi.sourceforge.net/DTD/sodipodi-0.dtd"
   xmlns:inkscape="http://www.inkscape.org/namespaces/inkscape"
   enable-background="new 0 0 512 512"
   id="Layer_1"
   version="1.1"
   viewBox="0 0 64 64"
   xml:space="preserve"
   inkscape:version="0.91 r13725"
   sodipodi:docname="if_Edit_pen_change_option_pencil_write_1886946.svg"
   width="64"
   height="64"><metadata
     id="metadata3462"><rdf:RDF><cc:Work
         rdf:about=""><dc:format>image/svg+xml</dc:format><dc:type
           rdf:resource="http://purl.org/dc/dcmitype/StillImage" /><dc:title></dc:title></cc:Work></rdf:RDF></metadata><defs
     id="defs3460" /><sodipodi:namedview
     pagecolor="#ffffff"
     bordercolor="#666666"
     borderopacity="1"
     objecttolerance="10"
     gridtolerance="10"
     guidetolerance="10"
     inkscape:pageopacity="0"
     inkscape:pageshadow="2"
     inkscape:window-width="2560"
     inkscape:window-height="1361"
     id="namedview3458"
     showgrid="false"
     inkscape:zoom="2.2402344"
     inkscape:cx="175.42807"
     inkscape:cy="-124.1194"
     inkscape:window-x="1920"
     inkscape:window-y="0"
     inkscape:window-maximized="1"
     inkscape:current-layer="Layer_1" /><g
     id="g3420"
     transform="scale(0.125,0.125)"><g
       id="g3422"><linearGradient
         gradientUnits="userSpaceOnUse"
         id="SVGID_1_"
         x1="-2.7000001e-06"
         x2="512"
         y1="256"
         y2="256"><stop
           offset="0"
           style="stop-color:#8DC63F"
           id="stop3425" /><stop
           offset="1"
           style="stop-color:#76B83F"
           id="stop3427" /></linearGradient><circle
         cx="256"
         cy="256"
         r="256"
         id="circle3429"
         style="fill:url(#SVGID_1_)" /><linearGradient
         gradientUnits="userSpaceOnUse"
         id="SVGID_2_"
         x1="42.666664"
         x2="469.33334"
         y1="256.00052"
         y2="256.00052"><stop
           offset="0"
           style="stop-color:#76B83F"
           id="stop3432" /><stop
           offset="1"
           style="stop-color:#8DC63F"
           id="stop3434" /></linearGradient><path
         d="M 256,469.33386 C 138.3685,469.33386 42.666656,373.63199 42.666656,256.00052 42.666656,138.36905 138.3685,42.667198 256,42.667198 c 117.63571,0 213.33334,95.701862 213.33334,213.333312 0,117.63145 -95.69763,213.33335 -213.33334,213.33335 z"
         id="path3436"
         inkscape:connector-curvature="0"
         style="fill:url(#SVGID_2_)" /></g><g
       id="g3438"><path
         d="M 372.86771,208.88 C 380.28851,201.4592 384,191.73334 384,182.00693 c 0,-9.72747 -3.71097,-19.45386 -11.13177,-26.87413 -7.42078,-7.42079 -17.14774,-11.13173 -26.87412,-11.13173 -9.72641,0 -19.45282,3.71094 -26.8736,11.13173 l -14.04535,14.0448 53.74561,53.74933 14.04694,-14.04693 z"
         id="path3440"
         inkscape:connector-curvature="0"
         style="opacity:0.3" /><polygon
         points="160.85277,313.39679 144.92691,329.32321 144,383.99734 198.6741,383.07092 214.60051,367.14401 "
         id="polygon3442"
         style="opacity:0.3" /><path
         d="m 351.75037,229.99733 -53.74561,-53.74986 -54.86079,54.86079 -75.22026,75.21919 53.74772,53.74775 75.21974,-75.21973 54.8592,-54.85814 z m -120.81333,74.13335 -7.07037,-7.07041 6.9093,-6.90881 7.0704,7.06988 -6.90933,6.90934 z m 18.22293,-18.22293 -7.07094,-7.06989 7.07094,-7.0704 7.06986,7.0704 -7.06986,7.06989 z m 18.38346,-18.38349 -7.07041,-7.0704 7.07523,-7.07039 7.0704,7.07039 -7.07522,7.0704 z m 18.38827,-18.38399 -7.06985,-7.06987 7.06985,-7.07093 7.07041,7.07093 -7.07041,7.06987 z"
         id="path3444"
         inkscape:connector-curvature="0"
         style="opacity:0.3" /><rect
         height="10"
         width="125.56637"
         x="258.43201"
         y="373.99893"
         id="rect3446"
         style="opacity:0.3" /></g><g
       id="g3448"><path
         d="M 364.86771,200.88 C 372.28851,193.4592 376,183.73334 376,174.00693 c 0,-9.72747 -3.71097,-19.45386 -11.13177,-26.87413 -7.42078,-7.42079 -17.14774,-11.13173 -26.87412,-11.13173 -9.72641,0 -19.45282,3.71094 -26.8736,11.13173 l -14.04535,14.0448 53.74561,53.74933 14.04694,-14.04693 z"
         id="path3450"
         inkscape:connector-curvature="0"
         style="fill:#ffffff" /><polygon
         points="152.85277,305.39679 136.92691,321.32321 136,375.99734 190.6741,375.07092 206.60051,359.14401 "
         id="polygon3452"
         style="fill:#ffffff" /><path
         d="m 343.75037,221.99733 -53.74561,-53.74986 -54.86079,54.86079 -75.22026,75.21919 53.74772,53.74775 75.21974,-75.21973 54.8592,-54.85814 z m -120.81333,74.13335 -7.07037,-7.07041 6.9093,-6.90881 7.0704,7.06988 -6.90933,6.90934 z m 18.22293,-18.22293 -7.07094,-7.06989 7.07094,-7.0704 7.06987,7.0704 -7.06987,7.06989 z m 18.38346,-18.38349 -7.07039,-7.07039 7.07521,-7.0704 7.0704,7.0704 -7.07522,7.07039 z m 18.38827,-18.38399 -7.06985,-7.06987 7.06985,-7.07093 7.07041,7.07093 -7.07041,7.06987 z"
         id="path3454"
         inkscape:connector-curvature="0"
         style="fill:#ffffff" /><rect
         height="10"
         width="125.56637"
         x="250.43201"
         y="365.99893"
         id="rect3456"
         style="fill:#ffffff" /></g></g></svg>