<?xml version="1.0" ?><!DOCTYPE svg  PUBLIC '-//W3C//DTD SVG 1.1//EN'  'http://www.w3.org/Graphics/SVG/1.1/DTD/svg11.dtd'><svg enable-background="new 0 0 512 512" height="512px" id="Layer_1" version="1.1" viewBox="0 0 512 512" width="512px" xml:space="preserve" xmlns="http://www.w3.org/2000/svg" xmlns:xlink="http://www.w3.org/1999/xlink"><g><polyline fill="#8FC84E" points="0,512 512,512 512,0 0,0 0,512  "/><path d="M512,342c-30-38-72.335-95.786-72.335-95.786L90,246l-20,56l179,210h263V342" fill="#010101" opacity="0.1"/><path clip-rule="evenodd" d="M149.543,244.85c0-1.563-0.822-2.998-2.169-3.771l-35.933-20.683   c-0.608-0.356-1.29-0.543-1.979-0.569h-0.372c-0.687,0.026-1.367,0.213-1.984,0.569l-35.934,20.683   c-1.34,0.772-2.172,2.207-2.172,3.771l0.079,55.682c0,0.775,0.402,1.498,1.083,1.875c0.667,0.4,1.492,0.4,2.156,0l21.355-12.229   c1.351-0.802,2.172-2.217,2.172-3.767V260.4c0-1.551,0.821-2.989,2.167-3.758l9.094-5.236c0.678-0.396,1.419-0.587,2.176-0.587   c0.74,0,1.5,0.19,2.159,0.587l9.089,5.236c1.346,0.769,2.17,2.207,2.17,3.758v26.011c0,1.55,0.833,2.976,2.175,3.767l21.349,12.229   c0.671,0.4,1.507,0.4,2.171,0c0.661-0.377,1.078-1.1,1.078-1.875L149.543,244.85" fill="#FFFFFF" fill-rule="evenodd"/><path clip-rule="evenodd" d="M317.828,273.844c0,0.388-0.209,0.745-0.545,0.94l-12.342,7.11   c-0.336,0.194-0.746,0.194-1.082,0l-12.344-7.11c-0.337-0.195-0.542-0.553-0.542-0.94v-14.253c0-0.388,0.205-0.746,0.54-0.938   l12.343-7.129c0.339-0.194,0.749-0.194,1.088,0l12.339,7.129c0.336,0.192,0.545,0.551,0.545,0.938V273.844 M321.163,168.303   c-0.674-0.376-1.493-0.367-2.159,0.023c-0.661,0.39-1.068,1.101-1.068,1.871v55.146c0,0.541-0.293,1.044-0.759,1.315   c-0.469,0.273-1.049,0.273-1.522,0l-8.997-5.184c-1.345-0.777-2.997-0.774-4.337,0l-35.948,20.746   c-1.344,0.776-2.172,2.206-2.172,3.758v41.5c0,1.551,0.828,2.982,2.171,3.761L302.314,312c1.346,0.777,3.001,0.777,4.343,0   l35.953-20.761c1.343-0.778,2.17-2.21,2.17-3.761v-103.45c0-1.571-0.85-3.022-2.226-3.789L321.163,168.303z" fill="#FFFFFF" fill-rule="evenodd"/><path clip-rule="evenodd" d="M439.641,259.221c1.341-0.778,2.161-2.207,2.161-3.755v-10.057   c0-1.548-0.82-2.978-2.161-3.754l-35.715-20.738c-1.342-0.782-3.004-0.782-4.35-0.006l-35.936,20.746   c-1.344,0.776-2.169,2.207-2.169,3.76v41.486c0,1.561,0.838,3,2.191,3.772l35.712,20.348c1.315,0.754,2.933,0.759,4.254,0.024   l21.601-12.005c0.688-0.382,1.114-1.101,1.117-1.882c0.005-0.783-0.41-1.506-1.089-1.898l-36.161-20.755   c-0.678-0.386-1.093-1.106-1.093-1.883v-13.003c0-0.772,0.413-1.492,1.087-1.879l11.255-6.49c0.669-0.386,1.496-0.386,2.166,0   l11.261,6.49c0.672,0.387,1.087,1.106,1.087,1.879v10.229c0,0.778,0.415,1.494,1.088,1.885c0.673,0.385,1.501,0.382,2.173-0.007   L439.641,259.221" fill="#FFFFFF" fill-rule="evenodd"/><path clip-rule="evenodd" d="M204.78,220.692c1.342-0.773,2.998-0.773,4.34,0l35.943,20.742   c1.345,0.776,2.172,2.208,2.172,3.761v41.516c0,1.55-0.827,2.981-2.169,3.761l-35.944,20.758c-1.344,0.776-2.999,0.776-4.342,0   l-35.935-20.758c-1.342-0.779-2.169-2.211-2.169-3.761v-41.518c0-1.551,0.827-2.982,2.171-3.759L204.78,220.692" fill="#FFFFFF" fill-rule="evenodd"/></g></svg>