<?xml version="1.0" encoding="UTF-8" standalone="no"?>
<svg
   xmlns:dc="http://purl.org/dc/elements/1.1/"
   xmlns:cc="http://creativecommons.org/ns#"
   xmlns:rdf="http://www.w3.org/1999/02/22-rdf-syntax-ns#"
   xmlns:svg="http://www.w3.org/2000/svg"
   xmlns="http://www.w3.org/2000/svg"
   xmlns:sodipodi="http://sodipodi.sourceforge.net/DTD/sodipodi-0.dtd"
   xmlns:inkscape="http://www.inkscape.org/namespaces/inkscape"
   id="Lager_1"
   style="enable-background:new 0 0 128 128;"
   version="1.1"
   viewBox="0 0 128 128"
   xml:space="preserve"
   inkscape:version="0.91 r13725"
   sodipodi:docname="1447029251_code-programming-php-software-develop-command-language.svg"><metadata
     id="metadata26"><rdf:RDF><cc:Work
         rdf:about=""><dc:format>image/svg+xml</dc:format><dc:type
           rdf:resource="http://purl.org/dc/dcmitype/StillImage" /></cc:Work></rdf:RDF></metadata><defs
     id="defs24" /><sodipodi:namedview
     pagecolor="#ffffff"
     bordercolor="#666666"
     borderopacity="1"
     objecttolerance="10"
     gridtolerance="10"
     guidetolerance="10"
     inkscape:pageopacity="0"
     inkscape:pageshadow="2"
     inkscape:window-width="1417"
     inkscape:window-height="658"
     id="namedview22"
     showgrid="false"
     inkscape:zoom="1.84375"
     inkscape:cx="3.5254237"
     inkscape:cy="64"
     inkscape:window-x="0"
     inkscape:window-y="0"
     inkscape:window-maximized="0"
     inkscape:current-layer="Lager_1" /><g
     id="g3"
     transform="matrix(1.2657626,0,0,1.2657627,-17.110508,-16.195254)"><g
       id="g5"><g
         id="g7"><circle
           cx="64"
           cy="64"
           r="50"
           style="fill:#36447f"
           id="circle9" /></g></g><g
       id="Layer_2_1_"><g
         id="g12"><g
           id="g14"><path
             d="m 41.7,56.7 c 2.3,0 3.8,0.4 4.6,1.3 0.8,0.8 0.9,2.3 0.5,4.3 -0.4,2.1 -1.2,3.7 -2.4,4.6 -1.2,0.9 -3,1.4 -5.4,1.4 l -3.7,0 2.2,-11.6 c 0,0 4.2,0 4.2,0 z M 27,80 l 6,0 1.4,-7.4 5.2,0 c 2.3,0 4.1,-0.2 5.6,-0.7 1.5,-0.5 2.8,-1.3 4,-2.4 1,-0.9 1.8,-2 2.5,-3.1 C 52.3,65.3 52.8,64 53,62.7 53.6,59.4 53.2,56.9 51.6,55 50,53.2 47.5,52.3 44,52.3 L 32.4,52.3 27,80 Z"
             style="fill:#c9d5f7"
             id="path16"
             inkscape:connector-curvature="0" /><path
             d="m 59.1,45 6,0 -1.4,7.4 5.3,0 c 3.3,0 5.7,0.6 6.9,1.8 1.3,1.2 1.7,3.1 1.1,5.7 l -2.5,12.9 -6.1,0 2.4,-12.2 C 71.1,59.2 71,58.3 70.5,57.8 70,57.3 69,57 67.5,57 l -4.8,0 -3.1,15.8 -6,0 5.5,-27.8 z"
             style="fill:#c9d5f7"
             id="path18"
             inkscape:connector-curvature="0" /><path
             d="m 90.4,56.7 c 2.3,0 3.8,0.4 4.6,1.3 0.8,0.8 0.9,2.3 0.5,4.3 -0.4,2.1 -1.2,3.7 -2.4,4.6 -1.2,0.9 -3,1.4 -5.4,1.4 l -3.7,0 2.2,-11.6 c 0,0 4.2,0 4.2,0 z M 75.7,80 l 6,0 1.4,-7.4 5.2,0 c 2.3,0 4.1,-0.2 5.6,-0.7 1.5,-0.5 2.8,-1.3 4,-2.4 1,-0.9 1.8,-2 2.5,-3.1 0.6,-1.1 1.1,-2.4 1.3,-3.7 0.6,-3.3 0.2,-5.8 -1.4,-7.7 -1.6,-1.8 -4.1,-2.7 -7.6,-2.7 l -11.6,0 -5.4,27.7 z"
             style="fill:#c9d5f7"
             id="path20"
             inkscape:connector-curvature="0" /></g></g></g></g></svg>