<?xml version="1.0" encoding="UTF-8" standalone="no"?>
<svg
   xmlns:dc="http://purl.org/dc/elements/1.1/"
   xmlns:cc="http://creativecommons.org/ns#"
   xmlns:rdf="http://www.w3.org/1999/02/22-rdf-syntax-ns#"
   xmlns:svg="http://www.w3.org/2000/svg"
   xmlns="http://www.w3.org/2000/svg"
   xmlns:sodipodi="http://sodipodi.sourceforge.net/DTD/sodipodi-0.dtd"
   xmlns:inkscape="http://www.inkscape.org/namespaces/inkscape"
   stroke-miterlimit="10"
   viewBox="0 0 210.88121 210.88159"
   id="svg2"
   sodipodi:version="0.32"
   inkscape:version="0.91 r13725"
   width="900"
   height="900"
   sodipodi:docname="Qt_logo_2013.svg"
   inkscape:output_extension="org.inkscape.output.svg.inkscape"
   version="1.0"
   style="clip-rule:evenodd;stroke-miterlimit:10">
  <metadata
     id="metadata29">
    <rdf:RDF>
      <cc:Work
         rdf:about="">
        <dc:format>image/svg+xml</dc:format>
        <dc:type
           rdf:resource="http://purl.org/dc/dcmitype/StillImage" />
        <dc:title></dc:title>
      </cc:Work>
    </rdf:RDF>
  </metadata>
  <sodipodi:namedview
     inkscape:window-height="838"
     inkscape:window-width="1361"
     inkscape:pageshadow="2"
     inkscape:pageopacity="0.0"
     guidetolerance="10.0"
     gridtolerance="10.0"
     objecttolerance="10.0"
     borderopacity="1.0"
     bordercolor="#666666"
     pagecolor="#ffffff"
     id="base"
     showgrid="false"
     inkscape:zoom="0.34494937"
     inkscape:cx="751.18411"
     inkscape:cy="159.99528"
     inkscape:window-x="280"
     inkscape:window-y="120"
     inkscape:current-layer="svg2"
     width="900px"
     inkscape:window-maximized="0" />
  <desc
     id="desc4">SVG generated by Lineform</desc>
  <defs
     id="defs6">
    <inkscape:perspective
       sodipodi:type="inkscape:persp3d"
       inkscape:vp_x="0 : 526.18106 : 1"
       inkscape:vp_y="0 : 999.99994 : 0"
       inkscape:vp_z="744.09444 : 526.18106 : 1"
       inkscape:persp3d-origin="372.04721 : 350.78736 : 1"
       id="perspective31" />
  </defs>
  <g
     id="g8"
     transform="translate(20.619385,1.101228)">
    <path
       d="M 43.08,0.36 C 40.94,0 38.84,-0.08 36.81,0.08 l -0.01,0 c 0,0 -13.88,0.94 -14.51,0.99 C 9.62,2.08 0,12.5 0,26.89 l 0,169.66 14.19,13.23 142.6,-23.97 c 9.81,-1.7 17.56,-13.27 17.56,-25.77 l 0,-138.16 L 43.08,0.36"
       id="path10"
       style="fill:#0c481e"
       inkscape:connector-curvature="0" />
    <path
       d="m 174.35,160.04 c 0,12.5 -7.75,24.07 -17.56,25.78 l -142.6,23.96 0,-183.79 c 0,-16.72 13.34,-28.2 28.89,-25.63 l 131.27,21.52 0,138.16"
       id="path12"
       style="fill:#66b036"
       inkscape:connector-curvature="0" />
    <path
       d="m 130.42,45.91 11.52,1.24 0,20.21 12.96,0.92 0,12.68 -12.96,-0.6 0,46.33 c 0,4.03 0.44,6.62 1.34,7.79 0.8,1.07 2.04,1.59 3.71,1.59 0.16,0 0.33,0 0.49,-0.01 2.55,-0.15 5.33,-0.93 8.35,-2.31 l 0,11.65 c -5.14,2.25 -10.18,3.6 -15.13,4.02 -0.71,0.05 -1.41,0.08 -2.08,0.08 -4.48,0 -7.9,-1.3 -10.24,-3.93 -2.73,-3.05 -4.09,-7.95 -4.09,-14.67 l 0,-51.36 -6.23,-0.28 0,-13.59 7.59,0.55 4.77,-20.31"
       id="path14"
       style="fill:#ffffff"
       inkscape:connector-curvature="0" />
    <path
       d="m 154.9,80.96 -12.96,-0.6 0,0.28 6.94,0.32 6.02,0"
       id="path16"
       style="fill:#0c481e"
       inkscape:connector-curvature="0" />
    <path
       d="m 144.64,135.6 c 0.66,0.32 1.43,0.47 2.35,0.47 0.16,0 0.33,0 0.49,-0.01 2.55,-0.15 5.33,-0.93 8.35,-2.31 l -6.02,0 c -1.82,0.83 -3.53,1.46 -5.17,1.85"
       id="path18"
       style="fill:#0c481e"
       inkscape:connector-curvature="0" />
    <path
       d="m 128.38,145.57 c -2.73,-3.05 -4.09,-7.95 -4.09,-14.67 l 0,-51.36 -6.23,-0.28 0,-13.59 -6.01,0 0,3.04 c 0.87,3.27 1.55,6.82 2.06,10.64 l 4.17,0.19 0,51.36 c 0,6.72 1.36,11.62 4.09,14.67 2.34,2.63 5.76,3.93 10.24,3.93 l 6.01,0 c -4.48,0 -7.9,-1.3 -10.24,-3.93 z m 2.04,-99.66 -6.01,0 -4.67,19.88 5.91,0.43 4.77,-20.31"
       id="path20"
       style="fill:#0c481e"
       inkscape:connector-curvature="0" />
    <path
       d="m 91.15,132.4 c 2.35,-6.04 3.51,-17.91 3.51,-35.61 0,-15.89 -1.15,-26.82 -3.48,-32.81 -2.34,-6.03 -5.83,-9.29 -10.52,-9.7 -0.36,-0.03 -0.71,-0.05 -1.06,-0.05 -4.34,0 -7.68,2.54 -10.01,7.63 -2.52,5.54 -3.79,17.04 -3.79,34.44 0,16.81 1.24,28.75 3.74,35.75 2.35,6.67 5.87,9.98 10.5,9.98 0.21,0 0.41,-0.01 0.62,-0.02 4.63,-0.3 8.12,-3.5 10.49,-9.61 m 17.98,3.75 c -4.12,9.71 -10.4,16.06 -18.99,19 0.87,4.45 2.18,7.45 3.92,9.02 1.35,1.22 3.43,1.82 6.22,1.82 0.81,0 1.68,-0.05 2.59,-0.15 l 0,13.12 -5.96,0.79 c -1.75,0.22 -3.42,0.34 -5,0.34 -5.22,0 -9.44,-1.27 -12.62,-3.83 -4.21,-3.37 -7.31,-9.89 -9.3,-19.53 -9.13,-1.95 -16.26,-7.76 -21.19,-17.5 -5,-9.91 -7.55,-24.4 -7.55,-43.34 0,-20.43 3.49,-35.51 10.35,-45.08 5.78,-8.06 13.86,-12.03 24.02,-12.03 1.62,0 3.31,0.1 5.04,0.3 11.95,1.38 20.62,7.02 26.26,16.79 5.54,9.56 8.25,23.27 8.25,41.26 0,16.49 -2,29.45 -6.04,39.02"
       id="path22"
       style="fill:#ffffff"
       inkscape:connector-curvature="0" />
    <path
       d="m 100.28,165.99 c 0.81,0 1.67,-0.05 2.59,-0.15 l -4.83,0 c 0.67,0.1 1.45,0.15 2.24,0.15"
       id="path24"
       style="fill:#0c481e"
       inkscape:connector-curvature="0" />
    <path
       d="m 84.85,63.98 c 2.34,5.99 3.49,16.92 3.49,32.81 0,17.7 -1.16,29.57 -3.52,35.61 -1.89,4.88 -4.52,7.91 -7.86,9.08 0.97,0.36 2,0.55 3.08,0.55 0.21,0 0.41,-0.01 0.62,-0.02 4.63,-0.3 8.12,-3.5 10.49,-9.61 2.35,-6.04 3.51,-17.91 3.51,-35.61 0,-15.89 -1.15,-26.82 -3.48,-32.81 -2.34,-6.03 -5.83,-9.29 -10.52,-9.7 -0.36,-0.03 -0.71,-0.05 -1.06,-0.05 -1.09,0 -2.12,0.16 -3.08,0.49 l 0,0 c 3.6,1.11 6.37,4.21 8.33,9.26 z m -2.34,114.27 c -0.11,-0.05 -0.23,-0.1 -0.34,-0.16 -0.01,0 -0.02,-0.01 -0.03,-0.01 -0.11,-0.05 -0.21,-0.11 -0.31,-0.16 -0.02,-0.01 -0.04,-0.02 -0.06,-0.03 -0.09,-0.05 -0.18,-0.1 -0.28,-0.15 -0.03,-0.02 -0.05,-0.03 -0.08,-0.05 -0.08,-0.04 -0.17,-0.09 -0.25,-0.14 -0.04,-0.02 -0.07,-0.04 -0.11,-0.07 -0.07,-0.04 -0.14,-0.08 -0.21,-0.12 -0.05,-0.03 -0.1,-0.06 -0.14,-0.09 -0.06,-0.04 -0.12,-0.08 -0.18,-0.12 -0.06,-0.03 -0.11,-0.07 -0.17,-0.11 -0.05,-0.03 -0.1,-0.06 -0.15,-0.1 -0.06,-0.04 -0.13,-0.09 -0.19,-0.13 -0.04,-0.03 -0.08,-0.06 -0.12,-0.09 -0.07,-0.05 -0.15,-0.11 -0.22,-0.17 -0.03,-0.01 -0.06,-0.03 -0.08,-0.05 -0.1,-0.08 -0.2,-0.16 -0.3,-0.24 -4.21,-3.37 -7.31,-9.89 -9.3,-19.53 -9.13,-1.95 -16.26,-7.76 -21.19,-17.5 -5,-9.91 -7.55,-24.4 -7.55,-43.34 0,-20.43 3.49,-35.51 10.35,-45.08 5.78,-8.06 13.86,-12.03 24.02,-12.03 0.03,0 -6.35,-0.01 -6.35,-0.01 l 0,0.01 c -10.15,0 -18.22,3.97 -24,12.03 -6.86,9.57 -10.35,24.65 -10.35,45.08 0,18.94 2.55,33.43 7.55,43.34 4.94,9.74 12.06,15.55 21.2,17.5 1.98,9.64 5.09,16.16 9.29,19.53 3.18,2.56 7.4,3.83 12.62,3.83 0.1,0 0.2,0 0.3,0 l 5.54,0 c -3.41,-0.06 -6.38,-0.66 -8.9,-1.83 -0.01,0 -0.01,0 -0.01,-0.01"
       id="path26"
       style="fill:#0c481e"
       inkscape:connector-curvature="0" />
  </g>
</svg>
