<?xml version="1.0" encoding="UTF-8" standalone="no"?>
<!-- Created with Inkscape (http://www.inkscape.org/) -->

<svg
   xmlns:svg="http://www.w3.org/2000/svg"
   xmlns="http://www.w3.org/2000/svg"
   xmlns:xlink="http://www.w3.org/1999/xlink"
   version="1.0"
   width="24"
   height="24"
   id="svg7854">
  <defs
     id="defs7856">
    <linearGradient
       id="linearGradient3698">
      <stop
         id="stop3700"
         style="stop-color:#eeeeec;stop-opacity:1"
         offset="0" />
      <stop
         id="stop3702"
         style="stop-color:#babdb6;stop-opacity:1"
         offset="0.79219842" />
      <stop
         id="stop3704"
         style="stop-color:#a1a59b;stop-opacity:1"
         offset="1" />
    </linearGradient>
    <linearGradient
       id="linearGradient4111">
      <stop
         id="stop4113"
         style="stop-color:white;stop-opacity:1"
         offset="0" />
      <stop
         id="stop4115"
         style="stop-color:white;stop-opacity:0"
         offset="1" />
    </linearGradient>
    <linearGradient
       x1="22.146978"
       y1="15.722057"
       x2="22.401583"
       y2="34.612499"
       id="linearGradient4117"
       xlink:href="#linearGradient4111"
       gradientUnits="userSpaceOnUse" />
    <linearGradient
       x1="15"
       y1="2"
       x2="15"
       y2="21"
       id="linearGradient3696"
       xlink:href="#linearGradient3698"
       gradientUnits="userSpaceOnUse" />
  </defs>
  <g
     id="layer1">
    <path
       d="m 4.2095324,4.4999347 c -2.0298977,0 -3.70974655,1.6466263 -3.70974655,3.6363784 l 0,6.5909359 C 0.49978585,16.717001 2.1796347,18.5 4.2095324,18.5 L 8,18.5 l 0,-3 -3.7904676,0 C 3.7724597,15.5 3.5,15.155678 3.5,14.727249 l 0,-6.5909359 C 3.5,7.7078852 3.7724597,7.5 4.2095324,7.5 l 15.5809356,0 c 0.437075,0 0.741949,0.2078845 0.741949,0.6363131 l 0,6.5909359 C 20.532417,15.155677 20.22754,15.5 19.790468,15.5 L 16.5,15.5 16.5,13.227243 10.887076,16.863622 16.5,20.5 l 0,-2 3.290468,0 c 2.029897,0 3.709745,-1.782999 3.709746,-3.772751 l 0,-6.5909359 c 0,-1.9897521 -1.679848,-3.6363784 -3.709746,-3.6363784 l -15.5809356,0 z"
       id="rect7213"
       style="fill:url(#linearGradient3696);fill-opacity:1;stroke:#888a86;stroke-width:0.99999994;stroke-linecap:round;stroke-linejoin:round;stroke-miterlimit:4;stroke-opacity:1;stroke-dasharray:none;stroke-dashoffset:0.7" />
    <path
       d="m 13.5,15.75 c -2.044851,0 -3.75,1.705149 -3.75,3.75 l 0,9.0625 c 0,2.044851 1.705149,3.75 3.75,3.75 l 3.75,0 0,-1.5 -3.75,0 c -1.171568,0 -2.25,-1.078432 -2.25,-2.25 l 0,-9.0625 c 0,-1.171568 1.078431,-2.25 2.25,-2.25 l 21,0 c 1.171568,0 2.25,1.078438 2.25,2.25 l 0,9.0625 c 0,1.171568 -1.078431,2.25 -2.25,2.25 l -5,0 c -0.689741,-0.0015 -0.781214,-0.560259 -0.782697,-1.25 l 0,-0.625 -4.061053,2.5625 4.061053,2.5625 0,-0.5 c 0.0015,-0.689741 0.09296,-1.248517 0.782697,-1.25 l 5,0 c 2.044851,0 3.749999,-1.705148 3.75,-3.75 l 0,-9.0625 c 0,-2.044851 -1.705148,-3.75 -3.75,-3.75 l -21,0 z"
       transform="matrix(0.7419493,0,0,0.7272757,-5.8067832,-6.045563)"
       id="path7239"
       style="opacity:0.4;fill:none;stroke:url(#linearGradient4117);stroke-width:1.08906376;stroke-linecap:round;stroke-linejoin:miter;stroke-miterlimit:4;stroke-opacity:1;stroke-dashoffset:0.7" />
  </g>
</svg>
