<?xml version="1.0" encoding="UTF-8" standalone="no"?>
<svg
   xmlns:dc="http://purl.org/dc/elements/1.1/"
   xmlns:cc="http://creativecommons.org/ns#"
   xmlns:rdf="http://www.w3.org/1999/02/22-rdf-syntax-ns#"
   xmlns:svg="http://www.w3.org/2000/svg"
   xmlns="http://www.w3.org/2000/svg"
   xmlns:sodipodi="http://sodipodi.sourceforge.net/DTD/sodipodi-0.dtd"
   xmlns:inkscape="http://www.inkscape.org/namespaces/inkscape"
   enable-background="new 0 0 96 96"
   height="96px"
   id="rewind"
   version="1.1"
   viewBox="0 0 96 96"
   width="96px"
   xml:space="preserve"
   sodipodi:docname="rewind.svg"
   inkscape:version="0.92.3 (2405546, 2018-03-11)"><metadata
     id="metadata11"><rdf:RDF><cc:Work
         rdf:about=""><dc:format>image/svg+xml</dc:format><dc:type
           rdf:resource="http://purl.org/dc/dcmitype/StillImage" /><dc:title></dc:title></cc:Work></rdf:RDF></metadata><defs
     id="defs9" /><sodipodi:namedview
     pagecolor="#ffffff"
     bordercolor="#666666"
     borderopacity="1"
     objecttolerance="10"
     gridtolerance="10"
     guidetolerance="10"
     inkscape:pageopacity="0"
     inkscape:pageshadow="2"
     inkscape:window-width="1467"
     inkscape:window-height="949"
     id="namedview7"
     showgrid="false"
     inkscape:zoom="2.4583333"
     inkscape:cx="48"
     inkscape:cy="44.542373"
     inkscape:window-x="0"
     inkscape:window-y="0"
     inkscape:window-maximized="0"
     inkscape:current-layer="rewind" /><g
     id="g820"
     transform="matrix(1.5610518,0,0,1.5610518,-24.912046,-26.930486)"
     style="fill:#707070"><path
       id="path2"
       d="M 25.615,48 48.242,25.373 c 1.562,-1.562 1.562,-4.095 0,-5.657 -1.562,-1.562 -4.094,-1.562 -5.656,0 L 17.13,45.171 c -1.562,1.562 -1.562,4.095 0,5.657 l 25.456,25.456 c 1.562,1.562 4.095,1.562 5.656,0 1.562,-1.562 1.562,-4.095 0,-5.657 z"
       inkscape:connector-curvature="0"
       style="fill:#707070" /><path
       id="path4"
       d="M 53.656,48 76.284,25.373 c 1.562,-1.562 1.562,-4.095 0,-5.657 -1.562,-1.562 -4.095,-1.562 -5.657,0 L 45.172,45.171 c -1.562,1.562 -1.562,4.095 0,5.657 l 25.455,25.456 c 1.562,1.562 4.095,1.562 5.657,0 1.562,-1.562 1.562,-4.095 0,-5.657 z"
       inkscape:connector-curvature="0"
       style="fill:#707070" /></g></svg>