<?xml version="1.0" ?><!DOCTYPE svg  PUBLIC '-//W3C//DTD SVG 1.1//EN'  'http://www.w3.org/Graphics/SVG/1.1/DTD/svg11.dtd'><svg enable-background="new 0 0 24 24" height="24px" id="Layer_1" version="1.1" viewBox="0 0 24 24" width="24px" xml:space="preserve" xmlns="http://www.w3.org/2000/svg" xmlns:xlink="http://www.w3.org/1999/xlink"><g><path d="M13,13V8h-2.9c0,0-0.7,0.1-0.9-0.4s0.3-1,0.3-1L16.1,0l6.5,6.5c0,0,0.7,0.5,0.5,1.1s-1,0.4-1,0.4H19v5c0,0.6-0.3,1-0.9,1   h-4C13.6,14,13,13.6,13,13z M15,12h2V6h2.1l-2.9-3l-3.1,3H15V12z"/><path d="M1.1,16.4c0.2-0.5,1-0.4,1-0.4H5v-5c0-0.6,0.5-1,1-1h4c0.6,0,1,0.4,1,1v5h3.1c0,0,0.7-0.1,0.9,0.4s-0.3,1-0.3,1L8,24   l-6.5-6.5C1.6,17.5,0.9,17,1.1,16.4z M8,21l3.1-3H9v-6H7v6H5.1L8,21z"/></g></svg>