<?xml version="1.0" encoding="UTF-8" standalone="no"?>
<svg
   xmlns:dc="http://purl.org/dc/elements/1.1/"
   xmlns:cc="http://creativecommons.org/ns#"
   xmlns:rdf="http://www.w3.org/1999/02/22-rdf-syntax-ns#"
   xmlns:svg="http://www.w3.org/2000/svg"
   xmlns="http://www.w3.org/2000/svg"
   xmlns:sodipodi="http://sodipodi.sourceforge.net/DTD/sodipodi-0.dtd"
   xmlns:inkscape="http://www.inkscape.org/namespaces/inkscape"
   enable-background="new 0 0 64 64"
   height="64px"
   id="Layer_1"
   version="1.1"
   viewBox="0 0 64 64"
   width="64px"
   xml:space="preserve"
   sodipodi:docname="if_stop_1054967.svg"
   inkscape:version="0.92.1 r15371"><metadata
     id="metadata15"><rdf:RDF><cc:Work
         rdf:about=""><dc:format>image/svg+xml</dc:format><dc:type
           rdf:resource="http://purl.org/dc/dcmitype/StillImage" /></cc:Work></rdf:RDF></metadata><defs
     id="defs13" /><sodipodi:namedview
     pagecolor="#ffffff"
     bordercolor="#666666"
     borderopacity="1"
     objecttolerance="10"
     gridtolerance="10"
     guidetolerance="10"
     inkscape:pageopacity="0"
     inkscape:pageshadow="2"
     inkscape:window-width="1457"
     inkscape:window-height="970"
     id="namedview11"
     showgrid="false"
     inkscape:zoom="3.6875"
     inkscape:cx="32.542373"
     inkscape:cy="32"
     inkscape:window-x="0"
     inkscape:window-y="0"
     inkscape:window-maximized="0"
     inkscape:current-layer="Layer_1" /><circle
     cx="32"
     cy="32"
     fill="#4F5D73"
     r="32"
     id="circle2"
     style="fill:#267cb5;fill-opacity:1" /><path
     d="M26.302,55c-1.65,0-3.955-0.955-5.121-2.121l-8.059-8.059C11.955,43.653,11,41.348,11,39.698  V28.302c0-1.65,0.955-3.955,2.121-5.121l8.059-8.059C22.347,13.955,24.652,13,26.302,13h11.397c1.65,0,3.955,0.955,5.121,2.121  l8.059,8.059C52.045,24.347,53,26.652,53,28.302v11.397c0,1.65-0.955,3.955-2.121,5.121l-8.059,8.059  C41.653,54.045,39.348,55,37.698,55H26.302z"
     fill="#231F20"
     opacity="0.2"
     id="path4" /><path
     d="M26.302,53c-1.65,0-3.955-0.955-5.121-2.121l-8.059-8.059C11.955,41.653,11,39.348,11,37.698V26.302  c0-1.65,0.955-3.955,2.121-5.121l8.059-8.059C22.347,11.955,24.652,11,26.302,11h11.397c1.65,0,3.955,0.955,5.121,2.121l8.059,8.059  C52.045,22.347,53,24.652,53,26.302v11.397c0,1.65-0.955,3.955-2.121,5.121l-8.059,8.059C41.653,52.045,39.348,53,37.698,53H26.302z  "
     fill="#C75C5C"
     id="path6" /><path
     d="M45,34c0,2.209-1.791,4-4,4H23c-2.209,0-4-1.791-4-4v-4c0-2.209,1.791-4,4-4h18c2.209,0,4,1.791,4,4V34z"
     fill="#FFFFFF"
     id="path8" /></svg>