<?xml version="1.0" encoding="UTF-8" standalone="no"?>
<svg
   xmlns:dc="http://purl.org/dc/elements/1.1/"
   xmlns:cc="http://creativecommons.org/ns#"
   xmlns:rdf="http://www.w3.org/1999/02/22-rdf-syntax-ns#"
   xmlns:svg="http://www.w3.org/2000/svg"
   xmlns="http://www.w3.org/2000/svg"
   xmlns:sodipodi="http://sodipodi.sourceforge.net/DTD/sodipodi-0.dtd"
   xmlns:inkscape="http://www.inkscape.org/namespaces/inkscape"
   enable-background="new 0 0 32 32"
   height="32px"
   id="Capa_1"
   version="1.1"
   viewBox="0 0 32 32"
   width="32px"
   xml:space="preserve"
   sodipodi:docname="stop.svg"
   inkscape:version="0.92.3 (2405546, 2018-03-11)"><metadata
     id="metadata21"><rdf:RDF><cc:Work
         rdf:about=""><dc:format>image/svg+xml</dc:format><dc:type
           rdf:resource="http://purl.org/dc/dcmitype/StillImage" /></cc:Work></rdf:RDF></metadata><defs
     id="defs19" /><sodipodi:namedview
     pagecolor="#ffffff"
     bordercolor="#666666"
     borderopacity="1"
     objecttolerance="10"
     gridtolerance="10"
     guidetolerance="10"
     inkscape:pageopacity="0"
     inkscape:pageshadow="2"
     inkscape:window-width="1308"
     inkscape:window-height="896"
     id="namedview17"
     showgrid="false"
     inkscape:zoom="7.375"
     inkscape:cx="-31.457627"
     inkscape:cy="16"
     inkscape:window-x="0"
     inkscape:window-y="0"
     inkscape:window-maximized="0"
     inkscape:current-layer="Capa_1" /><path
     d="m 16,2.2857143 c -7.562286,0 -13.7142857,6.152 -13.7142857,13.7142857 0,7.562286 6.1519997,13.714286 13.7142857,13.714286 7.562286,0 13.714286,-6.152 13.714286,-13.714286 C 29.714286,8.4377143 23.562286,2.2857143 16,2.2857143 M 16,0 C 24.836571,0 32,7.1634286 32,16 32,24.836571 24.836571,32 16,32 7.1634286,32 0,24.836571 0,16 0,7.1634286 7.1634286,0 16,0 Z m 4.041143,10.342857 1.616,1.616 L 17.616,16 l 4.041143,4.041143 -1.616,1.616 L 16,17.616 l -4.041143,4.041143 -1.616,-1.616 L 14.384,16 l -4.041143,-4.041143 1.616,-1.616 L 16,14.384 Z"
     id="path2"
     inkscape:connector-curvature="0"
     style="stroke-width:1.14285719;fill:#ef2929" /><g
     id="g4" /><g
     id="g6" /><g
     id="g8" /><g
     id="g10" /><g
     id="g12" /><g
     id="g14" /></svg>