<?xml version="1.0" encoding="UTF-8" standalone="no"?>
<svg
   xmlns:dc="http://purl.org/dc/elements/1.1/"
   xmlns:cc="http://creativecommons.org/ns#"
   xmlns:rdf="http://www.w3.org/1999/02/22-rdf-syntax-ns#"
   xmlns:svg="http://www.w3.org/2000/svg"
   xmlns="http://www.w3.org/2000/svg"
   xmlns:sodipodi="http://sodipodi.sourceforge.net/DTD/sodipodi-0.dtd"
   xmlns:inkscape="http://www.inkscape.org/namespaces/inkscape"
   enable-background="new 0 0 24 24"
   height="24px"
   id="Layer_1"
   version="1.1"
   viewBox="0 0 24 24"
   width="24px"
   xml:space="preserve"
   inkscape:version="0.91 r13725"
   sodipodi:docname="upload.svg"><metadata
     id="metadata13"><rdf:RDF><cc:Work
         rdf:about=""><dc:format>image/svg+xml</dc:format><dc:type
           rdf:resource="http://purl.org/dc/dcmitype/StillImage" /><dc:title></dc:title></cc:Work></rdf:RDF></metadata><defs
     id="defs11" /><sodipodi:namedview
     pagecolor="#ffffff"
     bordercolor="#666666"
     borderopacity="1"
     objecttolerance="10"
     gridtolerance="10"
     guidetolerance="10"
     inkscape:pageopacity="0"
     inkscape:pageshadow="2"
     inkscape:window-width="1095"
     inkscape:window-height="668"
     id="namedview9"
     showgrid="false"
     inkscape:zoom="9.8333333"
     inkscape:cx="12"
     inkscape:cy="12"
     inkscape:window-x="162"
     inkscape:window-y="62"
     inkscape:window-maximized="0"
     inkscape:current-layer="Layer_1" /><path
     inkscape:connector-curvature="0"
     id="path5"
     d="M 13,13 13,8 10.1,8 C 10.1,8 9.4,8.1 9.2,7.6 9,7.1 9.5,6.6 9.5,6.6 L 16.1,0 22.6,6.5 c 0,0 0.7,0.5 0.5,1.1 -0.2,0.6 -1,0.4 -1,0.4 l -3.1,0 0,5 c 0,0.6 -0.3,1 -0.9,1 l -4,0 C 13.6,14 13,13.6 13,13 Z m 2,-1 2,0 0,-6 2.1,0 -2.9,-3 -3.1,3 1.9,0 0,6 z"
     style="fill:#f05133;fill-opacity:1" /><path
     inkscape:connector-curvature="0"
     id="path7"
     d="M 1.1,16.4 C 1.3,15.9 2.1,16 2.1,16 L 5,16 5,11 c 0,-0.6 0.5,-1 1,-1 l 4,0 c 0.6,0 1,0.4 1,1 l 0,5 3.1,0 c 0,0 0.7,-0.1 0.9,0.4 0.2,0.5 -0.3,1 -0.3,1 L 8,24 1.5,17.5 C 1.6,17.5 0.9,17 1.1,16.4 Z M 8,21 11.1,18 9,18 9,12 7,12 7,18 5.1,18 8,21 Z"
     style="fill:#f05133;fill-opacity:1" /></svg>