/* XPM */
static const char * StateChartDiag_xpm[] = {
"16 16 3 1",
" 	c None",
".	c #800000",
"+	c #FFFFFF",
"                ",
" .............. ",
"..++++++++++++..",
"................",
".++++++++++++++.",
".++...+++...+++.",
".+.+++...+++.++.",
".+.+++.+.+++.++.",
".++...+++...+++.",
".+++++++++.++++.",
".++++++++...+++.",
".++++++++...+++.",
".+++++++++.++++.",
"..++++++++++++..",
" .............. ",
"                "};
