/* XPM */
static const char *app_xpm[] = {
/* width height num_colors chars_per_pixel */
"    16    16      256            2",
/* colors */
"`` c None",
"`. c #000000",
"`# c #f4f8fd",
"`a c #cedef4",
"`b c #82bfe9",
"`c c #1f4b86",
"`d c #a6c4eb",
"`e c #c2d6f1",
"`f c #d6e3f6",
"`g c #7cb7e6",
"`h c #6b9cdd",
"`i c #638fcb",
"`j c #afc9ec",
"`k c #a5c4eb",
"`l c #726d6d",
"`m c #75c8ec",
"`n c #75aee3",
"`o c #9fbfe9",
"`p c #8bb2e5",
"`q c #6a9cdd",
"`r c #ababab",
"`s c #939091",
"`t c #62ace2",
"`u c #679ede",
"`v c #91b6e6",
"`w c #77a4e0",
"`x c #3166ca",
"`y c #6e6e6e",
"`z c #4c87d6",
"`A c #588ed8",
"`B c #94b8e7",
"`C c #4a83d5",
"`D c #cecece",
"`E c #4482d4",
"`F c #4e89d7",
"`G c #5d93da",
"`H c #cccccc",
"`I c #c9c9c9",
"`J c #c6c6c6",
"`K c #2f73cd",
"`L c #3e7ed3",
"`M c #255aa0",
"`N c #c8c9c9",
"`O c #c6c6c5",
"`P c #c3c3c3",
"`Q c #c0bfbf",
"`R c #bdbdbc",
"`S c #7a7a7a",
"`T c #3e3e3e",
"`U c #a9a8a8",
"`V c #f2f2f2",
"`W c #c2c1c2",
"`X c #bdbcbc",
"`Y c #bab9b9",
"`Z c #615f60",
"`0 c #8d8b8a",
"`1 c #777372",
"`2 c #b9b8b8",
"`3 c #b6b5b5",
"`4 c #6a6767",
"`5 c #838280",
"`6 c #565554",
"`7 c #7f7d7c",
"`8 c #7c7979",
".` c #555454",
".. c #000000",
".# c #000000",
".a c #000000",
".b c #000000",
".c c #000000",
".d c #000000",
".e c #000000",
".f c #000000",
".g c #000000",
".h c #000000",
".i c #000000",
".j c #000000",
".k c #000000",
".l c #000000",
".m c #000000",
".n c #000000",
".o c #000000",
".p c #000000",
".q c #000000",
".r c #000000",
".s c #000000",
".t c #000000",
".u c #000000",
".v c #000000",
".w c #000000",
".x c #000000",
".y c #000000",
".z c #000000",
".A c #000000",
".B c #000000",
".C c #000000",
".D c #000000",
".E c #000000",
".F c #000000",
".G c #000000",
".H c #000000",
".I c #000000",
".J c #000000",
".K c #000000",
".L c #000000",
".M c #000000",
".N c #000000",
".O c #000000",
".P c #000000",
".Q c #000000",
".R c #000000",
".S c #000000",
".T c #000000",
".U c #000000",
".V c #000000",
".W c #000000",
".X c #000000",
".Y c #000000",
".Z c #000000",
".0 c #000000",
".1 c #000000",
".2 c #000000",
".3 c #000000",
".4 c #000000",
".5 c #000000",
".6 c #000000",
".7 c #000000",
".8 c #000000",
"#` c #000000",
"#. c #000000",
"## c #000000",
"#a c #000000",
"#b c #000000",
"#c c #000000",
"#d c #000000",
"#e c #000000",
"#f c #000000",
"#g c #000000",
"#h c #000000",
"#i c #000000",
"#j c #000000",
"#k c #000000",
"#l c #000000",
"#m c #000000",
"#n c #000000",
"#o c #000000",
"#p c #000000",
"#q c #000000",
"#r c #000000",
"#s c #000000",
"#t c #000000",
"#u c #000000",
"#v c #000000",
"#w c #000000",
"#x c #000000",
"#y c #000000",
"#z c #000000",
"#A c #000000",
"#B c #000000",
"#C c #000000",
"#D c #000000",
"#E c #000000",
"#F c #000000",
"#G c #000000",
"#H c #000000",
"#I c #000000",
"#J c #000000",
"#K c #000000",
"#L c #000000",
"#M c #000000",
"#N c #000000",
"#O c #000000",
"#P c #000000",
"#Q c #000000",
"#R c #000000",
"#S c #000000",
"#T c #000000",
"#U c #000000",
"#V c #000000",
"#W c #000000",
"#X c #000000",
"#Y c #000000",
"#Z c #000000",
"#0 c #000000",
"#1 c #000000",
"#2 c #000000",
"#3 c #000000",
"#4 c #000000",
"#5 c #000000",
"#6 c #000000",
"#7 c #000000",
"#8 c #000000",
"a` c #000000",
"a. c #000000",
"a# c #000000",
"aa c #000000",
"ab c #000000",
"ac c #000000",
"ad c #000000",
"ae c #000000",
"af c #000000",
"ag c #000000",
"ah c #000000",
"ai c #000000",
"aj c #000000",
"ak c #000000",
"al c #000000",
"am c #000000",
"an c #000000",
"ao c #000000",
"ap c #000000",
"aq c #000000",
"ar c #000000",
"as c #000000",
"at c #000000",
"au c #000000",
"av c #000000",
"aw c #000000",
"ax c #000000",
"ay c #000000",
"az c #000000",
"aA c #000000",
"aB c #000000",
"aC c #000000",
"aD c #000000",
"aE c #000000",
"aF c #000000",
"aG c #000000",
"aH c #000000",
"aI c #000000",
"aJ c #000000",
"aK c #000000",
"aL c #000000",
"aM c #000000",
"aN c #000000",
"aO c #000000",
"aP c #000000",
"aQ c #000000",
"aR c #000000",
"aS c #000000",
"aT c #000000",
"aU c #000000",
"aV c #000000",
"aW c #000000",
"aX c #000000",
"aY c #000000",
"aZ c #000000",
"a0 c #000000",
"a1 c #000000",
"a2 c #000000",
"a3 c #000000",
"a4 c #000000",
"a5 c #000000",
"a6 c #000000",
"a7 c #000000",
"a8 c #000000",
/* pixels */
"`````.`.`.``````````````````````",
"```.`#`a`#`.`.``````````````````",
"```.`b`c`d`e`f`.`.``````````````",
"```.`g`h`i`c`d`j`k`.`.``````````",
"```.`l`m`n`h`i`c`o`p`q`.`.``````",
"```.`r`s`s`t`u`h`i`c`v`w`x`.````",
"```.`r`y`y`s`s`z`A`q`i`c`B`C`.``",
"```.`r`y`D`y`y`s`s`E`F`G`i`c`.``",
"```.`r`y`H`I`J`y`y`s`s`K`L`M`.``",
"```.`r`y`N`O`P`Q`R`y`S`s`T`.````",
"```.`U`y`V`W`Q`X`Y`V`Z`0`1`.````",
"```.`s`s`Z`V`V`2`3`V`S`4`.``````",
"`````.`.`s`s`Z`V`V`Z`5`Z`.``````",
"`````````.`.`s`s`Z`s`6`.````````",
"`````````````.`.`7`8.``.````````",
"`````````````````.`.`.``````````"
};
