/* XPM */
static const char *help_xpm[] = {
/* width height num_colors chars_per_pixel */
"    16    16      256            2",
/* colors */
"`` c None",
"`. c #000000",
"`# c #8a47c6",
"`a c #c69aed",
"`b c #9349d8",
"`c c #9a54dc",
"`d c #8d40d5",
"`e c #8838d3",
"`f c #c9aad5",
"`g c #a25fe1",
"`h c #a766e1",
"`i c #ac76b8",
"`j c #e5d77c",
"`k c #ffff48",
"`l c #8a3cd0",
"`m c #1b0b2a",
"`n c #0f0d10",
"`o c #160625",
"`p c #e4c3f4",
"`q c #9953db",
"`r c #cba9b2",
"`s c #ece171",
"`t c #ae76c8",
"`u c #974fd9",
"`v c #c49ac1",
"`w c #893ad1",
"`x c #fbfbfb",
"`y c #989898",
"`z c #9454cb",
"`A c #a462e2",
"`B c #ba82e5",
"`C c #c090cc",
"`D c #ae70dd",
"`E c #a362de",
"`F c #c9a8a7",
"`G c #9146d3",
"`H c #12081c",
"`I c #747474",
"`J c #dfbbf3",
"`K c #a969e2",
"`L c #bd87eb",
"`M c #b67ce7",
"`N c #ac72d0",
"`O c #9a53db",
"`P c #090909",
"`Q c #9d61cf",
"`R c #a967e5",
"`S c #c694ef",
"`T c #c28ded",
"`U c #bb84ea",
"`V c #b882e0",
"`W c #ad6fe3",
"`X c #a666e1",
"`Y c #a05ade",
"`Z c #0a050e",
"`0 c #dcb6f2",
"`1 c #b478e8",
"`2 c #c897f0",
"`3 c #c593ef",
"`4 c #d3b3bc",
"`5 c #b984d8",
"`6 c #ab6ce3",
"`7 c #a563e0",
"`8 c #131313",
".` c #a66ed3",
".. c #af72e8",
".# c #c999ec",
".a c #c89ae1",
".b c #bf8aeb",
".c c #b77fe8",
".d c #7326bd",
".e c #dab3f3",
".f c #b981ea",
".g c #863bcc",
".h c #7423bf",
".i c #7323be",
".j c #1c1c1c",
".k c #af7bd7",
".l c #ae70e8",
".m c #984fd9",
".n c #7d27cd",
".o c #7824c5",
".p c #0f041a",
".q c #481975",
".r c #242423",
".s c #ab6fdb",
".t c #822fcf",
".u c #802bce",
".v c #220b36",
".w c #d4a9f2",
".x c #b279de",
".y c #8736d2",
".z c #000000",
".A c #000000",
".B c #000000",
".C c #000000",
".D c #000000",
".E c #000000",
".F c #000000",
".G c #000000",
".H c #000000",
".I c #000000",
".J c #000000",
".K c #000000",
".L c #000000",
".M c #000000",
".N c #000000",
".O c #000000",
".P c #000000",
".Q c #000000",
".R c #000000",
".S c #000000",
".T c #000000",
".U c #000000",
".V c #000000",
".W c #000000",
".X c #000000",
".Y c #000000",
".Z c #000000",
".0 c #000000",
".1 c #000000",
".2 c #000000",
".3 c #000000",
".4 c #000000",
".5 c #000000",
".6 c #000000",
".7 c #000000",
".8 c #000000",
"#` c #000000",
"#. c #000000",
"## c #000000",
"#a c #000000",
"#b c #000000",
"#c c #000000",
"#d c #000000",
"#e c #000000",
"#f c #000000",
"#g c #000000",
"#h c #000000",
"#i c #000000",
"#j c #000000",
"#k c #000000",
"#l c #000000",
"#m c #000000",
"#n c #000000",
"#o c #000000",
"#p c #000000",
"#q c #000000",
"#r c #000000",
"#s c #000000",
"#t c #000000",
"#u c #000000",
"#v c #000000",
"#w c #000000",
"#x c #000000",
"#y c #000000",
"#z c #000000",
"#A c #000000",
"#B c #000000",
"#C c #000000",
"#D c #000000",
"#E c #000000",
"#F c #000000",
"#G c #000000",
"#H c #000000",
"#I c #000000",
"#J c #000000",
"#K c #000000",
"#L c #000000",
"#M c #000000",
"#N c #000000",
"#O c #000000",
"#P c #000000",
"#Q c #000000",
"#R c #000000",
"#S c #000000",
"#T c #000000",
"#U c #000000",
"#V c #000000",
"#W c #000000",
"#X c #000000",
"#Y c #000000",
"#Z c #000000",
"#0 c #000000",
"#1 c #000000",
"#2 c #000000",
"#3 c #000000",
"#4 c #000000",
"#5 c #000000",
"#6 c #000000",
"#7 c #000000",
"#8 c #000000",
"a` c #000000",
"a. c #000000",
"a# c #000000",
"aa c #000000",
"ab c #000000",
"ac c #000000",
"ad c #000000",
"ae c #000000",
"af c #000000",
"ag c #000000",
"ah c #000000",
"ai c #000000",
"aj c #000000",
"ak c #000000",
"al c #000000",
"am c #000000",
"an c #000000",
"ao c #000000",
"ap c #000000",
"aq c #000000",
"ar c #000000",
"as c #000000",
"at c #000000",
"au c #000000",
"av c #000000",
"aw c #000000",
"ax c #000000",
"ay c #000000",
"az c #000000",
"aA c #000000",
"aB c #000000",
"aC c #000000",
"aD c #000000",
"aE c #000000",
"aF c #000000",
"aG c #000000",
"aH c #000000",
"aI c #000000",
"aJ c #000000",
"aK c #000000",
"aL c #000000",
"aM c #000000",
"aN c #000000",
"aO c #000000",
"aP c #000000",
"aQ c #000000",
"aR c #000000",
"aS c #000000",
"aT c #000000",
"aU c #000000",
"aV c #000000",
"aW c #000000",
"aX c #000000",
"aY c #000000",
"aZ c #000000",
"a0 c #000000",
"a1 c #000000",
"a2 c #000000",
"a3 c #000000",
"a4 c #000000",
"a5 c #000000",
"a6 c #000000",
"a7 c #000000",
"a8 c #000000",
/* pixels */
"````````````````````````````````",
"`````.`.`.`.`.`.`.`.`.`.````````",
"```.`#`a`b`c`b`d`e`e`e`e`.``````",
"```.`f`#`g`h`i`j`k`k`j`l`m``````",
"`.`n`o`o`p`q`r`s`t`u`v`j`w`.````",
"`.`x`y`o`z`A`B`C`D`E`F`j`G`H````",
"`.`x`y`I`o`J`K`L`M`v`k`N`O`b`.``",
"```P`x`y`o`Q`R`S`T`U`V`W`X`Y`Z``",
"```.`x`y`I`o`0`1`2`3`4`k`5`6`7`.",
"`````8`x`y`o.`..`2`2.#.a.b.c.d`.",
"`````.`x`y`I`o.e.f`2`2`2.g.h.i`.",
"``````.j`x`y`o.k.l`2.m.n.o.p`.``",
"```````.`x`..q.r.s.t.u.v`.``````",
"`````````.`..w.x.y`.`.``````````",
"`````````````.`.`.``````````````",
"````````````````````````````````"
};
