/* XPM */
static const char * Tool_xpm[] = {
"16 16 4 1",
" 	c None",
".	c #000000",
"+	c #FFFFFF",
"@	c #808080",
"                ",
"                ",
"            @.. ",
"          @..+. ",
"        @..++.@ ",
"      @..++++.  ",
"    @..+++++.@  ",
"     .++++++.   ",
"      .++++.@   ",
"     @.++++.    ",
"    @.+..+.@    ",
"   @.+.@ ..     ",
"  @.+.@   @     ",
"  .+.@          ",
"  @.@           ",
"                "};
