<?xml version="1.0" encoding="UTF-8" standalone="no"?>
<svg
   xmlns:dc="http://purl.org/dc/elements/1.1/"
   xmlns:cc="http://creativecommons.org/ns#"
   xmlns:rdf="http://www.w3.org/1999/02/22-rdf-syntax-ns#"
   xmlns:svg="http://www.w3.org/2000/svg"
   xmlns="http://www.w3.org/2000/svg"
   xmlns:sodipodi="http://sodipodi.sourceforge.net/DTD/sodipodi-0.dtd"
   xmlns:inkscape="http://www.inkscape.org/namespaces/inkscape"
   enable-background="new 0 0 32 32"
   height="32px"
   id="Слой_1"
   version="1.1"
   viewBox="0 0 32 32"
   width="32px"
   xml:space="preserve"
   inkscape:version="0.91 r13725"
   sodipodi:docname="aui-close-white.svg"><metadata
     id="metadata20"><rdf:RDF><cc:Work
         rdf:about=""><dc:format>image/svg+xml</dc:format><dc:type
           rdf:resource="http://purl.org/dc/dcmitype/StillImage" /><dc:title></dc:title></cc:Work></rdf:RDF></metadata><defs
     id="defs18" /><sodipodi:namedview
     pagecolor="#ffffff"
     bordercolor="#666666"
     borderopacity="1"
     objecttolerance="10"
     gridtolerance="10"
     guidetolerance="10"
     inkscape:pageopacity="0"
     inkscape:pageshadow="2"
     inkscape:window-width="1373"
     inkscape:window-height="771"
     id="namedview16"
     showgrid="false"
     inkscape:zoom="7.375"
     inkscape:cx="-15.254237"
     inkscape:cy="16"
     inkscape:window-x="0"
     inkscape:window-y="0"
     inkscape:window-maximized="0"
     inkscape:current-layer="Слой_1" /><path
     d="M 18.328927,16.022373 31.480421,2.928013 c 0.630518,-0.6248346 0.630518,-1.6363954 0,-2.25963199 -0.628922,-0.6248345 -1.650521,-0.6248345 -2.279443,0 L 16.060657,13.751554 2.7990221,0.47341991 c -0.628922,-0.6312268 -1.6505213,-0.6312268 -2.27944329,0 -0.628922,0.63282479 -0.628922,1.65716989 0,2.28839669 L 13.771637,16.030363 0.47169131,29.271742 c -0.628922,0.624835 -0.628922,1.636396 0,2.259632 0.62892209,0.624835 1.65052129,0.624835 2.27944329,0 L 16.039906,18.301181 29.248865,31.52658 c 0.628922,0.631227 1.650521,0.631227 2.279443,0 0.628923,-0.632825 0.628923,-1.65717 0,-2.288397 L 18.328927,16.022373 Z"
     id="Close"
     style="fill:#e5e5e5;fill-opacity:1"
     inkscape:connector-curvature="0" /><g
     id="g4" /><g
     id="g6" /><g
     id="g8" /><g
     id="g10" /><g
     id="g12" /><g
     id="g14" /></svg>