/* XPM */
static char *enumee_xpm[] = {
/* columns rows colors chars-per-pixel */
"16 16 34 1",
"X c #CCCC66",
"1 c #FFFFFF",
"$ c #FFCC66",
": c #CBCBCB",
"2 c #F8F8F8",
"6 c #993366",
"3 c #F1F1F1",
"# c #FFCC99",
"; c #CCCCCC",
"  c None",
"w c #EAEAEA",
"O c #CC9933",
"& c #669999",
"8 c #555555",
"+ c #EFD6C6",
"< c #A0A0A4",
"q c #ADA990",
"0 c #CCECFF",
"= c #666633",
"e c #336666",
"7 c #CC9999",
", c #9999CC",
"% c #996633",
"r c #666666",
"> c #C0C0C0",
"t c #5F5F5F",
"- c #D7D7D7",
"4 c #996666",
"9 c #66CC66",
"* c #666699",
"@ c #FFFF99",
". c #E7E7D6",
"o c #CCCC33",
"5 c #868686",
/* pixels */
"                ",
"       .XXoooOO+",
"       X@@###$$%",
"       X@#&&*$$%",
"       X###$$$X=",
"       o##&&*XX=",
"--;:>>,,,,<XXoo=",
"-111223333&%%==>",
";1:4<2<5>3*     ",
":167638980*     ",
">2>7:3:q:w*     ",
">2***3***0*     ",
">23333ww00e     ",
",&&&****ret     ",
"                ",
"                "
};
