/* XPM */
static char *image_xpm[] = {
/* width height ncolors chars_per_pixel */
"16 16 3 1",
/* colors */
"  c #000000",
". c #008080",
"X c None",
/* pixels */
"................",
"..  .......  ...",
".  .........  ..",
".  ....  ...  ..",
".  ..    ...  ..",
".  ....  ...  ..",
".  ....  ...  ..",
"  .....  ....  .",
".  ....  ...  ..",
".  ....  ...  ..",
".  ....  ...  ..",
".  ..      .  ..",
".  .........  ..",
".  .........  ..",
"..  .......  ...",
"................"
};
