/* XPM */
static char *image_xpm[] = {
/* width height ncolors chars_per_pixel */
"16 16 5 1",
/* colors */
"  c #000000",
". c #C0C0C0",
"X c #008080",
"o c #FFFFFF",
"O c None",
/* pixels */
"XXXXXXXXXXXXXXXX",
"XXXXXXXXXXXXXXXX",
"X            XXX",
"X oooooooooo XXX",
"X o            X",
"X o oooooooooo X",
"X o o........o X",
"X o oooooooooo X",
"X o o........o X",
"X o oooooooooo X",
"X   o........o X",
"XXX oooooooooo X",
"XXX            X",
"XXXXXXXXXXXXXXXX",
"XXXXXXXXXXXXXXXX",
"XXXXXXXXXXXXXXXX"
};
