/* XPM */
const char *closetab_xpm[] = {
/* columns rows colors chars-per-pixel */
"16 16 38 1",
". c Black",
"w c #E8E8E8",
"; c #262626",
"  c #FFFFFF",
"y c #626262",
"9 c #8F8F8F",
"3 c #1F1F1F",
"@ c #797979",
"0 c #909090",
"> c #020202",
"r c #CCCCCC",
"o c #202020",
"# c #EAEAEA",
"4 c #3E3E3E",
"O c #191919",
"= c #E3E3E3",
"6 c #919191",
"8 c #121212",
"& c #EBEBEB",
"7 c #4E4E4E",
"e c #C6C6C6",
"< c #1A1A1A",
"u c #222222",
"p c #6D6D6D",
", c #E5E5E5",
"t c #F4F4F4",
"1 c #050505",
"q c #141414",
"5 c #8C8C8C",
"$ c #E6E6E6",
"+ c #858585",
"2 c #151515",
": c #EEEEEE",
"% c #8D8D8D",
"* c #E7E7E7",
"X c #777777",
"i c #252525",
"- c #EFEFEF",
/* pixels */
"                ",
"                ",
"    ........    ",
"   ..........   ",
"  ...Xo..O+...  ",
"  ..@ #oO$ %..  ",
"  ..o& *= -;..  ",
"  ...o#  :;...  ",
"  >..O=  ,<..1  ",
"  2.O$ :* $3.O  ",
"  4.5 -;<* 6.7  ",
"  *8.9;..30.qw  ",
"   eq......qr   ",
"    tyu..ipt    ",
"                ",
"                "
};
