/* XPM */
const char *closetab_active_xpm[] = {
/* columns rows colors chars-per-pixel */
"16 16 36 1",
". c Black",
"0 c #E8E8E8",
"* c #B4B4B4",
"  c #FFFFFF",
"r c #626262",
"= c #B5B5B5",
"3 c #818181",
": c #020202",
"w c #CCCCCC",
"2 c #3E3E3E",
"1 c #191919",
"; c #282828",
"@ c #737373",
"& c #828282",
"7 c #121212",
"< c #212121",
"5 c #4E4E4E",
"q c #C6C6C6",
"8 c #838383",
"t c #222222",
"u c #6D6D6D",
"+ c #7C7C7C",
"- c #2A2A2A",
"e c #F4F4F4",
"4 c #848484",
"% c #B1B1B1",
"> c #050505",
"9 c #141414",
"o c #232323",
"# c #B9B9B9",
"$ c #B2B2B2",
", c #151515",
"O c #1D1D1D",
"6 c #E7E7E7",
"y c #252525",
"X c #707070",
/* pixels */
"                ",
"                ",
"    ........    ",
"   ..........   ",
"  ...Xo..O+...  ",
"  ..@#$oO%#&..  ",
"  ..o*#$%#=-..  ",
"  ...o$##*;...  ",
"  :..O%##$O..>  ",
"  ,.O%#*$#$<.1  ",
"  2.3#=;O$#4.5  ",
"  67.8-..<4.90  ",
"   q9......9w   ",
"    ert..yue    ",
"                ",
"                "
};
