<?xml version="1.0" encoding="UTF-8" standalone="no"?>
<!-- Uploaded to: SVG Repo, www.svgrepo.com, Generator: SVG Repo Mixer Tools -->

<svg
   width="800px"
   height="800px"
   viewBox="0 0 16 16"
   fill="#000000"
   version="1.1"
   id="svg4"
   sodipodi:docname="case-sensitive.svg"
   inkscape:version="1.1 (c68e22c387, 2021-05-23)"
   xmlns:inkscape="http://www.inkscape.org/namespaces/inkscape"
   xmlns:sodipodi="http://sodipodi.sourceforge.net/DTD/sodipodi-0.dtd"
   xmlns="http://www.w3.org/2000/svg"
   xmlns:svg="http://www.w3.org/2000/svg">
  <defs
     id="defs8" />
  <sodipodi:namedview
     id="namedview6"
     pagecolor="#505050"
     bordercolor="#eeeeee"
     borderopacity="1"
     inkscape:pageshadow="0"
     inkscape:pageopacity="0"
     inkscape:pagecheckerboard="0"
     showgrid="false"
     inkscape:zoom="1.09125"
     inkscape:cx="400"
     inkscape:cy="400"
     inkscape:window-width="3440"
     inkscape:window-height="1361"
     inkscape:window-x="-9"
     inkscape:window-y="-9"
     inkscape:window-maximized="1"
     inkscape:current-layer="svg4" />
  <path
     fill-rule="evenodd"
     clip-rule="evenodd"
     d="m 7.2309199,9.778 0.891,2.35 h 1.091 l -3.24,-8.402 h -1.02 l -3.217,8.402 h 1.095 l 0.838,-2.35 z m -1.684,-4.599 0.044,0.135 1.318,3.574 h -2.918 l 1.307,-3.574 0.044,-0.135 0.038,-0.156 0.032,-0.152 0.021,-0.126 h 0.023 l 0.024,0.126 0.029,0.152 z M 13.53092,11.19 v 0.936 h 0.96 V 8.224 c 0,-0.719 -0.18,-1.272 -0.539,-1.661 -0.359,-0.389 -0.889,-0.583 -1.588,-0.583 -0.199,0 -0.401,0.019 -0.606,0.056 a 4.875,4.875 0 0 0 -1.078,0.326 2.081,2.081 0 0 0 -0.343,0.188 v 0.984 c 0.266,-0.23 0.566,-0.411 0.904,-0.54 a 2.927,2.927 0 0 1 1.052,-0.193 c 0.188,0 0.358,0.028 0.513,0.085 a 0.98,0.98 0 0 1 0.396,0.267 c 0.109,0.121 0.193,0.279 0.252,0.472 0.059,0.193 0.088,0.427 0.088,0.7 l -1.811,0.252 c -0.344,0.047 -0.64,0.126 -0.888,0.237 a 1.947,1.947 0 0 0 -0.615,0.419 1.6,1.6 0 0 0 -0.3600001,0.58 2.134,2.134 0 0 0 -0.117,0.721 c 0,0.246 0.042,0.475 0.124,0.688 0.082,0.213 0.2030001,0.397 0.3630001,0.551 0.16,0.154 0.36,0.276 0.598,0.366 0.238,0.09 0.513,0.135 0.826,0.135 0.402,0 0.76,-0.092 1.075,-0.278 0.315,-0.186 0.572,-0.454 0.771,-0.806 z m -2.128,-1.743 c 0.176,-0.064 0.401,-0.114 0.674,-0.149 l 1.465,-0.205 v 0.609 c 0,0.246 -0.041,0.475 -0.123,0.688 a 1.727,1.727 0 0 1 -0.343,0.557 1.573,1.573 0 0 1 -0.524,0.372 1.63,1.63 0 0 1 -0.668,0.135 c -0.187,0 -0.353,-0.025 -0.495,-0.076 a 1.03,1.03 0 0 1 -0.357,-0.211 0.896,0.896 0 0 1 -0.22,-0.316 1.005,1.005 0 0 1 -0.076,-0.393 1.6,1.6 0 0 1 0.055,-0.44 0.739,0.739 0 0 1 0.202,-0.334 1.16,1.16 0 0 1 0.41,-0.237 z"
     id="path2"
     style="fill:#cccccc;stroke:#cccccc;stroke-opacity:1" />
</svg>
