<?xml version="1.0" encoding="UTF-8" standalone="no"?>
<!-- Uploaded to: SVG Repo, www.svgrepo.com, Generator: SVG Repo Mixer Tools -->

<svg
   fill="#000000"
   width="800px"
   height="800px"
   viewBox="0 0 24 24"
   version="1.1"
   id="svg10"
   sodipodi:docname="chat-bot.svg"
   inkscape:version="1.1 (c68e22c387, 2021-05-23)"
   xmlns:inkscape="http://www.inkscape.org/namespaces/inkscape"
   xmlns:sodipodi="http://sodipodi.sourceforge.net/DTD/sodipodi-0.dtd"
   xmlns="http://www.w3.org/2000/svg"
   xmlns:svg="http://www.w3.org/2000/svg">
  <defs
     id="defs14" />
  <sodipodi:namedview
     id="namedview12"
     pagecolor="#505050"
     bordercolor="#eeeeee"
     borderopacity="1"
     inkscape:pageshadow="0"
     inkscape:pageopacity="0"
     inkscape:pagecheckerboard="0"
     showgrid="false"
     inkscape:zoom="0.97375"
     inkscape:cx="399.48652"
     inkscape:cy="399.48652"
     inkscape:window-width="3840"
     inkscape:window-height="2080"
     inkscape:window-x="-11"
     inkscape:window-y="-11"
     inkscape:window-maximized="1"
     inkscape:current-layer="svg10" />
  <path
     d="M21.928 11.607c-.202-.488-.635-.605-.928-.633V8c0-1.103-.897-2-2-2h-6V4.61c.305-.274.5-.668.5-1.11a1.5 1.5 0 0 0-3 0c0 .442.195.836.5 1.11V6H5c-1.103 0-2 .897-2 2v2.997l-.082.006A1 1 0 0 0 1.99 12v2a1 1 0 0 0 1 1H3v5c0 1.103.897 2 2 2h14c1.103 0 2-.897 2-2v-5a1 1 0 0 0 1-1v-1.938a1.006 1.006 0 0 0-.072-.455zM5 20V8h14l.001 3.996L19 12v2l.001.005.001 5.995H5z"
     id="path2"
     style="fill:#b3b3b3;fill-opacity:1.0" />
  <ellipse
     cx="8.5"
     cy="12"
     rx="1.5"
     ry="2"
     id="ellipse4"
     style="fill:#b3b3b3" />
  <ellipse
     cx="15.5"
     cy="12"
     rx="1.5"
     ry="2"
     id="ellipse6"
     style="fill:#b3b3b3" />
  <path
     d="M8 16h8v2H8z"
     id="path8"
     style="fill:#b3b3b3" />
</svg>
