<?xml version="1.0" encoding="utf-8"?><!-- Uploaded to: SVG Repo, www.svgrepo.com, Generator: SVG Repo Mixer Tools -->
<svg fill="#000000" width="800px" height="800px" viewBox="0 -8 72 72" id="Layer_1" data-name="Layer 1" xmlns="http://www.w3.org/2000/svg"><title>cog</title><path d="M56.74,20.89l-1-2.31c3.33-7.53,3.11-7.75,2.46-8.41L54,6l-.42-.35h-.49c-.26,0-1,0-7.51,2.93l-2.38-1C40.09,0,39.77,0,38.87,0h-6c-.9,0-1.25,0-4.1,7.66l-2.37,1C22,6.78,19.45,5.84,18.75,5.84l-.56,0-4.58,4.49c-.7.65-.94.88,2.58,8.3l-1,2.3c-7.79,3-7.79,3.3-7.79,4.23v5.89c0,.92,0,1.25,7.82,4l1,2.29c-3.33,7.53-3.11,7.76-2.46,8.41L18,50l.42.37h.5c.25,0,1,0,7.5-3l2.38,1C31.9,56,32.21,56,33.12,56h6c.92,0,1.25,0,4.11-7.66l2.39-1c4.37,1.85,6.93,2.79,7.61,2.79l.57,0,4.62-4.52c.66-.66.89-.89-2.62-8.28l1-2.3c7.81-3,7.81-3.33,7.81-4.23V24.93C64.57,24,64.57,23.68,56.74,20.89ZM36,37.8A9.8,9.8,0,1,1,46,28,9.91,9.91,0,0,1,36,37.8Z"/></svg>