<?xml version="1.0" encoding="UTF-8" standalone="no"?>
<svg
   id="Layer_1"
   viewBox="0 0 100 100"
   version="1.1"
   sodipodi:docname="database.svg"
   inkscape:version="1.1 (c68e22c387, 2021-05-23)"
   xmlns:inkscape="http://www.inkscape.org/namespaces/inkscape"
   xmlns:sodipodi="http://sodipodi.sourceforge.net/DTD/sodipodi-0.dtd"
   xmlns="http://www.w3.org/2000/svg"
   xmlns:svg="http://www.w3.org/2000/svg">
  <defs
     id="defs13" />
  <sodipodi:namedview
     id="namedview11"
     pagecolor="#505050"
     bordercolor="#eeeeee"
     borderopacity="1"
     inkscape:pageshadow="0"
     inkscape:pageopacity="0"
     inkscape:pagecheckerboard="0"
     showgrid="false"
     inkscape:zoom="8.73"
     inkscape:cx="50"
     inkscape:cy="50"
     inkscape:window-width="3440"
     inkscape:window-height="1361"
     inkscape:window-x="-9"
     inkscape:window-y="-9"
     inkscape:window-maximized="1"
     inkscape:current-layer="Layer_1" />
  <style
     id="style2">.st0{fill:#0cf}</style>
  <path
     class="st0"
     d="M3.3 61.7c0 8.3 20.9 15 46.7 15 25.7 0 46.6-6.7 46.7-15V49.8C87.1 56.7 68.5 60 50 60c-18.5 0-37.1-3.3-46.7-10.3v12z"
     id="path4"
     style="fill:#abb3d6" />
  <path
     class="st0"
     d="M96.7 73C87.1 80 68.5 83.3 50 83.3 31.5 83.3 12.9 80 3.3 73v13.6C5.9 94.2 26 100 50 100s44.1-5.8 46.7-13.3V73zM3.3 38.3c0 8.3 20.9 15 46.7 15 25.7 0 46.6-6.7 46.7-15V26.4c-9.6 7-28.2 10.3-46.7 10.3-18.5 0-37.1-3.3-46.7-10.3v11.9z"
     id="path6"
     style="fill:#abb3d6" />
  <ellipse
     class="st0"
     cx="50"
     cy="15"
     rx="46.7"
     ry="15"
     id="ellipse8"
     style="fill:#abb3d6" />
</svg>
