<?xml version="1.0" encoding="UTF-8" standalone="no"?>
<!-- Uploaded to: SVG Repo, www.svgrepo.com, Generator: SVG Repo Mixer Tools -->

<svg
   width="800px"
   height="800px"
   viewBox="0 0 512 512"
   version="1.1"
   id="svg7"
   sodipodi:docname="dbexplorer-button.svg"
   inkscape:version="1.1 (c68e22c387, 2021-05-23)"
   xmlns:inkscape="http://www.inkscape.org/namespaces/inkscape"
   xmlns:sodipodi="http://sodipodi.sourceforge.net/DTD/sodipodi-0.dtd"
   xmlns="http://www.w3.org/2000/svg"
   xmlns:svg="http://www.w3.org/2000/svg"
   xmlns:rdf="http://www.w3.org/1999/02/22-rdf-syntax-ns#"
   xmlns:cc="http://creativecommons.org/ns#"
   xmlns:dc="http://purl.org/dc/elements/1.1/">
  <defs
     id="defs11" />
  <sodipodi:namedview
     id="namedview9"
     pagecolor="#505050"
     bordercolor="#eeeeee"
     borderopacity="1"
     inkscape:pageshadow="0"
     inkscape:pageopacity="0"
     inkscape:pagecheckerboard="0"
     showgrid="false"
     inkscape:zoom="1.09125"
     inkscape:cx="400"
     inkscape:cy="400"
     inkscape:window-width="3440"
     inkscape:window-height="1373"
     inkscape:window-x="-9"
     inkscape:window-y="-9"
     inkscape:window-maximized="1"
     inkscape:current-layer="svg7" />
  <title
     id="title2">database</title>
  <g
     id="Page-1"
     stroke="none"
     stroke-width="1"
     fill="none"
     fill-rule="evenodd"
     style="fill:#b3b3b3">
    <g
       id="icon"
       fill="#000000"
       transform="translate(85.333333, 64.000000)"
       style="fill:#b3b3b3">
      <path
         d="M42.6444983,248.431693 L42.6390764,297.132519 L42.6688356,298.727826 C43.8414491,314.997481 98.3302718,341.333333 170.666667,341.333333 C210.227179,341.333333 246.72354,333.615004 272.265111,320.844219 C289.849184,312.052182 297.608343,303.679471 298.564746,299.497325 L298.666667,298.666667 L298.667681,248.443679 C267.39536,266.159654 221.640766,277.333333 170.666667,277.333333 C119.681073,277.333333 73.9173384,266.154614 42.6444983,248.431693 Z M301.877878,139.904868 L300.250819,140.867352 C268.950349,159.109644 222.507795,170.666667 170.666667,170.666667 C118.845791,170.666667 72.4192722,159.118672 41.1192055,140.888729 C41.6282494,141.18521 42.1414441,141.480008 42.6586002,141.773017 L42.652,192 L42.6666667,192 C42.6666667,195.818843 50.2281437,204.757512 69.0682228,214.177552 C94.6097937,226.948337 131.106154,234.666667 170.666667,234.666667 C210.227179,234.666667 246.72354,226.948337 272.265111,214.177552 C291.10519,204.757512 298.666667,195.818843 298.666667,192 L298.667,192 L298.667681,141.777012 C299.755398,141.160814 300.825593,140.536701 301.877878,139.904868 Z M170.666667,42.6666667 C131.106154,42.6666667 94.6097937,50.384996 69.0682228,63.1557815 C50.2281437,72.575821 42.6666667,81.5144908 42.6666667,85.3333333 C42.6666667,89.1521758 50.2281437,98.0908456 69.0682228,107.510885 C94.6097937,120.281671 131.106154,128 170.666667,128 C210.227179,128 246.72354,120.281671 272.265111,107.510885 C291.10519,98.0908456 298.666667,89.1521758 298.666667,85.3333333 C298.666667,81.5144908 291.10519,72.575821 272.265111,63.1557815 C246.72354,50.384996 210.227179,42.6666667 170.666667,42.6666667 Z M341.333333,298.666667 C341.333333,345.794965 264.923264,384 170.666667,384 C78.5046604,384 3.40481618,347.4741 0.11255743,301.795012 L1.42108547e-14,298.666667 L1.42108547e-14,85.3333333 C1.42108547e-14,85.7848786 0.00701438452,86.2356046 0.0209916443,86.6854858 L1.42108547e-14,85.3333333 L1.42108547e-14,85.3333333 C1.42108547e-14,38.2050347 76.4100694,-4.26325641e-14 170.666667,-4.26325641e-14 C264.923264,-4.26325641e-14 341.333333,38.2050347 341.333333,85.3333333 L341.333333,298.666667 Z"
         id="Combined-Shape"
         style="fill:#b3b3b3" />
    </g>
  </g>
  <metadata
     id="metadata828">
    <rdf:RDF>
      <cc:Work
         rdf:about="">
        <dc:title>database</dc:title>
      </cc:Work>
    </rdf:RDF>
  </metadata>
</svg>
