<!DOCTYPE svg PUBLIC "-//W3C//DTD SVG 1.1//EN" "http://www.w3.org/Graphics/SVG/1.1/DTD/svg11.dtd">
<!-- Uploaded to: SVG Repo, www.svgrepo.com, Transformed by: SVG Repo Mixer Tools -->
<svg fill="#deddda" width="64px" height="64px" viewBox="0 0 32 32" version="1.1" xmlns="http://www.w3.org/2000/svg">
<g id="SVGRepo_bgCarrier" stroke-width="0"/>
<g id="SVGRepo_tracerCarrier" stroke-linecap="round" stroke-linejoin="round"/>
<g id="SVGRepo_iconCarrier"> <title>snowflake</title> <path d="M28.285 16.575l-4.475 2.49-5.309-3.065 5.305-3.063 4.487 2.488c0.173 0.099 0.38 0.157 0.601 0.157 0.001 0 0.002 0 0.003 0h-0c0.001 0 0.002 0 0.003 0 0.69 0 1.249-0.559 1.249-1.249 0-0.468-0.258-0.876-0.639-1.090l-0.006-0.003-3.174-1.759 2.42-1.397c0.377-0.22 0.625-0.623 0.625-1.083 0-0.691-0.56-1.25-1.25-1.25-0.23 0-0.446 0.062-0.631 0.171l0.006-0.003-2.418 1.396 0.058-3.625c0-0.006 0-0.013 0-0.020 0-0.684-0.549-1.239-1.23-1.25h-0.001c-0.684 0.007-1.24 0.549-1.269 1.227l-0 0.003-0.082 5.124-5.308 3.065v-6.127l4.4-2.636c0.366-0.222 0.607-0.619 0.607-1.072 0-0.69-0.56-1.25-1.25-1.25-0.237 0-0.459 0.066-0.648 0.181l0.006-0.003-3.115 1.866v-2.794c0-0.69-0.56-1.25-1.25-1.25s-1.25 0.56-1.25 1.25v0 2.792l-3.106-1.866c-0.183-0.111-0.404-0.176-0.64-0.176-0.69 0-1.25 0.56-1.25 1.25 0 0.451 0.239 0.846 0.597 1.066l0.005 0.003 4.394 2.639v6.128l-5.306-3.064-0.083-5.126c-0.028-0.682-0.585-1.224-1.27-1.229h-0.001c-0.682 0.012-1.23 0.567-1.23 1.25 0 0.007 0 0.014 0 0.021v-0.001l0.059 3.628-2.418-1.396c-0.179-0.105-0.395-0.167-0.625-0.167-0.691 0-1.25 0.56-1.25 1.25 0 0.46 0.249 0.863 0.619 1.080l0.006 0.003 2.418 1.396-3.172 1.758c-0.388 0.217-0.646 0.626-0.646 1.095 0 0.69 0.56 1.25 1.25 1.25 0.224 0 0.434-0.059 0.616-0.162l-0.006 0.003 4.484-2.486 5.306 3.063-5.306 3.063-4.483-2.493c-0.175-0.099-0.384-0.157-0.607-0.157-0.691 0-1.25 0.56-1.25 1.25 0 0.467 0.257 0.875 0.637 1.090l0.006 0.003 3.175 1.764-2.421 1.398c-0.381 0.219-0.633 0.623-0.633 1.087 0 0.69 0.559 1.25 1.25 1.25 0.234 0 0.452-0.064 0.639-0.176l-0.006 0.003 2.418-1.396-0.063 3.624c-0 0.006-0 0.014-0 0.021 0 0.683 0.548 1.238 1.228 1.251l0.001 0h0.021c0 0 0 0 0 0 0.683 0 1.238-0.547 1.25-1.227v-0.001l0.089-5.125 5.305-3.063v6.124l-4.397 2.642c-0.366 0.223-0.607 0.619-0.607 1.072 0 0.691 0.56 1.251 1.251 1.251 0.238 0 0.46-0.066 0.649-0.181l-0.006 0.003 3.11-1.869v2.792c0 0.69 0.56 1.25 1.25 1.25s1.25-0.56 1.25-1.25v0-2.792l3.111 1.864c0.182 0.112 0.403 0.178 0.639 0.178 0.001 0 0.001 0 0.002 0h-0c0.001 0 0.001 0 0.002 0 0.69 0 1.25-0.56 1.25-1.25 0-0.453-0.241-0.85-0.602-1.069l-0.006-0.003-4.396-2.634v-6.129l5.303 3.062 0.089 5.131c0.012 0.681 0.566 1.229 1.249 1.229 0 0 0.001 0 0.001 0h0.021c0.681-0.012 1.229-0.567 1.229-1.25 0-0.008-0-0.015-0-0.023l0 0.001-0.063-3.63 2.421 1.397c0.177 0.102 0.39 0.163 0.616 0.163 0.69 0 1.25-0.559 1.25-1.25 0-0.456-0.245-0.856-0.61-1.074l-0.006-0.003-2.418-1.396 3.168-1.762c0.384-0.218 0.639-0.625 0.639-1.090 0-0.69-0.56-1.25-1.25-1.25-0.222 0-0.43 0.058-0.61 0.159l0.006-0.003z"/> </g>
</svg>