<?xml version="1.0" encoding="UTF-8" standalone="no"?>
<!-- Uploaded to: SVG Repo, www.svgrepo.com, Generator: SVG Repo Mixer Tools -->

<svg
   fill="#000000"
   width="800px"
   height="800px"
   viewBox="0 0 512 512"
   version="1.1"
   id="svg4"
   sodipodi:docname="folder-yellow-opened-symlink.svg"
   inkscape:version="1.1 (c68e22c387, 2021-05-23)"
   xmlns:inkscape="http://www.inkscape.org/namespaces/inkscape"
   xmlns:sodipodi="http://sodipodi.sourceforge.net/DTD/sodipodi-0.dtd"
   xmlns="http://www.w3.org/2000/svg"
   xmlns:svg="http://www.w3.org/2000/svg">
  <defs
     id="defs8" />
  <sodipodi:namedview
     id="namedview6"
     pagecolor="#505050"
     bordercolor="#eeeeee"
     borderopacity="1"
     inkscape:pageshadow="0"
     inkscape:pageopacity="0"
     inkscape:pagecheckerboard="0"
     showgrid="false"
     inkscape:zoom="0.97375"
     inkscape:cx="399.48652"
     inkscape:cy="399.48652"
     inkscape:window-width="3840"
     inkscape:window-height="2080"
     inkscape:window-x="-11"
     inkscape:window-y="-11"
     inkscape:window-maximized="1"
     inkscape:current-layer="svg4" />
  <path
     fill-rule="evenodd"
     d="M 213.72468,85.333335 270.7256,128 h 160.5268 v 63.95933 L 103.75576,191.95989 27.012389,426.66633 25.6,426.66666 V 85.333335 Z m -76.7315,149.287745 349.40682,0.004 -61.57403,192.04133 -350.632193,-3.3e-4 z"
     id="path2"
     style="fill:#d3d3d3;stroke-width:1.02781" />
  <path
     fill="#000000"
     d="M 325.87189,328.6735 H 191.91772 a 7.2072681,6.526485 0 1 0 0,13.05297 h 133.95417 l -52.56977,47.59108 a 7.2163677,6.5347246 0 0 0 10.20549,9.24149 l 64.86535,-58.73831 a 7.2072614,6.5264789 0 0 0 0,-9.2415 l -64.86535,-58.73831 a 7.2163709,6.5347275 0 1 0 -10.20549,9.2415 z"
     id="path2-2"
     style="fill:#696969;stroke:#696969;stroke-width:13.1463;stroke-miterlimit:4;stroke-dasharray:none" />
</svg>
