<?xml version="1.0" encoding="UTF-8" standalone="no"?>
<!-- Generator: Adobe Illustrator 16.0.0, SVG Export Plug-In . SVG Version: 6.00 Build 0)  -->

<svg
   xmlns:dc="http://purl.org/dc/elements/1.1/"
   xmlns:cc="http://creativecommons.org/ns#"
   xmlns:rdf="http://www.w3.org/1999/02/22-rdf-syntax-ns#"
   xmlns:svg="http://www.w3.org/2000/svg"
   xmlns="http://www.w3.org/2000/svg"
   xmlns:sodipodi="http://sodipodi.sourceforge.net/DTD/sodipodi-0.dtd"
   xmlns:inkscape="http://www.inkscape.org/namespaces/inkscape"
   version="1.1"
   id="Layer_1"
   x="0px"
   y="0px"
   width="97px"
   height="97px"
   viewBox="0 0 97 97"
   enable-background="new 0 0 97 97"
   xml:space="preserve"
   sodipodi:docname="git.svg"
   inkscape:version="0.92.1 r15371"><metadata
     id="metadata11"><rdf:RDF><cc:Work
         rdf:about=""><dc:format>image/svg+xml</dc:format><dc:type
           rdf:resource="http://purl.org/dc/dcmitype/StillImage" /></cc:Work></rdf:RDF></metadata><defs
     id="defs9" /><sodipodi:namedview
     pagecolor="#ffffff"
     bordercolor="#666666"
     borderopacity="1"
     objecttolerance="10"
     gridtolerance="10"
     guidetolerance="10"
     inkscape:pageopacity="0"
     inkscape:pageshadow="2"
     inkscape:window-width="2560"
     inkscape:window-height="1361"
     id="namedview7"
     showgrid="false"
     inkscape:zoom="2.4329897"
     inkscape:cx="49.322034"
     inkscape:cy="45.211864"
     inkscape:window-x="1920"
     inkscape:window-y="41"
     inkscape:window-maximized="1"
     inkscape:current-layer="Layer_1" /><g
     id="g4"
     transform="matrix(1.0447444,0,0,1.0447444,-2.1690587,-2.1711481)"
     style="fill:#dd4814;fill-opacity:1"><path
       d="M 92.71,44.408 52.591,4.291 c -2.31,-2.311 -6.057,-2.311 -8.369,0 l -8.33,8.332 10.567,10.567 c 2.456,-0.83 5.272,-0.273 7.229,1.685 1.969,1.97 2.521,4.81 1.67,7.275 l 10.186,10.185 c 2.465,-0.85 5.307,-0.3 7.275,1.671 2.75,2.75 2.75,7.206 0,9.958 -2.752,2.751 -7.208,2.751 -9.961,0 -2.068,-2.07 -2.58,-5.11 -1.531,-7.658 l -9.5,-9.499 v 24.997 c 0.67,0.332 1.303,0.774 1.861,1.332 2.75,2.75 2.75,7.206 0,9.959 -2.75,2.749 -7.209,2.749 -9.957,0 -2.75,-2.754 -2.75,-7.21 0,-9.959 0.68,-0.679 1.467,-1.193 2.307,-1.537 v -25.23 c -0.84,-0.344 -1.625,-0.853 -2.307,-1.537 -2.083,-2.082 -2.584,-5.14 -1.516,-7.698 L 31.798,16.715 4.288,44.222 c -2.311,2.313 -2.311,6.06 0,8.371 l 40.121,40.118 c 2.31,2.311 6.056,2.311 8.369,0 L 92.71,52.779 c 2.311,-2.311 2.311,-6.06 0,-8.371 z"
       id="path2"
       inkscape:connector-curvature="0"
       style="fill:#dd4814;fill-opacity:1" /></g></svg>