<?xml version="1.0" encoding="UTF-8" standalone="no"?>
<!-- Uploaded to: SVG Repo, www.svgrepo.com, Generator: SVG Repo Mixer Tools -->

<svg
   width="800px"
   height="800px"
   viewBox="0 0 24 24"
   fill="none"
   version="1.1"
   id="svg3"
   sodipodi:docname="merge-window.svg"
   inkscape:version="1.4 (86a8ad7, 2024-10-11)"
   xmlns:inkscape="http://www.inkscape.org/namespaces/inkscape"
   xmlns:sodipodi="http://sodipodi.sourceforge.net/DTD/sodipodi-0.dtd"
   xmlns="http://www.w3.org/2000/svg"
   xmlns:svg="http://www.w3.org/2000/svg">
  <defs
     id="defs3" />
  <sodipodi:namedview
     id="namedview3"
     pagecolor="#ffffff"
     bordercolor="#000000"
     borderopacity="0.25"
     inkscape:showpageshadow="2"
     inkscape:pageopacity="0.0"
     inkscape:pagecheckerboard="0"
     inkscape:deskcolor="#d1d1d1"
     inkscape:zoom="2.2175"
     inkscape:cx="398.42165"
     inkscape:cy="400"
     inkscape:window-width="3840"
     inkscape:window-height="2036"
     inkscape:window-x="-12"
     inkscape:window-y="-12"
     inkscape:window-maximized="1"
     inkscape:current-layer="svg3" />
  <g
     id="g1"
     transform="matrix(1.1428571,0,0,1.1428571,-6.4114279,-6.8914279)"
     style="fill:#b3b3b3">
    <path
       d="M 23.31,6.03 H 8.91 C 8.03478,6.03 7.195416,6.377676 6.576552,6.996552 5.957676,7.615416 5.61,8.45478 5.61,9.33 v 7.2 c 0,0.23868 0.094824,0.46764 0.263604,0.63636 C 6.042384,17.3352 6.271308,17.43 6.51,17.43 6.748692,17.43 6.977616,17.3352 7.146396,17.16636 7.315176,16.99764 7.41,16.76868 7.41,16.53 V 9.33 C 7.41,8.932176 7.56804,8.550648 7.849344,8.269344 8.130648,7.98804 8.512176,7.83 8.91,7.83 h 14.4 c 0.3978,0 0.7794,0.15804 1.06068,0.439344 C 24.65196,8.550648 24.81,8.932176 24.81,9.33 v 14.4 c 0,0.3978 -0.15804,0.7794 -0.43932,1.06068 C 24.0894,25.07196 23.7078,25.23 23.31,25.23 h -7.2 c -0.23868,0 -0.46764,0.0948 -0.63636,0.26364 C 15.3048,25.66236 15.21,25.89132 15.21,26.13 c 0,0.23868 0.0948,0.46764 0.26364,0.63636 C 15.64236,26.9352 15.87132,27.03 16.11,27.03 h 7.2 c 0.87516,0 1.71456,-0.34764 2.3334,-0.9666 C 26.26236,25.44456 26.61,24.60516 26.61,23.73 V 9.33 C 26.61,8.45478 26.26236,7.615416 25.6434,6.996552 25.02456,6.377676 24.18516,6.03 23.31,6.03 Z"
       fill="#000000"
       id="path1"
       style="fill:#b3b3b3;stroke-width:1.2" />
    <path
       d="m 15.32,17.72 c 0.0917,0.0391 0.1903,0.0595 0.29,0.06 h 4 c 0.1989,0 0.3897,-0.079 0.5303,-0.2196 C 20.281,17.4197 20.36,17.2289 20.36,17.03 20.36,16.8311 20.281,16.6404 20.1403,16.4997 19.9997,16.359 19.8089,16.28 19.61,16.28 h -2.19 l 3.22,-3.21997 c 0.1325,-0.14218 0.2046,-0.33022 0.2012,-0.52452 -0.0035,-0.1943 -0.0822,-0.37969 -0.2196,-0.5171 -0.1374,-0.13742 -0.3228,-0.21613 -0.5171,-0.21956 -0.1943,-0.0034 -0.3823,0.0687 -0.5245,0.20118 L 16.36,15.22 v -2.18997 c 0,-0.19891 -0.079,-0.38968 -0.2197,-0.53033 -0.1406,-0.14065 -0.3314,-0.21967 -0.5303,-0.21967 -0.1989,0 -0.3897,0.07902 -0.5303,0.21967 C 14.939,12.64035 14.86,12.83112 14.86,13.03003 V 17.03 c 5e-4,0.0997 0.0209,0.1983 0.06,0.29 0.0357,0.0906 0.0896,0.1728 0.1584,0.2416 0.0689,0.0688 0.1511,0.1227 0.2416,0.1584 z"
       fill="#000000"
       id="path2"
       style="fill:#b3b3b3" />
    <path
       d="m 12.11,18.78 h -3 C 8.64668,18.7826 8.20309,18.9678 7.87546,19.2955 7.54784,19.6231 7.36263,20.0667 7.36,20.53 v 3 c 0.00263,0.4633 0.18784,0.9069 0.51546,1.2345 0.32763,0.3277 0.77122,0.5129 1.23454,0.5155 h 3 c 0.46332,-0.0026 0.90691,-0.1878 1.23454,-0.5155 0.32762,-0.3276 0.51284,-0.7712 0.51546,-1.2345 v -3 C 13.85738,20.0667 13.67216,19.6231 13.34454,19.2955 13.01691,18.9678 12.57332,18.7826 12.11,18.78 Z m 0.25,4.75 c 0,0.0663 -0.02634,0.1299 -0.07322,0.1768 C 12.23989,23.7537 12.1763,23.78 12.11,23.78 h -3 C 9.0437,23.78 8.98011,23.7537 8.93322,23.7068 8.88634,23.6599 8.86,23.5963 8.86,23.53 v -3 c 0,-0.0663 0.02634,-0.1299 0.07322,-0.1768 C 8.98011,20.3063 9.0437,20.28 9.11,20.28 h 3 c 0.0663,0 0.12989,0.0263 0.17678,0.0732 0.04688,0.0469 0.07322,0.1105 0.07322,0.1768 z"
       fill="#000000"
       id="path3"
       style="fill:#b3b3b3" />
  </g>
</svg>
