<?xml version="1.0" encoding="UTF-8" standalone="no"?>
<!-- Created with Inkscape (http://www.inkscape.org/) -->

<svg
   xmlns:dc="http://purl.org/dc/elements/1.1/"
   xmlns:cc="http://creativecommons.org/ns#"
   xmlns:rdf="http://www.w3.org/1999/02/22-rdf-syntax-ns#"
   xmlns:svg="http://www.w3.org/2000/svg"
   xmlns="http://www.w3.org/2000/svg"
   xmlns:sodipodi="http://sodipodi.sourceforge.net/DTD/sodipodi-0.dtd"
   xmlns:inkscape="http://www.inkscape.org/namespaces/inkscape"
   version="1.0"
   width="64"
   height="64"
   id="svg9"
   sodipodi:docname="mime-svg.svg"
   inkscape:version="0.92.4 (5da689c313, 2019-01-14)">
  <metadata
     id="metadata15">
    <rdf:RDF>
      <cc:Work
         rdf:about="">
        <dc:format>image/svg+xml</dc:format>
        <dc:type
           rdf:resource="http://purl.org/dc/dcmitype/StillImage" />
        <dc:title></dc:title>
      </cc:Work>
    </rdf:RDF>
  </metadata>
  <defs
     id="defs13" />
  <sodipodi:namedview
     pagecolor="#ffffff"
     bordercolor="#666666"
     borderopacity="1"
     objecttolerance="10"
     gridtolerance="10"
     guidetolerance="10"
     inkscape:pageopacity="0"
     inkscape:pageshadow="2"
     inkscape:window-width="2562"
     inkscape:window-height="1546"
     id="namedview11"
     showgrid="false"
     inkscape:zoom="4"
     inkscape:cx="11.785388"
     inkscape:cy="13.514808"
     inkscape:window-x="442"
     inkscape:window-y="178"
     inkscape:window-maximized="0"
     inkscape:current-layer="svg9" />
  <path
     inkscape:connector-curvature="0"
     id="path2"
     d="M 26.096771,2.5893125 2.4710284,26.765514 c -7.9825255,9.885388 5.4324788,8.735229 11.1832736,11.582488 2.0629,2.108625 -7.9069032,3.665033 -5.8440034,5.775416 2.0628999,2.108625 12.4741254,4.062488 14.5405424,6.171113 2.0629,2.108625 -4.222526,4.345631 -2.159626,6.454256 2.0629,2.108625 6.834125,0.110795 7.727521,4.978747 0.636632,3.478615 8.598054,1.494855 12.491711,-1.354163 2.0629,-2.110384 -3.946417,-1.911656 -1.883517,-4.020281 5.129991,-5.246061 9.906492,-1.906379 11.661628,-7.162993 0.867015,-2.59753 -7.551656,-4.004453 -5.485239,-6.113077 5.935454,-3.466305 26.45014,-5.722657 16.715996,-15.456801 L 36.930073,2.5893125 c -2.994986,-2.87539751 -7.993077,-2.90705326 -10.833302,0 z M 53.234544,49.190097 c 0,1.199401 8.837231,1.985519 8.837231,-0.283143 -1.259195,-3.643929 -7.792591,-3.397717 -8.837231,0.283143 z m -39.808867,6.373358 c 2.092797,1.809654 5.325201,-0.450215 6.294219,-2.975641 -2.027727,-2.694256 -9.618073,0.09673 -6.294219,2.975641 z M 52.126593,51.65397 c -2.697774,2.419906 0.302488,4.874986 2.961572,3.311543 0.592666,-0.601459 -0.01583,-2.710084 -2.961572,-3.311543 z"
     style="fill:#ff7f2a;stroke-width:0.17586529" />
  <path
     style="fill:#803300;stroke-width:0.17586529"
     inkscape:connector-curvature="0"
     id="path4"
     d="m 20.442702,39.65644 c 0.631357,0.392179 10.180842,2.331973 12.514574,2.718877 0.808981,0.170589 0.23566,1.004191 -0.879326,1.56696 C 29.563076,44.610565 17.36506,39.65644 20.442702,39.65644 Z" />
  <path
     style="fill:#803300;stroke-width:0.17586529"
     inkscape:connector-curvature="0"
     id="path6"
     d="m 35.502047,4.2846539 9.34724,9.4932081 c 0.886361,0.905706 0.874051,2.660842 0.378111,3.165575 l -4.641085,-3.712516 -0.912741,5.497549 -3.87783,-2.047072 -6.209803,3.923555 -2.055865,-8.270945 -3.336165,5.771899 h -5.100093 c -2.078728,0 -2.323181,-2.637979 -0.434388,-4.526773 3.299233,-3.561272 7.085613,-7.1911313 9.143237,-9.2944801 2.068176,-2.1139008 5.671655,-2.0541066 7.699382,0 z" />
</svg>
