<?xml version="1.0" encoding="UTF-8" standalone="no"?>
<svg
   xmlns:dc="http://purl.org/dc/elements/1.1/"
   xmlns:cc="http://creativecommons.org/ns#"
   xmlns:rdf="http://www.w3.org/1999/02/22-rdf-syntax-ns#"
   xmlns:svg="http://www.w3.org/2000/svg"
   xmlns="http://www.w3.org/2000/svg"
   xmlns:sodipodi="http://sodipodi.sourceforge.net/DTD/sodipodi-0.dtd"
   xmlns:inkscape="http://www.inkscape.org/namespaces/inkscape"
   enable-background="new 0 0 128 128"
   height="32"
   id="Layer_1"
   version="1.1"
   viewBox="0 0 32 32"
   width="32"
   xml:space="preserve"
   sodipodi:docname="mime-txt-symlink.svg"
   inkscape:version="0.92.4 (5da689c313, 2019-01-14)"><metadata
     id="metadata17"><rdf:RDF><cc:Work
         rdf:about=""><dc:format>image/svg+xml</dc:format><dc:type
           rdf:resource="http://purl.org/dc/dcmitype/StillImage" /><dc:title></dc:title></cc:Work></rdf:RDF></metadata><defs
     id="defs15" /><sodipodi:namedview
     pagecolor="#ffffff"
     bordercolor="#666666"
     borderopacity="1"
     objecttolerance="10"
     gridtolerance="10"
     guidetolerance="10"
     inkscape:pageopacity="0"
     inkscape:pageshadow="2"
     inkscape:window-width="3840"
     inkscape:window-height="2068"
     id="namedview13"
     showgrid="false"
     inkscape:zoom="5.6568542"
     inkscape:cx="-93.775602"
     inkscape:cy="-12.514755"
     inkscape:window-x="-12"
     inkscape:window-y="-12"
     inkscape:window-maximized="1"
     inkscape:current-layer="Layer_1" /><g
     id="g823"
     transform="matrix(1.125,0,0,1.125,-2,1.375)"><rect
       style="fill:#909b9e;fill-opacity:1;stroke-width:0.25"
       id="rect4"
       y="6"
       x="8"
       width="16"
       height="2" /><rect
       style="fill:#909b9e;fill-opacity:1;stroke-width:0.25"
       id="rect6"
       y="10"
       x="8"
       width="16"
       height="2" /><rect
       style="fill:#909b9e;fill-opacity:1;stroke-width:0.25"
       id="rect8"
       y="14"
       x="8"
       width="16"
       height="2" /><rect
       style="fill:#909b9e;fill-opacity:1;stroke-width:0.25"
       id="rect10"
       y="18"
       x="8"
       width="8"
       height="2" /></g><path
     class="cls-1"
     d="m 11.104861,27.043297 a 1.2342553,1.2736996 50.396727 0 0 1.76816,0.139023 l 5.397453,-4.465681 c 1.339557,-1.108307 2.46234,-1.020025 3.536315,0.278038 l 4.752259,5.743826 -1.277478,-0.544992 -2.272074,-0.178642 a 1.234943,1.2744094 50.396727 0 0 -0.275304,2.494511 l 6.188545,0.486582 a 1.2342553,1.2736996 50.396727 0 0 1.388618,-1.148899 l 0.68095,-6.170183 a 1.2349408,1.2744089 50.396727 0 0 -2.501934,-0.196712 l -0.213578,2.339323 0.272504,1.328409 -4.779796,-5.777109 C 21.830039,19.026657 19.115925,18.81327 16.696879,20.814712 l -5.397453,4.465681 a 1.2342553,1.2736996 50.396727 0 0 -0.194565,1.762904 z"
     id="path8"
     inkscape:connector-curvature="0"
     style="fill:#5599ff;fill-opacity:1;stroke:#5599ff;stroke-width:2;stroke-miterlimit:4;stroke-dasharray:none;stroke-opacity:1" /></svg>