<?xml version="1.0" encoding="UTF-8" standalone="no"?>
<!-- Uploaded to: SVG Repo, www.svgrepo.com, Generator: SVG Repo Mixer Tools -->

<svg
   width="800px"
   height="800px"
   viewBox="0 0 16 16"
   fill="none"
   version="1.1"
   id="svg4"
   sodipodi:docname="mime-python.svg"
   inkscape:version="1.1 (c68e22c387, 2021-05-23)"
   xmlns:inkscape="http://www.inkscape.org/namespaces/inkscape"
   xmlns:sodipodi="http://sodipodi.sourceforge.net/DTD/sodipodi-0.dtd"
   xmlns="http://www.w3.org/2000/svg"
   xmlns:svg="http://www.w3.org/2000/svg">
  <defs
     id="defs8" />
  <sodipodi:namedview
     id="namedview6"
     pagecolor="#505050"
     bordercolor="#eeeeee"
     borderopacity="1"
     inkscape:pageshadow="0"
     inkscape:pageopacity="0"
     inkscape:pagecheckerboard="0"
     showgrid="false"
     inkscape:zoom="0.97375"
     inkscape:cx="399.48652"
     inkscape:cy="399.48652"
     inkscape:window-width="3840"
     inkscape:window-height="2080"
     inkscape:window-x="-11"
     inkscape:window-y="-11"
     inkscape:window-maximized="1"
     inkscape:current-layer="svg4" />
  <path
     d="m 5.8459494,1.736684 h 3.7681265 c 0.1364557,0 0.2456203,0.1072152 0.2456203,0.2397722 V 7.0311651 A 0.24367089,0.24367089 0 0 1 9.6140759,7.2709372 H 6.3859241 c -0.9503165,0 -1.7212912,0.7505063 -1.7212912,1.6764557 V 10.079975 A 0.24367089,0.24367089 0 0 1 4.418038,10.316824 H 2.0222658 A 0.24367089,0.24367089 0 0 1 1.7756709,10.077051 V 6.2231524 A 0.24367089,0.24367089 0 0 1 2.0212911,5.9833802 h 5.9592152 c 0.4074178,0 0.7378355,-0.3216455 0.7378355,-0.7183417 A 0.72808861,0.72808861 0 0 0 7.9805063,4.545722 H 5.5993544 V 1.9764562 A 0.24367089,0.24367089 0 0 1 5.8459494,1.736684 Z M 11.335367,4.2630638 V 1.9764562 c 0,-0.9259494 -0.77,-1.6764557 -1.7212911,-1.6764557 H 5.8459494 c -0.9512912,0 -1.7222659,0.7505063 -1.7222659,1.6764557 V 4.545722 H 2.0222658 C 1.07,4.545722 0.3,5.2962283 0.3,6.2221777 v 3.8548733 c 0,0.92595 0.77,1.676456 1.7212911,1.676456 h 2.3977216 c 0.082848,0 0.1656962,-0.0058 0.2456202,-0.01657 v 2.286607 c 0,0.92595 0.77,1.676456 1.7212912,1.676456 h 3.7681269 c 0.951291,0 1.722265,-0.750506 1.722265,-1.676456 v -2.569266 h 2.101418 C 14.929025,11.454278 15.7,10.703772 15.7,9.7778233 V 5.9219752 c 0,-0.9259494 -0.77,-1.6764557 -1.722266,-1.6764557 h -2.395772 c -0.08382,0 -0.165696,0.00487 -0.246595,0.01657 z M 6.1403038,10.085823 V 8.9688359 A 0.24367089,0.24367089 0 0 1 6.3859241,8.7290638 h 3.2281518 c 0.9512911,0 1.7212911,-0.7505063 1.7212911,-1.6764557 V 5.9200258 a 0.24367089,0.24367089 0 0 1 0.246595,-0.2368481 h 2.395772 c 0.136456,0 0.246595,0.1072152 0.246595,0.2397722 v 3.8538987 a 0.24367089,0.24367089 0 0 1 -0.24562,0.2397724 H 8.0194937 a 0.72808861,0.72808861 0 0 0 -0.7378355,0.718342 c 0,0.397671 0.3304177,0.719315 0.7378355,0.719315 h 2.3801773 v 2.569266 a 0.24367089,0.24367089 0 0 1 -0.246595,0.239773 H 6.3859241 A 0.24367089,0.24367089 0 0 1 6.1403038,14.023545 Z"
     fill="#000000"
     id="path2"
     style="fill:#eeeeec;stroke-width:0.974684" />
</svg>
