<?xml version="1.0" encoding="UTF-8" standalone="no"?>
<svg
   viewBox="0 0 100 100"
   version="1.1"
   id="svg39313"
   sodipodi:docname="project-opened.svg"
   inkscape:version="1.1 (c68e22c387, 2021-05-23)"
   xmlns:inkscape="http://www.inkscape.org/namespaces/inkscape"
   xmlns:sodipodi="http://sodipodi.sourceforge.net/DTD/sodipodi-0.dtd"
   xmlns="http://www.w3.org/2000/svg"
   xmlns:svg="http://www.w3.org/2000/svg">
  <defs
     id="defs39317" />
  <sodipodi:namedview
     id="namedview39315"
     pagecolor="#505050"
     bordercolor="#eeeeee"
     borderopacity="1"
     inkscape:pageshadow="0"
     inkscape:pageopacity="0"
     inkscape:pagecheckerboard="0"
     showgrid="false"
     inkscape:zoom="8.73"
     inkscape:cx="49.942726"
     inkscape:cy="50.114548"
     inkscape:window-width="1664"
     inkscape:window-height="1111"
     inkscape:window-x="209"
     inkscape:window-y="69"
     inkscape:window-maximized="0"
     inkscape:current-layer="svg39313" />
  <path
     d="M92.9 29.1v10.3H8.1l-1-22.9C6.9 11.3 11 7 16.2 7h19.6c3.2 0 6.1 1.7 7.8 4.4l2.5 4.2c1.6 2.7 4.6 4.4 7.8 4.4h29.9c5 0 9.1 4.1 9.1 9.1z"
     fill="#00efd1"
     id="path39309"
     style="fill:#6f7c91;fill-opacity:1" />
  <path
     d="M95.2 37.1c2.9 0 5.1 2.6 4.7 5.4L94 85.1c-.6 4.5-4.5 7.8-9 7.8H15c-4.5 0-8.4-3.3-9-7.8L0 42.5C-.4 39.6 1.9 37 4.8 37l90.4.1z"
     fill="#00acea"
     id="path39311"
     style="fill:#87aade" />
</svg>
