<?xml version="1.0" encoding="UTF-8" standalone="no"?>
<!-- Uploaded to: SVG Repo, www.svgrepo.com, Generator: SVG Repo Mixer Tools -->

<svg
   width="800px"
   height="800px"
   viewBox="0 0 24 24"
   fill="none"
   version="1.1"
   id="svg4"
   sodipodi:docname="separate-window.svg"
   inkscape:version="1.4 (86a8ad7, 2024-10-11)"
   xmlns:inkscape="http://www.inkscape.org/namespaces/inkscape"
   xmlns:sodipodi="http://sodipodi.sourceforge.net/DTD/sodipodi-0.dtd"
   xmlns="http://www.w3.org/2000/svg"
   xmlns:svg="http://www.w3.org/2000/svg">
  <defs
     id="defs4" />
  <sodipodi:namedview
     id="namedview4"
     pagecolor="#ffffff"
     bordercolor="#000000"
     borderopacity="0.25"
     inkscape:showpageshadow="2"
     inkscape:pageopacity="0.0"
     inkscape:pagecheckerboard="0"
     inkscape:deskcolor="#d1d1d1"
     inkscape:zoom="2.2175"
     inkscape:cx="399.32356"
     inkscape:cy="400"
     inkscape:window-width="3840"
     inkscape:window-height="2036"
     inkscape:window-x="-12"
     inkscape:window-y="-12"
     inkscape:window-maximized="1"
     inkscape:current-layer="svg4" />
  <g
     id="g1"
     transform="matrix(1.2,0,0,1.2,-2.4,-2.4)">
    <path
       d="m 18,20.75 h -6 c -0.1989,0 -0.3897,-0.079 -0.5303,-0.2197 C 11.329,20.3897 11.25,20.1989 11.25,20 c 0,-0.1989 0.079,-0.3897 0.2197,-0.5303 C 11.6103,19.329 11.8011,19.25 12,19.25 h 6 c 0.3315,0 0.6495,-0.1317 0.8839,-0.3661 C 19.1183,18.6495 19.25,18.3315 19.25,18 V 6 C 19.25,5.66848 19.1183,5.35054 18.8839,5.11612 18.6495,4.8817 18.3315,4.75 18,4.75 H 6 C 5.66848,4.75 5.35054,4.8817 5.11612,5.11612 4.8817,5.35054 4.75,5.66848 4.75,6 v 6 c 0,0.1989 -0.07902,0.3897 -0.21967,0.5303 C 4.38968,12.671 4.19891,12.75 4,12.75 3.80109,12.75 3.61032,12.671 3.46967,12.5303 3.32902,12.3897 3.25,12.1989 3.25,12 V 6 C 3.25,5.27065 3.53973,4.57118 4.05546,4.05546 4.57118,3.53973 5.27065,3.25 6,3.25 h 12 c 0.7293,0 1.4288,0.28973 1.9445,0.80546 C 20.4603,4.57118 20.75,5.27065 20.75,6 v 12 c 0,0.7293 -0.2897,1.4288 -0.8055,1.9445 C 19.4288,20.4603 18.7293,20.75 18,20.75 Z"
       fill="#000000"
       id="path1"
       style="fill:#b3b3b3" />
    <path
       d="M 16,12.75 C 15.8019,12.7474 15.6126,12.6676 15.4725,12.5275 15.3324,12.3874 15.2526,12.1981 15.25,12 V 8.75 H 12 C 11.8011,8.75 11.6103,8.67098 11.4697,8.53033 11.329,8.38968 11.25,8.19891 11.25,8 11.25,7.80109 11.329,7.61032 11.4697,7.46967 11.6103,7.32902 11.8011,7.25 12,7.25 h 4 c 0.1981,0.00259 0.3874,0.08244 0.5275,0.22253 C 16.6676,7.61263 16.7474,7.80189 16.75,8 v 4 c -0.0026,0.1981 -0.0824,0.3874 -0.2225,0.5275 C 16.3874,12.6676 16.1981,12.7474 16,12.75 Z"
       fill="#000000"
       id="path2"
       style="fill:#b3b3b3" />
    <path
       d="M 11.5,13.25 C 11.3071,13.2352 11.1276,13.1455 11,13 10.877,12.8625 10.809,12.6845 10.809,12.5 10.809,12.3155 10.877,12.1375 11,12 l 4.5,-4.5 c 0.1422,-0.13248 0.3302,-0.20461 0.5245,-0.20118 0.1943,0.00343 0.3797,0.08214 0.5171,0.21956 0.1374,0.13741 0.2162,0.32279 0.2196,0.5171 C 16.7646,8.22978 16.6925,8.41782 16.56,8.56 L 12,13 c -0.1276,0.1455 -0.3071,0.2352 -0.5,0.25 z"
       fill="#000000"
       id="path3"
       style="fill:#b3b3b3" />
    <path
       d="M 8,20.75 H 5 C 4.53668,20.7474 4.09309,20.5622 3.76546,20.2345 3.43784,19.9069 3.25263,19.4633 3.25,19 V 16 C 3.25263,15.5367 3.43784,15.0931 3.76546,14.7655 4.09309,14.4378 4.53668,14.2526 5,14.25 h 3 c 0.46332,0.0026 0.90691,0.1878 1.23454,0.5155 C 9.56216,15.0931 9.74738,15.5367 9.75,16 v 3 C 9.74738,19.4633 9.56216,19.9069 9.23454,20.2345 8.90691,20.5622 8.46332,20.7474 8,20.75 Z m -3,-5 c -0.0663,0 -0.12989,0.0263 -0.17678,0.0732 C 4.77634,15.8701 4.75,15.9337 4.75,16 v 3 c 0,0.0663 0.02634,0.1299 0.07322,0.1768 C 4.87011,19.2237 4.9337,19.25 5,19.25 h 3 c 0.0663,0 0.12989,-0.0263 0.17678,-0.0732 C 8.22366,19.1299 8.25,19.0663 8.25,19 V 16 C 8.25,15.9337 8.22366,15.8701 8.17678,15.8232 8.12989,15.7763 8.0663,15.75 8,15.75 Z"
       fill="#000000"
       id="path4"
       style="fill:#b3b3b3" />
  </g>
</svg>
