<?xml version="1.0" encoding="UTF-8" standalone="no"?>
<!-- Generator: Adobe Illustrator 19.2.1, SVG Export Plug-In . SVG Version: 6.00 Build 0)  -->

<svg
   xmlns:dc="http://purl.org/dc/elements/1.1/"
   xmlns:cc="http://creativecommons.org/ns#"
   xmlns:rdf="http://www.w3.org/1999/02/22-rdf-syntax-ns#"
   xmlns:svg="http://www.w3.org/2000/svg"
   xmlns="http://www.w3.org/2000/svg"
   xmlns:sodipodi="http://sodipodi.sourceforge.net/DTD/sodipodi-0.dtd"
   xmlns:inkscape="http://www.inkscape.org/namespaces/inkscape"
   version="1.1"
   id="Layer_1"
   x="0px"
   y="0px"
   viewBox="0 0 32 32"
   style="enable-background:new 0 0 32 32;"
   xml:space="preserve"
   sodipodi:docname="start-debugger.svg"
   inkscape:version="0.92.3 (2405546, 2018-03-11)"><metadata
   id="metadata33"><rdf:RDF><cc:Work
       rdf:about=""><dc:format>image/svg+xml</dc:format><dc:type
         rdf:resource="http://purl.org/dc/dcmitype/StillImage" /><dc:title></dc:title></cc:Work></rdf:RDF></metadata><defs
   id="defs31" /><sodipodi:namedview
   pagecolor="#ffffff"
   bordercolor="#666666"
   borderopacity="1"
   objecttolerance="10"
   gridtolerance="10"
   guidetolerance="10"
   inkscape:pageopacity="0"
   inkscape:pageshadow="2"
   inkscape:window-width="1527"
   inkscape:window-height="905"
   id="namedview29"
   showgrid="false"
   inkscape:zoom="7.375"
   inkscape:cx="-7.7288136"
   inkscape:cy="13.694916"
   inkscape:window-x="88"
   inkscape:window-y="44"
   inkscape:window-maximized="0"
   inkscape:current-layer="Layer_1" />
<style
   type="text/css"
   id="style2">
	.st0{fill:none;}
	.st1{fill:#01A0DE;}
</style>
<g
   id="g26"
   style="fill:#cccccc"
   transform="matrix(1.1072664,0,0,1.1072664,-1.7162624,-1.7320626)">
	<g
   id="g10"
   style="fill:#cccccc">
		<line
   class="st0"
   x1="8.3999996"
   y1="25.200001"
   x2="5"
   y2="29"
   id="line4"
   style="fill:#cccccc" />
		<g
   id="g8"
   style="fill:#cccccc">
			<path
   d="M 7.7,24.4 C 6.6,25.7 5.4,27 4.3,28.2 3.4,29.3 4.9,30.8 5.9,29.8 7,28.5 8.2,27.2 9.3,26 10.2,24.9 8.6,23.3 7.7,24.4 Z"
   id="path6"
   style="fill:#cccccc"
   inkscape:connector-curvature="0" />
		</g>
	</g>
	<g
   id="g18"
   style="fill:#cccccc">
		<line
   class="st0"
   x1="23.6"
   y1="25.1"
   x2="27"
   y2="29"
   id="line12"
   style="fill:#cccccc" />
		<g
   id="g16"
   style="fill:#cccccc">
			<path
   d="m 22.8,25.9 c 1.1,1.3 2.3,2.6 3.4,3.8 0.9,1.1 2.5,-0.5 1.6,-1.6 -1.1,-1.3 -2.3,-2.6 -3.4,-3.8 -1,-1 -2.6,0.6 -1.6,1.6 z"
   id="path14"
   style="fill:#cccccc"
   inkscape:connector-curvature="0" />
		</g>
	</g>
	<g
   id="g24"
   style="fill:#cccccc">
		<path
   class="st1"
   d="m 16,1.9 c -3.2,0 -5.7,2.5 -5.7,5.7 H 21.7 C 21.7,4.4 19.1,1.9 16,1.9 Z"
   id="path20"
   style="fill:#cccccc"
   inkscape:connector-curvature="0" />
		<path
   class="st1"
   d="m 29.4,16.9 c -1.4,0 -2.8,0 -4.2,0 v -5.3 c 0.1,0 0.1,-0.1 0.2,-0.2 1,-1 2,-2 2.9,-2.9 1,-1 -0.6,-2.6 -1.6,-1.6 -1,1 -2,2 -2.9,2.9 -0.1,0.1 -0.1,0.1 -0.2,0.2 H 17.2 14.8 8.4 C 8.4,9.9 8.3,9.9 8.2,9.8 c -1,-1 -2,-2 -2.9,-2.9 -1,-1 -2.6,0.6 -1.6,1.6 1,1 2,2 2.9,2.9 0.1,0.1 0.1,0.1 0.2,0.2 V 17 c -1.4,0 -2.8,0 -4.2,0 -1.4,0 -1.4,2.2 0,2.2 1.4,0 2.8,0 4.2,0 v 1.2 c 0,1.4 0.4,2.7 1,3.9 l -0.1,0.1 c -1.1,1.3 -2.3,2.6 -3.4,3.8 -0.9,1.1 0.6,2.6 1.6,1.6 1.1,-1.3 2.2,-2.5 3.3,-3.7 1.4,1.4 3.4,2.3 5.6,2.3 V 12.2 h 2.4 v 16.2 c 2.2,0 4.2,-0.9 5.7,-2.4 1.1,1.3 2.2,2.5 3.3,3.7 0.9,1.1 2.5,-0.5 1.6,-1.6 -1.1,-1.3 -2.3,-2.6 -3.4,-3.8 0,0 -0.1,-0.1 -0.2,-0.1 0.6,-1.1 1,-2.4 1,-3.8 v -1.3 c 1.4,0 2.8,0 4.2,0 1.4,0 1.4,-2.2 0,-2.2 z"
   id="path22"
   style="fill:#cccccc"
   inkscape:connector-curvature="0" />
	</g>
</g>
</svg>