<?xml version="1.0" encoding="UTF-8" standalone="no"?>
<svg
   xmlns:dc="http://purl.org/dc/elements/1.1/"
   xmlns:cc="http://creativecommons.org/ns#"
   xmlns:rdf="http://www.w3.org/1999/02/22-rdf-syntax-ns#"
   xmlns:svg="http://www.w3.org/2000/svg"
   xmlns="http://www.w3.org/2000/svg"
   xmlns:sodipodi="http://sodipodi.sourceforge.net/DTD/sodipodi-0.dtd"
   xmlns:inkscape="http://www.inkscape.org/namespaces/inkscape"
   enable-background="new 0 0 24 24"
   height="24px"
   id="Layer_1"
   version="1.1"
   viewBox="0 0 24 24"
   width="24px"
   xml:space="preserve"
   sodipodi:docname="stop.svg"
   inkscape:version="0.92.3 (2405546, 2018-03-11)"><metadata
     id="metadata13"><rdf:RDF><cc:Work
         rdf:about=""><dc:format>image/svg+xml</dc:format><dc:type
           rdf:resource="http://purl.org/dc/dcmitype/StillImage" /><dc:title /></cc:Work></rdf:RDF></metadata><defs
     id="defs11" /><sodipodi:namedview
     pagecolor="#ffffff"
     bordercolor="#666666"
     borderopacity="1"
     objecttolerance="10"
     gridtolerance="10"
     guidetolerance="10"
     inkscape:pageopacity="0"
     inkscape:pageshadow="2"
     inkscape:window-width="1256"
     inkscape:window-height="920"
     id="namedview9"
     showgrid="false"
     inkscape:zoom="9.8333333"
     inkscape:cx="-4.9830509"
     inkscape:cy="13.372881"
     inkscape:window-x="0"
     inkscape:window-y="0"
     inkscape:window-maximized="0"
     inkscape:current-layer="Layer_1" /><path
     inkscape:connector-curvature="0"
     id="path2"
     d="M 12,0 C 5.4,0 0,5.4 0,12 0,18.6 5.4,24 12,24 18.6,24 24,18.6 24,12 24,5.4 18.6,0 12,0 Z m 0,22 C 6.5,22 2,17.5 2,12 2,6.5 6.5,2 12,2 c 5.5,0 10,4.5 10,10 0,5.5 -4.5,10 -10,10 z"
     style="fill:#dd4814;fill-opacity:1;stroke:none;stroke-width:1;stroke-miterlimit:4;stroke-dasharray:none;stroke-opacity:1" /><path
     inkscape:connector-curvature="0"
     id="path4"
     d="m 15.84,9.12 c 0,-0.576 -0.384,-0.96 -0.96,-0.96 H 9.12 c -0.576,0 -0.96,0.384 -0.96,0.96 v 5.76 c 0,0.576 0.384,0.96 0.96,0.96 h 5.76 c 0.576,0 0.96,-0.384 0.96,-0.96 z m -0.96,5.76 H 9.12 V 9.12 h 5.76 z"
     style="fill:#dd4814;fill-opacity:1;stroke:#dd4814;stroke-width:0.95999998;stroke-linecap:butt;stroke-linejoin:miter;stroke-opacity:1" /></svg>