<?xml version="1.0" encoding="UTF-8" standalone="no"?>
<!-- Uploaded to: SVG Repo, www.svgrepo.com, Generator: SVG Repo Mixer Tools -->

<svg
   fill="#000000"
   width="32"
   height="32"
   viewBox="0 0 32 32"
   id="Layer_1"
   data-name="Layer 1"
   version="1.1"
   xmlns="http://www.w3.org/2000/svg"
   xmlns:svg="http://www.w3.org/2000/svg"
   xmlns:rdf="http://www.w3.org/1999/02/22-rdf-syntax-ns#"
   xmlns:cc="http://creativecommons.org/ns#"
   xmlns:dc="http://purl.org/dc/elements/1.1/">
  <defs
     id="defs1" />
  <title
     id="title1">cog</title>
  <metadata
     id="metadata1">
    <rdf:RDF>
      <cc:Work
         rdf:about="">
        <dc:title>cog</dc:title>
      </cc:Work>
    </rdf:RDF>
  </metadata>
  <g
     id="g51"
     style="display:inline">
    <g
       id="g16">
      <path
         d="M 26.928478,12.257151 26.404477,11.020554 C 28.149402,6.9895654 28.034123,6.8717939 27.693521,6.5184804 L 25.492713,4.2861802 25.272633,4.0988167 h -0.256762 c -0.136239,0 -0.524001,0 -3.93525,1.5684987 L 19.833495,5.1319916 C 18.203851,1.0742369 18.036171,1.0742369 17.564569,1.0742369 h -3.14401 c -0.471602,0 -0.655002,0 -2.148406,4.1005806 L 11.030269,5.7101413 C 8.7246609,4.7037323 7.3884569,4.2005283 7.0216556,4.2005283 H 6.7282149 L 4.3282871,6.6041324 C 3.9614859,6.9520926 3.8357259,7.0752169 5.6802116,11.047321 l -0.5240015,1.231245 c -4.0819732,1.605971 -4.0819732,1.766569 -4.0819732,2.26442 v 3.153056 c 0,0.492498 0,0.669155 4.097693,2.141294 l 0.5240016,1.225894 c -1.7449256,4.030987 -1.6296448,4.154112 -1.2890439,4.502072 l 2.221767,2.275127 0.2200804,0.198069 h 0.262001 c 0.1310005,0 0.5240015,0 3.930012,-1.60597 l 1.247124,0.535322 c 1.624405,4.084521 1.786845,4.084521 2.263686,4.084521 h 3.144011 c 0.482082,0 0.655003,0 2.153647,-4.10058 l 1.252364,-0.535324 c 2.289886,0.990349 3.631332,1.493554 3.987652,1.493554 h 0.29868 l 2.420889,-2.419664 c 0.345842,-0.353314 0.466361,-0.476438 -1.372885,-4.432481 l 0.524002,-1.231244 c 4.092453,-1.605973 4.092453,-1.782629 4.092453,-2.26442 V 14.41986 c -0.02096,-0.497851 -0.02096,-0.669154 -4.123893,-2.162709 z"
         id="path50"
         style="fill:#292c30;fill-opacity:1;stroke:#ffd92b;stroke-width:1.93454;stroke-dasharray:none;stroke-opacity:1" />
      <path
         d="m 17.71585,9.2917059 q -2.411971,0 -3.687266,1.8020471 -1.275295,1.802047 -1.275295,4.934836 0,3.160514 1.1644,4.907113 1.192123,1.718876 3.798161,1.718876 1.219847,0 2.41197,-0.277238 1.219847,-0.277238 2.633761,-0.776267 v 3.520923 q -1.303018,0.526752 -2.578313,0.776267 -1.275295,0.249514 -2.855552,0.249514 -3.049618,0 -5.045731,-1.247571 -1.96839,-1.275295 -2.9109994,-3.548647 -0.9426092,-2.301075 -0.9426092,-5.350693 0,-2.994171 1.0812282,-5.295246 Q 10.590833,8.4045443 12.642394,7.1015257 14.721679,5.798507 17.71585,5.798507 q 1.469361,0 2.938722,0.3881332 1.497086,0.3604095 2.855552,0.9980569 L 22.151658,10.594725 Q 21.042706,10.067972 19.90603,9.6798391 18.797078,9.2917059 17.71585,9.2917059 Z"
         id="text51"
         style="font-weight:bold;font-size:27.7238px;-inkscape-font-specification:'sans-serif Bold';display:none;fill:#ecf7e9;stroke-width:1.15516"
         aria-label="C" />
      <path
         style="font-style:italic;font-weight:bold;font-size:27.7238px;font-family:KaTeX_Math;-inkscape-font-specification:'KaTeX_Math Bold Italic';fill:#ecf7e9;stroke-width:1.15516"
         d="m 15.266943,22.5473 q -2.77238,0 -4.435809,-1.192123 -1.6357037,-1.219847 -1.6357037,-3.659542 0,-2.883275 2.3287997,-5.378417 2.273351,-2.217904 5.877445,-2.4951421 h 0.443581 q 1.053504,0 1.219847,0.027724 1.108952,0.1940661 1.829771,0.7208191 0.748543,0.499028 0.942609,1.219847 0.110896,0.388133 0.05545,0.80399 -0.110895,0.914885 -0.720819,1.524809 -0.5822,0.609924 -1.524809,0.609924 -0.665371,0 -1.108952,-0.388134 -0.415857,-0.415857 -0.415857,-1.02578 0,-1.136676 0.859438,-1.7466 0.22179,-0.166342 0.166343,-0.166342 -0.08317,-0.194067 -1.219848,-0.194067 -1.053504,0 -1.968389,0.499028 -0.914886,0.471305 -1.469362,1.247571 -1.053504,1.635705 -1.497085,4.435809 -0.194067,0.80399 -0.194067,1.552532 0,2.190181 2.606038,2.190181 3.57637,0 5.350693,-1.718876 0.415857,-0.415857 0.637648,-0.332686 0.80399,0.609924 0.80399,0.94261 0,0.194066 -0.332686,0.526752 Q 19.84137,22.5473 15.266943,22.5473 Z"
         id="text7"
         aria-label="c" />
    </g>
  </g>
</svg>
