<!DOCTYPE svg PUBLIC "-//W3C//DTD SVG 1.1//EN" "http://www.w3.org/Graphics/SVG/1.1/DTD/svg11.dtd">
<!-- Uploaded to: SVG Repo, www.svgrepo.com, Transformed by: SVG Repo Mixer Tools -->
<svg width="64px" height="64px" viewBox="0 0 16 16" fill="none" xmlns="http://www.w3.org/2000/svg">
<g id="SVGRepo_bgCarrier" stroke-width="0"/>
<g id="SVGRepo_tracerCarrier" stroke-linecap="round" stroke-linejoin="round"/>
<g id="SVGRepo_iconCarrier"> <path fill-rule="evenodd" clip-rule="evenodd" d="M4.12903 3.77419C4.12903 3.34662 4.47565 3 4.90323 3H11.0968C11.5243 3 11.871 3.34662 11.871 3.77419C11.871 4.20177 11.5243 4.54839 11.0968 4.54839H8.77419V12.0323C8.77419 12.4598 8.42758 12.8065 8 12.8065C7.57242 12.8065 7.22581 12.4598 7.22581 12.0323V4.54839H4.90323C4.47565 4.54839 4.12903 4.20177 4.12903 3.77419ZM3.38615 5.29127C3.68849 5.59361 3.68849 6.08381 3.38615 6.38615L1.86907 7.90323L3.38615 9.4203C3.68849 9.72265 3.68849 10.2128 3.38615 10.5152C3.08381 10.8175 2.59361 10.8175 2.29127 10.5152L0.226756 8.45066C-0.0755853 8.14832 -0.0755853 7.65813 0.226756 7.35579L2.29127 5.29127C2.59361 4.98893 3.08381 4.98893 3.38615 5.29127ZM12.6139 5.29127C12.9162 4.98893 13.4064 4.98893 13.7087 5.29127L15.7732 7.35579C16.0756 7.65813 16.0756 8.14832 15.7732 8.45066L13.7087 10.5152C13.4064 10.8175 12.9162 10.8175 12.6139 10.5152C12.3115 10.2128 12.3115 9.72265 12.6139 9.4203L14.1309 7.90323L12.6139 6.38615C12.3115 6.08381 12.3115 5.59361 12.6139 5.29127Z" fill="#c061cb"/> </g>
</svg>