/* XPM */
static const char * giggle_xpm[] = {
"16 16 116 2",
"  	c None",
". 	c #69AE28",
"+ 	c #63AC1C",
"@ 	c #5BAE0B",
"# 	c #74BF2B",
"$ 	c #66B717",
"% 	c #7AC431",
"& 	c #57A80A",
"* 	c #5EB20D",
"= 	c #64AD1F",
"- 	c #74C623",
"; 	c #6BC414",
"> 	c #69C311",
", 	c #75C428",
"' 	c #5CB00C",
") 	c #60AA1B",
"! 	c #7BC92F",
"~ 	c #6CC713",
"{ 	c #61B70E",
"] 	c #6FCB14",
"^ 	c #72C323",
"/ 	c #5DB00C",
"( 	c #58AA0B",
"_ 	c #79C230",
": 	c #67C011",
"< 	c #6FCA14",
"[ 	c #6BC810",
"} 	c #79C331",
"| 	c #5DB20C",
"1 	c #6FBF20",
"2 	c #69C113",
"3 	c #6BC513",
"4 	c #6ECB14",
"5 	c #77CA28",
"6 	c #63AF1B",
"7 	c #55A408",
"8 	c #6FBF21",
"9 	c #68C013",
"0 	c #6BC512",
"a 	c #73CB20",
"b 	c #688A19",
"c 	c #619908",
"d 	c #52B60B",
"e 	c #74C127",
"f 	c #68C012",
"g 	c #71C922",
"h 	c #839127",
"i 	c #CC1913",
"j 	c #CD131A",
"k 	c #C91919",
"l 	c #A61010",
"m 	c #AA0C0C",
"n 	c #C11414",
"o 	c #9F2B0D",
"p 	c #B81012",
"q 	c #A60F0F",
"r 	c #79C232",
"s 	c #76C62B",
"t 	c #807219",
"u 	c #C80200",
"v 	c #EE0000",
"w 	c #E40000",
"x 	c #D20000",
"y 	c #B60B0B",
"z 	c #DE0C0C",
"A 	c #ED0101",
"B 	c #E80506",
"C 	c #D70202",
"D 	c #C60E0E",
"E 	c #A41313",
"F 	c #71B530",
"G 	c #6A7F16",
"H 	c #C30709",
"I 	c #E10000",
"J 	c #EB0000",
"K 	c #E00000",
"L 	c #D10000",
"M 	c #B81111",
"N 	c #E20202",
"O 	c #F00000",
"P 	c #E90000",
"Q 	c #D70000",
"R 	c #C40000",
"S 	c #BC1D1D",
"T 	c #C90C0D",
"U 	c #D60000",
"V 	c #DB0000",
"W 	c #D40000",
"X 	c #C90000",
"Y 	c #B71515",
"Z 	c #D80000",
"` 	c #DD0000",
" .	c #C10000",
"..	c #BE1B1B",
"+.	c #B41E1E",
"@.	c #CA0303",
"#.	c #CA0000",
"$.	c #C60000",
"%.	c #B11010",
"&.	c #CC0505",
"*.	c #D00000",
"=.	c #CE0000",
"-.	c #C50000",
";.	c #C00202",
">.	c #AF1D1D",
",.	c #9D1111",
"'.	c #BF1818",
").	c #C21919",
"!.	c #B11616",
"~.	c #620606",
"{.	c #AB1919",
"].	c #C70E0E",
"^.	c #C30D0D",
"/.	c #AF1616",
"(.	c #871010",
"_.	c #A31D1D",
"                                ",
"          . + @                 ",
"        # $ % & *               ",
"    = - ; > ,     '             ",
"  ) ! ~ { ] ^     / (           ",
"  _ : : < [ }       |           ",
"  1 2 3 4 5 6       7           ",
"  8 9 0 a b c         d         ",
"  e f g h i j k l m n o p q     ",
"  r s t u v w x y z A B C D E   ",
"  F G H I J K L M N O P Q R S   ",
"      T U V W X Y Z I ` L  ...  ",
"      +.@.#.$. .%.&.*.=.-.;.>.  ",
"        ,.'.).!.~.{.]. .^./.    ",
"                    (._.(.      ",
"                                "};
