/* XPM */
static const char * menu_diff_commit_xpm[] = {
"16 16 89 1",
" 	c None",
".	c #3F3F3F",
"+	c #636363",
"@	c #A4A4A4",
"#	c #9CA295",
"$	c #5B5E57",
"%	c #3B3B3B",
"&	c #ADADAD",
"*	c #FFFFFF",
"=	c #D3EABD",
"-	c #B7DA94",
";	c #A3D078",
">	c #8CA871",
",	c #383838",
"'	c #505050",
")	c #CFE4BB",
"!	c #C1E49F",
"~	c #BBE393",
"{	c #B7E08F",
"]	c #DFEFCF",
"^	c #434F37",
"/	c #5A5D57",
"(	c #ABD782",
"_	c #B3E185",
":	c #AFDB84",
"<	c #B6E28A",
"[	c #527431",
"}	c #3A3E36",
"|	c #585957",
"1	c #9ED569",
"2	c #A1D86D",
"3	c #AAE174",
"4	c #9FD66B",
"5	c #515C46",
"6	c #353832",
"7	c #464646",
"8	c #6FA63B",
"9	c #7ECB31",
"0	c #8DD34C",
"a	c #82B047",
"b	c #474747",
"c	c #47AB0E",
"d	c #3E4735",
"e	c #575757",
"f	c #66824C",
"g	c #9D8150",
"h	c #CB404A",
"i	c #914849",
"j	c #545454",
"k	c #593C3C",
"l	c #AB2010",
"m	c #BA0D10",
"n	c #A60F0F",
"o	c #61952B",
"p	c #544236",
"q	c #424242",
"r	c #643232",
"s	c #732020",
"t	c #3A3A3A",
"u	c #6B4747",
"v	c #C90909",
"w	c #B91010",
"x	c #C70B0C",
"y	c #D90000",
"z	c #DB0000",
"A	c #CC0000",
"B	c #BA1313",
"C	c #7C1B1B",
"D	c #3A3838",
"E	c #565656",
"F	c #AC1C1C",
"G	c #B12121",
"H	c #C40303",
"I	c #C60303",
"J	c #C00202",
"K	c #A80E0E",
"L	c #CD0404",
"M	c #921212",
"N	c #393535",
"O	c #5C5959",
"P	c #9B1313",
"Q	c #C31C1C",
"R	c #B61A1A",
"S	c #A71414",
"T	c #AF0F0F",
"U	c #6F1E1E",
"V	c #373636",
"W	c #616161",
"X	c #3C3C3C",
"                ",
"                ",
"   .+@#$.       ",
"  %&*=-;>,      ",
"  ')!~{] ^      ",
"  /(_:<  [}     ",
"  |1234  56     ",
"  7890a  bc     ",
"  defghijklmn   ",
"   opqqrstuvw   ",
"    xyzABCDEF   ",
"    GHIJKLMNO   ",
"     PQR STUVW  ",
"             X  ",
"                ",
"                "};
