/* XPM */
static const char * menucleanup_xpm[] = {
"12 12 93 2",
"  	c None",
". 	c #19356A",
"+ 	c #1F3E71",
"@ 	c #29477B",
"# 	c #324F85",
"$ 	c #334F84",
"% 	c #00608D",
"& 	c #2053AC",
"* 	c #498BC8",
"= 	c #6FA3D5",
"- 	c #89BDE3",
"; 	c #688BAF",
"> 	c #006FA5",
", 	c #0069A8",
"' 	c #005280",
") 	c #374967",
"! 	c #42608B",
"~ 	c #486693",
"{ 	c #4D6C9A",
"] 	c #53657F",
"^ 	c #BC8919",
"/ 	c #DE9800",
"( 	c #B7912D",
"_ 	c #247490",
": 	c #006FAD",
"< 	c #002F93",
"[ 	c #1F4866",
"} 	c #959273",
"| 	c #C7EEFE",
"1 	c #CCEFFE",
"2 	c #CCE8EB",
"3 	c #D6B963",
"4 	c #F0AD16",
"5 	c #F0AA00",
"6 	c #9C7C2A",
"7 	c #2F7293",
"8 	c #003B96",
"9 	c #183673",
"0 	c #38535C",
"a 	c #858A7F",
"b 	c #D5F2FE",
"c 	c #E1D9B5",
"d 	c #E1C57C",
"e 	c #F3B331",
"f 	c #FEC147",
"g 	c #F4B014",
"h 	c #EFA900",
"i 	c #BC963B",
"j 	c #102B79",
"k 	c #4C5C59",
"l 	c #68717E",
"m 	c #B8B9A3",
"n 	c #E8B03B",
"o 	c #EFB626",
"p 	c #FFD03F",
"q 	c #FFC248",
"r 	c #FDBF3E",
"s 	c #F3AF10",
"t 	c #686B3F",
"u 	c #827B5E",
"v 	c #C3922D",
"w 	c #FABC3F",
"x 	c #FDDE2B",
"y 	c #FAD922",
"z 	c #FECA43",
"A 	c #FBBC37",
"B 	c #F1AD09",
"C 	c #D2970F",
"D 	c #DCA529",
"E 	c #F9BA3C",
"F 	c #FDDA31",
"G 	c #F7D411",
"H 	c #FCE028",
"I 	c #FABB33",
"J 	c #E1A31D",
"K 	c #FFC645",
"L 	c #FCDC2A",
"M 	c #F6CC0E",
"N 	c #FFE135",
"O 	c #EBA922",
"P 	c #E9A61E",
"Q 	c #FEC843",
"R 	c #FCE424",
"S 	c #FFD83A",
"T 	c #F0C71E",
"U 	c #DBA727",
"V 	c #EEAE29",
"W 	c #FEC943",
"X 	c #F7E137",
"Y 	c #E3AB1B",
"Z 	c #E2A619",
"` 	c #DC9605",
" .	c #E0A310",
". + @ # $           %   ",
"& * = - ;         > , ' ",
") ! ~ { ] ^ / ( _ : < [ ",
"} | 1 2 3 4 5 6 7 8 9 0 ",
"a b c d e f g h i j k   ",
"l m n o p q r s 5 t     ",
"u v w x y z q A B C     ",
"  D E F G H q f I C     ",
"    J K L M N q O       ",
"      P Q R S T U       ",
"        V W X Y         ",
"        Z `  .          "};
