/* XPM */
static const char * menudiff_xpm[] = {
"12 12 102 2",
"  	c None",
". 	c #44E479",
"+ 	c #57DA82",
"@ 	c #1BD95A",
"# 	c #17E05A",
"$ 	c #4EF285",
"% 	c #4DFE88",
"& 	c #56E485",
"* 	c #21E361",
"= 	c #05F855",
"- 	c #02E74D",
"; 	c #49E87E",
"> 	c #4EFD89",
", 	c #47FE83",
"' 	c #3EF57B",
") 	c #42C26C",
"! 	c #20E160",
"~ 	c #05FB57",
"{ 	c #05F655",
"] 	c #04F052",
"^ 	c #00E24B",
"/ 	c #11CF50",
"( 	c #59DA84",
"_ 	c #51FD8A",
": 	c #4AFD85",
"< 	c #43F47D",
"[ 	c #38D76D",
"} 	c #62E28C",
"| 	c #20F265",
"1 	c #03DE4C",
"2 	c #04F152",
"3 	c #00E84D",
"4 	c #1BC152",
"5 	c #57E486",
"6 	c #44F57E",
"7 	c #3EDA72",
"8 	c #40E376",
"9 	c #4AFB85",
"0 	c #1BF764",
"a 	c #02BF41",
"b 	c #01AF3B",
"c 	c #01E84E",
"d 	c #1BCF56",
"e 	c #51C176",
"f 	c #76E29B",
"g 	c #58FB8E",
"h 	c #29FD70",
"i 	c #0DF85B",
"j 	c #27D561",
"k 	c #2D8046",
"l 	c #1D813C",
"m 	c #8CE5A6",
"n 	c #9DFDB7",
"o 	c #4EFB87",
"p 	c #1FFB69",
"q 	c #06EA51",
"r 	c #18C551",
"s 	c #5ABD7B",
"t 	c #4EB370",
"u 	c #52E382",
"v 	c #41FD7E",
"w 	c #72FC97",
"x 	c #51FD86",
"y 	c #3AFD7B",
"z 	c #16DA57",
"A 	c #48BB6E",
"B 	c #3BBE67",
"C 	c #02C844",
"D 	c #1DB750",
"E 	c #51DA7F",
"F 	c #42FD80",
"G 	c #35FB77",
"H 	c #29FE70",
"I 	c #2DFE72",
"J 	c #40FB7E",
"K 	c #5BCA80",
"L 	c #03C343",
"M 	c #04BE42",
"N 	c #04B740",
"O 	c #1E9A48",
"P 	c #3EE877",
"Q 	c #37F275",
"R 	c #2DFC73",
"S 	c #20FC6A",
"T 	c #11FC60",
"U 	c #28E466",
"V 	c #4EB26F",
"W 	c #03C443",
"X 	c #03BE42",
"Y 	c #05B33F",
"Z 	c #05A039",
"` 	c #13AD47",
" .	c #23F268",
"..	c #19FD66",
"+.	c #26E365",
"@.	c #1EB14F",
"#.	c #05B13F",
"$.	c #069E39",
"%.	c #27E366",
"&.	c #28DB63",
"*.	c #1F9647",
"=.	c #18B04B",
"    . +         @ #     ",
"    $ % &     * = -     ",
"; $ > , ' ) ! ~ { ] ^ / ",
"( _ : < [ } | 1 2 ] 3 4 ",
"  5 6 7 8 9 0 a b c d   ",
"    e f g h i j k l     ",
"    m n o p q r s t     ",
"  u v w x y z A B C D   ",
"E F G H I J K B L M N O ",
"P Q R S T U V W X Y Z ` ",
"     ...+.    @.#.$.    ",
"    %.&.        *.=.    "};
