/* XPM */
static const char * menuswitch_xpm[] = {
"12 12 88 1",
" 	c None",
".	c #4CA92A",
"+	c #3DA90A",
"@	c #45AB1A",
"#	c #1B3D7C",
"$	c #2A5389",
"%	c #2A5961",
"&	c #49B714",
"*	c #67DB2E",
"=	c #85FF48",
"-	c #78F23B",
";	c #40B20A",
">	c #449D25",
",	c #39B100",
"'	c #3B951C",
")	c #1E4995",
"!	c #3A70A9",
"~	c #35912A",
"{	c #7BF140",
"]	c #61D429",
"^	c #62D729",
"/	c #68F123",
"(	c #37A900",
"_	c #3BB700",
":	c #3E9420",
"<	c #636A6B",
"[	c #7B9FBE",
"}	c #408E2F",
"|	c #5CB63B",
"1	c #75A85B",
"2	c #3B8B09",
"3	c #63EC1E",
"4	c #5FF30F",
"5	c #46D400",
"6	c #37AA00",
"7	c #439627",
"8	c #8E8F76",
"9	c #CFF0FF",
"0	c #B8DBC8",
"a	c #ABB2A3",
"b	c #5A8D41",
"c	c #39AD00",
"d	c #4FE700",
"e	c #41CA00",
"f	c #45952B",
"g	c #808587",
"h	c #D7F2FE",
"i	c #EBF7FE",
"j	c #AAADAE",
"k	c #458E23",
"l	c #79F03D",
"m	c #61EA1E",
"n	c #44D500",
"o	c #45942B",
"p	c #526570",
"q	c #52666F",
"r	c #51666E",
"s	c #51676E",
"t	c #3A7C27",
"u	c #2E7E12",
"v	c #29791C",
"w	c #2E811E",
"x	c #368522",
"y	c #3B7258",
"z	c #334F85",
"A	c #285CAA",
"B	c #4582B9",
"C	c #6E9CCD",
"D	c #81AED1",
"E	c #476595",
"F	c #56697E",
"G	c #6485A9",
"H	c #698BB1",
"I	c #6C8EB4",
"J	c #5C697A",
"K	c #A1AFA3",
"L	c #D1F1FE",
"M	c #D5F2FF",
"N	c #D5F2FE",
"O	c #949175",
"P	c #97A9AD",
"Q	c #E0F5FE",
"R	c #EAF7FE",
"S	c #8B8984",
"T	c #586579",
"U	c #637184",
"V	c #647184",
"W	c #566173",
"    .+@     ",
"#$%&*=-;>,' ",
")!~{]^=/(_: ",
"<[}|1234567 ",
"8900abcde6f ",
"ghiijklmn6o ",
"pqrsstuvwxyz",
"       ABCDE",
"       FGHIJ",
"       KLMNO",
"       PQRRS",
"       TUVVW"};
