/* XPM */
static const char * menuimport_xpm[] = {
"12 12 80 1",
" 	c None",
".	c #D3B242",
"+	c #D0AB44",
"@	c #CFAC4B",
"#	c #CA9E37",
"$	c #CBA239",
"%	c #B7A939",
"&	c #FACD33",
"*	c #FAE774",
"=	c #FBF191",
"-	c #F4DB52",
";	c #F0BF2D",
">	c #C6942C",
",	c #B19639",
"'	c #EBB321",
")	c #F7E356",
"!	c #F8E662",
"~	c #EDC52D",
"{	c #E79B15",
"]	c #C67C26",
"^	c #8C8A2A",
"/	c #BFBB36",
"(	c #C5D366",
"_	c #EEE987",
":	c #CB892D",
"<	c #4A930E",
"[	c #2F9300",
"}	c #319A00",
"|	c #2D8B00",
"1	c #2A8300",
"2	c #C6D267",
"3	c #F4DB51",
"4	c #3D9307",
"5	c #4DD00D",
"6	c #45C706",
"7	c #37AC00",
"8	c #C6D366",
"9	c #F4DC50",
"0	c #F1C02D",
"a	c #CB8A2D",
"b	c #459C11",
"c	c #6EFA28",
"d	c #4BCC0D",
"e	c #37AA00",
"f	c #35A600",
"g	c #2C8B00",
"h	c #C6D367",
"i	c #F4DB53",
"j	c #CD8C2C",
"k	c #378D04",
"l	c #6FE236",
"m	c #67E628",
"n	c #459809",
"o	c #6B861B",
"p	c #739B18",
"q	c #C6D36A",
"r	c #F4DB56",
"s	c #309700",
"t	c #72EB36",
"u	c #449E0D",
"v	c #AD9037",
"w	c #DAAA21",
"x	c #749C13",
"y	c #C3CA47",
"z	c #EDC530",
"A	c #C37322",
"B	c #2C8900",
"C	c #ACAF3E",
"D	c #DCA928",
"E	c #EAD147",
"F	c #EAD34D",
"G	c #E0B428",
"H	c #DA9218",
"I	c #B79729",
"J	c #3F9707",
"K	c #A9AE36",
"L	c #AAA931",
"M	c #AFAA32",
"N	c #B2A631",
"O	c #B5A633",
"      .+@#$ ",
"     %&*=-;>",
"     ,')!~{]",
"     ^/(_-;:",
"   <[}|123;:",
"   4567|890a",
"  bcdefghi;j",
" klmnop1qr;j",
" stu vwxyz{A",
" sB  CDEFGHI",
" [J   KLMNO ",
" 4          "};
