/* XPM */
static const char * menucommit_xpm[] = {
"12 12 9 1",
" 	c None",
".	c #287C00",
"+	c #2C8502",
"@	c #329B00",
"#	c #3CBA00",
"$	c #6DFF24",
"%	c #85FF48",
"&	c #2E8A03",
"*	c #308F03",
"            ",
"   ........ ",
"    +@##@@. ",
"    .#$##@. ",
"   .$$###@. ",
"  .%%#...@. ",
" .@%$.  &.. ",
" .#%.     . ",
" .#.*       ",
" .@.        ",
" .#         ",
"  .         "};
