/* XPM */
static const char * menucheckout_xpm[] = {
"12 12 96 2",
"  	c None",
". 	c #C1BA3F",
"+ 	c #D1AC3E",
"@ 	c #D0AE4B",
"# 	c #CEA946",
"$ 	c #C99C35",
"% 	c #CDA53B",
"& 	c #C7BA40",
"* 	c #D8B335",
"= 	c #F9D13D",
"- 	c #FBF18F",
"; 	c #FAEC82",
"> 	c #F3D94E",
", 	c #F1BD2A",
"' 	c #C3932D",
") 	c #CC962E",
"! 	c #EFC32C",
"~ 	c #F8EC68",
"{ 	c #F5DE54",
"] 	c #EBC02A",
"^ 	c #E79713",
"/ 	c #C37B28",
"( 	c #CC9D3C",
"_ 	c #F5DB5A",
": 	c #FBF597",
"< 	c #FAEC81",
"[ 	c #F3D94D",
"} 	c #C8862E",
"| 	c #579C1D",
"1 	c #668F1E",
"2 	c #7AAD2D",
"3 	c #7DBA4B",
"4 	c #FAEC80",
"5 	c #C9872E",
"6 	c #3C9815",
"7 	c #279900",
"8 	c #2DAB00",
"9 	c #289D00",
"0 	c #2BA600",
"a 	c #63A92D",
"b 	c #F3D94C",
"c 	c #148904",
"d 	c #37970E",
"e 	c #35A111",
"f 	c #5CEB1E",
"g 	c #67F822",
"h 	c #49C016",
"i 	c #3D9617",
"j 	c #D6E585",
"k 	c #CB8A2D",
"l 	c #0F8602",
"m 	c #319B06",
"n 	c #4DD715",
"o 	c #59E315",
"p 	c #3EB314",
"q 	c #979E2C",
"r 	c #F5DA5D",
"s 	c #FBF493",
"t 	c #FAEC84",
"u 	c #F3D951",
"v 	c #0B8A00",
"w 	c #49CA0A",
"x 	c #52D910",
"y 	c #1A9A01",
"z 	c #579E1B",
"A 	c #CA9231",
"B 	c #EDC335",
"C 	c #F8ED66",
"D 	c #F5DF56",
"E 	c #EBC02C",
"F 	c #C07223",
"G 	c #3AB500",
"H 	c #3CBA00",
"I 	c #0C8B00",
"J 	c #50A01A",
"K 	c #C2AA3A",
"L 	c #E1B62F",
"M 	c #EBD851",
"N 	c #E8CB44",
"O 	c #DFB026",
"P 	c #DB8F18",
"Q 	c #B79A2D",
"R 	c #0A8500",
"S 	c #34A100",
"T 	c #37AA00",
"U 	c #1E9300",
"V 	c #37980E",
"W 	c #A2AD35",
"X 	c #A6AB32",
"Y 	c #AAAB33",
"Z 	c #AFA833",
"` 	c #B7AB37",
" .	c #028100",
"..	c #0C8600",
"+.	c #068201",
"@.	c #2F920D",
"          . + @ # $ % & ",
"          * = - ; > , ' ",
"          ) ! ~ { ] ^ / ",
"          ( _ : < [ , } ",
"        | 1 2 3 4 [ , 5 ",
"      6 7 8 9 0 a b , 5 ",
"c d e f g h i j < > , k ",
"l m n o p q r s t u , k ",
"v w x y z A B C D E ^ F ",
"v G H I J K L M N O P Q ",
"R S T U V   W X Y Z `   ",
" .......+.@.            "};
