/* XPM */
static const char * menu_start_bisect_xpm[] = {
"16 16 90 1",
" 	c None",
".	c #3A2A20",
"+	c #42332A",
"@	c #3B2D26",
"#	c #4A3F37",
"$	c #584E47",
"%	c #5F544C",
"&	c #35251B",
"*	c #4A3E37",
"=	c #5A5049",
"-	c #6A615B",
";	c #707061",
">	c #10C10C",
",	c #00DB00",
"'	c #00DC00",
")	c #00C300",
"!	c #584C45",
"~	c #695F5A",
"{	c #7A726D",
"]	c #7F7872",
"^	c #00BF00",
"/	c #00BE00",
"(	c #4A3D34",
"_	c #5B4F48",
":	c #665B55",
"<	c #19D919",
"[	c #24D624",
"}	c #221106",
"|	c #1D0F07",
"1	c #21E221",
"2	c #33E433",
"3	c #42E642",
"4	c #4FE44F",
"5	c #372920",
"6	c #453932",
"7	c #544841",
"8	c #574B42",
"9	c #31E431",
"0	c #44E644",
"a	c #56E856",
"b	c #67EA67",
"c	c #322116",
"d	c #453931",
"e	c #554A44",
"f	c #645B55",
"g	c #6E645E",
"h	c #40E440",
"i	c #54E854",
"j	c #68EA68",
"k	c #76E676",
"l	c #36251B",
"m	c #534841",
"n	c #655B55",
"o	c #756C67",
"p	c #7F7570",
"q	c #4CDA4C",
"r	c #5AD75A",
"s	c #544840",
"t	c #6C625C",
"u	c #7B736D",
"v	c #5B514C",
"w	c #00CB00",
"x	c #00B600",
"y	c #1E0D03",
"z	c #170B03",
"A	c #00D500",
"B	c #322318",
"C	c #3E3129",
"D	c #4B3E36",
"E	c #00D600",
"F	c #2E1D12",
"G	c #3F332B",
"H	c #4F443E",
"I	c #5E534D",
"J	c #665F54",
"K	c #00D400",
"L	c #4E433C",
"M	c #5F554F",
"N	c #6F6661",
"O	c #777568",
"P	c #12B60E",
"Q	c #00D000",
"R	c #00CF00",
"S	c #009A00",
"T	c #584D46",
"U	c #6E655F",
"V	c #807873",
"W	c #776E68",
"X	c #443831",
"Y	c #413832",
"  .+            ",
" @#$%           ",
"&*=-;>,,,,,,')  ",
" !~{]       ^/  ",
" (_:        <[  ",
"  }|       1234 ",
" 5678      90ab ",
"cdefg      hijk ",
"lmnop       qr  ",
" stuv       wx  ",
"  yz        A/  ",
" BCD        E^  ",
"FGHIJ       K/  ",
"lLMNOPQQQQQQRS  ",
" TUVW           ",
"  XY            "};
