/* XPM */
static const char * menulog_xpm[] = {
"12 12 63 1",
" 	c None",
".	c #A49C8B",
"+	c #FFC16C",
"@	c #FF9D6C",
"#	c #9B9891",
"$	c #FFE096",
"%	c #FFFFAB",
"&	c #FFFF90",
"*	c #8A8781",
"=	c #FFDA90",
"-	c #FFE399",
";	c #FFDE9C",
">	c #F6A06F",
",	c #78706C",
"'	c #FFA56C",
")	c #FFD175",
"!	c #E8BB60",
"~	c #C59128",
"{	c #FFFFFF",
"]	c #C5C5C5",
"^	c #636363",
"/	c #A4938B",
"(	c #FFA96C",
"_	c #FFD275",
":	c #D89D3A",
"<	c #F3F3ED",
"[	c #A1A1A1",
"}	c #5F5F5F",
"|	c #BEBEBE",
"1	c #DEDEDE",
"2	c #A5A5A8",
"3	c #848484",
"4	c #7B7B7B",
"5	c #917F6D",
"6	c #F1F2EA",
"7	c #EBEBEB",
"8	c #929292",
"9	c #7CBF02",
"0	c #84FD47",
"a	c #F1F1F1",
"b	c #BED294",
"c	c #639300",
"d	c #9FAE7F",
"e	c #9A9A9E",
"f	c #454545",
"g	c #85FF48",
"h	c #83F33C",
"i	c #7EBA00",
"j	c #547C00",
"k	c #7AB400",
"l	c #699B00",
"m	c #4E7400",
"n	c #949E7F",
"o	c #679800",
"p	c #3E5200",
"q	c #2B2B07",
"r	c #888888",
"s	c #6C6C6C",
"t	c #143E00",
"u	c #133304",
"v	c #121212",
"w	c #0D0D0D",
"x	c #171913",
"            ",
"  .+@       ",
" #$%&       ",
" *=-;>      ",
" ,')!~{{{{{]",
" ^/(_:<[}|12",
"  345 671112",
"890abcd[}}}e",
"fghiicd71112",
"jikllmn[}}}e",
"jojmpqr71112",
"sttuvwx     "};
