/* XPM */
static const char * menudelete_xpm[] = {
"12 12 9 1",
" 	c None",
".	c #FF6C6C",
"+	c #FF0000",
"@	c #800000",
"#	c #FF9090",
"$	c #FFB590",
"%	c #FF9D6C",
"&	c #FFB4B4",
"*	c #FF4848",
"            ",
" .+.        ",
" +@+.   .+  ",
"  +@+. .+#  ",
"   +@+++$   ",
"    +@+%    ",
"   +@+@+&   ",
"  +@+&+@+&  ",
" +@+&  +@+& ",
" .+.    +@* ",
"         &. ",
"            "};
