/* XPM */
static const char * menuexport_xpm[] = {
"12 12 47 1",
" 	c None",
".	c #287C00",
"+	c #193263",
"@	c #1A3567",
"#	c #204E46",
"$	c #329B00",
"%	c #35A500",
"&	c #3AB400",
"*	c #3CBA00",
"=	c #309500",
"-	c #1547AE",
";	c #4B95DC",
">	c #69ACDE",
",	c #8DC5F3",
"'	c #4B9752",
")	c #85FF48",
"!	c #65D32F",
"~	c #1F3A6E",
"{	c #274278",
"]	c #2B467D",
"^	c #2E4A81",
"/	c #71FF2A",
"(	c #7CFF3B",
"_	c #4ABD12",
":	c #30840A",
"<	c #297D01",
"[	c #8D7642",
"}	c #C4EEFF",
"|	c #968961",
"1	c #2B8600",
"2	c #4CD10C",
"3	c #54DC12",
"4	c #298100",
"5	c #756E4B",
"6	c #C9EFFF",
"7	c #E3F6FF",
"8	c #878468",
"9	c #37861B",
"0	c #2E9000",
"a	c #4CD00B",
"b	c #686163",
"c	c #CAEFFE",
"d	c #EDF8FE",
"e	c #7E7A7C",
"f	c #4E5B70",
"g	c #2F8807",
"h	c #358414",
"            ",
"   .....    ",
"+@#$%&*=.   ",
"-;>,'.))!. .",
"+@~{]^./(_:<",
"[}}}}| 123%4",
"567778 903a1",
"bcddde 90**1",
"ffffff g0*%4",
"      h4$$$4",
"      ......",
"            "};
