/* XPM */
static const char * menuadd_xpm[] = {
"12 12 9 1",
" 	c None",
".	c #00699B",
"+	c #00547C",
"@	c #48C2FF",
"#	c #4885FF",
"$	c #0093D9",
"%	c #90DAFF",
"&	c #24B6FF",
"*	c #007EBA",
"            ",
"            ",
"    .+++    ",
"    .@@+    ",
"  ...#$+++  ",
"  .%@&*$$+  ",
"  .@@*...+  ",
"  +++@.+++  ",
"    .$.+    ",
"    ..++    ",
"            ",
"            "};
