/* XPM */
static const char * menubranch_xpm[] = {
"12 12 64 1",
" 	c None",
".	c #5A78A5",
"+	c #3F78B8",
"@	c #6C7C9D",
"#	c #4E77AD",
"$	c #3E69A9",
"%	c #3F5F9F",
"&	c #3F6CAC",
"*	c #697DA1",
"=	c #C39C90",
"-	c #4477B3",
";	c #4473AD",
">	c #4974A9",
",	c #4C7AAC",
"'	c #416FAC",
")	c #737794",
"!	c #D57456",
"~	c #E38868",
"{	c #F68F69",
"]	c #E0A088",
"^	c #DBAA93",
"/	c #3F68A8",
"(	c #4978B0",
"_	c #58719E",
":	c #6C7595",
"<	c #4A7AB2",
"[	c #A77870",
"}	c #FB460A",
"|	c #FA4D13",
"1	c #FC681B",
"2	c #FC6429",
"3	c #F1BFA6",
"4	c #6C7091",
"5	c #FAB56A",
"6	c #FC742C",
"7	c #FBA74F",
"8	c #FDE990",
"9	c #FC903E",
"0	c #F87246",
"a	c #6B7092",
"b	c #D8CFB8",
"c	c #FFA97B",
"d	c #FE8A31",
"e	c #FDAE35",
"f	c #FB7A30",
"g	c #F3AC8D",
"h	c #6C7496",
"i	c #8F9FA8",
"j	c #6A85A8",
"k	c #AC8B89",
"l	c #FE9763",
"m	c #FA8959",
"n	c #F5926E",
"o	c #F0C4AC",
"p	c #7A95AD",
"q	c #5B7AA7",
"r	c #4266A2",
"s	c #7090AA",
"t	c #CEACA0",
"u	c #446AA4",
"v	c #7193AA",
"w	c #4871A8",
"x	c #6F8FA8",
"y	c #647AA0",
"  .+@       ",
" #$%&*   =  ",
"-;>%,')!~{]^",
"/(_%:<[}|123",
"   %4 567890",
"   %a bcdefg",
"   %hijklmno",
"   %pqrs t  ",
"   %%uv     ",
"   %wx      ",
"   %y       ",
"   %        "};
