/* XPM */
static const char * refresh_xpm[] = {
"16 16 148 2",
"  	c None",
". 	c #69AE28",
"+ 	c #63AC1C",
"@ 	c #5BAE0B",
"# 	c #74BF2B",
"$ 	c #66B717",
"% 	c #7AC431",
"& 	c #57A80A",
"* 	c #5EB20D",
"= 	c #64AD1F",
"- 	c #74C623",
"; 	c #6BC414",
"> 	c #69C311",
", 	c #75C428",
"' 	c #5CB00C",
") 	c #60AA1B",
"! 	c #7BC92F",
"~ 	c #6CC713",
"{ 	c #61B70E",
"] 	c #6FCB14",
"^ 	c #72C323",
"/ 	c #5DB00C",
"( 	c #58AA0B",
"_ 	c #79C230",
": 	c #67C011",
"< 	c #6FCA14",
"[ 	c #6BC810",
"} 	c #79C331",
"| 	c #5AAD22",
"1 	c #6FBF20",
"2 	c #69C113",
"3 	c #6BC513",
"4 	c #6ECB14",
"5 	c #77CA28",
"6 	c #63AF1B",
"7 	c #528DC5",
"8 	c #7DAAD4",
"9 	c #82ADD5",
"0 	c #83AED6",
"a 	c #77A5D1",
"b 	c #5790C7",
"c 	c #528EC6",
"d 	c #6FBF21",
"e 	c #68C013",
"f 	c #6BC512",
"g 	c #73CB20",
"h 	c #688A19",
"i 	c #619908",
"j 	c #528EC7",
"k 	c #9ABCDE",
"l 	c #9EBFE0",
"m 	c #A0C0E1",
"n 	c #A0C1E1",
"o 	c #9CBEE0",
"p 	c #A1C1E1",
"q 	c #6C9DCE",
"r 	c #77A6D2",
"s 	c #74C127",
"t 	c #68C012",
"u 	c #71C922",
"v 	c #839127",
"w 	c #CC1913",
"x 	c #8C5373",
"y 	c #8EB4DB",
"z 	c #8FB4DA",
"A 	c #94B8DC",
"B 	c #85AFD7",
"C 	c #81ACD5",
"D 	c #95B9DB",
"E 	c #8FB5DB",
"F 	c #A4C3E2",
"G 	c #78A6D2",
"H 	c #79C232",
"I 	c #76C62B",
"J 	c #807219",
"K 	c #C80200",
"L 	c #E50709",
"M 	c #857AA0",
"N 	c #82ABD6",
"O 	c #84ACD7",
"P 	c #85779C",
"Q 	c #9E4560",
"R 	c #9B4764",
"S 	c #6398CB",
"T 	c #94B7DC",
"U 	c #88B0D9",
"V 	c #72A2D1",
"W 	c #71B530",
"X 	c #6A7F16",
"Y 	c #C30709",
"Z 	c #E10000",
"` 	c #D81017",
" .	c #679ACC",
"..	c #74A1D1",
"+.	c #6D9ED0",
"@.	c #994662",
"#.	c #F00000",
"$.	c #538BC3",
"%.	c #558FC6",
"&.	c #5991C8",
"*.	c #5992C8",
"=.	c #558FC7",
"-.	c #C90C0D",
";.	c #D60000",
">.	c #CA1017",
",.	c #6296CB",
"'.	c #6B9BCF",
").	c #6599CC",
"!.	c #954560",
"~.	c #DD0000",
"{.	c #D10000",
"].	c #C10000",
"^.	c #BE1B1B",
"/.	c #B41E1E",
"(.	c #CA0303",
"_.	c #BB1118",
":.	c #5A91C9",
"<.	c #6596CC",
"[.	c #6798CE",
"}.	c #746D96",
"|.	c #91445F",
"1.	c #8E435E",
"2.	c #8D4662",
"3.	c #93536C",
"4.	c #AF1D1D",
"5.	c #9D1111",
"6.	c #BF1818",
"7.	c #7F5F80",
"8.	c #6094CB",
"9.	c #6295CC",
"0.	c #6195CC",
"a.	c #5C92C9",
"b.	c #5C91C9",
"c.	c #6496CA",
"d.	c #6192C2",
"e.	c #528DC4",
"f.	c #5F94CB",
"g.	c #6295CD",
"h.	c #6396CD",
"i.	c #6294CB",
"j.	c #6093CC",
"k.	c #4F88BD",
"l.	c #4F88BE",
"m.	c #5187BA",
"n.	c #5A90C9",
"o.	c #5990C8",
"p.	c #5187BB",
"q.	c #518BC2",
"                                ",
"          . + @                 ",
"        # $ % & *               ",
"    = - ; > ,     '             ",
"  ) ! ~ { ] ^     / (           ",
"  _ : : < [ }       |           ",
"  1 2 3 4 5 6   7 8 9 0 a b   c ",
"  d e f g h i j k l m n o p q r ",
"  s t u v w x y z A B C D E F G ",
"  H I J K L M N O P Q R S T U V ",
"  W X Y Z `  ...+.@.#.$.%.&.*.=.",
"      -.;.>.,.'.).!.Z ~.{.].^.  ",
"      /.(._.:.<.[.}.|.1.2.3.4.  ",
"        5.6.7.8.9.0.a.b.8.c.d.  ",
"              e.f.g.h.h.i.j.k.  ",
"                l.m.n.o.p.q.    "};
