<?xml version="1.0" encoding="UTF-8" standalone="no"?>
<!-- Created with Inkscape (http://www.inkscape.org/) -->

<svg
   xmlns:dc="http://purl.org/dc/elements/1.1/"
   xmlns:cc="http://creativecommons.org/ns#"
   xmlns:rdf="http://www.w3.org/1999/02/22-rdf-syntax-ns#"
   xmlns:svg="http://www.w3.org/2000/svg"
   xmlns="http://www.w3.org/2000/svg"
   xmlns:sodipodi="http://sodipodi.sourceforge.net/DTD/sodipodi-0.dtd"
   xmlns:inkscape="http://www.inkscape.org/namespaces/inkscape"
   width="32"
   height="32"
   id="svg3016"
   version="1.1"
   inkscape:version="0.92.1 r15371"
   sodipodi:docname="codelite-logo-low-res-root.svg">
  <defs
     id="defs3018" />
  <sodipodi:namedview
     id="base"
     pagecolor="#ffffff"
     bordercolor="#666666"
     borderopacity="1.0"
     inkscape:pageopacity="0.0"
     inkscape:pageshadow="2"
     inkscape:zoom="5"
     inkscape:cx="-11.612399"
     inkscape:cy="7.2091335"
     inkscape:document-units="px"
     inkscape:current-layer="layer1"
     showgrid="false"
     inkscape:showpageshadow="false"
     inkscape:window-width="2560"
     inkscape:window-height="1343"
     inkscape:window-x="1920"
     inkscape:window-y="27"
     inkscape:window-maximized="1"
     showborder="true"
     inkscape:pagecheckerboard="false" />
  <metadata
     id="metadata3021">
    <rdf:RDF>
      <cc:Work
         rdf:about="">
        <dc:format>image/svg+xml</dc:format>
        <dc:type
           rdf:resource="http://purl.org/dc/dcmitype/StillImage" />
        <dc:title></dc:title>
      </cc:Work>
    </rdf:RDF>
  </metadata>
  <g
     inkscape:label="Layer 1"
     inkscape:groupmode="layer"
     id="layer1"
     transform="translate(0,-1020.3622)">
    <rect
       style="fill:#1190e6;fill-opacity:1;stroke:none"
       id="rect3024"
       width="15"
       height="15"
       x="10"
       y="1030.3622" />
    <rect
       style="fill:#6eca60;fill-opacity:1;stroke:none"
       id="rect3024-0"
       width="15"
       height="15"
       x="5.3999996"
       y="1025.9622" />
    <rect
       style="fill:#ffd748;fill-opacity:1;stroke:none"
       id="rect3024-2"
       width="15"
       height="15"
       x="2"
       y="1022.3622" />
    <g
       id="g836"
       transform="translate(55.624803,-7.0908)">
      <path
         style="fill:#95a5a6;stroke-width:0.78038377"
         inkscape:connector-curvature="0"
         d="m -38.012399,1044.2149 v 7.6191 c 0,3.2 2.903257,6.0952 7.193798,7.619 4.290701,-1.5238 7.193798,-4.419 7.193798,-7.619 v -7.6191 z"
         id="path6" />
      <path
         style="fill:#ecf0f1;stroke-width:0.78038377"
         inkscape:connector-curvature="0"
         d="m -38.012399,1043.453 v 7.6191 c 0,3.2 2.903257,6.0952 7.193798,7.619 4.290701,-1.5238 7.193798,-4.419 7.193798,-7.619 v -7.6191 z"
         id="path8" />
      <path
         style="fill:#bdc3c7;stroke-width:0.78038377"
         inkscape:connector-curvature="0"
         d="m -38.012399,1043.453 v 7.6191 c 0,3.2 2.903257,6.0952 7.193798,7.619 v -15.2381 z"
         id="path10" />
      <path
         style="fill:#c0392b;stroke-width:0.78038377"
         inkscape:connector-curvature="0"
         d="m -36.413777,1044.9768 v 6.0953 c 0,2.5905 2.258133,4.8762 5.595176,6.0952 3.337123,-1.219 5.595176,-3.5047 5.595176,-6.0952 v -6.0953 z"
         id="path12" />
      <path
         style="fill:#e74c3c;stroke-width:0.78038377"
         inkscape:connector-curvature="0"
         d="m -30.818601,1044.9768 v 12.1905 c 3.337123,-1.219 5.595176,-3.5047 5.595176,-6.0952 v -6.0953 z"
         id="path14" />
      <path
         style="fill:#ecf0f1;stroke-width:0.78038377"
         inkscape:connector-curvature="0"
         d="m -33.091682,1047.3387 -1.123991,1.0667 2.273241,2.2095 -2.273241,2.1334 1.123991,1.0666 2.273081,-2.1333 2.27324,2.1333 1.123831,-1.0666 -2.27324,-2.1334 2.27324,-2.1333 -1.149409,-1.1429 -2.247662,2.2096 z"
         id="path18" />
    </g>
  </g>
</svg>
