<?xml version="1.0" encoding="UTF-8" standalone="no"?>
<svg
   xmlns:dc="http://purl.org/dc/elements/1.1/"
   xmlns:cc="http://creativecommons.org/ns#"
   xmlns:rdf="http://www.w3.org/1999/02/22-rdf-syntax-ns#"
   xmlns:svg="http://www.w3.org/2000/svg"
   xmlns="http://www.w3.org/2000/svg"
   xmlns:sodipodi="http://sodipodi.sourceforge.net/DTD/sodipodi-0.dtd"
   xmlns:inkscape="http://www.inkscape.org/namespaces/inkscape"
   enable-background="new 0 0 50 50"
   height="50px"
   id="Layer_1"
   version="1.1"
   viewBox="0 0 50 50"
   width="50px"
   xml:space="preserve"
   sodipodi:docname="find_in_files.svg"
   inkscape:version="0.92.1 r15371"><metadata
     id="metadata13"><rdf:RDF><cc:Work
         rdf:about=""><dc:format>image/svg+xml</dc:format><dc:type
           rdf:resource="http://purl.org/dc/dcmitype/StillImage" /><dc:title></dc:title></cc:Work></rdf:RDF></metadata><defs
     id="defs11" /><sodipodi:namedview
     pagecolor="#ffffff"
     bordercolor="#666666"
     borderopacity="1"
     objecttolerance="10"
     gridtolerance="10"
     guidetolerance="10"
     inkscape:pageopacity="0"
     inkscape:pageshadow="2"
     inkscape:window-width="1840"
     inkscape:window-height="1018"
     id="namedview9"
     showgrid="false"
     inkscape:zoom="4.72"
     inkscape:cx="-83.83533"
     inkscape:cy="15.783899"
     inkscape:window-x="1985"
     inkscape:window-y="63"
     inkscape:window-maximized="0"
     inkscape:current-layer="Layer_1" /><g
     id="g824"
     transform="matrix(0.97547862,0,0,1.1420288,0.61484937,-4.1217332)"
     style="fill:none;stroke:#474747;stroke-width:2.7817347;stroke-miterlimit:4;stroke-dasharray:none;stroke-opacity:1"><path
       style="fill:none;fill-opacity:1;stroke:#474747;stroke-width:2.7817347;stroke-linecap:round;stroke-miterlimit:4;stroke-dasharray:none;stroke-opacity:1"
       id="path4"
       stroke-miterlimit="10"
       d="M 46,15 V 11 C 46,9.896 45.104,9 44,9 44,9 19.352,9 18,9 16.531,9 15.516,5 14,5 H 3 C 1.896,5 1,5.896 1,7 v 4 29 4 c 0,1.104 0.896,2 2,2 h 39 c 1.104,0 2,-0.896 2,-2"
       inkscape:connector-curvature="0" /><path
       style="fill:none;fill-opacity:1;stroke:#474747;stroke-width:2.7817347;stroke-linecap:round;stroke-miterlimit:4;stroke-dasharray:none;stroke-opacity:1"
       id="path6"
       stroke-miterlimit="10"
       d="M 1,44 6,17 c 0,-1.104 0.896,-2 2,-2 h 39 c 1.104,0 2,0.896 2,2 l -5,27"
       inkscape:connector-curvature="0" /></g><path
     d="m 30.201631,34.058973 h -1.090909 l -0.377359,-0.37736 c 1.344768,-1.557463 2.154374,-3.581476 2.154374,-5.797599 0,-4.926243 -3.993139,-8.919383 -8.919382,-8.919383 -4.926244,0 -8.919383,3.99314 -8.919383,8.919383 0,4.926244 3.993139,8.919379 8.919383,8.919379 2.216123,0 4.240137,-0.8096 5.797599,-2.14751 l 0.377358,0.37736 v 1.08405 l 6.861063,6.84734 2.044597,-2.0446 z m -8.233276,0 c -3.409949,0 -6.174957,-2.765011 -6.174957,-6.174959 0,-3.40995 2.765008,-6.174958 6.174957,-6.174958 3.409948,0 6.174957,2.765008 6.174957,6.174958 0,3.409948 -2.765009,6.174959 -6.174957,6.174959 z"
     id="path2"
     style="fill:#dd4814;fill-opacity:1;stroke-width:0.68610638"
     inkscape:connector-curvature="0" /></svg>