<?xml version="1.0" encoding="UTF-8" standalone="no"?>
<svg
   xmlns:dc="http://purl.org/dc/elements/1.1/"
   xmlns:cc="http://creativecommons.org/ns#"
   xmlns:rdf="http://www.w3.org/1999/02/22-rdf-syntax-ns#"
   xmlns:svg="http://www.w3.org/2000/svg"
   xmlns="http://www.w3.org/2000/svg"
   xmlns:sodipodi="http://sodipodi.sourceforge.net/DTD/sodipodi-0.dtd"
   xmlns:inkscape="http://www.inkscape.org/namespaces/inkscape"
   enable-background="new 0 0 50 50"
   height="50px"
   id="Layer_1"
   version="1.1"
   viewBox="0 0 50 50"
   width="50px"
   xml:space="preserve"
   sodipodi:docname="folder-yellow-opened-symlink.svg"
   inkscape:version="0.92.4 (5da689c313, 2019-01-14)"><metadata
     id="metadata13"><rdf:RDF><cc:Work
         rdf:about=""><dc:format>image/svg+xml</dc:format><dc:type
           rdf:resource="http://purl.org/dc/dcmitype/StillImage" /><dc:title /></cc:Work></rdf:RDF></metadata><defs
     id="defs11" /><sodipodi:namedview
     pagecolor="#ffffff"
     bordercolor="#666666"
     borderopacity="1"
     objecttolerance="10"
     gridtolerance="10"
     guidetolerance="10"
     inkscape:pageopacity="0"
     inkscape:pageshadow="2"
     inkscape:window-width="3840"
     inkscape:window-height="2080"
     id="namedview9"
     showgrid="false"
     inkscape:zoom="4.72"
     inkscape:cx="23.89772"
     inkscape:cy="4.3432218"
     inkscape:window-x="-11"
     inkscape:window-y="-11"
     inkscape:window-maximized="1"
     inkscape:current-layer="Layer_1" /><path
     d="M46,15v-4  c0-1.104-0.896-2-2-2c0,0-24.648,0-26,0c-1.469,0-2.484-4-4-4H3C1.896,5,1,5.896,1,7v4v29v4c0,1.104,0.896,2,2,2h39  c1.104,0,2-0.896,2-2"
     fill="none"
     stroke="#000000"
     stroke-linecap="round"
     stroke-miterlimit="10"
     stroke-width="2"
     id="path4"
     style="fill:none;fill-opacity:1;stroke:#1a1a1a;stroke-opacity:1" /><path
     d="M1,44l5-27  c0-1.104,0.896-2,2-2h39c1.104,0,2,0.896,2,2l-5,27"
     fill="none"
     stroke="#000000"
     stroke-linecap="round"
     stroke-miterlimit="10"
     stroke-width="2"
     id="path6"
     style="fill:none;fill-opacity:1;stroke:#1a1a1a;stroke-opacity:1" /><path
     class="cls-1"
     d="m 29.104834,45.043292 a 1.2342553,1.2736996 50.396727 0 0 1.76816,0.13903 l 5.397453,-4.46568 c 1.339557,-1.10831 2.46234,-1.02003 3.536315,0.27803 l 4.752259,5.74383 -1.277478,-0.54499 -2.272074,-0.17864 a 1.234943,1.2744094 50.396727 0 0 -0.275304,2.49451 l 6.188545,0.48658 a 1.2342553,1.2736996 50.396727 0 0 1.388618,-1.1489 l 0.68095,-6.17018 a 1.2349408,1.2744089 50.396727 0 0 -2.501934,-0.19672 l -0.213578,2.33933 0.272504,1.32841 -4.779796,-5.77711 c -1.939462,-2.34414 -4.653576,-2.55752 -7.072622,-0.55608 l -5.397453,4.46568 a 1.2342553,1.2736996 50.396727 0 0 -0.194565,1.7629 z"
     id="path8"
     inkscape:connector-curvature="0"
     style="fill:#5599ff;fill-opacity:1;stroke:#5599ff;stroke-width:2;stroke-miterlimit:4;stroke-dasharray:none;stroke-opacity:1" /></svg>