<?xml version="1.0" encoding="UTF-8" standalone="no"?>
<svg
   xmlns:dc="http://purl.org/dc/elements/1.1/"
   xmlns:cc="http://creativecommons.org/ns#"
   xmlns:rdf="http://www.w3.org/1999/02/22-rdf-syntax-ns#"
   xmlns:svg="http://www.w3.org/2000/svg"
   xmlns="http://www.w3.org/2000/svg"
   xmlns:sodipodi="http://sodipodi.sourceforge.net/DTD/sodipodi-0.dtd"
   xmlns:inkscape="http://www.inkscape.org/namespaces/inkscape"
   enable-background="new 0 0 50 50"
   height="50px"
   id="Layer_1"
   version="1.1"
   viewBox="0 0 50 50"
   width="50px"
   xml:space="preserve"
   sodipodi:docname="folder-yellow-symlink.svg"
   inkscape:version="0.92.4 (5da689c313, 2019-01-14)"><metadata
     id="metadata13"><rdf:RDF><cc:Work
         rdf:about=""><dc:format>image/svg+xml</dc:format><dc:type
           rdf:resource="http://purl.org/dc/dcmitype/StillImage" /><dc:title /></cc:Work></rdf:RDF></metadata><defs
     id="defs11" /><sodipodi:namedview
     pagecolor="#ffffff"
     bordercolor="#666666"
     borderopacity="1"
     objecttolerance="10"
     gridtolerance="10"
     guidetolerance="10"
     inkscape:pageopacity="0"
     inkscape:pageshadow="2"
     inkscape:window-width="2440"
     inkscape:window-height="1187"
     id="namedview9"
     showgrid="false"
     inkscape:zoom="4.72"
     inkscape:cx="-25.847457"
     inkscape:cy="16.843221"
     inkscape:window-x="933"
     inkscape:window-y="451"
     inkscape:window-maximized="0"
     inkscape:current-layer="Layer_1" /><rect
     fill="none"
     height="50"
     width="50"
     id="rect2" /><path
     d="M47,8c0,0-27.648,0-29,0  c-1.469,0-2.484-4-4-4H3C1.896,4,1,4.896,1,6v4v30v4c0,1.104,0.896,2,2,2h44c1.104,0,2-0.896,2-2V10C49,8.896,48.104,8,47,8z"
     stroke-miterlimit="10"
     id="path4"
     style="fill:none;fill-opacity:1;stroke:#1a1a1a;stroke-opacity:1"
     stroke-linecap="round"
     stroke-width="2"
     stroke="#000000"
     fill="none" /><path
     class="cls-1"
     d="m 29.104861,45.043297 a 1.2342553,1.2736996 50.396727 0 0 1.76816,0.139023 l 5.397453,-4.465681 c 1.339557,-1.108307 2.46234,-1.020025 3.536315,0.278038 l 4.752259,5.743826 -1.277478,-0.544992 -2.272074,-0.178642 a 1.234943,1.2744094 50.396727 0 0 -0.275304,2.494511 l 6.188545,0.486582 a 1.2342553,1.2736996 50.396727 0 0 1.388618,-1.148899 l 0.68095,-6.170183 a 1.2349408,1.2744089 50.396727 0 0 -2.501934,-0.196712 l -0.213578,2.339323 0.272504,1.328409 -4.779796,-5.777109 C 39.830039,37.026657 37.115925,36.81327 34.696879,38.814712 l -5.397453,4.465681 a 1.2342553,1.2736996 50.396727 0 0 -0.194565,1.762904 z"
     id="path8"
     inkscape:connector-curvature="0"
     style="fill:#5599ff;fill-opacity:1;stroke:#5599ff;stroke-width:2;stroke-miterlimit:4;stroke-dasharray:none;stroke-opacity:1" /></svg>