<?xml version="1.0" encoding="UTF-8" standalone="no"?>
<svg
   xmlns:dc="http://purl.org/dc/elements/1.1/"
   xmlns:cc="http://creativecommons.org/ns#"
   xmlns:rdf="http://www.w3.org/1999/02/22-rdf-syntax-ns#"
   xmlns:svg="http://www.w3.org/2000/svg"
   xmlns="http://www.w3.org/2000/svg"
   xmlns:sodipodi="http://sodipodi.sourceforge.net/DTD/sodipodi-0.dtd"
   xmlns:inkscape="http://www.inkscape.org/namespaces/inkscape"
   enable-background="new 0 0 96 96"
   height="96px"
   id="link"
   version="1.1"
   viewBox="0 0 96 96"
   width="96px"
   xml:space="preserve"
   sodipodi:docname="link_editor.svg"
   inkscape:version="0.92.1 r15371"><metadata
     id="metadata11"><rdf:RDF><cc:Work
         rdf:about=""><dc:format>image/svg+xml</dc:format><dc:type
           rdf:resource="http://purl.org/dc/dcmitype/StillImage" /><dc:title /></cc:Work></rdf:RDF></metadata><defs
     id="defs9" /><sodipodi:namedview
     pagecolor="#ffffff"
     bordercolor="#666666"
     borderopacity="1"
     objecttolerance="10"
     gridtolerance="10"
     guidetolerance="10"
     inkscape:pageopacity="0"
     inkscape:pageshadow="2"
     inkscape:window-width="1920"
     inkscape:window-height="1028"
     id="namedview7"
     showgrid="false"
     inkscape:zoom="3.6202394"
     inkscape:cx="-71.853848"
     inkscape:cy="37.782162"
     inkscape:window-x="0"
     inkscape:window-y="14"
     inkscape:window-maximized="0"
     inkscape:current-layer="link" /><path
     inkscape:connector-curvature="0"
     d="M 88.294184,44.826286 75.88944,57.23103 c -0.706148,0.707245 -1.434227,1.357471 -2.1952,1.961645 -2.899155,2.325684 -6.178797,3.932061 -9.614143,4.837773 -3.117359,0.851983 -6.372878,1.10089 -9.574668,0.754395 -2.978104,-0.310311 -5.923312,-1.132689 -8.676633,-2.473712 -2.589941,-1.242339 -5.016503,-2.940823 -7.155781,-5.080101 -2.139279,-2.139278 -3.837763,-4.565841 -5.079005,-7.155782 3.42767,-2.434238 8.219391,-2.108576 11.281925,0.953958 3.148061,3.148062 7.195256,4.853125 11.312627,5.109706 2.938629,0.177634 5.930987,-0.381583 8.64593,-1.683132 1.758791,-0.828957 3.403547,-1.976996 4.853124,-3.426574 L 82.09236,38.623366 C 88.946604,31.770219 88.993753,20.713077 82.13951,13.858834 75.292942,7.0122662 64.136019,6.9585375 57.281776,13.812781 l -9.536291,9.536291 c -3.6064,-0.969309 -7.327933,-1.341024 -11.033019,-1.139267 0.60527,-0.759877 1.256593,-1.489052 1.961645,-2.194104 L 51.078855,7.6109571 c 10.273142,-10.2731413 26.943284,-10.2731413 37.216426,0 10.273141,10.2731409 10.273141,26.9421879 -0.0011,37.2153289 z"
     id="path2"
     style="fill:#474747;fill-opacity:1;stroke-width:1.0965035;stroke:none;stroke-opacity:1" /><path
     inkscape:connector-curvature="0"
     d="M 57.280679,75.839791 44.874838,88.245631 C 34.601697,98.518773 18.032433,98.619651 7.7516159,88.337738 -2.5215254,78.064596 -2.6147281,61.302347 7.6584131,51.029206 L 20.063157,38.623366 c 0.706148,-0.706149 1.434227,-1.356375 2.194104,-1.961645 2.900252,-2.326781 6.179893,-3.930965 9.615239,-4.83887 3.116263,-0.85308 6.372878,-1.10089 9.575765,-0.752202 2.977007,0.310311 5.923312,1.132689 8.676632,2.472616 2.588845,1.241242 5.016504,2.939726 7.155782,5.079004 2.139278,2.140375 3.837762,4.566937 5.077908,7.155782 -3.426574,2.435334 -8.217197,2.109673 -11.280828,-0.953958 -3.148062,-3.148062 -7.195256,-4.853125 -11.31153,-5.109706 -2.93863,-0.17873 -5.930988,0.380486 -8.644834,1.683132 -1.759888,0.828957 -3.403547,1.976996 -4.853124,3.426574 L 13.861333,57.23103 c -6.8531464,6.85534 -6.8531464,17.957438 0,24.810585 6.854244,6.85534 17.957438,6.85534 24.810585,0 l 9.536291,-9.536291 c 3.597628,0.961633 7.334512,1.334444 11.033018,1.14146 -0.603077,0.759877 -1.2544,1.487955 -1.960548,2.193007 z"
     id="path4"
     style="fill:#474747;fill-opacity:1;stroke-width:1.097;stroke:none;stroke-opacity:1;stroke-miterlimit:4;stroke-dasharray:none" /></svg>