<?xml version="1.0" encoding="UTF-8" standalone="no"?>
<svg
   xmlns:dc="http://purl.org/dc/elements/1.1/"
   xmlns:cc="http://creativecommons.org/ns#"
   xmlns:rdf="http://www.w3.org/1999/02/22-rdf-syntax-ns#"
   xmlns:svg="http://www.w3.org/2000/svg"
   xmlns="http://www.w3.org/2000/svg"
   xmlns:sodipodi="http://sodipodi.sourceforge.net/DTD/sodipodi-0.dtd"
   xmlns:inkscape="http://www.inkscape.org/namespaces/inkscape"
   enable-background="new 0 0 128 128"
   height="32"
   id="Layer_1"
   version="1.1"
   viewBox="0 0 32 32"
   width="32"
   xml:space="preserve"
   sodipodi:docname="mime-txt.svg"
   inkscape:version="0.92.3 (2405546, 2018-03-11)"><metadata
     id="metadata17"><rdf:RDF><cc:Work
         rdf:about=""><dc:format>image/svg+xml</dc:format><dc:type
           rdf:resource="http://purl.org/dc/dcmitype/StillImage" /><dc:title></dc:title></cc:Work></rdf:RDF></metadata><defs
     id="defs15" /><sodipodi:namedview
     pagecolor="#ffffff"
     bordercolor="#666666"
     borderopacity="1"
     objecttolerance="10"
     gridtolerance="10"
     guidetolerance="10"
     inkscape:pageopacity="0"
     inkscape:pageshadow="2"
     inkscape:window-width="2560"
     inkscape:window-height="1369"
     id="namedview13"
     showgrid="false"
     inkscape:zoom="5.6568542"
     inkscape:cx="42.254066"
     inkscape:cy="-10.393434"
     inkscape:window-x="-11"
     inkscape:window-y="-11"
     inkscape:window-maximized="1"
     inkscape:current-layer="Layer_1" /><path
     d="M 26,0 H 6 C 3.791,0 2,1.791 2,4 v 24 c 0,2.209 1.791,4 4,4 h 20 c 2.209,0 4,-1.791 4,-4 V 4 C 30,1.791 28.209,0 26,0 Z m 2,28 c 0,1.1035 -0.8965,2 -2,2 H 6 C 4.8985,30 4,29.1035 4,28 V 4 C 4,2.8965 4.8985,2 6,2 h 20 c 1.1035,0 2,0.8965 2,2 z"
     id="path2"
     inkscape:connector-curvature="0"
     style="fill:#b4c4cc;stroke-width:0.25;fill-opacity:1" /><rect
     height="2"
     width="16"
     x="8"
     y="6"
     id="rect4"
     style="fill:#909b9e;stroke-width:0.25;fill-opacity:1" /><rect
     height="2"
     width="16"
     x="8"
     y="10"
     id="rect6"
     style="fill:#909b9e;stroke-width:0.25;fill-opacity:1" /><rect
     height="2"
     width="16"
     x="8"
     y="14"
     id="rect8"
     style="fill:#909b9e;stroke-width:0.25;fill-opacity:1" /><rect
     height="2"
     width="8"
     x="8"
     y="18"
     id="rect10"
     style="fill:#909b9e;stroke-width:0.25;fill-opacity:1" /></svg>