<?xml version="1.0" encoding="UTF-8" standalone="no"?>
<svg
   xmlns:dc="http://purl.org/dc/elements/1.1/"
   xmlns:cc="http://creativecommons.org/ns#"
   xmlns:rdf="http://www.w3.org/1999/02/22-rdf-syntax-ns#"
   xmlns:svg="http://www.w3.org/2000/svg"
   xmlns="http://www.w3.org/2000/svg"
   xmlns:sodipodi="http://sodipodi.sourceforge.net/DTD/sodipodi-0.dtd"
   xmlns:inkscape="http://www.inkscape.org/namespaces/inkscape"
   height="50px"
   id="Слой_1"
   style="enable-background:new 0 0 50 50;"
   version="1.1"
   viewBox="0 0 50 50"
   width="50px"
   xml:space="preserve"
   inkscape:version="0.91 r13725"
   sodipodi:docname="modified.svg"><metadata
     id="metadata17"><rdf:RDF><cc:Work
         rdf:about=""><dc:format>image/svg+xml</dc:format><dc:type
           rdf:resource="http://purl.org/dc/dcmitype/StillImage" /><dc:title></dc:title></cc:Work></rdf:RDF></metadata><defs
     id="defs15" /><sodipodi:namedview
     pagecolor="#ffffff"
     bordercolor="#666666"
     borderopacity="1"
     objecttolerance="10"
     gridtolerance="10"
     guidetolerance="10"
     inkscape:pageopacity="0"
     inkscape:pageshadow="2"
     inkscape:window-width="1302"
     inkscape:window-height="968"
     id="namedview13"
     showgrid="false"
     inkscape:zoom="4.72"
     inkscape:cx="25"
     inkscape:cy="25"
     inkscape:window-x="2535"
     inkscape:window-y="202"
     inkscape:window-maximized="0"
     inkscape:current-layer="Слой_1" /><style
     type="text/css"
     id="style3">
	.st0{fill:#374163;}
</style><g
     id="g5"><path
       class="st0"
       d="M14.50651,49.94455H2.30159c-1.2725,0-2.30156-1.03091-2.30156-2.30156V35.54503   c0-0.61043,0.24343-1.19689,0.67498-1.62843L33.86693,0.72836c0.89628-0.89075,2.34951-0.90181,3.24579-0.00553l12.20492,12.09796   C49.75288,13.25049,50,13.83694,50,14.44922c0,0.61227-0.23975,1.20057-0.67498,1.63396L16.13309,49.27142   C15.70155,49.70296,15.1151,49.94455,14.50651,49.94455z M4.60315,45.34143h8.95175l30.8793-30.8793l-8.93331-8.8577   L4.60315,36.49849V45.34143z"
       id="path7" /><path
       class="st0"
       d="M14.50651,49.94455c-0.58646,0-1.17291-0.22131-1.61921-0.6676L0.68238,37.17899   c-0.90366-0.89444-0.91104-2.35136-0.01475-3.25501c0.89259-0.90181,2.3532-0.91472,3.25317-0.01291l12.20492,12.09796   c0.90366,0.89444,0.91104,2.35136,0.01476,3.25501C15.69049,49.71772,15.10034,49.94455,14.50651,49.94455z"
       id="path9" /><path
       class="st0"
       d="M39.88271,24.57204c-0.59383,0-1.18398-0.22684-1.63396-0.68051L26.15079,11.68661   c-0.89628-0.90366-0.88891-2.36058,0.01475-3.25501c0.89628-0.89997,2.36058-0.8889,3.25317,0.01291l12.09796,12.20492   c0.89628,0.90366,0.88891,2.36058-0.01475,3.25501C41.05563,24.35073,40.46917,24.57204,39.88271,24.57204z"
       id="path11" /></g></svg>