<?xml version="1.0" encoding="UTF-8" standalone="no"?>
<svg
   xmlns:dc="http://purl.org/dc/elements/1.1/"
   xmlns:cc="http://creativecommons.org/ns#"
   xmlns:rdf="http://www.w3.org/1999/02/22-rdf-syntax-ns#"
   xmlns:svg="http://www.w3.org/2000/svg"
   xmlns="http://www.w3.org/2000/svg"
   xmlns:sodipodi="http://sodipodi.sourceforge.net/DTD/sodipodi-0.dtd"
   xmlns:inkscape="http://www.inkscape.org/namespaces/inkscape"
   enable-background="new 0 0 50 50"
   height="50px"
   id="Layer_1"
   version="1.1"
   viewBox="0 0 50 50"
   width="50px"
   xml:space="preserve"
   sodipodi:docname="remote-folder.svg"
   inkscape:version="0.92.1 r15371"><metadata
     id="metadata13"><rdf:RDF><cc:Work
         rdf:about=""><dc:format>image/svg+xml</dc:format><dc:type
           rdf:resource="http://purl.org/dc/dcmitype/StillImage" /><dc:title></dc:title></cc:Work></rdf:RDF></metadata><defs
     id="defs11" /><sodipodi:namedview
     pagecolor="#ffffff"
     bordercolor="#666666"
     borderopacity="1"
     objecttolerance="10"
     gridtolerance="10"
     guidetolerance="10"
     inkscape:pageopacity="0"
     inkscape:pageshadow="2"
     inkscape:window-width="1840"
     inkscape:window-height="1018"
     id="namedview9"
     showgrid="false"
     inkscape:zoom="4.72"
     inkscape:cx="-83.83533"
     inkscape:cy="15.783899"
     inkscape:window-x="1985"
     inkscape:window-y="63"
     inkscape:window-maximized="0"
     inkscape:current-layer="Layer_1" /><g
     id="g824"
     transform="matrix(0.97547862,0,0,1.1420288,0.61484937,-4.1217332)"
     style="fill:none;stroke:#474747;stroke-width:2.7817347;stroke-miterlimit:4;stroke-dasharray:none;stroke-opacity:1"><path
       style="fill:none;fill-opacity:1;stroke:#474747;stroke-width:2.7817347;stroke-linecap:round;stroke-miterlimit:4;stroke-dasharray:none;stroke-opacity:1"
       id="path4"
       stroke-miterlimit="10"
       d="M 46,15 V 11 C 46,9.896 45.104,9 44,9 44,9 19.352,9 18,9 16.531,9 15.516,5 14,5 H 3 C 1.896,5 1,5.896 1,7 v 4 29 4 c 0,1.104 0.896,2 2,2 h 39 c 1.104,0 2,-0.896 2,-2"
       inkscape:connector-curvature="0" /><path
       style="fill:none;fill-opacity:1;stroke:#474747;stroke-width:2.7817347;stroke-linecap:round;stroke-miterlimit:4;stroke-dasharray:none;stroke-opacity:1"
       id="path6"
       stroke-miterlimit="10"
       d="M 1,44 6,17 c 0,-1.104 0.896,-2 2,-2 h 39 c 1.104,0 2,0.896 2,2 l -5,27"
       inkscape:connector-curvature="0" /></g><g
     transform="translate(12.900099,18.932203)"
     id="g828"><path
       style="fill:#f05133;fill-opacity:1"
       d="M 13,13 V 8 H 10.1 C 10.1,8 9.4,8.1 9.2,7.6 9,7.1 9.5,6.6 9.5,6.6 L 16.1,0 22.6,6.5 c 0,0 0.7,0.5 0.5,1.1 -0.2,0.6 -1,0.4 -1,0.4 H 19 v 5 c 0,0.6 -0.3,1 -0.9,1 h -4 C 13.6,14 13,13.6 13,13 Z m 2,-1 h 2 V 6 h 2.1 L 16.2,3 13.1,6 H 15 Z"
       id="path5"
       inkscape:connector-curvature="0" /><path
       style="fill:#f05133;fill-opacity:1"
       d="M 1.1,16.4 C 1.3,15.9 2.1,16 2.1,16 H 5 v -5 c 0,-0.6 0.5,-1 1,-1 h 4 c 0.6,0 1,0.4 1,1 v 5 h 3.1 c 0,0 0.7,-0.1 0.9,0.4 0.2,0.5 -0.3,1 -0.3,1 L 8,24 1.5,17.5 C 1.6,17.5 0.9,17 1.1,16.4 Z M 8,21 11.1,18 H 9 V 12 H 7 v 6 H 5.1 Z"
       id="path7"
       inkscape:connector-curvature="0" /></g></svg>