<?xml version="1.0" encoding="UTF-8" standalone="no"?>
<svg
   xmlns:dc="http://purl.org/dc/elements/1.1/"
   xmlns:cc="http://creativecommons.org/ns#"
   xmlns:rdf="http://www.w3.org/1999/02/22-rdf-syntax-ns#"
   xmlns:svg="http://www.w3.org/2000/svg"
   xmlns="http://www.w3.org/2000/svg"
   xmlns:sodipodi="http://sodipodi.sourceforge.net/DTD/sodipodi-0.dtd"
   xmlns:inkscape="http://www.inkscape.org/namespaces/inkscape"
   role="img"
   viewBox="0 0 24 24"
   version="1.1"
   id="svg6"
   sodipodi:docname="rust.svg"
   inkscape:version="0.92.4 (5da689c313, 2019-01-14)">
  <metadata
     id="metadata12">
    <rdf:RDF>
      <cc:Work
         rdf:about="">
        <dc:format>image/svg+xml</dc:format>
        <dc:type
           rdf:resource="http://purl.org/dc/dcmitype/StillImage" />
        <dc:title></dc:title>
      </cc:Work>
    </rdf:RDF>
  </metadata>
  <defs
     id="defs10" />
  <sodipodi:namedview
     pagecolor="#ffffff"
     bordercolor="#666666"
     borderopacity="1"
     objecttolerance="10"
     gridtolerance="10"
     guidetolerance="10"
     inkscape:pageopacity="0"
     inkscape:pageshadow="2"
     inkscape:window-width="1088"
     inkscape:window-height="921"
     id="namedview8"
     showgrid="false"
     showborder="true"
     inkscape:showpageshadow="false"
     inkscape:zoom="5.6568542"
     inkscape:cx="23.653363"
     inkscape:cy="-1.9375542"
     inkscape:window-x="84"
     inkscape:window-y="33"
     inkscape:window-maximized="0"
     inkscape:current-layer="svg6" />
  <path
     d="m 23.69,11.706948 -0.995,-0.616 a 13.559,13.559 0 0 0 -0.028,-0.29 l 0.855,-0.797 A 0.344,0.344 0 0 0 23.408,9.4329481 l -1.093,-0.409 a 8.392,8.392 0 0 0 -0.086,-0.282 l 0.682,-0.947 a 0.342,0.342 0 0 0 -0.223,-0.538 l -1.152,-0.187 a 9.243,9.243 0 0 0 -0.139,-0.259 l 0.484,-1.063 c 0.05,-0.108 0.039,-0.234 -0.027,-0.332 -0.066,-0.098 -0.178,-0.156 -0.297,-0.152 l -1.17,0.041 a 6.662,6.662 0 0 0 -0.185,-0.224 l 0.269,-1.139 a 0.343,0.343 0 0 0 -0.412,-0.412 l -1.139,0.269 a 13.847,13.847 0 0 0 -0.225,-0.185 l 0.041,-1.17 a 0.34,0.34 0 0 0 -0.484,-0.324 l -1.063,0.485 c -0.086,-0.047 -0.172,-0.094 -0.259,-0.139 l -0.188,-1.153 a 0.344,0.344 0 0 0 -0.538,-0.223 l -0.948,0.682 a 8.383,8.383 0 0 0 -0.282,-0.085 L 14.565,0.59394811 a 0.344,0.344 0 0 0 -0.571,-0.114 L 13.197,1.3359481 a 9.18,9.18 0 0 0 -0.29,-0.028 L 12.291,0.31294811 a 0.342,0.342 0 0 0 -0.582,0 L 11.093,1.3079481 c -0.097,0.008 -0.194,0.018 -0.29,0.028 L 10.005,0.47994811 a 0.342,0.342 0 0 0 -0.571,0.114 L 9.025,1.6869481 c -0.095,0.027 -0.188,0.056 -0.282,0.085 l -0.947,-0.682 a 0.344,0.344 0 0 0 -0.538,0.223 l -0.188,1.153 a 9.243,9.243 0 0 0 -0.259,0.139 l -1.063,-0.485 a 0.342,0.342 0 0 0 -0.484,0.324 l 0.041,1.17 c -0.076,0.06 -0.151,0.122 -0.225,0.185 l -1.139,-0.269 a 0.343,0.343 0 0 0 -0.412,0.412 l 0.268,1.139 c -0.062,0.074 -0.124,0.149 -0.184,0.224 l -1.17,-0.041 a 0.342,0.342 0 0 0 -0.324,0.484 l 0.485,1.063 a 9.055,9.055 0 0 0 -0.139,0.259 l -1.152,0.187 a 0.344,0.344 0 0 0 -0.223,0.538 l 0.682,0.947 c -0.03,0.094 -0.058,0.187 -0.086,0.282 l -1.093,0.409 A 0.344,0.344 0 0 0 0.479,10.003948 l 0.855,0.797 a 9.18,9.18 0 0 0 -0.028,0.29 l -0.995,0.616 a 0.34,0.34 0 0 0 0,0.582 l 0.995,0.616 c 0.008,0.097 0.018,0.194 0.028,0.29 l -0.855,0.798 a 0.342,0.342 0 0 0 0.114,0.571 l 1.093,0.409 c 0.027,0.095 0.056,0.189 0.086,0.282 l -0.682,0.947 a 0.341,0.341 0 0 0 0.224,0.538 l 1.152,0.187 c 0.045,0.087 0.091,0.173 0.139,0.259 l -0.485,1.063 a 0.342,0.342 0 0 0 0.324,0.484 l 1.169,-0.041 c 0.061,0.076 0.122,0.151 0.185,0.225 l -0.268,1.14 a 0.342,0.342 0 0 0 0.412,0.411 l 1.139,-0.268 c 0.074,0.063 0.149,0.124 0.225,0.184 l -0.041,1.17 a 0.34,0.34 0 0 0 0.484,0.323 l 1.063,-0.484 c 0.086,0.048 0.172,0.094 0.259,0.139 l 0.188,1.152 a 0.344,0.344 0 0 0 0.538,0.224 l 0.947,-0.682 c 0.094,0.03 0.187,0.059 0.282,0.086 l 0.409,1.093 a 0.341,0.341 0 0 0 0.571,0.114 l 0.798,-0.855 c 0.096,0.011 0.193,0.02 0.29,0.029 l 0.616,0.995 a 0.343,0.343 0 0 0 0.582,0 l 0.616,-0.995 c 0.097,-0.009 0.194,-0.018 0.29,-0.029 l 0.797,0.855 a 0.344,0.344 0 0 0 0.571,-0.114 l 0.409,-1.093 c 0.095,-0.027 0.189,-0.056 0.282,-0.086 l 0.947,0.682 a 0.341,0.341 0 0 0 0.538,-0.224 l 0.188,-1.152 c 0.087,-0.045 0.173,-0.092 0.259,-0.139 l 1.063,0.484 a 0.343,0.343 0 0 0 0.484,-0.323 l -0.041,-1.17 c 0.076,-0.06 0.151,-0.121 0.224,-0.184 l 1.139,0.268 a 0.343,0.343 0 0 0 0.412,-0.411 l -0.268,-1.14 c 0.062,-0.074 0.124,-0.149 0.184,-0.225 l 1.17,0.041 a 0.34,0.34 0 0 0 0.324,-0.484 l -0.484,-1.063 c 0.047,-0.086 0.094,-0.172 0.139,-0.259 l 1.152,-0.187 a 0.344,0.344 0 0 0 0.223,-0.538 l -0.682,-0.947 0.086,-0.282 1.093,-0.409 a 0.342,0.342 0 0 0 0.114,-0.571 l -0.855,-0.798 c 0.01,-0.096 0.02,-0.193 0.028,-0.29 l 0.995,-0.616 a 0.34,0.34 0 0 0 0,-0.582 z m -6.659,8.253 a 0.70510035,0.70510035 0 0 1 0.295,-1.379 0.70520511,0.70520511 0 1 1 -0.296,1.379 z m -0.338,-2.286 a 0.641,0.641 0 0 0 -0.762,0.494 l -0.353,1.648 c -1.09,0.495 -2.3,0.77 -3.575,0.77 a 8.63,8.63 0 0 1 -3.65,-0.804 L 8,18.133948 a 0.64,0.64 0 0 0 -0.762,-0.493 l -1.455,0.312 a 8.615,8.615 0 0 1 -0.752,-0.887 h 7.08 c 0.08,0 0.134,-0.014 0.134,-0.087 v -2.505 c 0,-0.073 -0.053,-0.087 -0.134,-0.087 H 10.04 v -1.588 h 2.24 c 0.204,0 1.093,0.058 1.377,1.194 0.089,0.349 0.284,1.486 0.418,1.85 0.133,0.408 0.675,1.223 1.253,1.223 h 3.528 a 0.74,0.74 0 0 0 0.128,-0.013 8.68,8.68 0 0 1 -0.802,0.941 z m -9.793,2.252 a 0.70520511,0.70520511 0 1 1 -0.296,-1.379 0.70520511,0.70520511 0 0 1 0.296,1.379 z M 4.214,9.0339481 a 0.705,0.705 0 1 1 -1.288,0.572 0.705,0.705 0 0 1 1.288,-0.572 z m -0.825,1.9569999 1.516,-0.674 A 0.642,0.642 0 0 0 5.231,9.4689481 l -0.312,-0.706 H 6.147 V 14.296948 H 3.67 a 8.668,8.668 0 0 1 -0.28,-3.307 z m 6.652,-0.537 V 8.8229481 h 2.924 c 0.151,0 1.066,0.175 1.066,0.859 0,0.5679999 -0.702,0.7719999 -1.279,0.7719999 z m 10.626,1.468 c 0,0.216 -0.008,0.431 -0.024,0.643 h -0.889 c -0.089,0 -0.125,0.058 -0.125,0.146 v 0.408 c 0,0.961 -0.542,1.17 -1.017,1.223 -0.452,0.051 -0.953,-0.189 -1.015,-0.466 -0.267,-1.5 -0.711,-1.821 -1.413,-2.374 0.871,-0.553 1.777,-1.369 1.777,-2.4609999 0,-1.179 -0.809,-1.922 -1.36,-2.287 -0.773,-0.51 -1.629,-0.612 -1.86,-0.612 H 5.548 a 8.658,8.658 0 0 1 4.847,-2.736 l 1.084,1.137 a 0.64,0.64 0 0 0 0.907,0.021 l 1.212,-1.16 a 8.668,8.668 0 0 1 5.931,4.224 l -0.83,1.875 a 0.644,0.644 0 0 0 0.326,0.8479999 l 1.598,0.71 c 0.028,0.284 0.042,0.57 0.042,0.861 z M 11.48,2.4399481 a 0.70412091,0.70412091 0 1 1 0.972,1.019 0.705,0.705 0 0 1 -0.972,-1.019 z m 8.237,6.628 c 0.157,-0.356 0.573,-0.516 0.928,-0.358 a 0.705,0.705 0 1 1 -0.929,0.359 z"
     id="path4"
     inkscape:connector-curvature="0" />
</svg>
