<?xml version="1.0" encoding="UTF-8" standalone="no"?>
<!DOCTYPE svg PUBLIC "-//W3C//DTD SVG 20010904//EN"
"http://www.w3.org/TR/2001/REC-SVG-20010904/DTD/svg10.dtd">
<!-- Created with Inkscape (http://www.inkscape.org/) --><svg height="60.000000" id="svg1" inkscape:version="0.38.1" sodipodi:docbase="/home/danny/flat/scalable/actions" sodipodi:docname="spellcheck_from_cursor.svg" sodipodi:version="0.32" version="1.0" width="60.000000" x="0.0000000" xmlns="http://www.w3.org/2000/svg" xmlns:inkscape="http://www.inkscape.org/namespaces/inkscape" xmlns:sodipodi="http://sodipodi.sourceforge.net/DTD/sodipodi-0.dtd" xmlns:xlink="http://www.w3.org/1999/xlink" y="0.0000000">
  <metadata>
    <rdf:RDF xmlns:cc="http://web.resource.org/cc/" xmlns:dc="http://purl.org/dc/elements/1.1/" xmlns:rdf="http://www.w3.org/1999/02/22-rdf-syntax-ns#">
      <cc:Work rdf:about="">
        <dc:title>Part of the Flat Icon Collection (Wed Aug 25 23:29:46 2004)</dc:title>
        <dc:description></dc:description>
        <dc:subject>
          <rdf:Bag>
            <rdf:li>hash</rdf:li>
            <rdf:li></rdf:li>
            <rdf:li>action</rdf:li>
            <rdf:li>computer</rdf:li>
            <rdf:li>icons</rdf:li>
            <rdf:li>theme</rdf:li>
          </rdf:Bag>
        </dc:subject>
        <dc:publisher>
          <cc:Agent rdf:about="http://www.openclipart.org/">
            <dc:title>Danny Allen</dc:title>
          </cc:Agent>
        </dc:publisher>
        <dc:creator>
          <cc:Agent>
            <dc:title>Danny Allen</dc:title>
          </cc:Agent>
        </dc:creator>
        <dc:rights>
          <cc:Agent>
            <dc:title>Danny Allen</dc:title>
          </cc:Agent>
        </dc:rights>
        <dc:date></dc:date>
        <dc:format>image/svg+xml</dc:format>
        <dc:type rdf:resource="http://purl.org/dc/dcmitype/StillImage"/>
        <cc:license rdf:resource="http://web.resource.org/cc/PublicDomain"/>
        <dc:language>en</dc:language>
      </cc:Work>
      <cc:License rdf:about="http://web.resource.org/cc/PublicDomain">
        <cc:permits rdf:resource="http://web.resource.org/cc/Reproduction"/>
        <cc:permits rdf:resource="http://web.resource.org/cc/Distribution"/>
        <cc:permits rdf:resource="http://web.resource.org/cc/DerivativeWorks"/>
      </cc:License>
    </rdf:RDF>
  </metadata>
  <sodipodi:namedview bordercolor="#666666" borderopacity="1.0" id="base" inkscape:cx="46.985006" inkscape:cy="36.420884" inkscape:pageopacity="0.0" inkscape:pageshadow="2" inkscape:window-height="693" inkscape:window-width="1016" inkscape:window-x="0" inkscape:window-y="0" inkscape:zoom="6.9465338" pagecolor="#ffffff"/>
  <defs id="defs3">
    <linearGradient id="linearGradient900">
      <stop id="stop901" offset="0.0000000" style="stop-color:#000000;stop-opacity:1.0000000;"/>
      <stop id="stop902" offset="1.0000000" style="stop-color:#ffffff;stop-opacity:1.0000000;"/>
    </linearGradient>
    <linearGradient id="linearGradient903" xlink:href="#linearGradient900"/>
    <linearGradient id="linearGradient904" xlink:href="#linearGradient900"/>
    <linearGradient id="linearGradient905" xlink:href="#linearGradient900"/>
    <linearGradient id="linearGradient906" xlink:href="#linearGradient900"/>
    <linearGradient id="linearGradient907" xlink:href="#linearGradient900"/>
  </defs>
  <path d="M 3.9753458,3.9788378 L 12.127751,3.9788378 M 8.2456538,3.9788378 L 8.2456538,31.618753 M 3.9753458,32.365777 L 12.321856,32.365777" id="path862" sodipodi:nodetypes="cccccc" sodipodi:stroke-cmyk="(0.0000000 0.0000000 0.0000000 0.80000001)" style="fill:none;fill-opacity:0.75000000;fill-rule:evenodd;stroke:#333333;stroke-width:2.5000000;stroke-linecap:round;stroke-linejoin:round;stroke-dasharray:none;"/>
  <path d="M 40.801704,20.549405 C 40.801704,19.354178 41.057285,18.252916 41.568452,17.245619 C 42.079617,16.230804 42.793746,15.433986 43.710840,14.855166 C 44.635448,14.276346 45.687849,13.986935 46.868043,13.986935 C 47.491965,13.986935 48.134681,14.062106 48.796191,14.212449 C 49.457699,14.355276 50.013969,14.603341 50.464998,14.956647 C 50.916027,15.309954 51.141541,15.787293 51.141541,16.388664 C 51.141541,16.869762 50.998715,17.271929 50.713063,17.595166 C 50.434928,17.918403 50.085382,18.080022 49.664423,18.080022 C 49.461459,18.080022 49.262253,18.046195 49.066808,17.978541 C 48.878878,17.910887 48.687192,17.839474 48.491746,17.764302 C 48.303816,17.681614 48.100854,17.613959 47.882857,17.561339 C 47.672376,17.508720 47.405517,17.482409 47.082282,17.482409 C 46.495943,17.482409 45.999812,17.621477 45.593884,17.899612 C 45.195476,18.170227 44.894790,18.538568 44.691827,19.004631 C 44.496382,19.463177 44.398658,19.978103 44.398658,20.549405 C 44.398658,21.105674 44.496382,21.624358 44.691827,22.105455 C 44.887273,22.579035 45.169165,22.954892 45.537505,23.233027 C 45.913365,23.511161 46.356877,23.650228 46.868043,23.650228 C 47.446863,23.650228 48.029441,23.541230 48.615780,23.323233 C 49.202115,23.105235 49.551664,22.996237 49.664423,22.996237 C 49.935039,22.996237 50.183105,23.075167 50.408618,23.233027 C 50.634133,23.390886 50.810787,23.597609 50.938578,23.853192 C 51.073886,24.101258 51.141541,24.356840 51.141541,24.619941 C 51.141541,25.176210 50.897234,25.646032 50.408618,26.029407 C 49.927521,26.412782 49.352459,26.690915 48.683433,26.863809 C 48.014408,27.044223 47.409277,27.134428 46.868043,27.134428 C 45.973502,27.134428 45.154133,26.969050 44.409934,26.638295 C 43.673253,26.307540 43.030537,25.837720 42.481786,25.228830 C 41.933032,24.612424 41.515833,23.905811 41.230180,23.108994 C 40.944529,22.304659 40.801704,21.451463 40.801704,20.549405 z M 27.958654,25.003316 L 27.958654,10.694424 C 27.958654,10.153190 28.127789,9.7021605 28.466062,9.3413364 C 28.804334,8.9805133 29.232810,8.8001022 29.751493,8.8001022 C 30.277695,8.8001022 30.709930,8.9805133 31.048200,9.3413364 C 31.386475,9.7021605 31.555610,10.153190 31.555610,10.694424 L 31.555610,15.013026 C 31.961537,14.674754 32.382496,14.419171 32.818490,14.246277 C 33.262003,14.073383 33.833305,13.986935 34.532400,13.986935 C 35.554732,13.986935 36.490617,14.280104 37.340057,14.866442 C 38.197010,15.445262 38.869796,16.242080 39.358410,17.256894 C 39.854541,18.264191 40.102608,19.361696 40.102608,20.549405 C 40.102608,21.474015 39.963540,22.327211 39.685406,23.108994 C 39.414789,23.890778 39.020139,24.589873 38.501455,25.206279 C 37.982772,25.822685 37.388916,26.300023 36.719891,26.638295 C 36.050865,26.969050 35.321702,27.134428 34.532400,27.134428 C 33.855857,27.134428 33.273276,27.025428 32.784663,26.807431 C 32.296050,26.596952 31.848778,26.243645 31.442854,25.747513 C 31.292510,26.070750 31.074511,26.345128 30.788860,26.570641 C 30.510727,26.788639 30.164937,26.897636 29.751493,26.897636 C 29.225293,26.897636 28.793057,26.717225 28.454786,26.356402 C 28.124030,25.988064 27.958654,25.537034 27.958654,25.003316 z M 34.024992,17.482409 C 33.258244,17.482409 32.653114,17.775579 32.209602,18.361915 C 31.773607,18.948253 31.555610,19.677416 31.555610,20.549405 C 31.555610,21.105674 31.653333,21.624358 31.848778,22.105455 C 32.044225,22.579035 32.326117,22.954892 32.694458,23.233027 C 33.070317,23.511161 33.513826,23.650228 34.024992,23.650228 C 34.799258,23.650228 35.404389,23.357059 35.840385,22.770722 C 36.276379,22.176868 36.494377,21.436429 36.494377,20.549405 C 36.494377,19.669898 36.276379,18.940735 35.840385,18.361915 C 35.404389,17.775579 34.799258,17.482409 34.024992,17.482409 z M 26.425156,16.095496 L 26.425156,25.003316 C 26.425156,25.544551 26.256020,25.995580 25.917748,26.356402 C 25.579478,26.717225 25.147240,26.897636 24.621040,26.897636 C 24.207597,26.897636 23.858049,26.784879 23.572398,26.559366 C 23.294264,26.333850 23.083784,26.063234 22.940957,25.747513 C 22.535030,26.243645 22.084000,26.596952 21.587870,26.807431 C 21.099257,27.025428 20.516677,27.134428 19.840133,27.134428 C 18.810282,27.134428 17.870639,26.845017 17.021203,26.266196 C 16.179282,25.679859 15.510256,24.883041 15.014123,23.875742 C 14.525509,22.860928 14.281202,21.752149 14.281202,20.549405 C 14.281202,19.361696 14.525509,18.264191 15.014123,17.256894 C 15.510256,16.242080 16.183040,15.445262 17.032478,14.866442 C 17.881916,14.280104 18.817801,13.986935 19.840133,13.986935 C 20.524193,13.986935 21.106774,14.092176 21.587870,14.302656 C 22.076485,14.513135 22.527514,14.870200 22.940957,15.373849 C 23.076265,15.065646 23.286746,14.798788 23.572398,14.573272 C 23.858049,14.340241 24.207597,14.223725 24.621040,14.223725 C 25.147240,14.223725 25.579478,14.404137 25.917748,14.764961 C 26.256020,15.118266 26.425156,15.561777 26.425156,16.095496 z M 20.347542,17.482409 C 19.580791,17.482409 18.975661,17.775579 18.532148,18.361915 C 18.096156,18.948253 17.878156,19.677416 17.878156,20.549405 C 17.878156,21.105674 17.975881,21.624358 18.171326,22.105455 C 18.366773,22.579035 18.648664,22.954892 19.017004,23.233027 C 19.392863,23.511161 19.836375,23.650228 20.347542,23.650228 C 21.121807,23.650228 21.726937,23.357059 22.162933,22.770722 C 22.598926,22.176868 22.816925,21.436429 22.816925,20.549405 C 22.816925,19.669898 22.598926,18.940735 22.162933,18.361915 C 21.726937,17.775579 21.121807,17.482409 20.347542,17.482409 z " id="path837" style="font-size:12.000000;font-weight:900;fill:#333333;stroke-width:1.0000000pt;font-family:VAG Rounded Black SSi;"/>
  <path d="M 25.833384,43.158714 C 29.834961,46.800326 32.421102,50.078069 36.701561,57.674305 C 46.007162,34.185375 58.748989,28.154795 57.132681,27.114915 C 53.863696,24.921405 37.959467,43.308032 36.036628,45.733591 C 33.723598,44.508973 25.833384,40.228556 25.833384,43.158714 z " id="path840" sodipodi:nodetypes="ccccc" sodipodi:stroke-cmyk="(0 0 0 0.8)" style="font-size:12.000000;fill:#b3b3b3;fill-rule:evenodd;stroke:#333333;stroke-width:1.8750000;stroke-linecap:round;stroke-linejoin:round;stroke-dasharray:none;"/>
</svg>
