<?xml version="1.0" encoding="UTF-8" standalone="no"?>
<svg
   xmlns:dc="http://purl.org/dc/elements/1.1/"
   xmlns:cc="http://creativecommons.org/ns#"
   xmlns:rdf="http://www.w3.org/1999/02/22-rdf-syntax-ns#"
   xmlns:svg="http://www.w3.org/2000/svg"
   xmlns="http://www.w3.org/2000/svg"
   xmlns:sodipodi="http://sodipodi.sourceforge.net/DTD/sodipodi-0.dtd"
   xmlns:inkscape="http://www.inkscape.org/namespaces/inkscape"
   data-name="Layer 1"
   id="Layer_1"
   viewBox="0 0 32 32"
   version="1.1"
   sodipodi:docname="step_in.svg"
   inkscape:version="0.92.3 (2405546, 2018-03-11)">
  <metadata
     id="metadata13">
    <rdf:RDF>
      <cc:Work
         rdf:about="">
        <dc:format>image/svg+xml</dc:format>
        <dc:type
           rdf:resource="http://purl.org/dc/dcmitype/StillImage" />
      </cc:Work>
    </rdf:RDF>
  </metadata>
  <sodipodi:namedview
     pagecolor="#ffffff"
     bordercolor="#666666"
     borderopacity="1"
     objecttolerance="10"
     gridtolerance="10"
     guidetolerance="10"
     inkscape:pageopacity="0"
     inkscape:pageshadow="2"
     inkscape:window-width="2041"
     inkscape:window-height="1108"
     id="namedview11"
     showgrid="false"
     inkscape:zoom="7.375"
     inkscape:cx="-76.745763"
     inkscape:cy="14.779662"
     inkscape:window-x="157"
     inkscape:window-y="171"
     inkscape:window-maximized="0"
     inkscape:current-layer="Layer_1" />
  <defs
     id="defs4">
    <style
       id="style2">.cls-1{fill:#ba63c6;}</style>
  </defs>
  <title
     id="title6" />
  <path
     class="cls-1"
     d="M 3.4776748,2.9954182e-4 A 2.2844108,2.2844108 0 0 1 5.7620857,2.2847105 V 14.84897 c 0,3.118221 1.4506009,4.568821 4.5688213,4.568821 H 24.128749 L 21.844338,18.275586 18.90887,15.340118 a 2.2856812,2.2856812 0 0 1 3.232441,-3.232441 l 7.995438,7.995438 a 2.2844108,2.2844108 0 0 1 0,3.232441 l -7.995438,7.995438 A 2.2856812,2.2856812 0 0 1 18.90887,28.098553 l 3.083955,-2.969734 2.215878,-1.142206 H 10.330907 c -5.6310723,0 -9.137643,-3.506571 -9.137643,-9.137643 V 2.2847105 A 2.2844108,2.2844108 0 0 1 3.4776748,2.9954182e-4 Z"
     id="path8"
     inkscape:connector-curvature="0"
     style="fill:#474747;fill-opacity:1;stroke-width:1.14220548" />
</svg>
