<?xml version="1.0" encoding="UTF-8" standalone="no"?>
<svg
   xmlns:dc="http://purl.org/dc/elements/1.1/"
   xmlns:cc="http://creativecommons.org/ns#"
   xmlns:rdf="http://www.w3.org/1999/02/22-rdf-syntax-ns#"
   xmlns:svg="http://www.w3.org/2000/svg"
   xmlns="http://www.w3.org/2000/svg"
   xmlns:sodipodi="http://sodipodi.sourceforge.net/DTD/sodipodi-0.dtd"
   xmlns:inkscape="http://www.inkscape.org/namespaces/inkscape"
   enable-background="new 0 0 24 24"
   height="24px"
   id="Layer_1"
   version="1.1"
   viewBox="0 0 24 24"
   width="24px"
   xml:space="preserve"
   sodipodi:docname="stop.svg"
   inkscape:version="0.92.3 (2405546, 2018-03-11)"><metadata
     id="metadata13"><rdf:RDF><cc:Work
         rdf:about=""><dc:format>image/svg+xml</dc:format><dc:type
           rdf:resource="http://purl.org/dc/dcmitype/StillImage" /><dc:title /></cc:Work></rdf:RDF></metadata><defs
     id="defs11"><pattern
       y="0"
       x="0"
       height="6"
       width="6"
       patternUnits="userSpaceOnUse"
       id="EMFhbasepattern" /></defs><sodipodi:namedview
     pagecolor="#ffffff"
     bordercolor="#666666"
     borderopacity="1"
     objecttolerance="10"
     gridtolerance="10"
     guidetolerance="10"
     inkscape:pageopacity="0"
     inkscape:pageshadow="2"
     inkscape:window-width="1481"
     inkscape:window-height="920"
     id="namedview9"
     showgrid="false"
     inkscape:zoom="9.8333333"
     inkscape:cx="6.1582315"
     inkscape:cy="12.508474"
     inkscape:window-x="0"
     inkscape:window-y="0"
     inkscape:window-maximized="0"
     inkscape:current-layer="Layer_1" /><path
     id="path819"
     d="M 12,8.9e-5 C 5.440049,8.9e-5 8.9e-5,5.440048 8.9e-5,12 8.9e-5,18.639951 5.440049,23.999911 12,23.999911 18.639951,23.999911 23.999911,18.639951 23.999911,12 23.999911,5.440048 18.639951,8.9e-5 12,8.9e-5 Z m 0,21.999837 C 6.480041,21.999926 2.000074,17.519959 2.000074,12 2.000074,6.480041 6.480041,2.000074 12,2.000074 c 5.519959,0 9.999926,4.479967 9.999926,9.999926 0,5.519959 -4.479967,9.999926 -9.999926,9.999926 z"
     style="fill:#474747;fill-opacity:1;fill-rule:nonzero;stroke:none"
     inkscape:connector-curvature="0" /><path
     id="path821"
     d="m 15.839971,9.120021 c 0,-0.559996 -0.399997,-0.959993 -0.959992,-0.959993 H 9.1200205 c -0.559995,0 -0.959992,0.399997 -0.959992,0.959993 v 5.759958 c 0,0.559996 0.399997,0.959993 0.959992,0.959993 h 5.7599585 c 0.559995,0 0.959992,-0.399997 0.959992,-0.959993 z m -0.959992,5.759958 H 9.1200205 V 9.120021 h 5.7599575 z"
     style="fill:none;stroke:#474747;stroke-width:0.95999289px;stroke-linecap:butt;stroke-linejoin:miter;stroke-miterlimit:4;stroke-dasharray:none;stroke-opacity:1"
     inkscape:connector-curvature="0" /><path
     id="path823"
     d="m 9.120021,9.120021 h 5.759958 v 5.759958 H 9.120021 Z"
     style="fill:#474747;fill-opacity:1;fill-rule:nonzero;stroke:#474747;stroke-width:1.03999233px;stroke-linecap:butt;stroke-linejoin:miter;stroke-miterlimit:4;stroke-dasharray:none;stroke-opacity:1"
     inkscape:connector-curvature="0" /></svg>