<?xml version="1.0" encoding="utf-8"?>
<!-- Generator: Adobe Illustrator 16.0.4, SVG Export Plug-In . SVG Version: 6.00 Build 0)  -->
<!DOCTYPE svg PUBLIC "-//W3C//DTD SVG 1.1//EN" "http://www.w3.org/Graphics/SVG/1.1/DTD/svg11.dtd">
<svg version="1.1" xmlns="http://www.w3.org/2000/svg" xmlns:xlink="http://www.w3.org/1999/xlink" x="0px" y="0px"
	 width="285.334px" height="285.335px" viewBox="0 0 285.334 285.335" enable-background="new 0 0 285.334 285.335"
	 xml:space="preserve">
<g id="Layer_2" display="none">
</g>
<g id="Layer_3" display="none">
</g>
<g id="Subversion_Logo">
	<g>
		<path fill="#809CC9" d="M192.082,145.391c-7.196,0.077-17.106,0.584-29.756,1.518c-12.679,0.941-28.425,2.4-47.243,4.371
			c-29.191,3.127-53.445,5.49-72.734,7.096c-19.625,1.35-32.51,1.922-41.228,2.244c2.474,19.697,8.969,38.141,18.627,54.494
			c36.006-6.886,78.747-16.748,102.149-22.646c30.356-7.648,53.745-15.07,70.161-22.275c16.412-7.205,23.994-13.277,22.741-18.23
			C213.714,147.674,206.133,145.485,192.082,145.391z M30.31,194.402c-0.492,0.457-1.057,0.684-1.694,0.684
			c-0.337,0-0.652-0.062-0.944-0.186c-0.291-0.123-0.548-0.293-0.768-0.508c-0.221-0.215-0.393-0.467-0.517-0.764
			c-0.124-0.293-0.184-0.607-0.184-0.947c0-0.664,0.233-1.232,0.701-1.701c0.48-0.467,1.064-0.703,1.752-0.703
			c0.635,0,1.186,0.244,1.654,0.725c0.466,0.471,0.702,1.035,0.702,1.699S30.776,193.932,30.31,194.402z M30.31,178.92
			c-0.468,0.465-1.032,0.699-1.694,0.699c-0.674,0-1.245-0.234-1.712-0.701c-0.468-0.48-0.701-1.051-0.701-1.713
			c0-0.674,0.233-1.238,0.701-1.693c0.48-0.467,1.064-0.699,1.752-0.699c0.635,0,1.186,0.24,1.654,0.719
			c0.466,0.467,0.702,1.025,0.702,1.674C31.011,177.881,30.776,178.451,30.31,178.92z M38.617,194.402
			c-0.493,0.457-1.057,0.684-1.692,0.684c-0.337,0-0.652-0.062-0.945-0.186c-0.291-0.123-0.549-0.293-0.768-0.508
			c-0.22-0.215-0.394-0.467-0.515-0.764c-0.124-0.293-0.187-0.607-0.187-0.947c0-0.664,0.233-1.232,0.702-1.701
			c0.479-0.467,1.063-0.703,1.751-0.703c0.637,0,1.188,0.244,1.654,0.725c0.469,0.471,0.701,1.035,0.701,1.699
			S39.086,193.932,38.617,194.402z M38.617,178.92c-0.466,0.465-1.03,0.699-1.692,0.699c-0.675,0-1.248-0.234-1.713-0.701
			c-0.469-0.48-0.702-1.051-0.702-1.713c0-0.674,0.233-1.238,0.702-1.693c0.479-0.467,1.063-0.699,1.751-0.699
			c0.637,0,1.188,0.24,1.654,0.719c0.469,0.467,0.701,1.025,0.701,1.674C39.318,177.881,39.086,178.451,38.617,178.92z"/>
		<path fill="#809CC9" d="M273.522,114.401c3.364,0.086,6.379,0.246,9.095,0.46c-3.688-18.666-11.015-36.021-21.213-51.299
			c-31.362,4.758-59.51,10.271-84.413,16.547c-29.289,7.381-52.845,14.882-70.674,22.498c-17.868,7.465-26.212,13.53-25.036,18.188
			c1.039,4.107,8.509,5.971,22.468,5.577c7.154-0.132,18.798-0.908,34.932-2.337c16.137-1.424,36.952-3.491,62.451-6.197
			C226.075,115.247,243.545,113.634,273.522,114.401z"/>
		<path fill="#809CC9" d="M263.522,164.072c-33.575,13.174-75.179,26.014-124.816,38.521
			c-42.394,10.683-79.538,18.628-111.502,23.872c25.934,35.672,67.986,58.869,115.462,58.869
			c74.646,0,135.893-57.332,142.134-130.36L263.522,164.072z"/>
		<path fill="#809CC9" d="M18.084,114.051c33.229-13.879,77.708-27.844,133.524-41.909c35.805-9.022,57.537-14.509,93.798-19.825
			c2.294-0.336,4.58-0.665,6.853-0.988C226.088,19.963,186.711,0,142.666,0C71.027,0,11.727,52.805,1.549,121.615L18.084,114.051z"
			/>
	</g>
</g>
</svg>
