<?xml version="1.0" encoding="UTF-8" standalone="no"?>
<!-- Created with Inkscape (http://www.inkscape.org/) -->

<svg
   xmlns:svg="http://www.w3.org/2000/svg"
   xmlns="http://www.w3.org/2000/svg"
   xmlns:xlink="http://www.w3.org/1999/xlink"
   version="1.1"
   width="16"
   height="16"
   id="svg4135">
  <defs
     id="defs4137">
    <linearGradient
       x1="318.06305"
       y1="169"
       x2="321"
       y2="185.24222"
       id="linearGradient9796"
       xlink:href="#linearGradient9728"
       gradientUnits="userSpaceOnUse"
       gradientTransform="matrix(0.75,0,0,0.7777778,75.125,78.666668)" />
    <linearGradient
       id="linearGradient9728">
      <stop
         id="stop9730"
         style="stop-color:#babdb6;stop-opacity:1"
         offset="0" />
      <stop
         id="stop9732"
         style="stop-color:#555753;stop-opacity:1"
         offset="1" />
    </linearGradient>
    <linearGradient
       x1="313.5"
       y1="182.34598"
       x2="311.13834"
       y2="174.97748"
       id="linearGradient9860"
       xlink:href="#linearGradient9302"
       gradientUnits="userSpaceOnUse"
       gradientTransform="matrix(0.7333333,0,0,0.8,79.6,75.8)" />
    <linearGradient
       id="linearGradient9302">
      <stop
         id="stop9304"
         style="stop-color:#ffffff;stop-opacity:1"
         offset="0" />
      <stop
         id="stop9306"
         style="stop-color:#eeeeec;stop-opacity:1"
         offset="1" />
    </linearGradient>
    <linearGradient
       x1="304.54205"
       y1="218.94789"
       x2="304.54205"
       y2="226.19572"
       id="linearGradient9858"
       xlink:href="#linearGradient9852"
       gradientUnits="userSpaceOnUse" />
    <linearGradient
       id="linearGradient9852">
      <stop
         id="stop9854"
         style="stop-color:#ffffff;stop-opacity:1"
         offset="0" />
      <stop
         id="stop9856"
         style="stop-color:#ffffff;stop-opacity:0"
         offset="1" />
    </linearGradient>
    <linearGradient
       id="linearGradient9390">
      <stop
         id="stop9392"
         style="stop-color:#d3d7cf;stop-opacity:1"
         offset="0" />
      <stop
         id="stop9394"
         style="stop-color:#eeeeec;stop-opacity:1"
         offset="1" />
    </linearGradient>
    <linearGradient
       id="linearGradient9606">
      <stop
         id="stop9608"
         style="stop-color:#555753;stop-opacity:1"
         offset="0" />
      <stop
         id="stop9610"
         style="stop-color:#d3d7cf;stop-opacity:1"
         offset="0.66795093" />
      <stop
         id="stop9612"
         style="stop-color:#888a85;stop-opacity:1"
         offset="1" />
    </linearGradient>
    <linearGradient
       x1="308.43115"
       y1="169.16127"
       x2="308.43115"
       y2="171.16251"
       id="linearGradient4300"
       xlink:href="#linearGradient9390"
       gradientUnits="userSpaceOnUse"
       gradientTransform="matrix(1,0,0,0.75,0,41.875)" />
    <linearGradient
       x1="309.5625"
       y1="171.27699"
       x2="309.5625"
       y2="167.34317"
       id="linearGradient4302"
       xlink:href="#linearGradient9606"
       gradientUnits="userSpaceOnUse"
       gradientTransform="matrix(1,0,0,0.75,0,41.875)" />
    <linearGradient
       x1="-86.12886"
       y1="2.0690987"
       x2="-93.088425"
       y2="31.137911"
       id="linearGradient2427"
       xlink:href="#linearGradient2264"
       gradientUnits="userSpaceOnUse"
       gradientTransform="matrix(0.40329207,-0.09756546,0.09655495,0.40751271,40.869458,-4.5802056)" />
    <linearGradient
       id="linearGradient2264">
      <stop
         id="stop2266"
         style="stop-color:#d7e866;stop-opacity:1"
         offset="0" />
      <stop
         id="stop2268"
         style="stop-color:#8cab2a;stop-opacity:1"
         offset="1" />
    </linearGradient>
    <linearGradient
       id="linearGradient3400">
      <stop
         id="stop3402"
         style="stop-color:#ffffff;stop-opacity:1"
         offset="0" />
      <stop
         id="stop3404"
         style="stop-color:#ffffff;stop-opacity:0"
         offset="1" />
    </linearGradient>
    <linearGradient
       x1="20.494444"
       y1="7.0440302"
       x2="20.494444"
       y2="39.780327"
       id="linearGradient2899"
       xlink:href="#linearGradient3400"
       gradientUnits="userSpaceOnUse"
       gradientTransform="matrix(0.4138818,0,0,0.416294,-3.3898022,-1.7775922)" />
  </defs>
  <g
     id="layer1">
    <g
       transform="translate(-302,-209)"
       id="g9840"
       style="display:inline;enable-background:new">
      <rect
         width="12"
         height="14"
         rx="0.79166669"
         ry="0.79166669"
         x="303.5"
         y="210.5"
         id="rect9736"
         style="fill:#babdb6;fill-opacity:1;fill-rule:nonzero;stroke:url(#linearGradient9796);stroke-width:1;stroke-opacity:1;marker:none;visibility:visible;display:inline;overflow:visible;enable-background:new" />
      <rect
         width="11"
         height="12"
         rx="0"
         ry="0"
         x="304"
         y="211"
         id="rect9738"
         style="fill:url(#linearGradient9860);fill-opacity:1;fill-rule:nonzero;stroke:none;stroke-width:1;marker:none;visibility:visible;display:inline;overflow:visible;enable-background:new" />
      <rect
         width="13"
         height="1"
         rx="0"
         ry="0"
         x="303"
         y="224"
         id="rect9740"
         style="fill:#2e3436;fill-opacity:1;stroke:none;display:inline;enable-background:new" />
      <rect
         width="10"
         height="12"
         rx="0"
         ry="0"
         x="304.5"
         y="211.5"
         id="rect9742"
         style="opacity:0.5;fill:none;stroke:url(#linearGradient9858);stroke-width:1;stroke-opacity:1;marker:none;visibility:visible;display:inline;overflow:visible;enable-background:new" />
      <path
         d="m 306.5,211 c -0.828,0 -1.49999,0.672 -1.5,1.5 0,0.828 0.67201,1.5 1.5,1.5 0.38234,0 0.73499,-0.13923 1,-0.375 0.26501,0.23577 0.61766,0.375 1,0.375 0.38234,0 0.73499,-0.13923 1,-0.375 0.26501,0.23577 0.61766,0.375 1,0.375 0.38234,0 0.73499,-0.13923 1,-0.375 0.26501,0.23577 0.61766,0.375 1,0.375 0.828,0 1.50001,-0.672 1.5,-1.5 0,-0.828 -0.67199,-1.5 -1.5,-1.5 -0.38234,0 -0.73499,0.13923 -1,0.375 -0.26501,-0.23577 -0.61766,-0.375 -1,-0.375 -0.38234,0 -0.73499,0.13923 -1,0.375 -0.26501,-0.23577 -0.61766,-0.375 -1,-0.375 -0.38234,0 -0.73499,0.13923 -1,0.375 -0.26501,-0.23577 -0.61766,-0.375 -1,-0.375 z"
         id="path9862"
         style="opacity:0.1;fill:#000000;fill-opacity:1;stroke:none;display:inline;enable-background:new" />
      <g
         transform="translate(-2,42)"
         id="g9746"
         style="display:inline;enable-background:new">
        <rect
           width="2"
           height="3"
           rx="1"
           ry="1"
           x="307.5"
           y="167.5"
           id="rect9748"
           style="fill:url(#linearGradient4300);fill-opacity:1;stroke:url(#linearGradient4302);stroke-width:1;stroke-linecap:butt;stroke-linejoin:round;stroke-miterlimit:4;stroke-opacity:1;stroke-dasharray:none" />
        <rect
           width="1.34375"
           height="1.34375"
           rx="1.5925926"
           ry="1.34375"
           x="307.5"
           y="167.6875"
           id="rect9750"
           style="fill:#ffffff;fill-opacity:1;stroke:none" />
      </g>
      <use
         transform="translate(2,0)"
         id="use9834"
         x="0"
         y="0"
         width="400"
         height="300"
         xlink:href="#g9746" />
      <use
         transform="translate(4,0)"
         id="use9836"
         style="display:inline;enable-background:new"
         x="0"
         y="0"
         width="400"
         height="300"
         xlink:href="#g9746" />
      <use
         transform="translate(6,0)"
         id="use9838"
         style="display:inline;enable-background:new"
         x="0"
         y="0"
         width="400"
         height="300"
         xlink:href="#g9746" />
    </g>
    <g
       transform="translate(-302,-209)"
       id="g9871"
       style="display:inline;enable-background:new">
      <rect
         width="1"
         height="1"
         rx="0"
         ry="0"
         x="306"
         y="215"
         id="rect9762"
         style="opacity:0.47999998;fill:#888a85;fill-opacity:1;stroke:none;display:inline;enable-background:new" />
      <rect
         width="4"
         height="1"
         rx="0"
         ry="0"
         x="308"
         y="215"
         id="rect9764"
         style="opacity:0.47999998;fill:#888a85;fill-opacity:1;stroke:none;display:inline;enable-background:new" />
      <rect
         width="4"
         height="1"
         rx="0"
         ry="0"
         x="308"
         y="221"
         id="rect9766"
         style="opacity:0.47999998;fill:#888a85;fill-opacity:1;stroke:none;display:inline;enable-background:new" />
      <rect
         width="1"
         height="1"
         rx="0"
         ry="0"
         x="306"
         y="217"
         id="rect9770"
         style="opacity:0.47999998;fill:#888a85;fill-opacity:1;stroke:none;display:inline;enable-background:new" />
      <rect
         width="4"
         height="1"
         rx="0"
         ry="0"
         x="308"
         y="217"
         id="rect9772"
         style="opacity:0.47999998;fill:#888a85;fill-opacity:1;stroke:none;display:inline;enable-background:new" />
      <rect
         width="1"
         height="1"
         rx="0"
         ry="0"
         x="306"
         y="219"
         id="rect9776"
         style="opacity:0.47999998;fill:#888a85;fill-opacity:1;stroke:none;display:inline;enable-background:new" />
      <rect
         width="5.0001349"
         height="1.0001501"
         rx="0"
         ry="0"
         x="308"
         y="219"
         id="rect9780"
         style="opacity:0.47999998;fill:#888a85;fill-opacity:1;stroke:none;display:inline;enable-background:new" />
      <rect
         width="1"
         height="1"
         rx="0"
         ry="0"
         x="306"
         y="221"
         id="rect9784"
         style="opacity:0.47999998;fill:#888a85;fill-opacity:1;stroke:none;display:inline;enable-background:new" />
    </g>
  </g>
  <g
     transform="matrix(0.59967819,0,0,0.6264177,7.8022527,5.7961964)"
     id="layer1-1">
    <path
       d="M 10.416147,0.80248907 C 10.194248,0.77973379 9.9736389,0.88955072 9.8596279,1.1003809 L 5.0020005,10.081271 1.8788609,7.5719944 C 1.6006651,7.4183882 1.2535724,7.5172044 1.1015578,7.7983127 l -1.40054776,1.8169385 c -0.1520113,0.2811025 -0.049748,0.6317248 0.2284459,0.7853288 0,0 5.70246236,4.75903 5.70949776,4.76255 0.065201,0.036 0.1333852,0.05411 0.2026946,0.06297 0.2264128,0.02891 0.4581175,-0.07858 0.574501,-0.2938 L 12.967304,2.8204499 C 13.119316,2.5393437 13.017055,2.1887243 12.738859,2.0351203 L 10.636826,0.86954537 c -0.06955,-0.0384015 -0.146714,-0.0594712 -0.220679,-0.0670563 z"
       id="path1542"
       style="fill:url(#linearGradient2427);fill-opacity:1;fill-rule:nonzero;stroke:#699536;stroke-width:1.56639576;stroke-linecap:round;stroke-linejoin:round;stroke-miterlimit:4;stroke-opacity:1;stroke-dasharray:none;stroke-dashoffset:0;marker:none;visibility:visible;display:inline;overflow:visible" />
    <path
       d="m 10.644939,1.65625 -5.3125001,9.8125 a 0.15034923,0.15034923 0 0 1 0,0.03125 0.15034923,0.15034923 0 0 1 -0.03125,0.03125 0.15034923,0.15034923 0 0 1 -0.03125,0 0.15034923,0.15034923 0 0 1 -0.03125,0.03125 0.15034923,0.15034923 0 0 1 -0.03125,0 0.15034923,0.15034923 0 0 1 -0.03125,0 0.15034923,0.15034923 0 0 1 -0.03125,-0.03125 0.15034923,0.15034923 0 0 1 -0.03125,0 L 1.4574389,8.625 c -0.3238762,0.402465 -0.60091836,0.7779186 -0.96874996,1.25 0.1122997,0.093077 1.30297826,1.090043 2.62499996,2.1875 0.691201,0.57379 1.3815407,1.156788 1.90625,1.59375 0.2623546,0.218481 0.4993958,0.399828 0.65625,0.53125 0.050142,0.04201 0.088455,0.06296 0.125,0.09375 0.052555,-0.09355 0.1090137,-0.180551 0.25,-0.4375 0.1919644,-0.349857 0.4397058,-0.836982 0.75,-1.40625 0.6205884,-1.138535 1.4444778,-2.6103224 2.25,-4.09375 C 9.8567109,6.8603224 10.632379,5.3686542 11.238689,4.25 c 0.303155,-0.5593271 0.568682,-1.008692 0.75,-1.34375 0.141975,-0.2623568 0.21072,-0.3644899 0.25,-0.4375 -0.05507,-0.031347 -0.09995,-0.061486 -0.21875,-0.125 -0.171886,-0.091893 -0.378882,-0.1998798 -0.59375,-0.3125 -0.214868,-0.1126202 -0.431931,-0.2271481 -0.59375,-0.3125 -0.06696,-0.035318 -0.140907,-0.037473 -0.1875,-0.0625 z"
       id="path2429"
       style="opacity:0.4;fill:none;stroke:url(#linearGradient2899);stroke-width:1.00278986;stroke-linecap:round;stroke-linejoin:miter;stroke-miterlimit:4;stroke-opacity:1;stroke-dasharray:none;stroke-dashoffset:0;marker:none;visibility:visible;display:inline;overflow:visible" />
  </g>
</svg>
