<?xml version="1.0" encoding="UTF-8" standalone="no"?>
<svg
   xmlns:dc="http://purl.org/dc/elements/1.1/"
   xmlns:cc="http://creativecommons.org/ns#"
   xmlns:rdf="http://www.w3.org/1999/02/22-rdf-syntax-ns#"
   xmlns:svg="http://www.w3.org/2000/svg"
   xmlns="http://www.w3.org/2000/svg"
   xmlns:sodipodi="http://sodipodi.sourceforge.net/DTD/sodipodi-0.dtd"
   xmlns:inkscape="http://www.inkscape.org/namespaces/inkscape"
   enable-background="new 0 0 50 50"
   height="50px"
   id="Layer_1"
   version="1.1"
   viewBox="0 0 50 50"
   width="50px"
   xml:space="preserve"
   sodipodi:docname="cog.svg"
   inkscape:version="0.92.3 (2405546, 2018-03-11)"><metadata
     id="metadata13"><rdf:RDF><cc:Work
         rdf:about=""><dc:format>image/svg+xml</dc:format><dc:type
           rdf:resource="http://purl.org/dc/dcmitype/StillImage" /></cc:Work></rdf:RDF></metadata><defs
     id="defs11" /><sodipodi:namedview
     pagecolor="#ffffff"
     bordercolor="#666666"
     borderopacity="1"
     objecttolerance="10"
     gridtolerance="10"
     guidetolerance="10"
     inkscape:pageopacity="0"
     inkscape:pageshadow="2"
     inkscape:window-width="1486"
     inkscape:window-height="944"
     id="namedview9"
     showgrid="false"
     inkscape:zoom="4.72"
     inkscape:cx="-52.26248"
     inkscape:cy="23.199153"
     inkscape:window-x="0"
     inkscape:window-y="0"
     inkscape:window-maximized="0"
     inkscape:current-layer="Layer_1" /><rect
     fill="none"
     height="50"
     width="50"
     id="rect2"
     style="fill:none;fill-opacity:1" /><path
     style="fill:none;fill-opacity:1;stroke:#474747;stroke-width:2.94086719;stroke-miterlimit:10;stroke-dasharray:none;stroke-opacity:1"
     d="M 38.636719 1.4765625 C 35.426272 1.4647991 28.898733 1.535826 25.738281 4.6992188 L 25.087891 5.3496094 C 21.353542 9.1079529 21.108205 14.765792 24.109375 18.824219 L 3.4003906 37.769531 C 1.9319176 39.239965 -0.003172905 43.236081 3.4003906 46.640625 C 6.8049344 50.045169 10.803018 48.109098 12.269531 46.640625 C 12.269531 46.640625 30.708079 25.715895 31.203125 25.953125 L 31.146484 25.892578 C 35.195215 28.977783 40.892238 28.758562 44.667969 24.976562 L 45.316406 24.328125 C 48.379809 21.266682 48.473584 14.793674 48.486328 11.525391 C 48.495128 10.483343 47.732422 11.15625 47.732422 11.15625 C 47.732422 11.15625 41.793147 17.131646 41.232422 17.695312 C 40.668756 18.256038 33.776188 17.630667 33.052734 16.910156 C 32.333202 16.188663 31.698437 9.4978636 32.417969 8.7753906 C 33.138482 8.0558584 38.941406 2.2539062 38.941406 2.2539062 C 38.941406 2.2539062 39.633673 1.4795034 38.636719 1.4765625 z "
     id="path4" /></svg>