/* XPM */
static const char * collapse_xpm[] = {
"16 16 110 2",
"  	c None",
". 	c #32373A",
"+ 	c #474D50",
"@ 	c #484E4F",
"# 	c #383D3E",
"$ 	c #43494A",
"% 	c #838687",
"& 	c #A4A6A7",
"* 	c #949596",
"= 	c #949697",
"- 	c #A6A8A9",
"; 	c #898C8D",
"> 	c #505455",
", 	c #555A5B",
"' 	c #979A9B",
") 	c #9C9E9F",
"! 	c #888989",
"~ 	c #FFFFFF",
"{ 	c #8A8C8C",
"] 	c #A1A4A4",
"^ 	c #9FA2A2",
"/ 	c #656968",
"( 	c #4E5253",
"_ 	c #888B8C",
": 	c #8D9090",
"< 	c #8E9191",
"[ 	c #7C7F7F",
"} 	c #808282",
"| 	c #959796",
"1 	c #969898",
"2 	c #949696",
"3 	c #626766",
"4 	c #6D7171",
"5 	c #7F8383",
"6 	c #818483",
"7 	c #828685",
"8 	c #737675",
"9 	c #777978",
"0 	c #898C8B",
"a 	c #8A8D8D",
"b 	c #8C8F8E",
"c 	c #7F8180",
"d 	c #4F5555",
"e 	c #707473",
"f 	c #696B6A",
"g 	c #6B6D6C",
"h 	c #6C6F6F",
"i 	c #636565",
"j 	c #676968",
"k 	c #757777",
"l 	c #777977",
"m 	c #777A79",
"n 	c #838784",
"o 	c #6B6F6C",
"p 	c #545857",
"q 	c #525554",
"r 	c #FEFEFE",
"s 	c #FCFCFC",
"t 	c #F9F9F9",
"u 	c #F7F7F7",
"v 	c #F6F6F6",
"w 	c #F5F6F5",
"x 	c #646664",
"y 	c #6F726F",
"z 	c #5C615E",
"A 	c #555857",
"B 	c #686A67",
"C 	c #777976",
"D 	c #636765",
"E 	c #656866",
"F 	c #5D605E",
"G 	c #5F615F",
"H 	c #606360",
"I 	c #595B59",
"J 	c #5D5F5C",
"K 	c #686B68",
"L 	c #6A6C69",
"M 	c #6C6E6B",
"N 	c #7A7D79",
"O 	c #7E817D",
"P 	c #6D716E",
"Q 	c #717471",
"R 	c #747673",
"S 	c #686A68",
"T 	c #6D6F6C",
"U 	c #7E807C",
"V 	c #80827E",
"W 	c #828480",
"X 	c #848681",
"Y 	c #757874",
"Z 	c #777A76",
"` 	c #797C78",
" .	c #7B7E7A",
"..	c #6E706D",
"+.	c #737571",
"@.	c #868883",
"#.	c #888A85",
"$.	c #80817D",
"%.	c #81837F",
"&.	c #838580",
"*.	c #747672",
"=.	c #787975",
"-.	c #898B86",
";.	c #929390",
">.	c #8A8C88",
",.	c #9C9D99",
"'.	c #8F918C",
").	c #878A85",
"!.	c #898B87",
"~.	c #888B85",
"                                ",
"            . + @ #             ",
"        $ % & * = - ; >         ",
"      , ' ) ! ~ ~ { ] ^ /       ",
"    ( _ : < [ ~ ~ } | 1 2 3     ",
"    4 5 6 7 8 ~ ~ 9 0 a b c     ",
"  d e f g h i ~ ~ j k l m n o   ",
"  p q r s t u ~ ~ v v v w x y   ",
"  z A ~ ~ ~ ~ ~ ~ ~ ~ ~ ~ B C   ",
"  D E F G H I ~ ~ J K L M N O   ",
"    P y Q R S ~ ~ T U V W X     ",
"    Y Z `  ...~ ~ +.@.#.#.#.    ",
"      $.%.&.*.~ ~ =.#.#.#.      ",
"        #.-.;.>.;.,.'.#.        ",
"            ).-.!.~.            ",
"                                "};
