/* XPM */
static const char * editcut_xpm[] = {
"16 16 78 1",
" 	c None",
".	c #F3F3F3",
"+	c #F7F7F7",
"@	c #F8F8F8",
"#	c #D9D9D9",
"$	c #FCFCFC",
"%	c #CECECE",
"&	c #B4B4B4",
"*	c #FBFBFB",
"=	c #E8E8E8",
"-	c #CDCDCD",
";	c #F6F6F6",
">	c #F2F2F2",
",	c #939393",
"'	c #D6D6D6",
")	c #EAEAEA",
"!	c #EFEFEF",
"~	c #BBBBBB",
"{	c #A9A9A9",
"]	c #E2E2E2",
"^	c #ECECEC",
"/	c #DFDFDF",
"(	c #C3C3C3",
"_	c #F0F0F0",
":	c #E5E5E5",
"<	c #A6A6A6",
"[	c #D1D1D1",
"}	c #DCDCDC",
"|	c #D3D3D3",
"1	c #B6B6B6",
"2	c #DADADA",
"3	c #E6E6E6",
"4	c #B2B2B2",
"5	c #C4C4C4",
"6	c #EEEEEE",
"7	c #FAFAFA",
"8	c #F4F4F4",
"9	c #E7E7E7",
"0	c #BEBEBE",
"a	c #C8C8C8",
"b	c #AEAEAE",
"c	c #CACACA",
"d	c #F9F9F9",
"e	c #B0B0B0",
"f	c #E4E4E4",
"g	c #E9E9E9",
"h	c #C6C6C6",
"i	c #A2A2A2",
"j	c #A5A5A5",
"k	c #B1B1B1",
"l	c #979797",
"m	c #9F9F9F",
"n	c #848484",
"o	c #B8B8B8",
"p	c #C9C9C9",
"q	c #D2D2D2",
"r	c #BFBFBF",
"s	c #A7A7A7",
"t	c #AFAFAF",
"u	c #C5C5C5",
"v	c #767676",
"w	c #EBEBEB",
"x	c #EDEDED",
"y	c #CCCCCC",
"z	c #535353",
"A	c #494949",
"B	c #E3E3E3",
"C	c #9B9B9B",
"D	c #A3A3A3",
"E	c #C0C0C0",
"F	c #B7B7B7",
"G	c #D5D5D5",
"H	c #D8D8D8",
"I	c #DBDBDB",
"J	c #D7D7D7",
"K	c #9D9D9D",
"L	c #8D8D8D",
"M	c #C1C1C1",
" .+@#.+++       ",
" +$$%&*$+=-     ",
" ;$$>,'$;)!     ",
" >$$$~{>+]^/    ",
" ()_*:<[*!]}|   ",
" ]12]345678!9   ",
" 8.012abc7*78   ",
" >d@]e&}f/g=hi  ",
" _;;;8}jklj&m n ",
" 688888fopqrstuv",
" w!___!6-06xyzA ",
" g)))))95oB)]   ",
" 9=====|CDE9/   ",
" ::::::[FG1HI   ",
" J}}2H'[K4LME   ",
"                "};
