/* XPM */
static const char * editcopy_xpm[] = {
"16 16 40 1",
" 	c None",
".	c #EAEAEA",
"+	c #F5F5F5",
"@	c #EEEEEE",
"#	c #F1F1F1",
"$	c #FFFFFF",
"%	c #FEFEFE",
"&	c #F0F0F0",
"*	c #EFEFEF",
"=	c #E7E7E7",
"-	c #FBFBFB",
";	c #F2F2F2",
">	c #DDDDDD",
",	c #FDFDFD",
"'	c #FCFCFC",
")	c #FAFAFA",
"!	c #F4F4F4",
"~	c #E9E9E9",
"{	c #F9F9F9",
"]	c #E8E8E8",
"^	c #F7F7F7",
"/	c #EDEDED",
"(	c #E2E2E2",
"_	c #F8F8F8",
":	c #E6E6E6",
"<	c #EBEBEB",
"[	c #F6F6F6",
"}	c #E4E4E4",
"|	c #E0E0E0",
"1	c #CBCBCB",
"2	c #D7D7D7",
"3	c #D5D5D5",
"4	c #DBDBDB",
"5	c #DFDFDF",
"6	c #DCDCDC",
"7	c #D3D3D3",
"8	c #F3F3F3",
"9	c #D6D6D6",
"0	c #D1D1D1",
"a	c #ECECEC",
" .+++++@        ",
" #$$$$%&&       ",
" #$$$$%#*=      ",
" #%%%%%-;@>*    ",
" &,,,,,,')=!=   ",
" &''''''''~;;@  ",
" *------){]^/~( ",
" @))))____:)-^# ",
" <[[[[[[[[}),,^ ",
" ~!!!!!!!!(_')! ",
" =;;;;;;;;|[__; ",
" 12234|5556+[[* ",
"     7####8!!!/ ",
"     98;;;;;;;. ",
"     0*@@@///a( ",
"                "};
