/* XPM */
static const char * editpaste_xpm[] = {
"16 16 106 2",
"  	c None",
". 	c #A8A8A8",
"+ 	c #B1B1B1",
"@ 	c #A2A2A2",
"# 	c #B6B6B6",
"$ 	c #BCBDBD",
"% 	c #989998",
"& 	c #C4905A",
"* 	c #B88A5A",
"= 	c #97836C",
"- 	c #A89886",
"; 	c #B8A694",
"> 	c #B09E8B",
", 	c #9F8E7A",
"' 	c #96826C",
") 	c #BC986E",
"! 	c #D0A776",
"~ 	c #D0A777",
"{ 	c #CC975E",
"] 	c #CE9A63",
"^ 	c #D09D66",
"/ 	c #D1A06A",
"( 	c #D4A36E",
"_ 	c #D6A672",
": 	c #D8AA76",
"< 	c #DAAD79",
"[ 	c #DBB07C",
"} 	c #DCB27F",
"| 	c #D0A978",
"1 	c #CC9861",
"2 	c #D2A06A",
"3 	c #D6B38C",
"4 	c #DAB995",
"5 	c #DBBC97",
"6 	c #DCBE9A",
"7 	c #DDC09C",
"8 	c #DEC29E",
"9 	c #DDB88A",
"0 	c #D0AA7C",
"a 	c #CC9963",
"b 	c #D1A068",
"c 	c #D3A470",
"d 	c #F7F2EE",
"e 	c #FEFEFF",
"f 	c #FBFBFC",
"g 	c #E8E1D8",
"h 	c #D2B490",
"i 	c #CD9B65",
"j 	c #D2A16A",
"k 	c #D4A672",
"l 	c #F8F4EE",
"m 	c #FFFFFF",
"n 	c #FAFAFA",
"o 	c #F3F3F3",
"p 	c #EEEDED",
"q 	c #CF9D67",
"r 	c #D4A46C",
"s 	c #D6A974",
"t 	c #F8F4EF",
"u 	c #FEFEFE",
"v 	c #FCFCFC",
"w 	c #EEEEEE",
"x 	c #EBEBEB",
"y 	c #E2E2E2",
"z 	c #D09F69",
"A 	c #D4A46E",
"B 	c #D6A876",
"C 	c #F7F3EE",
"D 	c #FBFBFB",
"E 	c #F7F7F7",
"F 	c #F0F0F0",
"G 	c #D1A16C",
"H 	c #D5A570",
"I 	c #D5A876",
"J 	c #F6F2EE",
"K 	c #F6F6F6",
"L 	c #D1A16D",
"M 	c #D6A671",
"N 	c #D4A876",
"O 	c #F4F1ED",
"P 	c #F4F4F4",
"Q 	c #CF9F6A",
"R 	c #D6A772",
"S 	c #D6AA78",
"T 	c #F4F0EC",
"U 	c #F9F9F9",
"V 	c #F8F8F8",
"W 	c #CFA06B",
"X 	c #D7A872",
"Y 	c #D8AC7A",
"Z 	c #F1EEE9",
"` 	c #EDEDED",
" .	c #9D7A51",
"..	c #A07D59",
"+.	c #A58562",
"@.	c #EDEBE9",
"#.	c #EAEAEA",
"$.	c #EFEFEF",
"%.	c #F2F2F2",
"&.	c #E6E6E6",
"*.	c #B9B9B9",
"=.	c #B7B7B7",
"-.	c #B5B5B5",
";.	c #B3B3B3",
">.	c #AFAFAF",
",.	c #A7A7A7",
"            . +                 ",
"          @ # $ %               ",
"    & * = - ; > , ' ) ! ~       ",
"    { ] ^ / ( _ : < [ } |       ",
"    1 ^ 2 3 4 5 6 7 8 9 0       ",
"    a b c d e e e e f g h       ",
"    i j k l m m m m n o p       ",
"    q r s t u u u u v w x y     ",
"    z A B C u u u u u D E F     ",
"    G H I J v v v v v v v K     ",
"    L M N O D D D D D D n P     ",
"    Q R S T n n n U U V V F     ",
"    W X Y Z K K K K K K K `     ",
"     ...+.@.P P P P P P P #.    ",
"          $.%.%.%.%.%.%.%.&.    ",
"          # *.=.# -.;.+ >.,.    "};
