/* XPM */
static const char * export_db_xpm[] = {
"16 16 106 2",
"  	c None",
". 	c #EEEEEE",
"+ 	c #EFEFEF",
"@ 	c #F6F6F6",
"# 	c #ECECEC",
"$ 	c #F0F0F0",
"% 	c #EDEDED",
"& 	c #F5F5F5",
"* 	c #656565",
"= 	c #EBEBEB",
"- 	c #535353",
"; 	c #686868",
"> 	c #737373",
", 	c #EAEAEA",
"' 	c #F4F4F4",
") 	c #5A5A5A",
"! 	c #757575",
"~ 	c #8A8A8A",
"{ 	c #717171",
"] 	c #E8E8E8",
"^ 	c #4B4B4B",
"/ 	c #FAFAFA",
"( 	c #DCDCDC",
"_ 	c #383838",
": 	c #FEFEFE",
"< 	c #FFFFFF",
"[ 	c #ACACAC",
"} 	c #F1F1F1",
"| 	c #E6E6E6",
"1 	c #464646",
"2 	c #343434",
"3 	c #181818",
"4 	c #6B6B6B",
"5 	c #222222",
"6 	c #E9E9E9",
"7 	c #E4E4E4",
"8 	c #2E2E2E",
"9 	c #363636",
"0 	c #F8F8F8",
"a 	c #B5B5B5",
"b 	c #797979",
"c 	c #E0E0E0",
"d 	c #242424",
"e 	c #9A9A9A",
"f 	c #595959",
"g 	c #858585",
"h 	c #1C1C1C",
"i 	c #9E9E9E",
"j 	c #4F4F4F",
"k 	c #A2A7A7",
"l 	c #E3E3E3",
"m 	c #E2E2E2",
"n 	c #DFDFDF",
"o 	c #BABABA",
"p 	c #E2E3E3",
"q 	c #BDBFBF",
"r 	c #B8BABA",
"s 	c #D5DADA",
"t 	c #D06D6D",
"u 	c #DAAFAF",
"v 	c #E0E5E5",
"w 	c #DBDBDB",
"x 	c #DCDEDE",
"y 	c #CF8A8A",
"z 	c #CD7878",
"A 	c #CD7A7A",
"B 	c #BC3737",
"C 	c #B41616",
"D 	c #C96464",
"E 	c #D7D7D7",
"F 	c #D8DFDF",
"G 	c #AF2D2D",
"H 	c #A91414",
"I 	c #AA1515",
"J 	c #AA1616",
"K 	c #B32727",
"L 	c #D2D2D2",
"M 	c #D4D9D9",
"N 	c #A62C2C",
"O 	c #A01313",
"P 	c #A31818",
"Q 	c #CDCDCD",
"R 	c #CFD4D4",
"S 	c #9E2929",
"T 	c #971212",
"U 	c #971010",
"V 	c #C6C6C6",
"W 	c #C7CACA",
"X 	c #AE7878",
"Y 	c #A86363",
"Z 	c #A86565",
"` 	c #952929",
" .	c #8B0909",
"..	c #AB6F6F",
"+.	c #C2C2C2",
"@.	c #C3C3C3",
"#.	c #C4C6C6",
"$.	c #A36767",
"%.	c #BCB0B0",
"&.	c #C3C4C4",
"*.	c #BBBBBB",
"=.	c #B9B9B9",
"-.	c #B8B8B8",
";.	c #BABCBC",
">.	c #B7B7B7",
",.	c #A3A3A3",
"  . + + + + + + + @             ",
"  # $ $ % # # $ $ & *           ",
"  = - ; > , ' ) ; ! ~ {         ",
"  ] ^ / ( _ : _ < ~ [ } +       ",
"  | 1 # . 2 < 3 4 5 , 6 6       ",
"  7 1 , } 8 < 9 0 a b | |       ",
"  c d e f g } h i j k l m       ",
"  n o o c m p q r s t u v       ",
"  w w w w x y z z A B C D       ",
"  E E E E F G H H H I J H K     ",
"  L L L L M N O O O O O O O P   ",
"  Q Q Q Q R S T T T T T U T     ",
"  V V V V W X Y Y Z `  ...      ",
"  +.+.+.+.+.@.@.@.#.$.%.&.      ",
"  o *.o =.=.-.-.-.-.;.=.>.      ",
"      ,.,.,.,.,.,.,.,.,.,.      "};
