/* XPM */
static const char * export_sql_xpm[] = {
"16 16 105 2",
"  	c None",
". 	c #EEEEEE",
"+ 	c #EFEFEF",
"@ 	c #F6F6F6",
"# 	c #ECECEC",
"$ 	c #F4F4F4",
"% 	c #656565",
"& 	c #F3F3F3",
"* 	c #F7F7F7",
"= 	c #EDEDED",
"- 	c #8D8D8D",
"; 	c #717171",
"> 	c #EAEAEA",
", 	c #323232",
"' 	c #343434",
") 	c #999999",
"! 	c #D3D3D3",
"~ 	c #2C2C2C",
"{ 	c #272727",
"] 	c #929292",
"^ 	c #C1C1C1",
"/ 	c #5B5B5B",
"( 	c #D1D1D1",
"_ 	c #090909",
": 	c #9A9A9A",
"< 	c #EBEBEB",
"[ 	c #4D4D4D",
"} 	c #949494",
"| 	c #000000",
"1 	c #BDBDBD",
"2 	c #3B3B3B",
"3 	c #E9E9E9",
"4 	c #E3E3E3",
"5 	c #D4D4D4",
"6 	c #686868",
"7 	c #474747",
"8 	c #505050",
"9 	c #939393",
"0 	c #F1F1F1",
"a 	c #BBBBBB",
"b 	c #3E3E3E",
"c 	c #D6D6D6",
"d 	c #242424",
"e 	c #959595",
"f 	c #CCCCCC",
"g 	c #0A0A0A",
"h 	c #B9B9B9",
"i 	c #212626",
"j 	c #2F3030",
"k 	c #AAAAAA",
"l 	c #E0E0E0",
"m 	c #E8E8E8",
"n 	c #E1E1E1",
"o 	c #DFDFDF",
"p 	c #E7E9E9",
"q 	c #BABCBC",
"r 	c #959696",
"s 	c #E4E9E9",
"t 	c #D77474",
"u 	c #E4B8B8",
"v 	c #E3E8E8",
"w 	c #DBDBDB",
"x 	c #DCDEDE",
"y 	c #CF8A8A",
"z 	c #CD7878",
"A 	c #CE7979",
"B 	c #CD7A7A",
"C 	c #BC3737",
"D 	c #B41616",
"E 	c #C96464",
"F 	c #D7D7D7",
"G 	c #D8DFDF",
"H 	c #AF2D2D",
"I 	c #A91414",
"J 	c #AA1515",
"K 	c #AA1616",
"L 	c #B32727",
"M 	c #D2D2D2",
"N 	c #D4D9D9",
"O 	c #A62C2C",
"P 	c #A01313",
"Q 	c #A31818",
"R 	c #CDCDCD",
"S 	c #CFD4D4",
"T 	c #9E2929",
"U 	c #971212",
"V 	c #971010",
"W 	c #C6C6C6",
"X 	c #C7CACA",
"Y 	c #AE7878",
"Z 	c #A86363",
"` 	c #A86565",
" .	c #952929",
"..	c #8B0909",
"+.	c #AB6F6F",
"@.	c #C2C2C2",
"#.	c #C3C3C3",
"$.	c #C4C6C6",
"%.	c #A36767",
"&.	c #BCB0B0",
"*.	c #C3C4C4",
"=.	c #BABABA",
"-.	c #B8B8B8",
";.	c #B7B7B7",
">.	c #A3A3A3",
"  . + + + + + + + @             ",
"  # # # # # # # # $ %           ",
"  # & * + # $ @ = & - ;         ",
"  > , ' ) ! ~ { ] ^ / @ +       ",
"  ( _ : < [ } & | 1 2 . 3       ",
"  4 5 6 7 8 9 0 | a b * 3       ",
"  c { d e f ~ g } h i j k       ",
"  l m > n o p q r s t u v       ",
"  w w w w x y z A B C D E       ",
"  F F F F G H I I I J K I L     ",
"  M M M M N O P P P P P P P Q   ",
"  R R R R S T U U U U U V U     ",
"  W W W W X Y Z Z `  ...+.      ",
"  @.@.@.@.@.#.#.#.$.%.&.*.      ",
"  =.a =.h h -.-.-.-.q h ;.      ",
"      >.>.>.>.>.>.>.>.>.>.      "};
