/* XPM */
static const char * export_img_xpm[] = {
"16 16 112 2",
"  	c None",
". 	c #EEEEEE",
"+ 	c #EFEFEF",
"@ 	c #F6F6F6",
"# 	c #ECECEC",
"$ 	c #F4F4F4",
"% 	c #656565",
"& 	c #EDEDED",
"* 	c #F0F0F0",
"= 	c #F5F5F5",
"- 	c #919191",
"; 	c #787878",
"> 	c #D8D8D8",
", 	c #373737",
"' 	c #C6C6C6",
") 	c #131313",
"! 	c #E3E3E3",
"~ 	c #7F7F7F",
"{ 	c #404040",
"] 	c #4F4F4F",
"^ 	c #323232",
"/ 	c #3D3D3D",
"( 	c #FAFAFA",
"_ 	c #D3D3D3",
": 	c #171717",
"< 	c #BFBFBF",
"[ 	c #1E1E1E",
"} 	c #737373",
"| 	c #2B2B2B",
"1 	c #9D9D9D",
"2 	c #424242",
"3 	c #EBEBEB",
"4 	c #C7C7C7",
"5 	c #E8E8E8",
"6 	c #D1D1D1",
"7 	c #BCBCBC",
"8 	c #565656",
"9 	c #1B1B1B",
"0 	c #979797",
"a 	c #151515",
"b 	c #9B9B9B",
"c 	c #434343",
"d 	c #D4D4D4",
"e 	c #000000",
"f 	c #E4E4E4",
"g 	c #D0D0D0",
"h 	c #353535",
"i 	c #C0C0C0",
"j 	c #606060",
"k 	c #DDDDDD",
"l 	c #E2E2E2",
"m 	c #343434",
"n 	c #494949",
"o 	c #2D3232",
"p 	c #313131",
"q 	c #E0E0E0",
"r 	c #E7E7E7",
"s 	c #E1E1E1",
"t 	c #E6E6E6",
"u 	c #DFDFDF",
"v 	c #E0E1E1",
"w 	c #E8EAEA",
"x 	c #DFE1E1",
"y 	c #E4E9E9",
"z 	c #D97676",
"A 	c #E1B5B5",
"B 	c #E0E5E5",
"C 	c #DBDBDB",
"D 	c #DCDEDE",
"E 	c #CF8A8A",
"F 	c #CD7878",
"G 	c #CD7A7A",
"H 	c #BC3737",
"I 	c #B41616",
"J 	c #C96464",
"K 	c #D7D7D7",
"L 	c #D8DFDF",
"M 	c #AF2D2D",
"N 	c #A91414",
"O 	c #AA1515",
"P 	c #AA1616",
"Q 	c #B32727",
"R 	c #D2D2D2",
"S 	c #D4D9D9",
"T 	c #A62C2C",
"U 	c #A01313",
"V 	c #A31818",
"W 	c #CDCDCD",
"X 	c #CFD4D4",
"Y 	c #9E2929",
"Z 	c #971212",
"` 	c #971010",
" .	c #C7CACA",
"..	c #AE7878",
"+.	c #A86363",
"@.	c #A86565",
"#.	c #952929",
"$.	c #8B0909",
"%.	c #AB6F6F",
"&.	c #C2C2C2",
"*.	c #C3C3C3",
"=.	c #C4C6C6",
"-.	c #A36767",
";.	c #BCB0B0",
">.	c #C3C4C4",
",.	c #BABABA",
"'.	c #BBBBBB",
").	c #B9B9B9",
"!.	c #B8B8B8",
"~.	c #BABCBC",
"{.	c #B7B7B7",
"].	c #A3A3A3",
"  . + + + + + + + @             ",
"  # # # # # # # # $ %           ",
"  & $ . @ # * $ # = - ;         ",
"  > , ' ) ! ~ { @ ] ^ / (       ",
"  _ : < [ } | [ 1 2 3 4 5       ",
"  6 : 7 8 9 0 a b c d e f       ",
"  g h i j k l m . n o p !       ",
"  q r s t u v w x y z A B       ",
"  C C C C D E F F G H I J       ",
"  K K K K L M N N N O P N Q     ",
"  R R R R S T U U U U U U U V   ",
"  W W W W X Y Z Z Z Z Z ` Z     ",
"  ' ' ' '  ...+.+.@.#.$.%.      ",
"  &.&.&.&.&.*.*.*.=.-.;.>.      ",
"  ,.'.,.).).!.!.!.!.~.).{.      ",
"      ].].].].].].].].].].      "};
