/* XPM */
static const char *filesavesql_xpm[]={
"16 15 9 1",
"# c None",
"g c #000000",
"a c #1b4467",
"d c #5d7c93",
". c #5f666d",
"b c #65839d",
"e c #7a90ac",
"f c #bcbdbe",
"c c #ffffff",
"...............#",
".abcccccccccda.#",
".ebcfffffffcde.#",
".ebcccccccccde.#",
".ebcfffffffcde.#",
".ebcccccccccde.#",
".eedddddddddee.#",
".eeeeeeeeeeeee.#",
".cggcccggcccgc.#",
".gccgcgccgccgc.#",
".gccccgccgccgc.#",
".cggccgccgccgc.#",
".cccgcgcggccgc.#",
".gccgcgccgccgc.#",
"#cggcccggcgcgggg"};
