/* XPM */
static const char * filesave_xpm[] = {
"16 16 102 2",
"  	c None",
". 	c #5F5F5F",
"+ 	c #949494",
"@ 	c #989898",
"# 	c #999999",
"$ 	c #939393",
"% 	c #8F8F8F",
"& 	c #8A8A8A",
"* 	c #878787",
"= 	c #7D7D7D",
"- 	c #424242",
"; 	c #0B0B0B",
"> 	c #828282",
", 	c #E4E4E4",
"' 	c #EBEBEB",
") 	c #EEEEEE",
"! 	c #F0F0F0",
"~ 	c #F1F1F1",
"{ 	c #EFEFEF",
"] 	c #ECECEC",
"^ 	c #E8E8E8",
"/ 	c #DCDCDC",
"( 	c #696969",
"_ 	c #0F0F0F",
": 	c #7E7E7E",
"< 	c #E7E7E7",
"[ 	c #F2F2F2",
"} 	c #EDEDED",
"| 	c #E9E9E9",
"1 	c #DFDFDF",
"2 	c #3C3C3C",
"3 	c #000000",
"4 	c #111111",
"5 	c #797979",
"6 	c #F4F4F4",
"7 	c #F6F6F6",
"8 	c #F5F5F5",
"9 	c #F3F3F3",
"0 	c #EAEAEA",
"a 	c #DEDEDE",
"b 	c #222222",
"c 	c #161616",
"d 	c #F8F8F8",
"e 	c #383838",
"f 	c #040404",
"g 	c #1B1B1B",
"h 	c #7C7C7C",
"i 	c #E3E3E3",
"j 	c #E2E2E2",
"k 	c #DADADA",
"l 	c #585858",
"m 	c #0D0D0D",
"n 	c #2F2F2F",
"o 	c #505050",
"p 	c #565656",
"q 	c #575757",
"r 	c #595959",
"s 	c #545454",
"t 	c #525252",
"u 	c #515151",
"v 	c #2B2B2B",
"w 	c #1C1C1C",
"x 	c #2E2E2E",
"y 	c #2A2A2A",
"z 	c #898989",
"A 	c #909090",
"B 	c #969696",
"C 	c #C1C1C1",
"D 	c #C4C4C4",
"E 	c #C8C8C8",
"F 	c #CCCCCC",
"G 	c #979797",
"H 	c #4F4F4F",
"I 	c #3D3D3D",
"J 	c #404040",
"K 	c #414141",
"L 	c #363636",
"M 	c #A0A0A0",
"N 	c #D4D4D4",
"O 	c #DBDBDB",
"P 	c #E1E1E1",
"Q 	c #A8A8A8",
"R 	c #474747",
"S 	c #4B4B4B",
"T 	c #535353",
"U 	c #B0B0B0",
"V 	c #626262",
"W 	c #CECECE",
"X 	c #D2D2D2",
"Y 	c #AFAFAF",
"Z 	c #555555",
"` 	c #5A5A5A",
" .	c #6F6F6F",
"..	c #CACACA",
"+.	c #D0D0D0",
"@.	c #CFCFCF",
"#.	c #D7D7D7",
"$.	c #C9C9C9",
"%.	c #B3B3B3",
"&.	c #727272",
"*.	c #6A6A6A",
"=.	c #606060",
"                                ",
"                                ",
"    . + @ # + $ $ % & * = -     ",
"  ; > , ' ) ! ~ ! { ] ^ / (     ",
"  _ : < ] ! [ [ [ ! } | 1 2 3   ",
"  4 5 | ) [ 6 7 8 9 ! 0 a b 3   ",
"  c 5 0 ! 6 7 d d 8 [ 0 / e f   ",
"  g h i ^ ) ! ~ ~ { 0 j k l m   ",
"  b n - o p p q r q s t u v w   ",
"  x y b z A B C D E F G H I x   ",
"  J K L M o . N O P , Q R S J   ",
"  S s T U p V W X N W Y Z p s   ",
"    `  ...+.@.#.X W $.%.&.*.=.  ",
"                                ",
"                                ",
"                                "};
