/* XPM */
static const char * fileopen_xpm[] = {
"16 16 88 1",
" 	c None",
".	c #A9A9A9",
"+	c #B9B9B9",
"@	c #A8A8A8",
"#	c #C2C2C2",
"$	c #C0C0C0",
"%	c #B2B2B2",
"&	c #B4B4B4",
"*	c #9F9F9F",
"=	c #848484",
"-	c #D5D5D5",
";	c #B8B8B8",
">	c #CACACA",
",	c #D4D4D4",
"'	c #C6C6C6",
")	c #BBBBBB",
"!	c #AFAFAF",
"~	c #ACACAC",
"{	c #787878",
"]	c #6B6B6B",
"^	c #DADADA",
"/	c #FAFAFA",
"(	c #F7F7F7",
"_	c #EEEEEE",
":	c #E6E6E6",
"<	c #DDDDDD",
"[	c #D1D1D1",
"}	c #C5C5C5",
"|	c #B6B6B6",
"1	c #B5B5B5",
"2	c #909090",
"3	c #757575",
"4	c #696969",
"5	c #F4F4F4",
"6	c #FCFCFC",
"7	c #F6F6F6",
"8	c #F0F0F0",
"9	c #E8E8E8",
"0	c #DCDCDC",
"a	c #D2D2D2",
"b	c #BDBDBD",
"c	c #A3A3A3",
"d	c #959595",
"e	c #969696",
"f	c #7D7D7D",
"g	c #686868",
"h	c #F9F9F9",
"i	c #D0D0D0",
"j	c #BEBEBE",
"k	c #B0B0B0",
"l	c #A2A2A2",
"m	c #949494",
"n	c #8E8E8E",
"o	c #858585",
"p	c #C8C8C8",
"q	c #9E9E9E",
"r	c #8B8B8B",
"s	c #9B9B9B",
"t	c #929292",
"u	c #E2E2E2",
"v	c #FDFDFD",
"w	c #D8D8D8",
"x	c #AAAAAA",
"y	c #999999",
"z	c #939393",
"A	c #CBCBCB",
"B	c #8F8F8F",
"C	c #C1C1C1",
"D	c #FBFBFB",
"E	c #EFEFEF",
"F	c #D6D6D6",
"G	c #DEDEDE",
"H	c #B7B7B7",
"I	c #A6A6A6",
"J	c #AEAEAE",
"K	c #828282",
"L	c #E7E7E7",
"M	c #EAEAEA",
"N	c #E1E1E1",
"O	c #DBDBDB",
"P	c #BABABA",
"Q	c #BFBFBF",
"R	c #E4E4E4",
"S	c #D7D7D7",
"T	c #F5F5F5",
"U	c #DFDFDF",
"V	c #F1F1F1",
"W	c #A7A7A7",
"                ",
"         .+@    ",
"        #$%& *= ",
"   -; >,')!~*{] ",
" ^/(_:<[}|1*234 ",
" 567890a$bcdefg ",
" h67890ijklmnog ",
" /6789-p'!q2rst ",
" uv780wibxyz|AB ",
" CD7EFGAHIJ-pK  ",
"  L7MNO}P-9%    ",
"  Q7RR-STRt     ",
"   U0:V6A       ",
"   ~wh8W        ",
"    .[          ",
"                "};
