/* XPM */
static const char * folder_xpm[] = {
"16 16 36 1",
" 	c None",
".	c #CDB978",
"+	c #D1BB7C",
"@	c #CFBB7C",
"#	c #CEB674",
"$	c #D2BB7A",
"%	c #D0BA79",
"&	c #CFB775",
"*	c #CBB573",
"=	c #B7A165",
"-	c #B7A164",
";	c #A18538",
">	c #A5893C",
",	c #A68A3D",
"'	c #A88A3B",
")	c #AB8E3F",
"!	c #AB8F40",
"~	c #AE9140",
"{	c #B09342",
"]	c #B19443",
"^	c #AD9240",
"/	c #B49746",
"(	c #B59746",
"_	c #BB9C4B",
":	c #B99B49",
"<	c #BB9D4B",
"[	c #C1A250",
"}	c #BE9F4C",
"|	c #BD9F4C",
"1	c #C8AB5C",
"2	c #C3A656",
"3	c #D2BA7C",
"4	c #CDB676",
"5	c #C9B47C",
"6	c #CEB97F",
"7	c #CDB87F",
"                ",
" .++@           ",
" #$$$%&&&&&&&&* ",
" =------------= ",
";>,,,,,,,,,,,,>;",
"')!!!!!!!!!!!!)'",
"~{]]]]]]]]]]]]{^",
"/((((((((((((((/",
"_::::::::::::::<",
"[}||||||||||||}[",
"1222222222222221",
"3444444444444443",
"5677777777777765",
"                ",
"                ",
"                "};
