/* XPM */
static const char * form_yellow_xpm[] = {
"16 16 61 1",
" 	c None",
".	c #CAAF60",
"+	c #CBB063",
"@	c #CCB265",
"#	c #CDB46A",
"$	c #CFB76F",
"%	c #D0B973",
"&	c #CEB56C",
"*	c #CDB368",
"=	c #C9AE5E",
"-	c #CBB164",
";	c #E2D4A9",
">	c #C7AB57",
",	c #C3A64D",
"'	c #C2A449",
")	c #BFA041",
"!	c #BB9C3E",
"~	c #AB8E39",
"{	c #D4BF7F",
"]	c #CAB061",
"^	c #E6D9B4",
"/	c #DDCC9A",
"(	c #DECD9C",
"_	c #DBC892",
":	c #DAC78F",
"<	c #D8C58C",
"[	c #D7C388",
"}	c #D6C184",
"|	c #E1D2A6",
"1	c #DCCA95",
"2	c #DECE9D",
"3	c #E7DCB9",
"4	c #E9DEBE",
"5	c #E8DDBB",
"6	c #E7DBB8",
"7	c #C8AE5C",
"8	c #E4D7AF",
"9	c #C6AA55",
"0	c #C3A54C",
"a	c #D8C58B",
"b	c #ECE2C5",
"c	c #FEFEFD",
"d	c #E6DAB5",
"e	c #E0D1A4",
"f	c #E0D1A3",
"g	c #E8DEBC",
"h	c #EAE0C1",
"i	c #CEB66D",
"j	c #E3D6AE",
"k	c #E4D7B0",
"l	c #EEE6CD",
"m	c #EADFBF",
"n	c #E7DBB7",
"o	c #EFE8D1",
"p	c #C5A852",
"q	c #C1A348",
"r	c #B7983D",
"s	c #EBE0C2",
"t	c #EFE7CF",
"u	c #C8AD5B",
"v	c #C4A750",
"                ",
"  .++@#$%$&**=  ",
"  -;.=>,')!~{=  ",
"  ]^/(/_:<[}|=  ",
"  +^/1:2345467  ",
"  @8.90abcccb]  ",
"  @deffg^h4h6]  ",
"  *deffghccch.  ",
"  ij@7,{d8kl6.  ",
"  &g3554m6no3=  ",
"  -^+7pqrf6cg7  ",
"  -4hbh56kksn7  ",
"  -^.0#tcccc47  ",
"  @mmh43mmmm37  ",
"  >=77...7uu7v  ",
"                "};
