/* XPM */
static const char * key_p_xpm[] = {
"10 10 24 1",
" 	c None",
".	c #FFFFFF",
"+	c #F2A946",
"@	c #ECA142",
"#	c #F7A945",
"$	c #F49A39",
"%	c #F8AD4C",
"&	c #FACC7A",
"*	c #F6C064",
"=	c #F7A746",
"-	c #DE8637",
";	c #FED665",
">	c #FED064",
",	c #CE752E",
"'	c #F3BA3D",
")	c #E9AB34",
"!	c #E7A631",
"~	c #DB7C13",
"{	c #EFB441",
"]	c #D37811",
"^	c #F0B74B",
"/	c #CF7411",
"(	c #EC9E2E",
"_	c #CA680A",
"....+@....",
"...#..$...",
"...%&*=...",
"...-;>,...",
"....')....",
"....!~....",
"....{]....",
"....^/....",
"....(_....",
".........."};
