/* XPM */
static const char * undo_xpm[] = {
"16 16 72 1",
" 	c None",
".	c #84B0EB",
"+	c #A1C5F1",
"@	c #7AABEA",
"#	c #AAC5EE",
"$	c #5D9EE8",
"%	c #83BAF1",
"&	c #92C5F4",
"*	c #98CBF7",
"=	c #5CB7F8",
"-	c #81C2F7",
";	c #8FBFF2",
">	c #97B8EB",
",	c #5696E0",
"'	c #2479DF",
")	c #2587E7",
"!	c #56A9F1",
"~	c #67BAF8",
"{	c #74C7FC",
"]	c #81D0FE",
"^	c #5DC4FD",
"/	c #39BAFF",
"(	c #2AB5FF",
"_	c #56C2FF",
":	c #67C0FB",
"<	c #70BAF6",
"[	c #79B4F0",
"}	c #60A8EB",
"|	c #1F7ADF",
"1	c #4499EC",
"2	c #54ACF4",
"3	c #51B8FC",
"4	c #4DC0FF",
"5	c #57C9FF",
"6	c #64D0FF",
"7	c #54CCFF",
"8	c #4BCBFF",
"9	c #5ECFFF",
"0	c #57CAFF",
"a	c #4FC4FF",
"b	c #53C0FE",
"c	c #5CBAFA",
"d	c #54B1F6",
"e	c #1472C7",
"f	c #1EA0F3",
"g	c #31BAFF",
"h	c #52CCFF",
"i	c #64D6FF",
"j	c #65D9FF",
"k	c #49D4FE",
"l	c #22A3D8",
"m	c #27BDF4",
"n	c #34CBFF",
"o	c #4ECFFF",
"p	c #60CEFF",
"q	c #60C8FF",
"r	c #47B8FD",
"s	c #177BB2",
"t	c #23A9DF",
"u	c #2DCCFA",
"v	c #40DEFF",
"w	c #5CE6FF",
"x	c #22A7DA",
"y	c #27BEF8",
"z	c #31C2FF",
"A	c #4BC3FF",
"B	c #42BCF4",
"C	c #229BC1",
"D	c #2EC8E6",
"E	c #1980B7",
"F	c #1E9ADE",
"G	c #1D99DE",
"                ",
"                ",
"                ",
"                ",
"     .+     @#  ",
"   $%&*   =-;>, ",
" ')!~{]^/(_:<[} ",
"|1234567890abcd ",
" efghijklmnopqr ",
"   stuvw   xyzAB",
"      CD     EFG",
"                ",
"                ",
"                ",
"                ",
"                "};
