<?xml version="1.0" encoding="UTF-8" standalone="no"?>
<svg
   xmlns:dc="http://purl.org/dc/elements/1.1/"
   xmlns:cc="http://creativecommons.org/ns#"
   xmlns:rdf="http://www.w3.org/1999/02/22-rdf-syntax-ns#"
   xmlns:svg="http://www.w3.org/2000/svg"
   xmlns="http://www.w3.org/2000/svg"
   xmlns:sodipodi="http://sodipodi.sourceforge.net/DTD/sodipodi-0.dtd"
   xmlns:inkscape="http://www.inkscape.org/namespaces/inkscape"
   enable-background="new 0 0 40 40"
   id="Слой_1"
   version="1.1"
   viewBox="0 0 40 40"
   xml:space="preserve"
   sodipodi:docname="clean.svg"
   inkscape:version="0.92.3 (2405546, 2018-03-11)"><metadata
     id="metadata27"><rdf:RDF><cc:Work
         rdf:about=""><dc:format>image/svg+xml</dc:format><dc:type
           rdf:resource="http://purl.org/dc/dcmitype/StillImage" /></cc:Work></rdf:RDF></metadata><defs
     id="defs25" /><sodipodi:namedview
     pagecolor="#ffffff"
     bordercolor="#666666"
     borderopacity="1"
     objecttolerance="10"
     gridtolerance="10"
     guidetolerance="10"
     inkscape:pageopacity="0"
     inkscape:pageshadow="2"
     inkscape:window-width="1404"
     inkscape:window-height="901"
     id="namedview23"
     showgrid="false"
     inkscape:zoom="5.9"
     inkscape:cx="20"
     inkscape:cy="20"
     inkscape:window-x="0"
     inkscape:window-y="0"
     inkscape:window-maximized="0"
     inkscape:current-layer="Слой_1" /><g
     id="g4"
     style="fill:#cccccc;fill-opacity:1"><path
       d="M28,40H11.8c-3.3,0-5.9-2.7-5.9-5.9V16c0-0.6,0.4-1,1-1s1,0.4,1,1v18.1c0,2.2,1.8,3.9,3.9,3.9H28c2.2,0,3.9-1.8,3.9-3.9V16   c0-0.6,0.4-1,1-1s1,0.4,1,1v18.1C33.9,37.3,31.2,40,28,40z"
       id="path2"
       style="fill:#cccccc;fill-opacity:1" /></g><g
     id="g8"
     style="fill:#cccccc;fill-opacity:1"><path
       d="M33.3,4.9h-7.6C25.2,2.1,22.8,0,19.9,0s-5.3,2.1-5.8,4.9H6.5c-2.3,0-4.1,1.8-4.1,4.1S4.2,13,6.5,13h26.9   c2.3,0,4.1-1.8,4.1-4.1S35.6,4.9,33.3,4.9z M19.9,2c1.8,0,3.3,1.2,3.7,2.9h-7.5C16.6,3.2,18.1,2,19.9,2z M33.3,11H6.5   c-1.1,0-2.1-0.9-2.1-2.1c0-1.1,0.9-2.1,2.1-2.1h26.9c1.1,0,2.1,0.9,2.1,2.1C35.4,10.1,34.5,11,33.3,11z"
       id="path6"
       style="fill:#cccccc;fill-opacity:1" /></g><g
     id="g12"
     style="fill:#cccccc;fill-opacity:1"><path
       d="M12.9,35.1c-0.6,0-1-0.4-1-1V17.4c0-0.6,0.4-1,1-1s1,0.4,1,1v16.7C13.9,34.6,13.4,35.1,12.9,35.1z"
       id="path10"
       style="fill:#cccccc;fill-opacity:1" /></g><g
     id="g16"
     style="fill:#cccccc;fill-opacity:1"><path
       d="M26.9,35.1c-0.6,0-1-0.4-1-1V17.4c0-0.6,0.4-1,1-1s1,0.4,1,1v16.7C27.9,34.6,27.4,35.1,26.9,35.1z"
       id="path14"
       style="fill:#cccccc;fill-opacity:1" /></g><g
     id="g20"
     style="fill:#cccccc;fill-opacity:1"><path
       d="M19.9,35.1c-0.6,0-1-0.4-1-1V17.4c0-0.6,0.4-1,1-1s1,0.4,1,1v16.7C20.9,34.6,20.4,35.1,19.9,35.1z"
       id="path18"
       style="fill:#cccccc;fill-opacity:1" /></g></svg>