<?xml version="1.0" encoding="UTF-8" standalone="no"?>
<!-- Created with Inkscape (http://www.inkscape.org/) -->

<svg
   xmlns:dc="http://purl.org/dc/elements/1.1/"
   xmlns:cc="http://creativecommons.org/ns#"
   xmlns:rdf="http://www.w3.org/1999/02/22-rdf-syntax-ns#"
   xmlns:svg="http://www.w3.org/2000/svg"
   xmlns="http://www.w3.org/2000/svg"
   xmlns:sodipodi="http://sodipodi.sourceforge.net/DTD/sodipodi-0.dtd"
   xmlns:inkscape="http://www.inkscape.org/namespaces/inkscape"
   version="1.1"
   width="24"
   height="24"
   id="svg3745"
   inkscape:version="0.92.1 r15371"
   sodipodi:docname="connected.svg">
  <metadata
     id="metadata9">
    <rdf:RDF>
      <cc:Work
         rdf:about="">
        <dc:format>image/svg+xml</dc:format>
        <dc:type
           rdf:resource="http://purl.org/dc/dcmitype/StillImage" />
      </cc:Work>
    </rdf:RDF>
  </metadata>
  <sodipodi:namedview
     pagecolor="#ffffff"
     bordercolor="#666666"
     borderopacity="1"
     objecttolerance="10"
     gridtolerance="10"
     guidetolerance="10"
     inkscape:pageopacity="0"
     inkscape:pageshadow="2"
     inkscape:window-width="1609"
     inkscape:window-height="931"
     id="namedview7"
     showgrid="false"
     inkscape:zoom="9.8333333"
     inkscape:cx="-40.474576"
     inkscape:cy="11.745763"
     inkscape:window-x="0"
     inkscape:window-y="0"
     inkscape:window-maximized="0"
     inkscape:current-layer="svg3745" />
  <defs
     id="defs3747" />
  <path
     inkscape:connector-curvature="0"
     style="opacity:0.9;fill:#cccccc;fill-opacity:1;stroke:#cccccc;stroke-width:1.30334103;stroke-opacity:1"
     id="path3765"
     d="M 15.019724,16.353025 C 12.975522,18.380681 9.6746299,18.367267 7.6469746,16.323065 5.6193194,14.278863 5.632733,10.977971 7.6769347,8.9503165 7.7544163,8.8734611 7.8342918,8.7990599 7.9164435,8.7272187 l 3.4318855,3.9244523 z m -6.2780767,0.208669 -1.303341,-1.303341 -6.516705,6.516705 1.303341,1.303341 z" />
  <path
     inkscape:connector-curvature="0"
     style="opacity:0.9;fill:#cccccc;fill-opacity:1;stroke:#cccccc;stroke-width:1.30334103;stroke-opacity:1"
     id="path3767"
     d="m 8.980276,7.6469755 c 2.044202,-2.0276558 5.345094,-2.0142418 7.372748,0.02996 2.027656,2.0442017 2.014242,5.3450935 -0.02996,7.3727485 -0.07748,0.07686 -0.157357,0.151257 -0.239509,0.223098 L 12.65167,11.34833 Z m 14.098122,-5.4220328 -1.303341,-1.303341 -6.516705,6.516705 1.303341,1.303341 z" />
</svg>
