<?xml version="1.0" encoding="UTF-8" standalone="no"?>
<svg
   xmlns:dc="http://purl.org/dc/elements/1.1/"
   xmlns:cc="http://creativecommons.org/ns#"
   xmlns:rdf="http://www.w3.org/1999/02/22-rdf-syntax-ns#"
   xmlns:svg="http://www.w3.org/2000/svg"
   xmlns="http://www.w3.org/2000/svg"
   xmlns:sodipodi="http://sodipodi.sourceforge.net/DTD/sodipodi-0.dtd"
   xmlns:inkscape="http://www.inkscape.org/namespaces/inkscape"
   height="48"
   viewBox="0 0 48 48"
   width="48"
   version="1.1"
   id="svg6"
   sodipodi:docname="cscope.svg"
   inkscape:version="0.92.1 r15371">
  <metadata
     id="metadata12">
    <rdf:RDF>
      <cc:Work
         rdf:about="">
        <dc:format>image/svg+xml</dc:format>
        <dc:type
           rdf:resource="http://purl.org/dc/dcmitype/StillImage" />
        <dc:title />
      </cc:Work>
    </rdf:RDF>
  </metadata>
  <defs
     id="defs10" />
  <sodipodi:namedview
     pagecolor="#ffffff"
     bordercolor="#666666"
     borderopacity="1"
     objecttolerance="10"
     gridtolerance="10"
     guidetolerance="10"
     inkscape:pageopacity="0"
     inkscape:pageshadow="2"
     inkscape:window-width="1512"
     inkscape:window-height="816"
     id="namedview8"
     showgrid="false"
     inkscape:zoom="4.9166667"
     inkscape:cx="-58.881356"
     inkscape:cy="23.491526"
     inkscape:window-x="351"
     inkscape:window-y="81"
     inkscape:window-maximized="0"
     inkscape:current-layer="svg6" />
  <path
     d="M 34.305317,30.188679 H 32.123499 L 31.368782,29.433963 C 34.058319,26.319039 35.67753,22.271012 35.67753,17.838765 35.67753,7.9862779 27.691252,0 17.838765,0 7.986278,0 0,7.9862779 0,17.838765 0,27.691252 7.986278,35.67753 17.838765,35.67753 c 4.432247,0 8.480274,-1.619211 11.595198,-4.295025 l 0.754716,0.754716 v 2.168096 L 43.910807,48 48,43.910807 Z m -16.466552,0 c -6.819898,0 -12.349914,-5.530017 -12.349914,-12.349914 0,-6.819898 5.530016,-12.3499142 12.349914,-12.3499142 6.819897,0 12.349914,5.5300162 12.349914,12.3499142 0,6.819897 -5.530017,12.349914 -12.349914,12.349914 z"
     id="path2"
     style="fill:#cccccc;fill-opacity:1;stroke-width:1.37221277"
     inkscape:connector-curvature="0" />
  <path
     d="M0 0h48v48H0z"
     fill="none"
     id="path4" />
</svg>
