<?xml version="1.0" encoding="UTF-8" standalone="no"?>
<svg
   xmlns:dc="http://purl.org/dc/elements/1.1/"
   xmlns:cc="http://creativecommons.org/ns#"
   xmlns:rdf="http://www.w3.org/1999/02/22-rdf-syntax-ns#"
   xmlns:svg="http://www.w3.org/2000/svg"
   xmlns="http://www.w3.org/2000/svg"
   xmlns:sodipodi="http://sodipodi.sourceforge.net/DTD/sodipodi-0.dtd"
   xmlns:inkscape="http://www.inkscape.org/namespaces/inkscape"
   height="512"
   id="svg2"
   version="1.1"
   width="512"
   sodipodi:docname="cut.svg"
   inkscape:version="0.92.3 (2405546, 2018-03-11)">
  <metadata
     id="metadata14">
    <rdf:RDF>
      <cc:Work
         rdf:about="">
        <dc:format>image/svg+xml</dc:format>
        <dc:type
           rdf:resource="http://purl.org/dc/dcmitype/StillImage" />
        <dc:title></dc:title>
      </cc:Work>
    </rdf:RDF>
  </metadata>
  <sodipodi:namedview
     pagecolor="#ffffff"
     bordercolor="#666666"
     borderopacity="1"
     objecttolerance="10"
     gridtolerance="10"
     guidetolerance="10"
     inkscape:pageopacity="0"
     inkscape:pageshadow="2"
     inkscape:window-width="1789"
     inkscape:window-height="1190"
     id="namedview12"
     showgrid="false"
     inkscape:zoom="0.4609375"
     inkscape:cx="-123.66102"
     inkscape:cy="256"
     inkscape:window-x="0"
     inkscape:window-y="0"
     inkscape:window-maximized="0"
     inkscape:current-layer="svg2" />
  <defs
     id="defs4" />
  <g
     id="layer1"
     transform="matrix(0.9845422,0,0,0.9845422,3.9570715,-526.3957)"
     style="fill:#cccccc;fill-opacity:1;stroke:#cccccc;stroke-opacity:1">
    <g
       id="g4305"
       style="fill:#cccccc;fill-opacity:1;stroke:#cccccc;stroke-opacity:1">
      <g
         id="g4345"
         transform="translate(28,-40.00001)"
         style="fill:#cccccc;fill-opacity:1;stroke:#cccccc;stroke-opacity:1">
        <g
           id="text2994"
           style="font-style:normal;font-variant:normal;font-weight:normal;font-stretch:normal;font-size:550px;line-height:125%;font-family:Ubuntu;-inkscape-font-specification:Ubuntu;text-align:start;letter-spacing:0px;word-spacing:0px;writing-mode:lr-tb;text-anchor:start;fill:#cccccc;fill-opacity:1;stroke:#cccccc;stroke-opacity:1">
          <g
             id="g3892"
             transform="matrix(1.2,0,0,1.2,138.87044,-187.56951)"
             style="fill:#cccccc;fill-opacity:1;stroke:#cccccc;stroke-opacity:1">
            <g
               id="g4089"
               transform="translate(10.87826,-2.2242384)"
               style="fill:#cccccc;fill-opacity:1;stroke:#cccccc;stroke-opacity:1">
              <path
                 d="m 103.5625,5.34375 c -4.615711,-0.04092 -9.01173,3.534108 -9.90625,8.0625 -0.723235,3.715728 -0.04066,4.207534 0.1875,5.21875 0.22815,1.011216 0.521422,1.878556 0.84375,2.875 0.644657,1.992876 1.503384,4.359558 2.625,7.21875 2.243232,5.718384 5.46811,13.376464 9.46875,22.5625 8.00129,18.372072 19.08056,42.840114 31.28125,69.09375 23.13689,49.7863 49.90436,105.22107 67.40625,138.65625 1.38672,-1.06193 3.09576,-2.0377 5.4375,-1.96875 1.10839,0.0325 1.87017,0.32396 2.25,0.46875 2.94722,1.12352 4.14496,3.4684 4.875,5.4375 0.73004,1.9691 1.10175,4.05979 1.34375,6.34375 0.484,4.56791 0.389,9.96757 0.0937,15.375 -0.29525,5.40743 -0.8215,10.76937 -1.34375,15.03125 -0.26112,2.13095 -0.52031,3.98028 -0.75,5.4375 -0.22969,1.45722 -0.31276,2.2214 -0.65625,3.375 -0.51864,1.74186 -1.4217,3.66824 -2.5625,5.84375 0.083,-0.015 0.16734,-0.014 0.25,-0.0312 14.12288,-2.95198 20.2057,-5.42868 27,-9.1875 0.0251,-0.0124 0.0688,-0.0188 0.0937,-0.0312 0.51363,-0.28873 0.96636,-0.63778 1.46875,-0.9375 0.50239,0.29974 0.92387,0.64877 1.4375,0.9375 0.0249,0.0126 0.0687,0.0189 0.0937,0.0312 6.77992,3.75086 12.8423,6.23478 26.96875,9.1875 0.0928,0.0194 0.18798,0.0147 0.28125,0.0312 -1.13828,-2.17153 -2.01337,-4.10445 -2.53125,-5.84375 -0.34349,-1.1536 -0.45781,-1.91778 -0.6875,-3.375 -0.22969,-1.45722 -0.48888,-3.30655 -0.75,-5.4375 -0.52225,-4.2619 -1.0485,-9.62382 -1.34375,-15.03125 -0.29525,-5.40743 -0.39025,-10.80709 0.0937,-15.375 0.242,-2.28396 0.64496,-4.37465 1.375,-6.34375 0.73004,-1.9691 1.92778,-4.31398 4.875,-5.4375 0.38712,-0.14756 1.15702,-0.43407 2.25,-0.46875 2.32217,-0.0682 3.99406,0.88587 5.375,1.9375 17.50079,-33.43289 44.26542,-88.84926 67.40625,-138.625 12.20558,-26.254104 23.30742,-50.720982 31.3125,-69.09375 4.00254,-9.186384 7.22437,-16.843852 9.46875,-22.5625 1.12219,-2.859324 1.97998,-5.22573 2.625,-7.21875 0.32251,-0.996504 0.61544,-1.863652 0.84375,-2.875 0.22831,-1.011348 0.91096,-1.501906 0.1875,-5.21875 -0.72988,-3.740112 -3.79406,-6.925268 -7.5,-7.8125 -3.70595,-0.887232 -7.87426,0.589658 -10.21875,3.59375 -42.64248,54.529896 -76.01233,103.66331 -99.875,140.28125 -0.0125,-2e-5 -0.05,-2e-5 -0.0625,0 -9.40257,14.45645 -20.70443,32.61448 -31.625,50.15625 -10.92055,-17.5418 -22.25215,-35.69745 -31.65625,-50.15625 -0.0125,-2e-5 -0.0188,-2e-5 -0.0312,0 C 187.41851,112.85082 154.01748,63.717396 111.375,9.1875 109.52519,6.831312 106.558,5.363634 103.5625,5.34375 Z m 9.78125,8.90625 c -0.004,-0.01716 0.14376,0.07318 0.1875,0.625 -0.0722,-0.24954 -0.18369,-0.608116 -0.1875,-0.625 z m 259.21875,0 c -0.004,0.0168 -0.1152,0.37546 -0.1875,0.625 0.0438,-0.552 0.19136,-0.642088 0.1875,-0.625 z"
                 id="path3798-4"
                 style="color:#000000;font-style:normal;font-variant:normal;font-weight:normal;font-stretch:normal;font-size:550px;line-height:125%;font-family:Ubuntu;-inkscape-font-specification:Ubuntu;text-indent:0;text-align:start;text-decoration:none;text-decoration-line:none;letter-spacing:0px;word-spacing:0px;text-transform:none;writing-mode:lr-tb;direction:ltr;baseline-shift:baseline;text-anchor:start;display:inline;overflow:visible;visibility:visible;fill:#cccccc;fill-opacity:1;fill-rule:nonzero;stroke:#cccccc;stroke-width:16.66666603;stroke-opacity:1;marker:none;enable-background:accumulate"
                 transform="matrix(0.83333333,0,0,0.83333333,-139.0587,639.94309)"
                 inkscape:connector-curvature="0" />
              <path
                 d="m 36.684052,854.14953 c -2.01743,-0.0594 -3.48067,0.79895 -4.65625,1.71875 -10.09848,7.90115 -20.84085,23.18849 -28.9687504,31.03125 -8.66031,8.35654 -13.2005496,12.48795 -22.6874996,17.875 -8.96306,5.08959 -22.03069,8.14868 -34.6875,13.31248 -11.87238,4.8438 -28.06106,9.282 -38.93749,16.9063 -10.202702,7.152 -15.214722,13.2178 -22.125012,22.75 -7.13492,9.842 -16.72179,26.3866 -20.5,39.875 -3.64502,13.01279 -4.53791,25.47419 -0.65625,37.56249 3.89283,12.1231 11.86652,21.0156 21.59375,26.2812 9.87461,5.3455 21.423312,6.3646 31.750012,3.8125 9.97122,-2.464 18.83609,-7.1717 27.4375,-15.0937 9.08591,-8.3683 16.83588,-22.5502 22.49999,-32.5 6.0052,-10.5489 7.63535,-19.14269 11.71875,-29.46879 4.35085,-11.0024 8.73935,-25.7236 13.6562496,-34.6562 5.2148,-9.4738 10.00388,-16.3812 15.9375,-21.9375 2.5434204,-2.3817 5.7131604,-3.7918 9.3750004,-5.4688 3.66185,-1.677 7.88831,-3.703 11.25,-7.75 2.93097,-3.5284 5.77976,-7.85458 8.09375,-11.78123 2.314,-3.92665 3.97889,-6.9727 4.75,-9.5625 0.28625,-0.96133 0.3711,-1.59815 0.5625,-2.8125 0.19141,-1.21435 0.4074,-2.75545 0.625,-4.53125 0.43521,-3.55156 0.87896,-8.02505 1.125,-12.53125 0.24605,-4.50619 0.30959,-9.0059 -0.0937,-12.8125 -0.20165,-1.9033 -0.51663,-3.64033 -1.125,-5.28125 -0.60835,-1.64091 -1.60648,-3.59498 -4.0625,-4.53125 -0.31652,-0.12065 -0.95134,-0.37913 -1.875,-0.40625 z m 53.4375,0 c -0.91081,0.0289 -1.55239,0.28329 -1.875,0.40625 -2.45601,0.93627 -3.45413,2.89034 -4.0625,4.53125 -0.60835,1.64092 -0.92333,3.37795 -1.125,5.28125 -0.40332,3.8066 -0.33979,8.30631 -0.0937,12.8125 0.24605,4.5062 0.6898,8.97967 1.125,12.53125 0.21761,1.7758 0.4336,3.3169 0.625,4.53125 0.19141,1.21435 0.27627,1.85117 0.5625,2.8125 0.77113,2.58981 2.43601,5.63585 4.75,9.5625 2.314,3.92665 5.1628,8.25283 8.09375,11.78123 3.359178,4.044 7.564568,6.0729 11.218748,7.75 3.65418,1.6771 6.8291,3.0848 9.375,5.4688 5.93859,5.561 10.75728,12.4697 15.96875,21.9375 4.91691,8.9326 9.30541,23.6538 13.65625,34.6562 4.08341,10.3261 5.71356,18.91979 11.71875,29.46879 5.66412,9.9498 13.41409,24.1317 22.5,32.5 8.60142,7.922 17.46634,12.6296 27.4375,15.0937 10.32665,2.552 21.87537,1.533 31.75,-3.8125 9.72726,-5.2656 17.70092,-14.1582 21.59375,-26.2812 3.88381,-12.0951 2.95578,-24.5558 -0.6875,-37.56249 -3.77648,-13.4822 -13.3303,-30.0281 -20.46875,-39.875 -6.91029,-9.5322 -11.92231,-15.598 -22.125,-22.75 -10.87643,-7.6243 -27.06511,-12.0625 -38.9375,-16.9063 -12.6568,-5.1638 -25.72443,-8.22289 -34.6875,-13.31248 -9.48694,-5.38705 -14.02718,-9.51846 -22.6875,-17.875 -8.12788,-7.84275 -18.87027,-23.13009 -28.968748,-31.03125 -1.17563,-0.91983 -2.63927,-1.77796 -4.65625,-1.71875 z M 196.93405,958.61831 c 12.93636,-0.5393 29.38997,9.5056 39.5625,27.125 6.51001,11.2756 9.11776,23.29829 8.25,33.31249 -0.86776,10.0141 -5.05561,17.7851 -12.03125,21.8124 -6.97651,4.0279 -15.7986,3.7509 -24.90625,-0.5 -9.10765,-4.2508 -18.20914,-12.5062 -24.71875,-23.7812 -6.51037,-11.2763 -9.11763,-23.30679 -8.25,-33.31249 0.86763,-10.0056 5.05393,-17.7529 12.03125,-21.7812 3.05223,-1.7622 6.45065,-2.7244 10.0625,-2.875 z m -268.593738,0.031 c 4.22133,-0.084 8.07185,0.8284 11.5625,2.8437 6.97829,4.0289 11.18777,11.7758 12.06249,21.7813 0.87473,10.0055 -1.7403,22.03739 -8.24999,33.31249 -6.50961,11.275 -15.6111,19.5304 -24.71875,23.7812 -9.10766,4.2509 -17.92974,4.5279 -24.906262,0.5 -6.97661,-4.0279 -11.18765,-11.7984 -12.0625,-21.8125 -0.87485,-10.014 1.74067,-22.03799 8.25,-33.31249 9.762612,-16.9093 25.399212,-26.8413 38.062512,-27.0937 z"
                 id="path3794-9-2"
                 style="color:#000000;font-style:normal;font-variant:normal;font-weight:normal;font-stretch:normal;font-size:550px;line-height:125%;font-family:Ubuntu;-inkscape-font-specification:Ubuntu;text-indent:0;text-align:start;text-decoration:none;text-decoration-line:none;letter-spacing:0px;word-spacing:0px;text-transform:none;writing-mode:lr-tb;direction:ltr;baseline-shift:baseline;text-anchor:start;display:inline;overflow:visible;visibility:visible;fill:#cccccc;fill-opacity:1;fill-rule:nonzero;stroke:#cccccc;stroke-width:8.33333302;stroke-opacity:1;marker:none;enable-background:accumulate"
                 inkscape:connector-curvature="0" />
            </g>
          </g>
        </g>
      </g>
    </g>
  </g>
</svg>
