<?xml version="1.0" encoding="UTF-8" standalone="no"?>
<svg
   xmlns:dc="http://purl.org/dc/elements/1.1/"
   xmlns:cc="http://creativecommons.org/ns#"
   xmlns:rdf="http://www.w3.org/1999/02/22-rdf-syntax-ns#"
   xmlns:svg="http://www.w3.org/2000/svg"
   xmlns="http://www.w3.org/2000/svg"
   xmlns:sodipodi="http://sodipodi.sourceforge.net/DTD/sodipodi-0.dtd"
   xmlns:inkscape="http://www.inkscape.org/namespaces/inkscape"
   style="enable-background:new 0 0 48 48;"
   version="1.1"
   viewBox="0 0 48 48"
   xml:space="preserve"
   id="svg6"
   sodipodi:docname="file_reload.svg"
   inkscape:version="0.92.3 (2405546, 2018-03-11)"><metadata
     id="metadata12"><rdf:RDF><cc:Work
         rdf:about=""><dc:format>image/svg+xml</dc:format><dc:type
           rdf:resource="http://purl.org/dc/dcmitype/StillImage" /><dc:title /></cc:Work></rdf:RDF></metadata><defs
     id="defs10" /><sodipodi:namedview
     pagecolor="#ffffff"
     bordercolor="#666666"
     borderopacity="1"
     objecttolerance="10"
     gridtolerance="10"
     guidetolerance="10"
     inkscape:pageopacity="0"
     inkscape:pageshadow="2"
     inkscape:window-width="1387"
     inkscape:window-height="1072"
     id="namedview8"
     showgrid="false"
     inkscape:zoom="4.9166667"
     inkscape:cx="-47.18644"
     inkscape:cy="24"
     inkscape:window-x="922"
     inkscape:window-y="159"
     inkscape:window-maximized="0"
     inkscape:current-layer="svg6" /><g
     id="Padding__x26__Artboard" /><path
     inkscape:connector-curvature="0"
     id="path3"
     style="fill:#dd4814;fill-opacity:1;stroke:none;stroke-width:1.8936553;stroke-opacity:1"
     d="M 26.912606,5.3197166 28.423458,3.9928702 C 28.877462,3.5934225 29.146532,3.0330899 29.180731,2.4191479 29.215859,1.8070428 29.01337,1.2208239 28.612085,0.76589218 27.784539,-0.16614602 26.340248,-0.26230584 25.385107,0.55876416 L 19.691189,5.6146723 c -0.03236,0.020338 -0.06194,0.042531 -0.08785,0.064725 -0.498372,0.4197855 -0.785014,1.0466801 -0.785014,1.7198177 0,0.6805418 0.279238,1.2907912 0.774845,1.7087209 l 5.79932,5.1354231 c 0.437358,0.37911 0.97919,0.564025 1.517329,0.564025 0.632443,0 1.258429,-0.257045 1.705028,-0.760056 0.380019,-0.432738 0.581599,-0.957925 0.581599,-1.516402 0,-0.654636 -0.272763,-1.259356 -0.772063,-1.708721 l -0.875058,-0.777269 c 7.957765,1.718662 13.785053,9.111947 13.322509,17.45401 C 40.397495,36.079572 33.025382,43.234407 24.437352,43.448921 19.854858,43.56913 15.497045,41.858553 12.204414,38.646364 8.9108555,35.434176 7.0976427,31.134613 7.0976427,26.542877 c 0,-4.303256 1.6199653,-8.391998 4.5630843,-11.51172 0.809973,-0.861764 0.765605,-2.252408 -0.09802,-3.101239 -0.447527,-0.438286 -1.068873,-0.636154 -1.6624963,-0.654637 -0.632443,0.01477 -1.2436392,0.294028 -1.6754494,0.763749 -4.4142052,4.797008 -6.3929424,11.271321 -5.4303974,17.76226 1.3924994,9.39431 9.2704081,16.987414 18.7303531,18.056306 0.845119,0.09616 1.685618,0.142403 2.518713,0.142403 5.266729,0 10.24405,-1.889963 14.227373,-5.447952 C 42.829267,38.47995 45.44414,32.643648 45.44414,26.542896 45.444181,15.788108 37.416939,6.7571714 26.912606,5.3197166 Z" /></svg>