<?xml version="1.0" encoding="UTF-8" standalone="no"?>
<svg
   xmlns:dc="http://purl.org/dc/elements/1.1/"
   xmlns:cc="http://creativecommons.org/ns#"
   xmlns:rdf="http://www.w3.org/1999/02/22-rdf-syntax-ns#"
   xmlns:svg="http://www.w3.org/2000/svg"
   xmlns="http://www.w3.org/2000/svg"
   xmlns:sodipodi="http://sodipodi.sourceforge.net/DTD/sodipodi-0.dtd"
   xmlns:inkscape="http://www.inkscape.org/namespaces/inkscape"
   data-name="Livello 1"
   id="Livello_1"
   viewBox="0 0 128 128"
   version="1.1"
   sodipodi:docname="file_save_all.svg"
   inkscape:version="0.92.1 r15371">
  <metadata
     id="metadata13">
    <rdf:RDF>
      <cc:Work
         rdf:about="">
        <dc:format>image/svg+xml</dc:format>
        <dc:type
           rdf:resource="http://purl.org/dc/dcmitype/StillImage" />
        <dc:title />
      </cc:Work>
    </rdf:RDF>
  </metadata>
  <defs
     id="defs11" />
  <sodipodi:namedview
     pagecolor="#ffffff"
     bordercolor="#666666"
     borderopacity="1"
     objecttolerance="10"
     gridtolerance="10"
     guidetolerance="10"
     inkscape:pageopacity="0"
     inkscape:pageshadow="2"
     inkscape:window-width="1920"
     inkscape:window-height="1042"
     id="namedview9"
     showgrid="false"
     inkscape:zoom="1.84375"
     inkscape:cx="-231.59322"
     inkscape:cy="64"
     inkscape:window-x="0"
     inkscape:window-y="0"
     inkscape:window-maximized="0"
     inkscape:current-layer="Livello_1" />
  <path
     inkscape:connector-curvature="0"
     style="fill:#cccccc;stroke:#cccccc;stroke-width:3.94085312;stroke-miterlimit:4;stroke-dasharray:none;stroke-opacity:1;fill-opacity:1"
     d="m 123.12194,87.970427 a 2.9076363,3.004436 0 0 0 -2.90764,3.004436 v 22.032527 a 8.7229088,9.013308 0 0 1 -8.72291,9.01331 H 16.50861 A 8.7229088,9.013308 0 0 1 7.7857008,113.00739 V 90.974863 a 2.9076363,3.004436 0 0 0 -5.8152725,0 V 113.00739 A 14.538181,15.02218 0 0 0 16.50861,128.02957 h 94.98278 a 14.538181,15.02218 0 0 0 14.53818,-15.02218 V 90.974863 a 2.9076363,3.004436 0 0 0 -2.90763,-3.004436 z"
     id="path6" />
  <path
     inkscape:connector-curvature="0"
     style="fill:#cccccc;stroke:#cccccc;stroke-width:3.57509804;stroke-miterlimit:4;stroke-dasharray:none;stroke-opacity:1;fill-opacity:1"
     d="m 29.329416,76.174867 v 0 a 3,2.3964987 0 0 0 0.44,0.28758 l 0.24,0.103848 a 1.74,1.3899692 0 0 0 0.59,0.19172 l 0.25,0.05592 v 0 a 3,2.3964987 0 0 0 1.16,0 l 0.26,-0.06391 0.3,-0.07189 a 3,2.3964987 0 0 0 0.3,-0.127814 l 0.21,-0.09586 a 3,2.3964987 0 0 0 0.46,-0.303556 L 60.449411,54.678274 a 3,2.3964987 0 1 0 -4.21,-3.363086 L 34.449416,68.697792 V 4.1840467 a 3,2.3964987 0 0 0 -6,0 V 68.697792 L 6.6594159,51.315188 A 3,2.3964987 0 0 0 2.449416,54.678274 Z"
     id="path4-1" />
  <path
     inkscape:connector-curvature="0"
     style="fill:#cccccc;stroke:#cccccc;stroke-width:3.57509804;stroke-miterlimit:4;stroke-dasharray:none;stroke-opacity:1;fill-opacity:1"
     d="m 94.317159,76.174867 v 0 a 3,2.3964987 0 0 0 0.44,0.28758 l 0.24,0.10385 a 1.74,1.3899692 0 0 0 0.59,0.19172 l 0.25,0.0559 v 0 a 3,2.3964987 0 0 0 1.16,0 l 0.26,-0.0639 0.3,-0.0719 a 3,2.3964987 0 0 0 0.3,-0.12782 l 0.21,-0.0959 a 3,2.3964987 0 0 0 0.46,-0.30355 l 26.909991,-21.47263 a 3,2.3964987 0 1 0 -4.21,-3.36309 L 99.437159,68.697737 V 4.1840467 a 3,2.3964987 0 0 0 -6,0 V 68.697797 l -21.79,-17.38261 a 3,2.3964987 0 0 0 -4.21,3.36309 z"
     id="path4-1-1" />
</svg>
