<?xml version="1.0" encoding="UTF-8" standalone="no"?>
<svg
   xmlns:dc="http://purl.org/dc/elements/1.1/"
   xmlns:cc="http://creativecommons.org/ns#"
   xmlns:rdf="http://www.w3.org/1999/02/22-rdf-syntax-ns#"
   xmlns:svg="http://www.w3.org/2000/svg"
   xmlns="http://www.w3.org/2000/svg"
   xmlns:sodipodi="http://sodipodi.sourceforge.net/DTD/sodipodi-0.dtd"
   xmlns:inkscape="http://www.inkscape.org/namespaces/inkscape"
   enable-background="new 0 0 32 32"
   height="32px"
   id="Слой_1"
   version="1.1"
   viewBox="0 0 32 32"
   width="32px"
   xml:space="preserve"
   sodipodi:docname="file_close.svg"
   inkscape:version="0.92.3 (2405546, 2018-03-11)"><metadata
     id="metadata20"><rdf:RDF><cc:Work
         rdf:about=""><dc:format>image/svg+xml</dc:format><dc:type
           rdf:resource="http://purl.org/dc/dcmitype/StillImage" /></cc:Work></rdf:RDF></metadata><defs
     id="defs18" /><sodipodi:namedview
     pagecolor="#ffffff"
     bordercolor="#666666"
     borderopacity="1"
     objecttolerance="10"
     gridtolerance="10"
     guidetolerance="10"
     inkscape:pageopacity="0"
     inkscape:pageshadow="2"
     inkscape:window-width="1585"
     inkscape:window-height="928"
     id="namedview16"
     showgrid="false"
     inkscape:zoom="7.375"
     inkscape:cx="-7.7288136"
     inkscape:cy="14.847458"
     inkscape:window-x="0"
     inkscape:window-y="0"
     inkscape:window-maximized="0"
     inkscape:current-layer="Слой_1" /><path
     d="M 18.328927,16.022373 31.480421,2.9280129 c 0.630518,-0.624834 0.630518,-1.6363948 0,-2.25963136 -0.628922,-0.62483467 -1.650521,-0.62483467 -2.279444,0 L 16.060657,13.751555 2.7990223,0.47342034 c -0.628922,-0.63122679 -1.6505212,-0.63122679 -2.27944333,0 -0.62892199,0.63282476 -0.62892199,1.65716986 0,2.28839626 L 13.771636,16.030364 0.47169149,29.271741 c -0.62892199,0.624835 -0.62892199,1.636396 0,2.259633 0.62892211,0.624835 1.65052131,0.624835 2.27944331,0 L 16.039907,18.301181 29.248865,31.526579 c 0.628922,0.631228 1.650522,0.631228 2.279443,0 0.628923,-0.632824 0.628923,-1.657169 0,-2.288397 z"
     id="Close"
     inkscape:connector-curvature="0"
     style="fill:#dd4814;stroke-width:1.59714532;fill-opacity:1" /><g
     id="g3" /><g
     id="g5" /><g
     id="g7" /><g
     id="g9" /><g
     id="g11" /><g
     id="g13" /></svg>