<?xml version="1.0" encoding="UTF-8" standalone="no"?>
<svg
   xmlns:dc="http://purl.org/dc/elements/1.1/"
   xmlns:cc="http://creativecommons.org/ns#"
   xmlns:rdf="http://www.w3.org/1999/02/22-rdf-syntax-ns#"
   xmlns:svg="http://www.w3.org/2000/svg"
   xmlns="http://www.w3.org/2000/svg"
   xmlns:sodipodi="http://sodipodi.sourceforge.net/DTD/sodipodi-0.dtd"
   xmlns:inkscape="http://www.inkscape.org/namespaces/inkscape"
   enable-background="new 0 0 50 50"
   height="50px"
   id="Layer_1"
   version="1.1"
   viewBox="0 0 50 50"
   width="50px"
   xml:space="preserve"
   sodipodi:docname="find_in_files.svg"
   inkscape:version="0.92.1 r15371"><metadata
     id="metadata13"><rdf:RDF><cc:Work
         rdf:about=""><dc:format>image/svg+xml</dc:format><dc:type
           rdf:resource="http://purl.org/dc/dcmitype/StillImage" /><dc:title /></cc:Work></rdf:RDF></metadata><defs
     id="defs11" /><sodipodi:namedview
     pagecolor="#ffffff"
     bordercolor="#666666"
     borderopacity="1"
     objecttolerance="10"
     gridtolerance="10"
     guidetolerance="10"
     inkscape:pageopacity="0"
     inkscape:pageshadow="2"
     inkscape:window-width="1632"
     inkscape:window-height="1018"
     id="namedview9"
     showgrid="false"
     inkscape:zoom="4.72"
     inkscape:cx="-83.83533"
     inkscape:cy="17.161018"
     inkscape:window-x="288"
     inkscape:window-y="2"
     inkscape:window-maximized="0"
     inkscape:current-layer="Layer_1" /><g
     id="g824"
     transform="matrix(0.97547862,0,0,1.1420288,0.61484937,-4.1217332)"
     style="fill:none;stroke:#cccccc;stroke-width:2.7817347;stroke-miterlimit:4;stroke-dasharray:none;stroke-opacity:1"><path
       style="fill:none;fill-opacity:1;stroke:#cccccc;stroke-width:2.7817347;stroke-linecap:round;stroke-miterlimit:4;stroke-dasharray:none;stroke-opacity:1"
       id="path4"
       stroke-miterlimit="10"
       d="M 46,15 V 11 C 46,9.896 45.104,9 44,9 44,9 19.352,9 18,9 16.531,9 15.516,5 14,5 H 3 C 1.896,5 1,5.896 1,7 v 4 29 4 c 0,1.104 0.896,2 2,2 h 39 c 1.104,0 2,-0.896 2,-2"
       inkscape:connector-curvature="0" /><path
       style="fill:none;fill-opacity:1;stroke:#cccccc;stroke-width:2.7817347;stroke-linecap:round;stroke-miterlimit:4;stroke-dasharray:none;stroke-opacity:1"
       id="path6"
       stroke-miterlimit="10"
       d="M 1,44 6,17 c 0,-1.104 0.896,-2 2,-2 h 39 c 1.104,0 2,0.896 2,2 l -5,27"
       inkscape:connector-curvature="0" /></g><path
     d="m 29.83598,34.248819 h -1.067654 l -0.369314,-0.369316 c 1.316101,-1.524261 2.108448,-3.505128 2.108448,-5.674009 0,-4.821228 -3.908016,-8.729244 -8.729244,-8.729244 -4.821229,0 -8.729244,3.908016 -8.729244,8.729244 0,4.821229 3.908015,8.729241 8.729244,8.729241 2.168881,0 4.149748,-0.792341 5.674009,-2.101731 l 0.369314,0.369316 v 1.060941 l 6.714803,6.701372 2.001011,-2.001014 z m -8.057764,0 c -3.337257,0 -6.043322,-2.706068 -6.043322,-6.043325 0,-3.337258 2.706065,-6.043323 6.043322,-6.043323 3.337257,0 6.043323,2.706065 6.043323,6.043323 0,3.337257 -2.706066,6.043325 -6.043323,6.043325 z"
     id="path2"
     style="fill:#dd4814;fill-opacity:1;stroke-width:0.67148036"
     inkscape:connector-curvature="0" /></svg>