<?xml version="1.0" encoding="UTF-8" standalone="no"?>
<svg
   xmlns:dc="http://purl.org/dc/elements/1.1/"
   xmlns:cc="http://creativecommons.org/ns#"
   xmlns:rdf="http://www.w3.org/1999/02/22-rdf-syntax-ns#"
   xmlns:svg="http://www.w3.org/2000/svg"
   xmlns="http://www.w3.org/2000/svg"
   xmlns:sodipodi="http://sodipodi.sourceforge.net/DTD/sodipodi-0.dtd"
   xmlns:inkscape="http://www.inkscape.org/namespaces/inkscape"
   enable-background="new 0 0 99.176 99.176"
   height="16"
   id="Layer_1"
   version="1.1"
   viewBox="0 0 16 16"
   width="16"
   xml:space="preserve"
   inkscape:version="0.92.1 r15371"
   sodipodi:docname="finger.svg"><metadata
     id="metadata15"><rdf:RDF><cc:Work
         rdf:about=""><dc:format>image/svg+xml</dc:format><dc:type
           rdf:resource="http://purl.org/dc/dcmitype/StillImage" /><dc:title></dc:title></cc:Work></rdf:RDF></metadata><defs
     id="defs13" /><sodipodi:namedview
     pagecolor="#ffffff"
     bordercolor="#666666"
     borderopacity="1"
     objecttolerance="10"
     gridtolerance="10"
     guidetolerance="10"
     inkscape:pageopacity="0"
     inkscape:pageshadow="2"
     inkscape:window-width="1608"
     inkscape:window-height="782"
     id="namedview11"
     showgrid="false"
     inkscape:showpageshadow="false"
     inkscape:zoom="2.3796079"
     inkscape:cx="-57.152273"
     inkscape:cy="49.588001"
     inkscape:window-x="2073"
     inkscape:window-y="198"
     inkscape:window-maximized="0"
     inkscape:current-layer="Layer_1" /><path
     style="fill:#a08c9a;fill-opacity:1;stroke:#cccccc;stroke-width:1.09395945;stroke-miterlimit:10;stroke-dasharray:none;stroke-opacity:1"
     inkscape:connector-curvature="0"
     id="path7"
     stroke-miterlimit="10"
     d="m 9.7535256,14.150821 c 9.13e-4,-0.527629 -0.341714,-0.958951 -0.7620038,-0.959869 l -1.320075,-0.0027 C 7.5334821,13.187714 7.4189074,13.044398 7.4189074,12.870126 7.4192729,12.691498 7.534213,12.548641 7.6725431,12.548641 l 2.4800749,0.0053 c 0.422665,9.16e-4 0.764013,-0.426278 0.764926,-0.95666 5.49e-4,-0.527629 -0.339337,-0.957575 -0.76255,-0.958492 l -1.969332,-0.0046 c -0.1403402,0 -0.2532702,-0.144691 -0.252722,-0.318963 0,-0.177711 0.1134782,-0.3219439 0.2534529,-0.3214855 l 2.8230671,0.00613 c 0.42029,4.585e-4 0.763465,-0.4262777 0.764196,-0.9571173 5.48e-4,-0.529854 -0.341165,-0.9584243 -0.761638,-0.9588829 L 8.1889513,8.0776892 C 8.0489765,8.0772306 7.9362293,7.9339153 7.9362293,7.7557456 7.9365946,7.5819326 8.0497074,7.4381587 8.1898649,7.4381587 l 6.4984081,0.013987 C 15.110756,7.4530633 15.452104,7.0231172 15.453019,6.4957165 15.453932,5.9657937 15.113863,5.537682 14.691015,5.5369941 L 5.6460159,5.5175034 6.3807919,3.3565369 C 6.6053728,2.7066877 6.787742,1.9559444 6.5167466,1.40676 6.2426446,0.85986844 5.6405339,0.72389081 5.170175,1.1010969 c 0,0 -1.6161051,3.2192072 -2.693874,4.1068453 -1.0808755,0.8874088 -1.92565766,2.3272123 -1.92931236,5.0231458 -0.00585,4.462498 2.73864406,4.867449 3.55912256,4.869283 l 4.8826696,0.01072 c 0.4202898,4.59e-4 0.7640138,-0.430405 0.7647448,-0.960328 z" /></svg>