<?xml version="1.0" encoding="UTF-8" standalone="no"?>
<svg
   height="512px"
   style="enable-background:new 0 0 512 512;"
   version="1.1"
   viewBox="0 0 512 512"
   width="512px"
   xml:space="preserve"
   id="svg14"
   sodipodi:docname="gitter.svg"
   inkscape:version="1.1 (c68e22c387, 2021-05-23)"
   xmlns:inkscape="http://www.inkscape.org/namespaces/inkscape"
   xmlns:sodipodi="http://sodipodi.sourceforge.net/DTD/sodipodi-0.dtd"
   xmlns="http://www.w3.org/2000/svg"
   xmlns:svg="http://www.w3.org/2000/svg"><defs
     id="defs18" /><sodipodi:namedview
     id="namedview16"
     pagecolor="#505050"
     bordercolor="#eeeeee"
     borderopacity="1"
     inkscape:pageshadow="0"
     inkscape:pageopacity="0"
     inkscape:pagecheckerboard="0"
     showgrid="false"
     inkscape:zoom="1.7050781"
     inkscape:cx="256.29325"
     inkscape:cy="256"
     inkscape:window-width="1465"
     inkscape:window-height="1091"
     inkscape:window-x="1628"
     inkscape:window-y="275"
     inkscape:window-maximized="0"
     inkscape:current-layer="svg14" /><g
     id="comp_x5F_145-gitter"
     style="fill:#e3dbdb"><g
       id="g10"
       style="fill:#e3dbdb"><g
         id="g8"
         style="fill:#e3dbdb"><g
           id="g6"
           style="fill:#e3dbdb"><path
             d="M143.155,313.746h-45.28V28h45.28V313.746z M233.448,92.372h-45.28V484h45.28V92.372z       M323.832,92.372H278.55V484h45.282V92.372z M414.125,92.282h-45.282v221.913h45.282V92.282z"
             style="fill:#e3dbdb"
             id="path2" /><path
             d="M323.832,494H278.55c-5.522,0-10-4.478-10-10V92.372c0-5.523,4.478-10,10-10h45.282      c5.522,0,10,4.477,10,10V484C333.832,489.522,329.354,494,323.832,494z M288.55,474h25.282V102.372H288.55V474z M233.448,494      h-45.28c-5.523,0-10-4.478-10-10V92.372c0-5.523,4.477-10,10-10h45.28c5.523,0,10,4.477,10,10V484      C243.448,489.522,238.971,494,233.448,494z M198.168,474h25.28V102.372h-25.28V474z M414.125,324.195h-45.282      c-5.522,0-10-4.478-10-10V92.282c0-5.523,4.478-10,10-10h45.282c5.522,0,10,4.477,10,10v221.913      C424.125,319.718,419.647,324.195,414.125,324.195z M378.843,304.195h25.282V102.282h-25.282V304.195z M143.155,323.746h-45.28      c-5.523,0-10-4.478-10-10V28c0-5.523,4.477-10,10-10h45.28c5.523,0,10,4.477,10,10v285.746      C153.155,319.269,148.678,323.746,143.155,323.746z M107.875,303.746h25.28V38h-25.28V303.746z"
             style="fill:#e3dbdb"
             id="path4" /></g></g></g></g><g
     id="Layer_1" /></svg>
