<?xml version="1.0" encoding="UTF-8" standalone="no"?>
<svg
   xmlns:dc="http://purl.org/dc/elements/1.1/"
   xmlns:cc="http://creativecommons.org/ns#"
   xmlns:rdf="http://www.w3.org/1999/02/22-rdf-syntax-ns#"
   xmlns:svg="http://www.w3.org/2000/svg"
   xmlns="http://www.w3.org/2000/svg"
   xmlns:sodipodi="http://sodipodi.sourceforge.net/DTD/sodipodi-0.dtd"
   xmlns:inkscape="http://www.inkscape.org/namespaces/inkscape"
   enable-background="new 0 0 48 48"
   height="48px"
   id="Layer_1"
   version="1.1"
   viewBox="0 0 48 48"
   width="48px"
   xml:space="preserve"
   sodipodi:docname="home.svg"
   inkscape:version="0.92.1 r15371"><metadata
     id="metadata9"><rdf:RDF><cc:Work
         rdf:about=""><dc:format>image/svg+xml</dc:format><dc:type
           rdf:resource="http://purl.org/dc/dcmitype/StillImage" /><dc:title /></cc:Work></rdf:RDF></metadata><defs
     id="defs7" /><sodipodi:namedview
     pagecolor="#ffffff"
     bordercolor="#666666"
     borderopacity="1"
     objecttolerance="10"
     gridtolerance="10"
     guidetolerance="10"
     inkscape:pageopacity="0"
     inkscape:pageshadow="2"
     inkscape:window-width="1752"
     inkscape:window-height="1042"
     id="namedview5"
     showgrid="false"
     inkscape:zoom="5"
     inkscape:cx="-86.89322"
     inkscape:cy="23.5"
     inkscape:window-x="168"
     inkscape:window-y="0"
     inkscape:window-maximized="0"
     inkscape:current-layer="Layer_1" /><path
     d="m 46.117542,23.693174 c -0.406806,0.407869 -1.067732,0.407869 -1.474538,0 l -9.54446,-9.543301 c -0.06834,-0.05445 -0.127058,-0.113178 -0.181513,-0.182581 L 30.827615,9.8789855 C 30.759279,9.8245338 30.700557,9.7658074 30.646101,9.6964044 L 23.999468,3.0498358 3.3569974,23.693174 c -0.4068058,0.407869 -1.0677322,0.407869 -1.4745383,0 -0.4068059,-0.406803 -0.4068059,-1.067723 0,-1.474524 L 23.135672,0.96564217 c 0.0331,-0.0501842 0.05659,-0.1078399 0.10037,-0.15375195 0.210345,-0.20927349 0.487955,-0.30643627 0.763432,-0.30002996 0.275473,-0.006415 0.553083,0.0896888 0.763427,0.30002996 0.04591,0.0448444 0.0662,0.10250072 0.102499,0.15375195 L 30.405859,6.5081874 V 3.7118233 c 0,0 0,0 0,0 0,-0.5893825 0.477277,-1.067722 1.067731,-1.067722 h 4.27093 c 0.295763,0 0.562695,0.119585 0.754887,0.3128426 0.194327,0.1932577 0.312846,0.460188 0.312846,0.7548794 V 12.91452 l 9.305287,9.30413 c 0.406807,0.406801 0.406807,1.067721 2e-6,1.474524 z M 34.676791,4.7795454 h -2.135465 v 3.8640859 l 2.135465,2.1354437 z M 9.0512141,21.863098 c 0.5893885,0 1.0677339,0.478339 1.0677339,1.067723 v 20.286718 c 0,1.179832 0.956687,2.135444 2.135463,2.135444 h 6.406395 v 0 -13.880387 c 0,-0.590451 0.477276,-1.067721 1.067731,-1.067721 h 8.54186 c 0.590456,0 1.06773,0.47727 1.06773,1.067721 v 13.880387 0 h 6.406395 c 1.179846,0 2.135465,-0.955612 2.135465,-2.135444 V 22.930821 c 0,-0.589384 0.477276,-1.067723 1.067734,-1.067723 0.590455,0 1.067731,0.478339 1.067731,1.067723 v 20.286718 c 0,2.358598 -1.912307,4.270889 -4.27093,4.270889 H 12.254411 c -2.3586204,0 -4.2709293,-1.912291 -4.2709293,-4.270889 V 22.930821 c 0,-0.590452 0.4783435,-1.067723 1.0677324,-1.067723 z M 27.202664,45.351915 V 32.539252 h -6.406395 v 12.812663 0 z"
     id="path2"
     inkscape:connector-curvature="0"
     style="clip-rule:evenodd;fill:#cccccc;fill-opacity:1;fill-rule:evenodd;stroke:#cccccc;stroke-width:1.02314413;stroke-miterlimit:4;stroke-dasharray:none;stroke-opacity:1" /></svg>