<?xml version="1.0" encoding="UTF-8" standalone="no"?>
<svg
   xmlns:dc="http://purl.org/dc/elements/1.1/"
   xmlns:cc="http://creativecommons.org/ns#"
   xmlns:rdf="http://www.w3.org/1999/02/22-rdf-syntax-ns#"
   xmlns:svg="http://www.w3.org/2000/svg"
   xmlns="http://www.w3.org/2000/svg"
   xmlns:sodipodi="http://sodipodi.sourceforge.net/DTD/sodipodi-0.dtd"
   xmlns:inkscape="http://www.inkscape.org/namespaces/inkscape"
   height="16"
   version="1.1"
   viewBox="0 0 16 16"
   width="16"
   xml:space="preserve"
   id="svg2"
   inkscape:version="0.92.3 (2405546, 2018-03-11)"
   sodipodi:docname="mime-sql.svg"><metadata
   id="metadata17"><rdf:RDF><cc:Work
       rdf:about=""><dc:format>image/svg+xml</dc:format><dc:type
         rdf:resource="http://purl.org/dc/dcmitype/StillImage" /><dc:title /></cc:Work></rdf:RDF></metadata><defs
   id="defs15" /><sodipodi:namedview
   pagecolor="#ffffff"
   bordercolor="#666666"
   borderopacity="1"
   objecttolerance="10"
   gridtolerance="10"
   guidetolerance="10"
   inkscape:pageopacity="0"
   inkscape:pageshadow="2"
   inkscape:window-width="2560"
   inkscape:window-height="1369"
   id="namedview13"
   showgrid="false"
   inkscape:zoom="5"
   inkscape:cx="-33.774608"
   inkscape:cy="-41.8"
   inkscape:window-x="-11"
   inkscape:window-y="-11"
   inkscape:window-maximized="1"
   inkscape:current-layer="svg2"
   inkscape:showpageshadow="false"
   showborder="false" /><text
   xml:space="preserve"
   style="font-style:normal;font-variant:normal;font-weight:normal;font-stretch:normal;line-height:0%;font-family:Arial;-inkscape-font-specification:'Arial, Normal';text-align:start;letter-spacing:0px;word-spacing:0px;writing-mode:lr-tb;text-anchor:start;fill:#464646;fill-opacity:1;stroke:none;stroke-width:1px;stroke-linecap:butt;stroke-linejoin:miter;stroke-opacity:1"
   x="2.7137451"
   y="10.094727"
   id="text8728"><tspan
     sodipodi:role="line"
     id="tspan8730"
     x="2.7137451"
     y="10.094727"
     style="font-style:normal;font-variant:normal;font-weight:bold;font-stretch:normal;font-size:7.5px;line-height:1.25;font-family:Tahoma;-inkscape-font-specification:Tahoma;fill:#909b9e;fill-opacity:1">sql</tspan></text>


<path
   d="M 13,0 H 3 C 1.8955,0 1,0.8955 1,2 v 12 c 0,1.1045 0.8955,2 2,2 h 10 c 1.1045,0 2,-0.8955 2,-2 V 2 C 15,0.8955 14.1045,0 13,0 Z m 1,14 c 0,0.5518 -0.44825,1 -1,1 H 3 C 2.44925,15 2,14.5518 2,14 V 2 C 2,1.4483 2.44925,1 3,1 h 10 c 0.55175,0 1,0.4483 1,1 z"
   id="path2"
   inkscape:connector-curvature="0"
   style="fill:#b4c4cc;stroke-width:0.125;fill-opacity:1" /></svg>