<?xml version="1.0" encoding="UTF-8" standalone="no"?>
<svg
   xmlns:dc="http://purl.org/dc/elements/1.1/"
   xmlns:cc="http://creativecommons.org/ns#"
   xmlns:rdf="http://www.w3.org/1999/02/22-rdf-syntax-ns#"
   xmlns:svg="http://www.w3.org/2000/svg"
   xmlns="http://www.w3.org/2000/svg"
   xmlns:sodipodi="http://sodipodi.sourceforge.net/DTD/sodipodi-0.dtd"
   xmlns:inkscape="http://www.inkscape.org/namespaces/inkscape"
   enable-background="new 0 0 256 256"
   height="256px"
   id="Layer_1"
   version="1.1"
   viewBox="0 0 256 256"
   width="256px"
   xml:space="preserve"
   sodipodi:docname="file_new.svg"
   inkscape:version="0.92.1 r15371"><metadata
     id="metadata9"><rdf:RDF><cc:Work
         rdf:about=""><dc:format>image/svg+xml</dc:format><dc:type
           rdf:resource="http://purl.org/dc/dcmitype/StillImage" /></cc:Work></rdf:RDF></metadata><defs
     id="defs7" /><sodipodi:namedview
     pagecolor="#ffffff"
     bordercolor="#666666"
     borderopacity="1"
     objecttolerance="10"
     gridtolerance="10"
     guidetolerance="10"
     inkscape:pageopacity="0"
     inkscape:pageshadow="2"
     inkscape:window-width="1432"
     inkscape:window-height="1034"
     id="namedview5"
     showgrid="false"
     inkscape:zoom="0.921875"
     inkscape:cx="-280.94915"
     inkscape:cy="119.32203"
     inkscape:window-x="0"
     inkscape:window-y="0"
     inkscape:window-maximized="0"
     inkscape:current-layer="Layer_1" /><path
     d="M 244.69516,119.24786 H 136.75214 V 11.304843 c 0,-5.1550086 -3.59713,-9.3356126 -8.75214,-9.3356126 -5.15501,0 -8.75214,4.180604 -8.75214,9.3356126 V 119.24786 H 11.304842 c -5.1550076,0 -9.3356116,3.59713 -9.3356116,8.75214 0,5.15501 4.180604,8.75214 9.3356116,8.75214 H 119.24786 v 107.94302 c 0,5.155 3.59713,9.33561 8.75214,9.33561 5.15501,0 8.75214,-4.18061 8.75214,-9.33561 V 136.75214 h 107.94302 c 5.155,0 9.33561,-3.59713 9.33561,-8.75214 0,-5.15501 -4.18061,-8.75214 -9.33561,-8.75214 z"
     id="path2"
     inkscape:connector-curvature="0"
     style="fill:#4e9a06;stroke:#4e9a06;stroke-width:3.93846154;stroke-miterlimit:4;stroke-dasharray:none;stroke-opacity:1;fill-opacity:1" /></svg>