<?xml version="1.0" encoding="UTF-8" standalone="no"?>
<svg
   xmlns:dc="http://purl.org/dc/elements/1.1/"
   xmlns:cc="http://creativecommons.org/ns#"
   xmlns:rdf="http://www.w3.org/1999/02/22-rdf-syntax-ns#"
   xmlns:svg="http://www.w3.org/2000/svg"
   xmlns="http://www.w3.org/2000/svg"
   xmlns:sodipodi="http://sodipodi.sourceforge.net/DTD/sodipodi-0.dtd"
   xmlns:inkscape="http://www.inkscape.org/namespaces/inkscape"
   enable-background="new 0 0 515.91 728.5"
   height="32"
   id="Layer_1"
   version="1.1"
   viewBox="0 0 32.000002 32"
   width="32"
   xml:space="preserve"
   sodipodi:docname="qt.svg"
   inkscape:version="0.92.1 r15371"><metadata
     id="metadata9"><rdf:RDF><cc:Work
         rdf:about=""><dc:format>image/svg+xml</dc:format><dc:type
           rdf:resource="http://purl.org/dc/dcmitype/StillImage" /><dc:title></dc:title></cc:Work></rdf:RDF></metadata><sodipodi:namedview
     pagecolor="#ffffff"
     bordercolor="#666666"
     borderopacity="1"
     objecttolerance="10"
     gridtolerance="10"
     guidetolerance="10"
     inkscape:pageopacity="0"
     inkscape:pageshadow="2"
     inkscape:window-width="1711"
     inkscape:window-height="964"
     id="namedview7"
     showgrid="false"
     inkscape:zoom="1"
     inkscape:cx="-172.47458"
     inkscape:cy="256"
     inkscape:window-x="2124"
     inkscape:window-y="132"
     inkscape:window-maximized="0"
     inkscape:current-layer="Layer_1" /><defs
     id="defs7" /><g
     id="g6664"
     transform="matrix(0.0625,0,0,0.0625,8.5111675,6.7656471)"><path
       d="m -733.62329,72.267944 c 0,203.804876 -165.21649,369.021366 -369.02141,369.021366 -203.8048,0 -369.0213,-165.21649 -369.0213,-369.021366 0,-203.804874 165.2165,-369.021364 369.0213,-369.021364 203.80492,0 369.02141,165.21649 369.02141,369.021364 z"
       id="path5044"
       style="fill:#7cc040;fill-opacity:1;fill-rule:nonzero;stroke:none"
       transform="matrix(0.69372682,0,0,0.69372682,884.75558,97.615782)"
       inkscape:connector-curvature="0" /><path
       d="m 63.846619,-24.721025 c -10.9655,0.2716 -21.8385,2.517 -31.1551,6.5589 -22.26678,9.6602014 -39.2848903,35.524197 -47.63072,72.539197 -5.93543,26.32471 -5.83342,98.384908 0.15617,126.182208 8.7863897,40.7776 29.53158,70.95691 54.42395,79.25441 9.2183,3.0728 10.4924,4.6031 14.3673,17.0221 6.0263,19.315 11.4078,28.7146 19.9892,34.8251 6.0394,4.3003 16.2182,7.5548 25.377,8.5891 h 11.322101 c 3.927,-0.5437 9.31821,-1.0151 12.41521,-1.0151 5.638,0 5.9343,-0.811 5.9343,-16.2413 0,-14.445 -0.5011,-16.2412 -4.8411,-16.2412 -9.25481,0 -17.09691,-5.6001 -21.47291,-15.3043 -2.4139,-5.3531 -3.994301,-10.1127 -3.435601,-10.5413 0.5585,-0.4285 6.389801,-3.7776 12.883701,-7.4959 32.24031,-18.4604 46.67981,-59.88711 46.77171,-134.06861 0.1107,-89.226508 -22.3939,-131.565804 -75.662511,-142.423605 -6.2812,-1.2803 -12.8634,-1.8027 -19.4427,-1.6397 z m 134.302911,17.8809974 -4.2945,17.4905996 c -2.3577,9.6198 -4.9909,20.5826 -5.8563,24.3619 -1.3461,5.8787 -2.7876,6.8713 -10.2288,6.8713 h -8.7453 v 16.2413 16.24121 h 7.4959 7.496 v 72.539198 c 0,88.66041 0.9962,92.04681 28.7346,98.15051 7.9768,1.7552 9.3829,1.6961 21.2386,-0.937 23.6433,-5.2511 24.9866,-6.3732 24.9866,-21.55091 0,-11.789 -0.5845,-13.4626 -4.3727,-12.3372 -14.9864,4.4523 -18.4549,4.5201 -23.1907,0.2343 -4.6224,-4.1833 -4.9192,-8.0635 -4.9192,-69.0255 V 76.864982 h 14.9919 14.992 v -14.67961 -14.6796 l -14.992,-1.7179 -14.9919,-1.6397 v -23.503 c 0,-12.9060996 -0.8433,-23.9685996 -1.874,-24.5961996 -1.0307,-0.6275 -7.3665,-1.5458 -14.133,-2.0301 z M 74.231719,11.899972 c 10.5004,0 23.672,12.6353 28.578401,27.4071 8.6763,26.12181 10.125,113.843708 2.4986,150.700308 -6.063801,29.3057 -22.103101,44.24641 -38.651101,35.9963 -7.6183,-3.7981 -16.8045,-17.0761 -19.9892,-28.9688 -10.4134,-38.8868 -9.5316,-135.117608 1.4835,-162.647108 5.0002,-12.4965 16.5907,-22.4878 26.0798,-22.4878 z"
       id="rect2998"
       style="fill:#ffffff;fill-opacity:1;stroke:none"
       inkscape:connector-curvature="0" /></g></svg>