<?xml version="1.0" encoding="UTF-8" standalone="no"?>
<svg
   xmlns:dc="http://purl.org/dc/elements/1.1/"
   xmlns:cc="http://creativecommons.org/ns#"
   xmlns:rdf="http://www.w3.org/1999/02/22-rdf-syntax-ns#"
   xmlns:svg="http://www.w3.org/2000/svg"
   xmlns="http://www.w3.org/2000/svg"
   xmlns:sodipodi="http://sodipodi.sourceforge.net/DTD/sodipodi-0.dtd"
   xmlns:inkscape="http://www.inkscape.org/namespaces/inkscape"
   enable-background="new 0 0 50 50"
   height="50px"
   id="Layer_1"
   version="1.1"
   viewBox="0 0 50 50"
   width="50px"
   xml:space="preserve"
   sodipodi:docname="folder-yellow-opened.svg"
   inkscape:version="0.92.1 r15371"><metadata
     id="metadata13"><rdf:RDF><cc:Work
         rdf:about=""><dc:format>image/svg+xml</dc:format><dc:type
           rdf:resource="http://purl.org/dc/dcmitype/StillImage" /><dc:title /></cc:Work></rdf:RDF></metadata><defs
     id="defs11" /><sodipodi:namedview
     pagecolor="#ffffff"
     bordercolor="#666666"
     borderopacity="1"
     objecttolerance="10"
     gridtolerance="10"
     guidetolerance="10"
     inkscape:pageopacity="0"
     inkscape:pageshadow="2"
     inkscape:window-width="1920"
     inkscape:window-height="983"
     id="namedview9"
     showgrid="false"
     inkscape:zoom="4.72"
     inkscape:cx="-8.6234666"
     inkscape:cy="20.656781"
     inkscape:window-x="1920"
     inkscape:window-y="27"
     inkscape:window-maximized="1"
     inkscape:current-layer="Layer_1" /><g
     id="g5583"
     style="fill:none;stroke:#e6e6e6;opacity:1;stroke-opacity:1"><path
       style="fill:none;fill-opacity:1;stroke:#e6e6e6;stroke-opacity:1"
       id="path4"
       stroke-width="2"
       stroke-miterlimit="10"
       stroke-linecap="round"
       stroke="#000000"
       fill="none"
       d="M46,15v-4  c0-1.104-0.896-2-2-2c0,0-24.648,0-26,0c-1.469,0-2.484-4-4-4H3C1.896,5,1,5.896,1,7v4v29v4c0,1.104,0.896,2,2,2h39  c1.104,0,2-0.896,2-2" /><path
       style="fill:none;fill-opacity:1;stroke:#e6e6e6;stroke-opacity:1"
       id="path6"
       stroke-width="2"
       stroke-miterlimit="10"
       stroke-linecap="round"
       stroke="#000000"
       fill="none"
       d="M1,44l5-27  c0-1.104,0.896-2,2-2h39c1.104,0,2,0.896,2,2l-5,27" /></g></svg>