/* XPM */
static const char * database_xpm[] = {
"16 16 110 2",
"  	c None",
". 	c #E1E1E5",
"+ 	c #E8E8EB",
"@ 	c #ECECEE",
"# 	c #ECEDEF",
"$ 	c #DADCE0",
"% 	c #E1E2E6",
"& 	c #E1E3E7",
"* 	c #E0E2E6",
"= 	c #E1E2E7",
"- 	c #E3E5E8",
"; 	c #DEDFE3",
"> 	c #D0D2D6",
", 	c #E2E2E5",
"' 	c #B6B8BE",
") 	c #ACAEB4",
"! 	c #C5C7CD",
"~ 	c #B3B5BB",
"{ 	c #C8CACF",
"] 	c #D8DADD",
"^ 	c #BBBCC2",
"/ 	c #8F9197",
"( 	c #D5D6DB",
"_ 	c #F9FAFA",
": 	c #AAACB3",
"< 	c #76787E",
"[ 	c #E3E4E9",
"} 	c #8A8C92",
"| 	c #E2E3E7",
"1 	c #FFFFFF",
"2 	c #BCBEC4",
"3 	c #8B8D93",
"4 	c #D7D8DD",
"5 	c #F9F9FA",
"6 	c #ACAEB5",
"7 	c #7D7F85",
"8 	c #E0E1E6",
"9 	c #DCDEE3",
"0 	c #BEC0C6",
"a 	c #DCDDE2",
"b 	c #AEB0B7",
"c 	c #7F8188",
"d 	c #DFE0E4",
"e 	c #909299",
"f 	c #D9DBE0",
"g 	c #BFC1C7",
"h 	c #C5C7CB",
"i 	c #E2E3E5",
"j 	c #85878D",
"k 	c #D5D7DC",
"l 	c #93959B",
"m 	c #CFD1D6",
"n 	c #EDEEEF",
"o 	c #8C8E94",
"p 	c #D6D7DC",
"q 	c #FCFCFD",
"r 	c #AAACB2",
"s 	c #797B81",
"t 	c #DBDDE2",
"u 	c #DDDFE4",
"v 	c #FDFDFD",
"w 	c #BDBEC4",
"x 	c #D6D8DC",
"y 	c #7C7E84",
"z 	c #8E9096",
"A 	c #BDBFC5",
"B 	c #D9DADF",
"C 	c #F8F9FA",
"D 	c #AEB0B6",
"E 	c #7F8187",
"F 	c #DFE0E5",
"G 	c #909298",
"H 	c #DADBE0",
"I 	c #8A8B91",
"J 	c #CBCCD1",
"K 	c #EDEEF0",
"L 	c #B0B2B9",
"M 	c #82848A",
"N 	c #E0E2E7",
"O 	c #92949A",
"P 	c #D8D9DF",
"Q 	c #D5D7DB",
"R 	c #F1F1F3",
"S 	c #A6A8AE",
"T 	c #D0D1D6",
"U 	c #8E9097",
"V 	c #D2D4D8",
"W 	c #EEEFEF",
"X 	c #B7B8BF",
"Y 	c #D6D7DB",
"Z 	c #ABADB3",
"` 	c #7B7D83",
" .	c #DEE0E4",
"..	c #BDBFC4",
"+.	c #D7D9DD",
"@.	c #ADAFB5",
"#.	c #7E8086",
"$.	c #DFE1E5",
"%.	c #BEC0C7",
"&.	c #8A8C91",
"*.	c #DADBE1",
"=.	c #CACCD2",
"-.	c #94969D",
";.	c #87888D",
">.	c #6E7075",
",.	c #A8A9AE",
"'.	c #78797F",
").	c #9B9CA0",
"!.	c #9E9FA0",
"~.	c #5B5C5F",
"        . + @ # # @ + .         ",
"      $ % & * = % % = - ;       ",
"      > , ' ) ! ~ { ] ^ /       ",
"      ( _ : < [ } | 1 2 3       ",
"      4 5 6 7 8 / 9 1 0 }       ",
"      a 5 b c d e f 1 g }       ",
"      h i ) j k l m n ' o       ",
"      p q r s t o u v w 3       ",
"      x 5 ) y 8 z u 1 A }       ",
"      B C D E F G H 1 g I       ",
"      J K L M N O P v A o       ",
"      Q R S 7 T U V W X 3       ",
"      Y 5 Z ` = z  .1 ..}       ",
"      +.C @.#.$./ t 1 %.&.      ",
"      a 1 ~ E 8 G *.1 =.-.      ",
"          ;.>.,.'.).!.~.        "};
