/* XPM */
static const char * fileprint_xpm[] = {
"16 16 112 2",
"  	c None",
". 	c #FCFCFC",
"+ 	c #F6F6F6",
"@ 	c #EEEEEE",
"# 	c #E1E1E1",
"$ 	c #D0D0D0",
"% 	c #FEFEFE",
"& 	c #F9F9F9",
"* 	c #F1F1F1",
"= 	c #E9E9E9",
"- 	c #DCDCDC",
"; 	c #E7E7E7",
"> 	c #FDFDFD",
", 	c #F4F4F4",
"' 	c #ECECEC",
") 	c #E5E5E5",
"! 	c #D9D9D9",
"~ 	c #F8F8F8",
"{ 	c #F0F0F0",
"] 	c #E8E8E8",
"^ 	c #E0E0E0",
"/ 	c #D6D6D6",
"( 	c #D1D1D1",
"_ 	c #D8D8D8",
": 	c #F5F6FA",
"< 	c #F0F2FA",
"[ 	c #EDF0F6",
"} 	c #E7EAF0",
"| 	c #E0E2E8",
"1 	c #D8DBE1",
"2 	c #D4D6DB",
"3 	c #D0D1D3",
"4 	c #D2D2D2",
"5 	c #D7D7D7",
"6 	c #C4CBDE",
"7 	c #A8BCEE",
"8 	c #B1C4F2",
"9 	c #B2C6F2",
"0 	c #B1C6F2",
"a 	c #AEC3F2",
"b 	c #AABEF0",
"c 	c #A8BDEE",
"d 	c #93A9DC",
"e 	c #DBDBDB",
"f 	c #FBFBFB",
"g 	c #DEE6F8",
"h 	c #809DDD",
"i 	c #87A2DA",
"j 	c #83A7E1",
"k 	c #7EA4E0",
"l 	c #7A9FDF",
"m 	c #7699E0",
"n 	c #7899E5",
"o 	c #829FE2",
"p 	c #FCFDFD",
"q 	c #DDDDDD",
"r 	c #E2EAFA",
"s 	c #5080CE",
"t 	c #4C80C5",
"u 	c #4C86CC",
"v 	c #508ACE",
"w 	c #467ECC",
"x 	c #3C71CC",
"y 	c #3364CE",
"z 	c #6488DE",
"A 	c #FEFEFD",
"B 	c #E8F0FB",
"C 	c #437BC8",
"D 	c #427EC1",
"E 	c #4A84C1",
"F 	c #4983C1",
"G 	c #417CC1",
"H 	c #346DC1",
"I 	c #265BC1",
"J 	c #5F84D7",
"K 	c #DEDEDE",
"L 	c #CFCFCF",
"M 	c #EAECEC",
"N 	c #C0D4E7",
"O 	c #B7CEE2",
"P 	c #BCD1E2",
"Q 	c #B6CEE2",
"R 	c #AEC7E2",
"S 	c #A6BEE3",
"T 	c #CAD5E8",
"U 	c #EDECEC",
"V 	c #EDEDED",
"W 	c #C5C5C5",
"X 	c #DADADA",
"Y 	c #C7C7C7",
"Z 	c #C1C1C1",
"` 	c #C2C1C1",
" .	c #C2C2C1",
"..	c #BABABA",
"+.	c #CBCBCB",
"@.	c #C3C3C3",
"#.	c #222222",
"$.	c #181818",
"%.	c #171717",
"&.	c #161616",
"*.	c #595959",
"=.	c #BCBCBC",
"-.	c #A3A3A3",
";.	c #B7B7B7",
">.	c #B3B3B3",
",.	c #ACACAC",
"'.	c #C8C8C8",
").	c #999999",
"!.	c #B8B8B8",
"~.	c #8C8C8C",
"{.	c #8B8B8B",
"].	c #909090",
"                                ",
"        . . . . . + @ # $       ",
"      $ % % % % & * = - $       ",
"      ; > % % . , ' ) ! $       ",
"      ) > % % ~ { ] ^ / (       ",
"      _ : < [ } | 1 2 3 4       ",
"    5 6 7 8 9 0 a b c d e       ",
"  f % g h i j k l m n o p . &   ",
"q % % r s t u v w x y z A % % ^ ",
"! > > B C D E F G H I J . > > K ",
"L ' ' M N O P P Q R S T U V ' 4 ",
"W X X Y Z ` ` ` `  . .Z ( ! _ Y ",
"..+.@.#.$.$.$.$.%.%.%.&.*.$ $ =.",
"-.;.>.,.'.'.'.'.'.'.'.Y ).!.!.-.",
"      / _ _ _ X 4 ! ! ! @.      ",
"      ~.{.{.{.].{.~.~.~.        "};
