/* XPM */
static const char * filepreview_xpm[] = {
"16 16 99 2",
"  	c None",
". 	c #F4F4F4",
"+ 	c #F9F9F9",
"@ 	c #F1F1F1",
"# 	c #F6F6F6",
"$ 	c #FCFCFC",
"% 	c #FAFAFA",
"& 	c #EFEFEF",
"* 	c #E3E3E3",
"= 	c #F5F5F5",
"- 	c #F7F7F7",
"; 	c #F8F8F8",
"> 	c #EBEBEB",
", 	c #E6E6E6",
"' 	c #F0F0F0",
") 	c #C8C8C8",
"! 	c #C8C8C9",
"~ 	c #CFCFD0",
"{ 	c #D1D1D1",
"] 	c #D9D9D9",
"^ 	c #E2E2E2",
"/ 	c #D2D2D2",
"( 	c #F3F3F3",
"_ 	c #F2F2F2",
": 	c #C6C6C6",
"< 	c #F6F6F7",
"[ 	c #E4E4E6",
"} 	c #E0E0E0",
"| 	c #DEDEDE",
"1 	c #CCCCCC",
"2 	c #FBFBFB",
"3 	c #ECECED",
"4 	c #F5F5F6",
"5 	c #F3F3F4",
"6 	c #D8D8D8",
"7 	c #D0D0D0",
"8 	c #F4F4F6",
"9 	c #F3F3F5",
"0 	c #F2F2F5",
"a 	c #F2F2F4",
"b 	c #E9E9EA",
"c 	c #E8E8E8",
"d 	c #CECED0",
"e 	c #EBEBEE",
"f 	c #EFEFF2",
"g 	c #F1F1F4",
"h 	c #E4E4E7",
"i 	c #DCDCDC",
"j 	c #DFDFDF",
"k 	c #EEEEEE",
"l 	c #C9C9C9",
"m 	c #EAEAEE",
"n 	c #EEEEF1",
"o 	c #DEDEE1",
"p 	c #ECECEC",
"q 	c #DBDBDB",
"r 	c #D1D1D2",
"s 	c #F7F7F8",
"t 	c #B7B7B7",
"u 	c #EAEAEA",
"v 	c #C4C4C5",
"w 	c #E5E5E6",
"x 	c #EAEAEB",
"y 	c #D5D5D6",
"z 	c #ABABAC",
"A 	c #8C8C8A",
"B 	c #AEAEAD",
"C 	c #E9E9E9",
"D 	c #D4D4D4",
"E 	c #CBCBCB",
"F 	c #C1C1C1",
"G 	c #CFCFCF",
"H 	c #A9A9A9",
"I 	c #464646",
"J 	c #8D8D8D",
"K 	c #C7C7C7",
"L 	c #838383",
"M 	c #323232",
"N 	c #4E4E4E",
"O 	c #E4E4E4",
"P 	c #787878",
"Q 	c #1C1C1C",
"R 	c #141414",
"S 	c #E1E1E1",
"T 	c #DADADA",
"U 	c #606060",
"V 	c #080808",
"W 	c #000000",
"X 	c #7A7A7A",
"Y 	c #797979",
"Z 	c #767676",
"` 	c #757575",
" .	c #737373",
"..	c #727272",
"+.	c #707070",
"@.	c #6F6F6F",
"#.	c #6D6D6D",
"$.	c #6B6B6B",
"%.	c #6A6A6A",
"  . + + + + + + + @             ",
"  # $ $ $ $ $ $ % & *           ",
"  = $ $ $ $ - = ; > = ,         ",
"  = $ $ ' ) ! ~ { ] ^ , /       ",
"  ( $ _ : _ < < # [ } * | 1     ",
"  ( 2 1 3 + - < 4 5 , ' ' 6     ",
"  @ ; 7 5 8 9 9 0 a b c % ^     ",
"  ' = d e f g g f e h i # j     ",
"  k # l m f a a n m o | _ i     ",
"  p . q r 9 ; s a e t k @ ]     ",
"  u ' ' / v w x y z A B C D     ",
"  c > > > * E F G , H I J K     ",
"  , c c c c c c c c ^ L M N     ",
"  O , , , , , , , , , } P Q R   ",
"  ^ O O * * ^ ^ ^ S S } T U V W ",
"    X Y Z `  ...+.@.#.$.%.      "};
