/* XPM */
static const char * form_blue_xpm[] = {
"16 16 139 2",
"  	c None",
". 	c #9393BF",
"+ 	c #9696C1",
"@ 	c #9797C2",
"# 	c #9A9AC4",
"$ 	c #9D9DC5",
"% 	c #A0A0C5",
"& 	c #9E9EC1",
"* 	c #9C9CBB",
"= 	c #9B9BB7",
"- 	c #9A9AB6",
"; 	c #9494B0",
"> 	c #9696C2",
", 	c #C5C5F3",
"' 	c #9494BC",
") 	c #9292B7",
"! 	c #8E8EAE",
"~ 	c #8989A5",
"{ 	c #85859D",
"] 	c #818195",
"^ 	c #7D7D8B",
"/ 	c #73737C",
"( 	c #AAAABF",
"_ 	c #9393AC",
": 	c #9595C0",
"< 	c #CCCCF7",
"[ 	c #BBBBE3",
"} 	c #BCBCE4",
"| 	c #BABAE0",
"1 	c #B7B7DB",
"2 	c #B4B4D4",
"3 	c #B2B2D0",
"4 	c #B0B0CB",
"5 	c #ADADC4",
"6 	c #C4C4DD",
"7 	c #9393AB",
"8 	c #9696C0",
"9 	c #CBCBF3",
"0 	c #BABAE1",
"a 	c #B8B8DA",
"b 	c #B3B3D1",
"c 	c #BEBEDC",
"d 	c #D1D1E9",
"e 	c #D4D4E7",
"f 	c #D3D3E6",
"g 	c #D4D4E5",
"h 	c #D0D0E6",
"i 	c #9292A9",
"j 	c #9898C0",
"k 	c #C9C9EF",
"l 	c #9595B3",
"m 	c #8E8EA6",
"n 	c #888899",
"o 	c #B2B2CF",
"p 	c #DADAE6",
"q 	c #FFFFFF",
"r 	c #DADAE4",
"s 	c #9696AD",
"t 	c #CDCDEE",
"u 	c #C2C2E0",
"v 	c #C1C1DD",
"w 	c #C1C1D9",
"x 	c #D2D2EE",
"y 	c #CDCDE1",
"z 	c #D6D6E1",
"A 	c #D4D4E1",
"B 	c #CFCFDF",
"C 	c #9696AB",
"D 	c #9A9ABE",
"E 	c #D6D6E2",
"F 	c #D7D7E1",
"G 	c #9595A9",
"H 	c #9D9DBD",
"I 	c #C8C8EA",
"J 	c #9898B9",
"K 	c #9292AC",
"L 	c #89899A",
"M 	c #AAAAB9",
"N 	c #CECEE5",
"O 	c #CACAE1",
"P 	c #CBCBDA",
"Q 	c #DFDFE3",
"R 	c #D1D1DC",
"S 	c #9595A7",
"T 	c #D2D2ED",
"U 	c #D2D2EB",
"V 	c #D3D3E9",
"W 	c #D4D4EA",
"X 	c #D5D5E9",
"Y 	c #CFCFE1",
"Z 	c #CFCFDC",
"` 	c #E2E2E7",
" .	c #D2D2DD",
"..	c #9595A5",
"+.	c #9898B2",
"@.	c #CBCBEC",
"#.	c #9696B9",
"$.	c #9292AE",
"%.	c #8C8CA3",
"&.	c #868696",
"*.	c #7B7B85",
"=.	c #C1C1D0",
"-.	c #D1D1DA",
";.	c #D4D4DB",
">.	c #9494A3",
",.	c #D7D7EA",
"'.	c #D9D9EB",
").	c #D0D0E1",
"!.	c #CCCCDB",
"~.	c #CBCBD6",
"{.	c #D8D8DE",
"].	c #CFCFD9",
"^.	c #9393A1",
"/.	c #9898B0",
"(.	c #9595B4",
"_.	c #88889A",
":.	c #9C9CA8",
"<.	c #E0E0E0",
"[.	c #D5D5D9",
"}.	c #9393A0",
"|.	c #9999B0",
"1.	c #D5D5E5",
"2.	c #D5D5E4",
"3.	c #D7D7E5",
"4.	c #D2D2DB",
"5.	c #D7D7DD",
"6.	c #D6D6DD",
"7.	c #D6D6DC",
"8.	c #D7D7DB",
"9.	c #D3D3D7",
"0.	c #9494A0",
"a.	c #8F8FA4",
"b.	c #9393A9",
"c.	c #9292A8",
"d.	c #9696A6",
"e.	c #9696A5",
"f.	c #9696A4",
"g.	c #9292A0",
"h.	c #8C8C98",
"                                ",
"    . + + @ # $ % & * = - ;     ",
"    > , ' ) ! ~ { ] ^ / ( _     ",
"    : < [ } | 1 2 3 4 5 6 7     ",
"    8 9 0 a b c d e f g h i     ",
"    j k l m n o p q q q r s     ",
"    j t u v w x y z A z B C     ",
"    D t u v w x E q q q F G     ",
"    H I J K L M N O P Q R S     ",
"    * T d U V W X Y Z `  ...    ",
"    +.@.#.$.%.&.*.=.-.q ;.>.    ",
"    +.W ,.'.,.f ).!.~.{.].^.    ",
"    /.@.(._.:.<.q q q q [.}.    ",
"    |.1.2.3.A 4.5.6.7.8.9.0.    ",
"    a.b.c.c.d.e.f.^.g.g.}.h.    ",
"                                "};
