/* XPM */
static const char * GridView_xpm[] = {
"16 16 3 1",
" 	c None",
".	c #A0A0A0",
"+	c #FFFFFF",
"                ",
"                ",
"                ",
"   ..........   ",
"   .++.++.++.   ",
"   .++.++.++.   ",
"   ..........   ",
"   .++++++++.   ",
"   .++++++++.   ",
"   .++++++++.   ",
"   .++++++++.   ",
"   .++++++++.   ",
"   ..........   ",
"                ",
"                ",
"                "};
