/* XPM */
static const char * key_f_xpm[] = {
"10 10 22 1",
" 	c None",
".	c #FFFFFF",
"+	c #88D7D7",
"@	c #7DD3D3",
"#	c #78D1D1",
"$	c #8ED9D9",
"%	c #B5E6E6",
"&	c #A6E1E1",
"*	c #59C7C7",
"=	c #C1EAEA",
"-	c #B9E7E7",
";	c #41BFBF",
">	c #9ADDDD",
",	c #85D6D6",
"'	c #7FD4D4",
")	c #4BC2C2",
"!	c #91DADA",
"~	c #43C0C0",
"{	c #97DCDC",
"]	c #3FBEBE",
"^	c #79D2D2",
"/	c #39AEAE",
"....+@....",
"...+..#...",
"...$%&+...",
"...*=-;...",
"....>,....",
"....')....",
"....!~....",
"....{]....",
"....^/....",
".........."};
