/* XPM */
static const char * link_editor_xpm[] = {
"16 16 43 1",
" 	g None",
".	g #858585",
"+	g #9E9E9E",
"@	g #7C7C7C",
"#	g #4C4C4C",
"$	g #919191",
"%	g #E8E8E8",
"&	g #DDDDDD",
"*	g #C1C1C1",
"=	g #818181",
"-	g #7B7B7B",
";	g #D9D9D9",
">	g #C4C4C4",
",	g #737373",
"'	g #D5D5D5",
")	g #585858",
"!	g #4B4B4B",
"~	g #656565",
"{	g #929292",
"]	g #797979",
"^	g #A8A8A8",
"/	g #323232",
"(	g #828282",
"_	g #3F3F3F",
":	g #BDBDBD",
"<	g #CECECE",
"[	g #C2C2C2",
"}	g #ADADAD",
"|	g #676767",
"1	g #525252",
"2	g #414141",
"3	g #464646",
"4	g #515151",
"5	g #4D4D4D",
"6	g #8D8D8D",
"7	g #AAAAAA",
"8	g #AEAEAE",
"9	g #979797",
"0	g #717171",
"a	g #787878",
"b	g #4A4A4A",
"c	g #646464",
"d	g #6B6B6B",
"                ",
"                ",
"                ",
"                ",
"    .+@  @+.    ",
"  #$%&*=-;&>$#  ",
"  ,')!~{]~!)^,  ",
" /(  _:<[}_  (/ ",
"  | 12344321 |  ",
"  567890a98765  ",
"   bcdd  ddcb   ",
"                ",
"                ",
"                ",
"                ",
"                "};
