/* XPM */
static const char * redo_xpm[] = {
"16 16 72 1",
" 	c None",
".	c #7DA2E3",
"+	c #82ABE8",
"@	c #709FE3",
"#	c #A7C4EF",
"$	c #92C2F2",
"%	c #64AEF0",
"&	c #A6CDF5",
"*	c #9AC4F2",
"=	c #6EA6E9",
"-	c #67A6EA",
";	c #86B5EE",
">	c #7CBAF3",
",	c #74C4FB",
"'	c #63C3FE",
")	c #27AEFD",
"!	c #62C0F9",
"~	c #8DCEFB",
"{	c #81C3F8",
"]	c #74B8F4",
"^	c #65AAEE",
"/	c #2B80E1",
"(	c #66B1F2",
"_	c #68B8F6",
":	c #5FBFFC",
"<	c #52C0FF",
"[	c #3CBDFF",
"}	c #4EC5FF",
"|	c #5BCAFF",
"1	c #5FCAFF",
"2	c #71CFFF",
"3	c #64C8FF",
"4	c #54BCFC",
"5	c #3AA4F4",
"6	c #3D9AEE",
"7	c #509BEA",
"8	c #3780D9",
"9	c #50B6FA",
"0	c #50BFFE",
"a	c #60CFFF",
"b	c #56D1FF",
"c	c #39CAFF",
"d	c #29C1FC",
"e	c #56D2FF",
"f	c #57D1FF",
"g	c #5ECEFF",
"h	c #56C2FF",
"i	c #34A8F9",
"j	c #1A83E5",
"k	c #1165C0",
"l	c #48BFFB",
"m	c #5CC5FF",
"n	c #56CBFF",
"o	c #3AC9FF",
"p	c #2BC4FB",
"q	c #24ACDF",
"r	c #1A80AF",
"s	c #39A7CB",
"t	c #64E1FF",
"u	c #62DEFF",
"v	c #44D3FF",
"w	c #2CC2FD",
"x	c #1FA2E6",
"y	c #1577B8",
"z	c #2BB8FC",
"A	c #26B8FD",
"B	c #22ABE7",
"C	c #1C8BBD",
"D	c #3ADDF9",
"E	c #39E4FE",
"F	c #2DC9EF",
"G	c #219CC7",
"                ",
"                ",
"                ",
"                ",
"  .      +      ",
" @#$%    &*=    ",
" -;>,') !~{]^/  ",
" (_:<[}|12345678",
" 901abcdefg1hijk",
"lmnopqrstuvwxy  ",
"zABC   DEFG     ",
"                ",
"                ",
"                ",
"                ",
"                "};
