/* XPM */
static const char * refresh_xpm[] = {
"16 16 139 2",
"  	c None",
". 	c #66302B",
"+ 	c #8E3E34",
"@ 	c #AA6E64",
"# 	c #760601",
"$ 	c #780301",
"% 	c #7A0401",
"& 	c #7A0501",
"* 	c #7B0501",
"= 	c #790300",
"- 	c #923824",
"; 	c #FDC194",
"> 	c #995D3A",
", 	c #A27A52",
"' 	c #E7AF7A",
") 	c #E4AD6D",
"! 	c #EAB367",
"~ 	c #EFB761",
"{ 	c #F1B862",
"] 	c #F1B45A",
"^ 	c #EDAA4C",
"/ 	c #E39E47",
"( 	c #E0994A",
"_ 	c #E09542",
": 	c #E08F42",
"< 	c #853B18",
"[ 	c #B17236",
"} 	c #EC9647",
"| 	c #ED9938",
"1 	c #FDAA32",
"2 	c #FFB747",
"3 	c #FFC060",
"4 	c #FFBF60",
"5 	c #FFB54A",
"6 	c #FFA428",
"7 	c #F38A0B",
"8 	c #E0861A",
"9 	c #D88827",
"0 	c #C46A1B",
"a 	c #67330B",
"b 	c #AC6215",
"c 	c #D77206",
"d 	c #E07B0E",
"e 	c #F28921",
"f 	c #FF9D3F",
"g 	c #FFB061",
"h 	c #FFB970",
"i 	c #FEB467",
"j 	c #F7A34D",
"k 	c #F88F28",
"l 	c #EC7701",
"m 	c #CD7116",
"n 	c #6F3507",
"o 	c #B36610",
"p 	c #E17700",
"q 	c #F98D1F",
"r 	c #790000",
"s 	c #7C0401",
"t 	c #7C0300",
"u 	c #7B0200",
"v 	c #AD411C",
"w 	c #FF9934",
"x 	c #973F0E",
"y 	c #BB6C10",
"z 	c #ED7F03",
"A 	c #FF9D3C",
"B 	c #914411",
"C 	c #1A8632",
"D 	c #B24B2B",
"E 	c #A9512B",
"F 	c #056B1D",
"G 	c #F78109",
"H 	c #E8AB4E",
"I 	c #399C3C",
"J 	c #2B913E",
"K 	c #A32B11",
"L 	c #327D26",
"M 	c #5EF25B",
"N 	c #1AB90F",
"O 	c #08721A",
"P 	c #278524",
"Q 	c #4FEB49",
"R 	c #218C30",
"S 	c #016020",
"T 	c #026121",
"U 	c #005E20",
"V 	c #066622",
"W 	c #57D948",
"X 	c #10AB08",
"Y 	c #097119",
"Z 	c #1A691A",
"` 	c #10A30D",
" .	c #36C928",
"..	c #56D845",
"+.	c #68E757",
"@.	c #7BF36D",
"#.	c #83F475",
"$.	c #72F468",
"%.	c #57EF52",
"&.	c #50CE41",
"*.	c #39BF29",
"=.	c #068F01",
"-.	c #096819",
";.	c #1D5F23",
">.	c #3A8947",
",.	c #3A8E37",
"'.	c #36AC32",
").	c #36C42E",
"!.	c #38D62D",
"~.	c #37E128",
"{.	c #34E923",
"].	c #2BE71A",
"^.	c #20DB10",
"/.	c #12C606",
"(.	c #05A100",
"_.	c #026F00",
":.	c #086219",
"<.	c #1C6329",
"[.	c #418945",
"}.	c #398B37",
"|.	c #3BA437",
"1.	c #36B52F",
"2.	c #34C129",
"3.	c #31CC24",
"4.	c #2DCD1F",
"5.	c #26C719",
"6.	c #1DB612",
"7.	c #159B0E",
"8.	c #147D0F",
"9.	c #0D621F",
"0.	c #226728",
"a.	c #408A42",
"b.	c #0F6622",
"c.	c #005E1F",
"d.	c #005F1F",
"e.	c #015D1F",
"f.	c #146329",
"g.	c #0D6321",
"h.	c #0E5321",
"                    .           ",
"                    + @         ",
"    # $ % & & * & = - ; >       ",
"  , ' ) ! ~ { ] ^ / ( _ : <     ",
"  [ } | 1 2 3 4 5 6 7 8 9 0 a   ",
"  b c d e f g h i j k l m n     ",
"  o p q q r s t t u v w x       ",
"  y z A B C         D E     F   ",
"    G H I J         K L M N O   ",
"      P Q R S T T T U V W X Y   ",
"    Z `  ...+.@.#.$.%.&.*.=.-.  ",
"  ;.>.,.'.).!.~.{.].^./.(._.:.  ",
"    <.[.}.|.1.2.3.4.5.6.7.8.9.  ",
"      0.a.b.c.d.d.d.d.d.c.c.e.  ",
"        f.g.                    ",
"          h.                    "};
