/* XPM */
static const char * wx_xpm[] = {
"16 16 6 1",
" 	c None",
".	c #000000",
"+	c #000080",
"@	c #FFFFFF",
"#	c #FFFF00",
"$	c #FF0000",
"                ",
"                ",
"                ",
"    .......     ",
"    .+++++.     ",
"    .@++++.     ",
"    .@+++.......",
".....@+++.#####.",
".$$$.++++.@####.",
".@$$......@####.",
".@$$$$.  .@####.",
".@$$$$.  .#####.",
".$$$$$.  .......",
".......         ",
"                ",
"                "};
