/* XPM */
static const char * ZoomAll_xpm[] = {
"16 16 41 1",
" 	c None",
".	c #ACC4D3",
"+	c #85A7BC",
"@	c #749BB4",
"#	c #AABFCD",
"$	c #98B3C6",
"%	c #A0BACB",
"&	c #C0D1DC",
"*	c #B5CAD7",
"=	c #81A3B9",
"-	c #8FB0C3",
";	c #62B4DD",
">	c #4CBCE3",
",	c #71C5E7",
"'	c #AFD1DE",
")	c #B9CBD5",
"!	c #35B4E1",
"~	c #81CCEB",
"{	c #91D2EF",
"]	c #5A89A6",
"^	c #CAD6E1",
"/	c #DEF1FA",
"(	c #EAF6FC",
"_	c #D3ECF8",
":	c #8AD0EE",
"<	c #EFF8FC",
"[	c #FDFDFE",
"}	c #A7DAF2",
"|	c #E9F4FB",
"1	c #AEC9D7",
"2	c #B6E0F4",
"3	c #BCD9EF",
"4	c #B6D5EE",
"5	c #6B98B8",
"6	c #A06959",
"7	c #C2CBDB",
"8	c #6591AE",
"9	c #000000",
"0	c #E6DED2",
"a	c #D8BCA4",
"b	c #DB916B",
"       .+@@+#   ",
"      $%&&&*$=  ",
"     .-&;>>,'%% ",
"     @);!~{,,)+ ",
"     ]^!,/(_,&= ",
"     ]^!:<[/}^= ",
"     =*;~/|_}1- ",
"     %#1~2234%% ",
"      5%1^^1-$  ",
"    667899@=9 9 ",
"   60a69  9 9 9 ",
"  60ab69  9 9 9 ",
" 60ab6 9999 9 9 ",
" 6ab6  9  9 9 9 ",
"  66   9  9 9 9 ",
"                "};
