/* XPM */
static const char * ZoomAllDis_xpm[] = {
"16 15 36 1",
" 	g None",
".	g #BEBEBE",
"+	g #9F9F9F",
"@	g #929292",
"#	g #BABABA",
"$	g #ADADAD",
"%	g #B4B4B4",
"&	g #CDCDCD",
"*	g #C5C5C5",
"=	g #9B9B9B",
"-	g #A8A8A8",
";	g #A0A0A0",
">	g #B0B0B0",
",	g #C8C8C8",
"'	g #C7C7C7",
")	g #939393",
"!	g #B9B9B9",
"~	g #C2C2C2",
"{	g #7E7E7E",
"]	g #D4D4D4",
"^	g #ECECEC",
"/	g #F3F3F3",
"(	g #E6E6E6",
"_	g #F6F6F6",
":	g #FDFDFD",
"<	g #F1F1F1",
"[	g #D6D6D6",
"}	g #D3D3D3",
"|	g #CECECE",
"1	g #8E8E8E",
"2	g #787878",
"3	g #CACACA",
"4	g #878787",
"5	g #000000",
"6	g #DFDFDF",
"7	g #A3A3A3",
"       .+@@+#   ",
"      $%&&&*$=  ",
"     .-&;++>,%% ",
"     @';)!~>>'+ ",
"     {])>^/(>&= ",
"     {])._:^&]= ",
"     =*;!^<(&~- ",
"     %#~![[}|%% ",
"      1%~]]~-$  ",
"    223455@=5 5 ",
"   26~25  5 5 5 ",
"  26~725  5 5 5 ",
" 26~72 5555 5 5 ",
" 2~72  5  5 5 5 ",
"  22   5  5 5 5 "};
