/* XPM */
static const char * ico_plus_xpm[] = {
"10 10 10 1",
" 	c None",
".	c #AFAFAF",
"+	c #B8B8B8",
"@	c #B7B7B7",
"#	c #BBBBBB",
"$	c #FFFFFF",
"%	c #C0C0C0",
"&	c #7ABF90",
"*	c #B6B6B6",
"=	c #BDBDBD",
".+@@@@@@@#",
"+$$$$$$$$%",
"@$$$&&$$$%",
"@$$$&&$$$%",
"@$&&&&&&$%",
"@$&&&&&&$%",
"@$$$&&$$$%",
"@$$$&&$$$%",
"*$$$$$$$$%",
"=%%%%%%%%%"};
