/* XPM */
static const char * ico_minus_xpm[] = {
"10 10 8 1",
" 	c None",
".	c #AFAFAF",
"+	c #B7B7B7",
"@	c #BABABA",
"#	c #FFFFFF",
"$	c #BFBFBF",
"%	c #7ABF90",
"&	c #BEBEBE",
".++++++++@",
"+########$",
"+########$",
"+########$",
"+#%%%%%%#$",
"+#%%%%%%#$",
"+########$",
"+########$",
"+########$",
"&$$$$$$$$$"};
