<?xml version="1.0" encoding="UTF-8" standalone="no"?>
<!-- Created with Inkscape (http://www.inkscape.org/) -->

<svg
   xmlns:svg="http://www.w3.org/2000/svg"
   xmlns="http://www.w3.org/2000/svg"
   xmlns:xlink="http://www.w3.org/1999/xlink"
   version="1.0"
   width="16"
   height="16"
   id="svg4002">
  <defs
     id="defs4004">
    <linearGradient
       x1="7.9995222"
       y1="1"
       x2="7.9995222"
       y2="15"
       id="linearGradient3645"
       xlink:href="#linearGradient3587-6-5-3"
       gradientUnits="userSpaceOnUse"
       gradientTransform="translate(-0.9995224,1)" />
    <linearGradient
       x1="8.9995222"
       y1="3"
       x2="8.9995222"
       y2="12"
       id="linearGradient3653"
       xlink:href="#linearGradient3587-6-5-3"
       gradientUnits="userSpaceOnUse"
       gradientTransform="translate(1.0004776,1)" />
    <linearGradient
       id="linearGradient3587-6-5-3">
      <stop
         id="stop3589-9-2-2"
         style="stop-color:#000000;stop-opacity:1"
         offset="0" />
      <stop
         id="stop3591-7-4-73"
         style="stop-color:#363636;stop-opacity:1"
         offset="1" />
    </linearGradient>
  </defs>
  <path
     d="m 4.2192276,5.0003488 -0.03125,0.03125 c -0.1392905,0.056469 -0.260817,0.1558997 -0.34375,0.28125 l -3,4.25 c -0.1816368,0.2529493 -0.1816368,0.6220502 0,0.8750002 l 3,4.25 c 0.082937,0.125347 0.2044621,0.224776 0.34375,0.28125 l 0.03125,0.03125 0.125,0 0.15625,0 c 0.020821,8.68e-4 0.041679,8.68e-4 0.0625,0 l 9.9375004,0 0.5,0 0,-0.5 0,-9.0000002 0,-0.5 -0.5,0 -9.8750004,0 -0.0625,0 c -0.020821,-8.682e-4 -0.041679,-8.682e-4 -0.0625,0 l -0.1875,0 -0.09375,0 z m 0.9375,1 8.8437504,0 0,8.0000002 -8.8125004,0 c -0.031927,-0.06831 -0.074226,-0.131756 -0.125,-0.1875 l -2.6875,-3.8125 2.6875,-3.8125002 c 0.039807,-0.057709 0.071467,-0.1210288 0.09375,-0.1875 z"
     id="path3655"
     style="font-size:medium;font-style:normal;font-variant:normal;font-weight:normal;font-stretch:normal;text-indent:0;text-align:start;text-decoration:none;line-height:normal;letter-spacing:normal;word-spacing:normal;text-transform:none;direction:ltr;block-progression:tb;writing-mode:lr-tb;text-anchor:start;opacity:0.6;color:#000000;fill:#ffffff;fill-opacity:1;stroke:none;stroke-width:1;marker:none;visibility:visible;display:inline;overflow:visible;enable-background:accumulate;font-family:Andale Mono;-inkscape-font-specification:Andale Mono" />
  <path
     d="m 7.0036232,7.0005826 0.9999999,0 c 0.01037,-1.2e-4 0.02079,-4.6e-4 0.03125,0 0.254951,0.0112 0.50987,0.12858 0.6875,0.3125 l 1.2812499,1.28125 1.3125,-1.28125 c 0.265625,-0.2305 0.446672,-0.3055 0.6875,-0.3125 l 1,0 0,1 c 0,0.28647 -0.03434,0.55065 -0.25,0.75 l -1.28125,1.2812504 1.25,1.25 c 0.188188,0.18817 0.281242,0.45345 0.28125,0.71875 l 0,1 -1,0 c -0.265301,-1e-5 -0.530586,-0.0931 -0.71875,-0.28125 l -1.28125,-1.28125 -1.2812499,1.28125 c -0.188164,0.18819 -0.45346,0.28125 -0.71875,0.28125 l -0.9999999,0 0,-1 c -3e-6,-0.26529 0.09306,-0.53058 0.28125,-0.71875 l 1.2812499,-1.25 -1.2812499,-1.2812504 c -0.210742,-0.19463 -0.30316,-0.46925 -0.28125,-0.75 l 0,-1 z"
     id="path3657"
     style="font-size:medium;font-style:normal;font-variant:normal;font-weight:normal;font-stretch:normal;text-indent:0;text-align:start;text-decoration:none;line-height:normal;letter-spacing:normal;word-spacing:normal;text-transform:none;direction:ltr;block-progression:tb;writing-mode:lr-tb;text-anchor:start;opacity:0.6;color:#bebebe;fill:#ffffff;fill-opacity:1;fill-rule:nonzero;stroke:none;stroke-width:1.78124988;marker:none;visibility:visible;display:inline;overflow:visible;enable-background:new;font-family:Andale Mono;-inkscape-font-specification:Andale Mono" />
  <path
     d="m 4.2192276,4 -0.03125,0.03125 C 4.0486871,4.087719 3.9271606,4.1871497 3.8442276,4.3125 L 1.144,8.5625 c -0.1816368,0.2529493 -0.1816368,0.6220507 0,0.875 l 2.7002276,4.25 c 0.082937,0.125347 0.2044621,0.224776 0.34375,0.28125 L 4.2192276,14 l 0.125,0 0.15625,0 c 0.020821,8.68e-4 0.041679,8.68e-4 0.0625,0 l 9.9375004,0 0.5,0 0,-0.5 0,-9 0,-0.5 -0.5,0 -9.8750004,0 -0.0625,0 c -0.020821,-8.682e-4 -0.041679,-8.682e-4 -0.0625,0 l -0.1875,0 -0.09375,0 z m 0.9375,1 8.8437504,0 0,8 -8.8125004,0 c -0.031927,-0.06831 -0.074226,-0.131756 -0.125,-0.1875 L 2.3754776,9 5.0629776,5.1875 C 5.102785,5.1297913 5.1344451,5.0664712 5.1567276,5 z"
     id="path2836"
     style="font-size:medium;font-style:normal;font-variant:normal;font-weight:normal;font-stretch:normal;text-indent:0;text-align:start;text-decoration:none;line-height:normal;letter-spacing:normal;word-spacing:normal;text-transform:none;direction:ltr;block-progression:tb;writing-mode:lr-tb;text-anchor:start;opacity:0.7;color:#000000;fill:url(#linearGradient3645);fill-opacity:1;stroke:none;stroke-width:1;marker:none;visibility:visible;display:inline;overflow:visible;enable-background:accumulate;font-family:Andale Mono;-inkscape-font-specification:Andale Mono" />
  <path
     d="m 7.0036232,6.0002338 0.9999999,0 c 0.01037,-1.2e-4 0.02079,-4.6e-4 0.03125,0 0.254951,0.0112 0.50987,0.12858 0.6875,0.3125 l 1.2812499,1.28125 1.3125,-1.28125 c 0.265625,-0.2305 0.446672,-0.3055 0.6875,-0.3125 l 1,0 0,1 c 0,0.28647 -0.03434,0.55065 -0.25,0.75 l -1.28125,1.28125 1.25,1.2500002 c 0.188188,0.18817 0.281242,0.45345 0.28125,0.71875 l 0,1 -1,0 c -0.265301,-1e-5 -0.530586,-0.0931 -0.71875,-0.28125 l -1.281249,-1.28125 -1.2812509,1.28125 c -0.188164,0.18819 -0.45346,0.28125 -0.71875,0.28125 l -0.9999999,0 0,-1 c -3e-6,-0.26529 0.09306,-0.53058 0.28125,-0.71875 L 8.5661231,9.0314838 7.2848732,7.7502338 c -0.210742,-0.19463 -0.30316,-0.46925 -0.28125,-0.75 l 0,-1 z"
     id="path10839"
     style="font-size:medium;font-style:normal;font-variant:normal;font-weight:normal;font-stretch:normal;text-indent:0;text-align:start;text-decoration:none;line-height:normal;letter-spacing:normal;word-spacing:normal;text-transform:none;direction:ltr;block-progression:tb;writing-mode:lr-tb;text-anchor:start;opacity:0.7;color:#bebebe;fill:url(#linearGradient3653);fill-opacity:1;fill-rule:nonzero;stroke:none;stroke-width:1.78124988;marker:none;visibility:visible;display:inline;overflow:visible;enable-background:new;font-family:Andale Mono;-inkscape-font-specification:Andale Mono" />
</svg>
