<?xml version="1.0" encoding="UTF-8" standalone="no"?>
<!-- Created with Inkscape (http://www.inkscape.org/) -->

<svg
   xmlns:svg="http://www.w3.org/2000/svg"
   xmlns="http://www.w3.org/2000/svg"
   xmlns:xlink="http://www.w3.org/1999/xlink"
   version="1.1"
   width="16"
   height="16"
   id="svg2931">
  <defs
     id="defs2933">
    <linearGradient
       x1="97.717728"
       y1="17.833755"
       x2="62.373119"
       y2="17.833755"
       id="linearGradient3471"
       xlink:href="#linearGradient2793"
       gradientUnits="userSpaceOnUse"
       gradientTransform="matrix(0.2208277,0,0,0.2160808,-2.1086239,-1.7480921)"
       spreadMethod="reflect" />
    <linearGradient
       id="linearGradient2793">
      <stop
         id="stop2795"
         style="stop-color:#555753;stop-opacity:1"
         offset="0" />
      <stop
         id="stop2797"
         style="stop-color:#d3d7cf;stop-opacity:0"
         offset="1" />
    </linearGradient>
    <linearGradient
       x1="32.626884"
       y1="37.21664"
       x2="63.999931"
       y2="37.21664"
       id="linearGradient3473"
       xlink:href="#linearGradient2793"
       gradientUnits="userSpaceOnUse"
       gradientTransform="matrix(0.214231,0,0,0.19643,-1.686422,-1.3151856)"
       spreadMethod="reflect" />
    <linearGradient
       x1="63.999081"
       y1="6.4738212"
       x2="63.999081"
       y2="31.225994"
       id="linearGradient3475"
       xlink:href="#linearGradient4302"
       gradientUnits="userSpaceOnUse"
       gradientTransform="matrix(0.2057158,0,0,0.2088959,-1.1414726,-2.1579663)" />
    <linearGradient
       id="linearGradient4302">
      <stop
         id="stop4304"
         style="stop-color:#c0c0c0;stop-opacity:1"
         offset="0" />
      <stop
         id="stop4306"
         style="stop-color:#abacb0;stop-opacity:1"
         offset="1" />
    </linearGradient>
    <linearGradient
       x1="92.004761"
       y1="47.258526"
       x2="55.992207"
       y2="10.900407"
       id="linearGradient3477"
       xlink:href="#linearGradient2793"
       gradientUnits="userSpaceOnUse"
       gradientTransform="matrix(0.1795663,0,0,0.1823422,0.5319063,0.3934159)"
       spreadMethod="reflect" />
    <linearGradient
       x1="4.8849959"
       y1="38.13002"
       x2="31.710253"
       y2="39.751118"
       id="linearGradient3446"
       xlink:href="#linearGradient2338"
       gradientUnits="userSpaceOnUse"
       gradientTransform="matrix(0.34524644,0,0,0.52929002,4.8403655,8.3269529)" />
    <linearGradient
       id="linearGradient2338">
      <stop
         id="stop3317"
         style="stop-color:#f8f8f8;stop-opacity:0.15463917"
         offset="0" />
      <stop
         id="stop3322"
         style="stop-color:#b0b2b6;stop-opacity:0.17525773"
         offset="0.58783686" />
      <stop
         id="stop3319"
         style="stop-color:#5b5e62;stop-opacity:0.3298969"
         offset="0.75932533" />
      <stop
         id="stop2342"
         style="stop-color:#ffffff;stop-opacity:0.15463917"
         offset="1" />
    </linearGradient>
    <linearGradient
       x1="29.659733"
       y1="-20.890686"
       x2="29.232977"
       y2="57.745785"
       id="linearGradient3448"
       xlink:href="#linearGradient4294"
       gradientUnits="userSpaceOnUse"
       gradientTransform="matrix(0.28539147,0,0,0.3738992,3.5007654,15.001923)" />
    <linearGradient
       id="linearGradient4294">
      <stop
         id="stop4296"
         style="stop-color:#bfc2c2;stop-opacity:1"
         offset="0" />
      <stop
         id="stop4298"
         style="stop-color:#676b73;stop-opacity:1"
         offset="1" />
    </linearGradient>
    <linearGradient
       x1="23.373713"
       y1="53.131126"
       x2="13.483184"
       y2="53.131126"
       id="linearGradient3488"
       xlink:href="#linearGradient157"
       gradientUnits="userSpaceOnUse" />
    <linearGradient
       id="linearGradient157">
      <stop
         id="stop158"
         style="stop-color:#babdb6;stop-opacity:1"
         offset="0" />
      <stop
         id="stop159"
         style="stop-color:#f1f5ec;stop-opacity:1"
         offset="1" />
    </linearGradient>
    <linearGradient
       x1="27.405413"
       y1="52.355087"
       x2="37.462498"
       y2="68.298302"
       id="linearGradient3490"
       xlink:href="#linearGradient2793"
       gradientUnits="userSpaceOnUse"
       gradientTransform="matrix(0.3397845,0,0,0.366125,0.76225221,0.930811)"
       spreadMethod="reflect" />
  </defs>
  <g
     transform="matrix(0.9852467,0,0,1.0000033,-2.9427114,-17.000385)"
     id="layer1">
    <g
       transform="matrix(0.70242299,0,0,0.64351585,3.4224409,17.976921)"
       id="g3483"
       style="stroke-width:1.49807274;stroke-miterlimit:4;stroke-dasharray:none">
      <path
         d="m 41.359416,53.131126 c 0,1.117935 -1.754141,2.228987 -4.767202,3.019486 -3.01306,0.790499 -4.761488,1.250711 -9.022598,1.250711 -4.26111,0 -6.009968,-0.460212 -9.023028,-1.250711 -3.01306,-0.790499 -4.767201,-1.901551 -4.767201,-3.019486 0,-1.117935 1.754141,-2.228987 4.767201,-3.019486 3.01306,-0.790499 4.761918,-1.250711 9.023028,-1.250711 4.26111,0 6.009538,0.460212 9.022598,1.250711 3.013061,0.790499 4.767202,1.901551 4.767202,3.019486 z"
         transform="matrix(0.422131,0,0,0.4304658,-0.6630769,-2.1932058)"
         id="path2512"
         style="fill:url(#linearGradient3488);fill-opacity:1;fill-rule:evenodd;stroke:#838383;stroke-width:3.51430893;stroke-linecap:round;stroke-linejoin:round;stroke-miterlimit:4;stroke-opacity:1;stroke-dasharray:none;stroke-dashoffset:0;marker:none;visibility:visible;display:inline;overflow:visible" />
      <path
         d="m 41.139781,53.131126 c 0,1.117935 -1.754141,2.228987 -4.767201,3.019486 -3.013061,0.790499 -4.651666,1.250711 -8.912776,1.250711 -4.26111,0 -5.900156,-0.460212 -8.913216,-1.250711 -3.01306,-0.790499 -4.767201,-1.901551 -4.767201,-3.019486 0,-1.117935 1.754141,-2.228987 4.767201,-3.019486 3.01306,-0.790499 4.652106,-1.250711 8.913216,-1.250711 4.26111,0 5.899715,0.460212 8.912776,1.250711 3.01306,0.790499 4.767201,1.901551 4.767201,3.019486 z"
         transform="matrix(0.4042741,0,0,0.366125,-0.126375,0.930811)"
         id="path2514"
         style="fill:#d9dcd5;fill-opacity:1;fill-rule:evenodd;stroke:#838383;stroke-width:3.89385915;stroke-linecap:round;stroke-linejoin:round;stroke-miterlimit:4;stroke-opacity:1;stroke-dasharray:none;stroke-dashoffset:0;marker:none;visibility:visible;display:inline;overflow:visible" />
      <path
         d="m 16.505104,20.383445 a 5.530415,1.5634265 0 0 1 -11.0608297,0 5.530415,1.5634265 0 1 1 11.0608297,0 z"
         id="path2518"
         style="opacity:0.5;fill:url(#linearGradient3490);fill-opacity:1;fill-rule:evenodd;stroke:none;stroke-width:1.49807274;marker:none;visibility:visible;display:inline;overflow:visible" />
    </g>
    <path
       d="m 5.8561083,20.77498 c -0.012948,-0.02182 0.7123943,9.370056 0.7125432,9.374818 0.048927,1.569661 1.6632872,2.2273 4.6048395,2.350612 3.594349,-0.04854 4.427307,-1.259112 4.478237,-2.350612 0.0041,-0.02152 0.728625,-9.353299 0.732708,-9.374818 0.678846,-3.475084 -3.051132,-3.219647 -4.944793,-3.219647 -2.033257,0 -6.3484371,-0.08169 -5.5835347,3.219647 z"
       id="path2520"
       style="fill:url(#linearGradient3446);fill-opacity:1;fill-rule:evenodd;stroke:url(#linearGradient3448);stroke-width:1.00719106;stroke-linecap:round;stroke-linejoin:round;stroke-miterlimit:4;stroke-opacity:1;stroke-dasharray:none" />
    <g
       transform="matrix(0.65342214,0,0,0.9313124,3.2497249,17.028456)"
       id="g3454"
       style="stroke-width:1.29112196;stroke-miterlimit:4;stroke-dasharray:none">
      <path
         d="m 98.723392,24.095787 a 32.811855,6.9077592 0 1 1 -65.62371,0 32.811855,6.9077592 0 1 1 65.62371,0 z"
         transform="matrix(0.2208277,0,0,0.2160808,-2.1086239,-1.7480921)"
         id="path2516"
         style="opacity:0.77272728;fill:#585858;fill-opacity:0.51308899;fill-rule:evenodd;stroke:#636363;stroke-width:5.91061115;stroke-linecap:round;stroke-linejoin:round;stroke-miterlimit:4;stroke-opacity:1;stroke-dasharray:none;stroke-dashoffset:0;marker:none;visibility:visible;display:inline;overflow:visible" />
      <path
         d="m 4.4590384,3.613216 c 0,0 6.0170886,-1.8960796 14.8518386,-0.2790603 3.368647,-2.54991505 -7.944918,-2.73649441 -7.944918,-2.73649441 0,0 -9.7035323,0.52783261 -6.9069206,3.01555471 z"
         id="path2522"
         style="fill:#d9dcd5;fill-opacity:1;fill-rule:evenodd;stroke:none" />
      <path
         d="m 4.4590384,3.613216 c 0,0 6.0170886,-1.8960796 14.8518386,-0.2790603 3.368647,-2.54991505 -7.944918,-2.41408851 -7.944918,-2.41408851 0,0 -9.7035323,0.20542671 -6.9069206,2.69314881 z"
         id="path2524"
         style="fill:url(#linearGradient3471);fill-opacity:1;fill-rule:evenodd;stroke:#636363;stroke-width:1.29112196;stroke-linecap:round;stroke-linejoin:round;stroke-miterlimit:4;stroke-opacity:1;stroke-dasharray:none" />
      <path
         d="m 3.4810767,2.377698 c 0,0.09548 0,1.5994026 0,1.6948831 0,1.0357191 3.8263951,1.8772007 8.5432713,1.8772007 4.716875,0 8.543271,-0.8414816 8.543271,-1.8772007 0,-0.09548 0,-1.5994027 0,-1.6948831 -5.022324,3.0665603 -16.3629575,1.4775683 -17.0865423,0 z"
         id="path2526"
         style="fill:#ffffff;fill-opacity:1;fill-rule:evenodd;stroke:#808389;stroke-width:1.29112196;stroke-linecap:round;stroke-linejoin:round;stroke-miterlimit:4;stroke-opacity:1;stroke-dasharray:none;stroke-dashoffset:0;marker:none;visibility:visible;display:inline;overflow:visible" />
      <path
         d="m 3.4810767,2.8077197 c 0,0.09548 0,1.1693809 0,1.2648614 0,1.0357191 3.8263951,1.8772007 8.5432713,1.8772007 4.716875,0 8.543271,-0.8414816 8.543271,-1.8772007 0,-0.09548 0,-1.5994027 0,-1.6948831 C 15.545289,5.4443588 4.2922734,3.8012691 3.4810767,2.8077197 z"
         id="path2528"
         style="fill:url(#linearGradient3473);fill-opacity:1;fill-rule:evenodd;stroke:#808389;stroke-width:1.29112196;stroke-linecap:round;stroke-linejoin:round;stroke-miterlimit:4;stroke-opacity:1;stroke-dasharray:none;stroke-dashoffset:0;marker:none;visibility:visible;display:inline;overflow:visible" />
      <path
         d="m 11.769015,0.50724987 c -0.278916,0.001536 -0.557281,0.007619 -0.835004,0.0135051 C 8.8548365,0.59584932 6.720681,0.7651173 4.8267453,1.3715724 4.19821,1.5903296 3.3956463,1.9424901 3.4879776,2.4789859 3.6876357,3.0579227 4.6183178,3.3383298 5.3650131,3.5593893 7.6141478,4.1380963 10.071174,4.2656544 12.466003,4.2548987 14.67887,4.213857 16.948552,4.0653334 18.99422,3.4716065 19.667112,3.2521297 20.518481,2.9404809 20.567618,2.3844508 20.567704,2.3195428 20.555021,2.2506649 20.526212,2.1886276 20.198988,1.6269062 19.268375,1.3717391 18.483556,1.1554918 16.34089,0.64279326 14.040192,0.49474746 11.769015,0.50724987 z"
         id="path2530"
         style="fill:none;stroke:url(#linearGradient3475);stroke-width:1.29112196;stroke-linecap:round;stroke-linejoin:round;stroke-miterlimit:4;stroke-opacity:1;stroke-dasharray:none;stroke-dashoffset:0;marker:none;visibility:visible;display:inline;overflow:visible" />
      <path
         d="m 11.769016,0.50724987 c -0.278917,0.001536 -0.557282,0.007619 -0.835005,0.0135051 C 8.854837,0.59584932 6.720681,0.7651173 4.8267457,1.3715725 4.1982105,1.5903296 3.3956463,1.9424901 3.4879776,2.478986 3.6876357,3.057923 4.6183178,3.33833 5.3650131,3.5593893 7.6141482,4.1380965 10.071174,4.2656544 12.466004,4.2548989 14.67887,4.213857 16.948553,4.0653335 18.994221,3.4716067 19.667113,3.2521296 20.518482,2.940481 20.567619,2.3844508 20.567705,2.3195428 20.555022,2.250665 20.526212,2.1886276 20.198988,1.6269063 19.268375,1.3717391 18.483557,1.1554918 16.340891,0.64279326 14.040192,0.49474746 11.769016,0.50724987 z M 11.361864,0.8043607 c 2.19696,-0.0296814 4.437315,0.0794951 6.514417,0.5334492 0.710914,0.1789144 1.553023,0.3928242 1.849432,0.8575703 0.0261,0.051328 0.04148,0.101606 0.04141,0.155308 -0.04451,0.4600375 -0.818951,0.7164988 -1.42848,0.8980854 C 16.485608,3.7399996 14.42909,3.8698113 12.424602,3.9037677 10.255284,3.9126667 8.030333,3.8018505 5.9929914,3.3230512 5.3166102,3.1401553 4.4762355,2.9107081 4.2953787,2.4317184 4.2117418,1.9878429 4.9336828,1.6943663 5.50303,1.5133754 7.2186193,1.0116182 9.1541389,0.8732435 11.037524,0.81111346 c 0.107816,-0.002087 0.216294,-0.005293 0.32434,-0.006753 z"
         id="path2532"
         style="fill:url(#linearGradient3477);fill-opacity:1;fill-rule:evenodd;stroke:none;stroke-width:1.29112196;marker:none;visibility:visible;display:inline;overflow:visible" />
    </g>
  </g>
</svg>
