<?xml version="1.0" encoding="UTF-8" standalone="no"?>
<!-- Created with Inkscape (http://www.inkscape.org/) -->

<svg
   xmlns:svg="http://www.w3.org/2000/svg"
   xmlns="http://www.w3.org/2000/svg"
   xmlns:xlink="http://www.w3.org/1999/xlink"
   version="1.0"
   width="16"
   height="16"
   id="svg3272">
  <defs
     id="defs3274">
    <linearGradient
       x1="29.955881"
       y1="21.86607"
       x2="29.955881"
       y2="43.144382"
       id="linearGradient2897"
       xlink:href="#linearGradient3341"
       gradientUnits="userSpaceOnUse"
       gradientTransform="matrix(0.4229234,0,0,0.4233787,-2.6035157,-2.9089857)" />
    <linearGradient
       id="linearGradient3341">
      <stop
         id="stop3343"
         style="stop-color:#ffffff;stop-opacity:1"
         offset="0" />
      <stop
         id="stop3345"
         style="stop-color:#ffffff;stop-opacity:0"
         offset="1" />
    </linearGradient>
    <linearGradient
       x1="30"
       y1="0.91818392"
       x2="30"
       y2="25.792814"
       id="linearGradient2868"
       xlink:href="#linearGradient3341"
       gradientUnits="userSpaceOnUse"
       gradientTransform="matrix(0.3368574,0,0,0.3216128,-0.1057209,-0.2952997)" />
    <linearGradient
       x1="30"
       y1="5"
       x2="30"
       y2="44.678879"
       id="linearGradient2874"
       xlink:href="#linearGradient3785-5"
       gradientUnits="userSpaceOnUse"
       gradientTransform="matrix(0.3368574,0,0,0.3216128,-0.1057209,-0.2952997)" />
    <radialGradient
       cx="26.375898"
       cy="12.31301"
       r="8"
       fx="26.375898"
       fy="12.31301"
       id="radialGradient2872"
       xlink:href="#linearGradient6954-6"
       gradientUnits="userSpaceOnUse"
       gradientTransform="matrix(0.5525016,-0.0426402,0.04315608,0.5097191,-6.3026675,-1.9765067)" />
    <linearGradient
       x1="30"
       y1="25.084745"
       x2="30"
       y2="45"
       id="linearGradient2884"
       xlink:href="#linearGradient3785-5"
       gradientUnits="userSpaceOnUse"
       gradientTransform="matrix(0.4273872,0,0,0.4230086,-2.7256264,-3.0702578)" />
    <radialGradient
       cx="24.999998"
       cy="28.659998"
       r="16"
       fx="24.999998"
       fy="28.659998"
       id="radialGradient2882"
       xlink:href="#linearGradient6954-6"
       gradientUnits="userSpaceOnUse"
       gradientTransform="matrix(0.5609457,0,0,0.1578952,-6.0645883,5.5177328)" />
    <linearGradient
       x1="18.03083"
       y1="16.407909"
       x2="20.054544"
       y2="24.627615"
       id="linearGradient2687"
       xlink:href="#linearGradient8265-821-176-38-919-66-249"
       gradientUnits="userSpaceOnUse"
       gradientTransform="matrix(0.2966887,0,0,0.3520695,1.8805021,2.1186294)" />
    <linearGradient
       x1="10.318256"
       y1="14.992862"
       x2="4.1760364"
       y2="4.0514131"
       id="linearGradient2692"
       xlink:href="#linearGradient3390-178-986-453"
       gradientUnits="userSpaceOnUse"
       gradientTransform="matrix(1.0083043,0,0,1.0006232,-8.2398426e-4,-0.0066205)" />
    <linearGradient
       x1="126.69791"
       y1="58.583481"
       x2="169.22964"
       y2="238.3999"
       id="linearGradient2690"
       xlink:href="#linearGradient7012-661-145-733-759-865-745-661-970-94"
       gradientUnits="userSpaceOnUse"
       gradientTransform="matrix(0.05489342,0.01385132,0.00257263,0.05248166,-0.7128009,-0.2674105)" />
    <radialGradient
       cx="605.71429"
       cy="486.64789"
       r="117.14286"
       fx="605.71429"
       fy="486.64789"
       id="radialGradient2677"
       xlink:href="#linearGradient5060"
       gradientUnits="userSpaceOnUse"
       gradientTransform="matrix(-2.774389,0,0,1.969706,112.7623,-872.8854)" />
    <radialGradient
       cx="605.71429"
       cy="486.64789"
       r="117.14286"
       fx="605.71429"
       fy="486.64789"
       id="radialGradient2675"
       xlink:href="#linearGradient5060"
       gradientUnits="userSpaceOnUse"
       gradientTransform="matrix(2.774389,0,0,1.969706,-1891.633,-872.8854)" />
    <linearGradient
       x1="302.85715"
       y1="366.64789"
       x2="302.85715"
       y2="609.50507"
       id="linearGradient2673"
       xlink:href="#linearGradient5048"
       gradientUnits="userSpaceOnUse"
       gradientTransform="matrix(2.774389,0,0,1.969706,-1892.179,-872.8854)" />
    <linearGradient
       id="linearGradient5060">
      <stop
         id="stop5062"
         style="stop-color:#000000;stop-opacity:1"
         offset="0" />
      <stop
         id="stop5064"
         style="stop-color:#000000;stop-opacity:0"
         offset="1" />
    </linearGradient>
    <linearGradient
       id="linearGradient5048">
      <stop
         id="stop5050"
         style="stop-color:#000000;stop-opacity:0"
         offset="0" />
      <stop
         id="stop5056"
         style="stop-color:#000000;stop-opacity:1"
         offset="0.5" />
      <stop
         id="stop5052"
         style="stop-color:#000000;stop-opacity:0"
         offset="1" />
    </linearGradient>
    <linearGradient
       id="linearGradient3390-178-986-453">
      <stop
         id="stop3624"
         style="stop-color:#bb2b12;stop-opacity:1"
         offset="0" />
      <stop
         id="stop3626"
         style="stop-color:#cd7233;stop-opacity:1"
         offset="1" />
    </linearGradient>
    <linearGradient
       id="linearGradient7012-661-145-733-759-865-745-661-970-94">
      <stop
         id="stop3618"
         style="stop-color:#edb763;stop-opacity:1"
         offset="0" />
      <stop
         id="stop3270"
         style="stop-color:#de7f32;stop-opacity:1"
         offset="0.5" />
      <stop
         id="stop3620"
         style="stop-color:#d24413;stop-opacity:1"
         offset="1" />
    </linearGradient>
    <linearGradient
       id="linearGradient8265-821-176-38-919-66-249">
      <stop
         id="stop2687"
         style="stop-color:#ffffff;stop-opacity:0.27450982"
         offset="0" />
      <stop
         id="stop2689"
         style="stop-color:#ffffff;stop-opacity:0.07843138"
         offset="1" />
    </linearGradient>
    <linearGradient
       id="linearGradient6954-6">
      <stop
         id="stop6960-4"
         style="stop-color:#f5f5f5;stop-opacity:1"
         offset="0" />
      <stop
         id="stop6962-9"
         style="stop-color:#d2d2d2;stop-opacity:1"
         offset="1" />
    </linearGradient>
    <linearGradient
       id="linearGradient3785-5">
      <stop
         id="stop3787-0"
         style="stop-color:#969696;stop-opacity:1"
         offset="0" />
      <stop
         id="stop3789-4"
         style="stop-color:#646464;stop-opacity:1"
         offset="1" />
    </linearGradient>
  </defs>
  <g
     id="layer1">
    <g
       transform="matrix(0.3639508,0,0,0.3445682,-0.6448509,-0.3854516)"
       id="layer6">
      <g
         transform="matrix(0.02165152,0,0,0.01485743,43.0076,42.68539)"
         id="g2488"
         style="display:inline">
        <rect
           width="1339.6335"
           height="478.35718"
           x="-1559.2523"
           y="-150.69685"
           id="rect2490"
           style="opacity:0.40206185;fill:url(#linearGradient2673);fill-opacity:1;fill-rule:nonzero;stroke:none;stroke-width:1;marker:none;visibility:visible;display:inline;overflow:visible" />
        <path
           d="m -219.61876,-150.68038 c 0,0 0,478.33079 0,478.33079 142.874166,0.90045 345.40022,-107.16966 345.40014,-239.196175 0,-132.026537 -159.436816,-239.134595 -345.40014,-239.134615 l 0,0 z"
           id="path2492"
           style="opacity:0.40206185;fill:url(#radialGradient2675);fill-opacity:1;fill-rule:nonzero;stroke:none;stroke-width:1;marker:none;visibility:visible;display:inline;overflow:visible" />
        <path
           d="m -1559.2523,-150.68038 c 0,0 0,478.33079 0,478.33079 -142.8742,0.90045 -345.4002,-107.16966 -345.4002,-239.196175 0,-132.026537 159.4368,-239.134595 345.4002,-239.134615 l 0,0 z"
           id="path2494"
           style="opacity:0.40206185;fill:url(#radialGradient2677);fill-opacity:1;fill-rule:nonzero;stroke:none;stroke-width:1;marker:none;visibility:visible;display:inline;overflow:visible" />
      </g>
    </g>
    <path
       d="m 0.60149736,1.5214532 c -0.056258,0 -0.104488,0.060345 -0.104488,0.122673 0,4.6045693 0.003374,8.6511918 -6.5534e-4,12.8572538 C 5.2026801,14.47741 9.9114628,14.45312 14.61887,14.43586 c -0.417129,0 -1.112329,-0.07009 -1.102384,-0.940487 0.0035,-3.5970295 0.02296,-7.4083529 0.01078,-10.9808559 l -6.0519488,0 c -0.4774881,0 -1.0962577,-0.9930629 -1.5260835,-0.9930629 l -5.34773334,0 -3e-6,-10e-7 z"
       id="rect2196"
       style="fill:#ffffff;fill-opacity:1;stroke:#a8a8a8;stroke-width:0.97899997;stroke-linecap:round;stroke-linejoin:round;stroke-miterlimit:4;stroke-opacity:1;stroke-dasharray:none;display:inline" />
    <path
       d="m 2.5253881,4.5240135 c 0.656364,0 12.4800419,0.031393 12.9890009,0.031393 0,0.615413 -0.02468,9.9580745 -0.05407,9.9580745 -4.558843,0.01775 -11.6593999,-0.01389 -12.9868139,-0.01389 0,-1.161471 0.05188,-7.5853285 0.05188,-9.9755725 l 3e-6,-5e-6 z"
       id="rect3086"
       style="fill:url(#linearGradient2690);fill-opacity:1;stroke:url(#linearGradient2692);stroke-width:0.95339239;stroke-linecap:round;stroke-linejoin:round;stroke-miterlimit:4;stroke-opacity:1;stroke-dasharray:none;display:inline" />
    <path
       d="m 2.8354689,4.0000008 c -0.4565886,0 -0.834437,0.4483788 -0.834437,0.9901955 l 0,5.6331117 c 0.00175,0.100774 0.044034,0.21567 0.1112582,0.286057 0.067223,0.07039 0.1531492,0.100083 0.2503311,0.08802 0.00309,9.4e-5 0.00618,9.4e-5 0.00927,0 L 15.722884,8.4888869 c 0.154804,-0.028972 0.275982,-0.1881213 0.278146,-0.3740738 l 0,-3.1246168 c 0,-0.5418167 -0.377849,-0.9901955 -0.834437,-0.9901955 l -12.3311241,0 0,0 z"
       id="path2509"
       style="fill:url(#linearGradient2687);fill-opacity:1;fill-rule:evenodd;stroke:none" />
    <path
       d="m 3.4989691,13.999999 0,-8.499999 11.4999999,0"
       id="path2406"
       style="opacity:0.35;fill:none;stroke:#ffffff;stroke-width:1px;stroke-linecap:butt;stroke-linejoin:miter;stroke-opacity:1" />
  </g>
  <g
     transform="matrix(0.9158595,0,0,0.8478725,1.2993353,2.2042211)"
     id="g3743">
    <path
       d="m 8.9227819,6.679329 c -0.080508,0.6801617 0.5891956,2.100317 0.218391,2.7190245 -1.4424534,0.5049417 -4.0422121,1.4262915 -4.1806268,2.0314545 -0.102202,0.94003 -0.2554985,2.311655 -0.3743845,3.250328 2.5287403,1.368305 8.4778624,1.302382 10.9195474,0 -0.08616,-0.665984 -0.163433,-2.584345 -0.24959,-3.250328 -0.652567,-0.780597 -2.370987,-1.237375 -4.180627,-2.0314545 -0.472869,-0.6162352 0.243062,-1.9933813 0.0936,-2.6877714 -0.285956,-0.049252 -1.9567212,-0.023727 -2.2463071,-0.031253 l -3e-6,-1e-7 z"
       id="path2880"
       style="fill:url(#radialGradient2882);fill-opacity:1;stroke:url(#linearGradient2884);stroke-width:1.13392818;stroke-linejoin:round;stroke-miterlimit:4;stroke-opacity:1;stroke-dasharray:none" />
    <path
       d="m 10,1.46875 c -1.3953075,0 -2.53125,1.0066477 -2.53125,2.25 0.010946,0.4601408 0.05895,1.0054807 0.34375,2.25 0.1684289,0.4824189 1.6739448,1.7766941 1.6875,1.9375 0.3266416,0.1608049 0.850642,0.1608049 1.1875,0 0,-0.1608059 1.331572,-1.4550811 1.5,-1.9375 0.320478,-1.293427 0.326559,-1.7675806 0.34375,-2.25 0,-1.2433523 -1.13594,-2.25 -2.53125,-2.25 z"
       id="path2870"
       style="fill:url(#radialGradient2872);fill-opacity:1;stroke:url(#linearGradient2874);stroke-width:0.94714093;stroke-miterlimit:4;stroke-opacity:1;stroke-dasharray:none" />
    <path
       d="M 10,2.46875 C 9.3876089,2.453926 8.7330161,2.7993069 8.53125,3.40625 c -0.1135765,0.4104884 -0.010161,0.836839 0.03125,1.25 0.05222,0.3381399 0.1132782,0.6660809 0.1875,1 0.1940928,0.171452 0.3611426,0.3974634 0.5625,0.5625 C 9.5758075,6.4747814 9.8032965,6.7399516 10.0625,7 10.330703,6.7826897 10.510924,6.4967292 10.75,6.25 10.902681,6.070177 11.060251,5.8623797 11.21875,5.6875 11.376386,4.9772187 11.558479,4.2653005 11.5,3.53125 11.375368,2.844477 10.652976,2.4515616 10,2.46875 z"
       id="path2866"
       style="fill:none;stroke:url(#linearGradient2868);stroke-width:0.94714093;stroke-miterlimit:4;stroke-opacity:1;stroke-dasharray:none" />
    <path
       d="m 10.065527,9.4141332 c 0.04034,0.6190758 -0.4786519,1.1021158 -1.0496774,1.1886588 -1.0489997,0.377946 -2.138962,0.707194 -3.0872853,1.313781 -0.2220119,0.541252 -0.1029796,1.161838 -0.2469829,1.720427 -0.3269361,0.709654 0.5622095,0.776816 1.0188043,0.907136 2.2288718,0.541242 4.5959683,0.499548 6.8229003,-0.03128 0.331794,-0.168758 1.124544,-0.08502 0.926186,-0.625611 -0.06148,-0.588086 -0.09081,-1.192816 -0.123492,-1.782988 C 13.417036,11.395234 12.264248,11.145993 11.238695,10.665353 10.425654,10.548478 10.39638,9.9450343 10.065527,9.4141332 z"
       id="path2876"
       style="fill:none;stroke:url(#linearGradient2897);stroke-width:0.99455309;stroke-linejoin:round;stroke-miterlimit:4;stroke-opacity:1;stroke-dasharray:none" />
  </g>
</svg>
