<?xml version="1.0" encoding="UTF-8" standalone="no"?>
<!-- Created with Inkscape (http://www.inkscape.org/) -->

<svg
   xmlns:svg="http://www.w3.org/2000/svg"
   xmlns="http://www.w3.org/2000/svg"
   xmlns:xlink="http://www.w3.org/1999/xlink"
   version="1.1"
   width="24"
   height="24"
   id="svg2931">
  <defs
     id="defs2933">
    <linearGradient
       x1="97.717728"
       y1="17.833755"
       x2="62.373119"
       y2="17.833755"
       id="linearGradient3471"
       xlink:href="#linearGradient2793"
       gradientUnits="userSpaceOnUse"
       gradientTransform="matrix(0.2208277,0,0,0.2160808,-2.1086239,-1.7480921)"
       spreadMethod="reflect" />
    <linearGradient
       id="linearGradient2793">
      <stop
         id="stop2795"
         style="stop-color:#555753;stop-opacity:1"
         offset="0" />
      <stop
         id="stop2797"
         style="stop-color:#d3d7cf;stop-opacity:0"
         offset="1" />
    </linearGradient>
    <linearGradient
       x1="32.626884"
       y1="37.21664"
       x2="63.999931"
       y2="37.21664"
       id="linearGradient3473"
       xlink:href="#linearGradient2793"
       gradientUnits="userSpaceOnUse"
       gradientTransform="matrix(0.214231,0,0,0.19643,-1.686422,-1.3151856)"
       spreadMethod="reflect" />
    <linearGradient
       x1="63.999081"
       y1="6.4738212"
       x2="63.999081"
       y2="31.225994"
       id="linearGradient3475"
       xlink:href="#linearGradient4302"
       gradientUnits="userSpaceOnUse"
       gradientTransform="matrix(0.2057158,0,0,0.2088959,-1.1414726,-2.1579663)" />
    <linearGradient
       id="linearGradient4302">
      <stop
         id="stop4304"
         style="stop-color:#c0c0c0;stop-opacity:1"
         offset="0" />
      <stop
         id="stop4306"
         style="stop-color:#abacb0;stop-opacity:1"
         offset="1" />
    </linearGradient>
    <linearGradient
       x1="92.004761"
       y1="47.258526"
       x2="55.992207"
       y2="10.900407"
       id="linearGradient3477"
       xlink:href="#linearGradient2793"
       gradientUnits="userSpaceOnUse"
       gradientTransform="matrix(0.1795663,0,0,0.1823422,0.5319063,0.3934159)"
       spreadMethod="reflect" />
    <linearGradient
       x1="4.8849959"
       y1="38.13002"
       x2="35.514687"
       y2="39.751118"
       id="linearGradient3446"
       xlink:href="#linearGradient2338"
       gradientUnits="userSpaceOnUse"
       gradientTransform="matrix(0.4683195,0,0,0.5325303,2.5002489,2.2058077)" />
    <linearGradient
       id="linearGradient2338">
      <stop
         id="stop3317"
         style="stop-color:#f8f8f8;stop-opacity:0.15463917"
         offset="0" />
      <stop
         id="stop3322"
         style="stop-color:#b0b2b6;stop-opacity:0.17525773"
         offset="0.49817383" />
      <stop
         id="stop3319"
         style="stop-color:#5b5e62;stop-opacity:0.3298969"
         offset="0.83783782" />
      <stop
         id="stop2342"
         style="stop-color:#ffffff;stop-opacity:0.15463917"
         offset="1" />
    </linearGradient>
    <linearGradient
       x1="29.232977"
       y1="13.575008"
       x2="29.232977"
       y2="57.745785"
       id="linearGradient3448"
       xlink:href="#linearGradient4294"
       gradientUnits="userSpaceOnUse"
       gradientTransform="matrix(0.3871275,0,0,0.3761882,0.6831097,8.9216428)" />
    <linearGradient
       id="linearGradient4294">
      <stop
         id="stop4296"
         style="stop-color:#bfc2c2;stop-opacity:1"
         offset="0" />
      <stop
         id="stop4298"
         style="stop-color:#676b73;stop-opacity:1"
         offset="1" />
    </linearGradient>
    <linearGradient
       x1="23.373713"
       y1="53.131126"
       x2="13.483184"
       y2="53.131126"
       id="linearGradient3488"
       xlink:href="#linearGradient157"
       gradientUnits="userSpaceOnUse" />
    <linearGradient
       id="linearGradient157">
      <stop
         id="stop158"
         style="stop-color:#babdb6;stop-opacity:1"
         offset="0" />
      <stop
         id="stop159"
         style="stop-color:#f1f5ec;stop-opacity:1"
         offset="1" />
    </linearGradient>
    <linearGradient
       x1="27.405413"
       y1="52.355087"
       x2="37.462498"
       y2="68.298302"
       id="linearGradient3490"
       xlink:href="#linearGradient2793"
       gradientUnits="userSpaceOnUse"
       spreadMethod="reflect" />
    <linearGradient
       id="linearGradient5060">
      <stop
         id="stop5062"
         style="stop-color:#000000;stop-opacity:1"
         offset="0" />
      <stop
         id="stop5064"
         style="stop-color:#000000;stop-opacity:0"
         offset="1" />
    </linearGradient>
    <radialGradient
       cx="62.71241"
       cy="108.02493"
       r="47.38271"
       fx="62.71241"
       fy="108.02493"
       id="radialGradient2929"
       xlink:href="#linearGradient5060"
       gradientUnits="userSpaceOnUse"
       gradientTransform="matrix(0.1897668,0,0,0.05591461,0.3339264,23.310713)" />
  </defs>
  <g
     transform="translate(0,-8.0000001)"
     id="layer1">
    <path
       d="m 21.226325,29.350891 a 8.9916653,2.6493885 0 0 1 -17.9833305,0 8.9916653,2.6493885 0 1 1 17.9833305,0 z"
       id="path2510"
       style="opacity:0.4;fill:url(#radialGradient2929);fill-opacity:1;fill-rule:evenodd;stroke:none;stroke-width:1.05496335;marker:none;visibility:visible;display:inline;overflow:visible" />
    <g
       transform="matrix(0.9528218,0,0,1.0788674,0.5768641,6.1874873)"
       id="g3483">
      <path
         d="m 46.331873,53.131126 a 16.276243,4.2701988 0 1 1 -32.552486,0 16.276243,4.2701988 0 1 1 32.552486,0 z"
         transform="matrix(0.422131,0,0,0.4304658,-0.6630769,-2.1932058)"
         id="path2512"
         style="fill:url(#linearGradient3488);fill-opacity:1;fill-rule:evenodd;stroke:#838383;stroke-width:2.25523639;stroke-linecap:round;stroke-linejoin:round;stroke-miterlimit:4;stroke-opacity:1;stroke-dasharray:none;stroke-dashoffset:0;marker:none;visibility:visible;display:inline;overflow:visible" />
      <path
         d="m 46.331873,53.131126 a 16.276243,4.2701988 0 1 1 -32.552486,0 16.276243,4.2701988 0 1 1 32.552486,0 z"
         transform="matrix(0.4042741,0,0,0.366125,-0.126375,0.930811)"
         id="path2514"
         style="fill:#d9dcd5;fill-opacity:1;fill-rule:evenodd;stroke:#838383;stroke-width:2.49880481;stroke-linecap:round;stroke-linejoin:round;stroke-miterlimit:4;stroke-opacity:1;stroke-dasharray:none;stroke-dashoffset:0;marker:none;visibility:visible;display:inline;overflow:visible" />
      <path
         d="m 46.331873,53.131126 a 16.276243,4.2701988 0 1 1 -32.552486,0 16.276243,4.2701988 0 1 1 32.552486,0 z"
         transform="matrix(0.4042741,0,0,0.366125,-0.126375,0.930811)"
         id="path2518"
         style="opacity:0.5;fill:url(#linearGradient3490);fill-opacity:1;fill-rule:evenodd;stroke:none;stroke-width:2.49880481;marker:none;visibility:visible;display:inline;overflow:visible" />
    </g>
    <path
       d="m 3.6032145,12.730041 c -0.017563,-0.02195 1.5407364,15.791739 1.5409381,15.79653 0.066372,1.57927 2.9569647,1.86346 6.9471194,1.987525 4.875657,-0.04885 6.704984,-0.844444 6.774069,-1.942625 0.0055,-0.02165 1.563476,-15.819778 1.569017,-15.84143 0.920837,-3.496359 -6.41362,-3.239357 -8.98233,-3.239357 -2.7580701,0 -8.8863872,-0.082184 -7.8488135,3.239357 z"
       id="path2520"
       style="fill:url(#linearGradient3446);fill-opacity:1;fill-rule:evenodd;stroke:url(#linearGradient3448);stroke-width:0.97236609;stroke-linecap:round;stroke-linejoin:round;stroke-miterlimit:4;stroke-opacity:1;stroke-dasharray:none" />
    <g
       transform="matrix(0.997324,0,0,0.9370138,0.0080281,8.9605797)"
       id="g3454">
      <path
         d="m 98.723392,24.095787 a 32.811855,6.9077592 0 1 1 -65.62371,0 32.811855,6.9077592 0 1 1 65.62371,0 z"
         transform="matrix(0.2208277,0,0,0.2160808,-2.1086239,-1.7480921)"
         id="path2516"
         style="opacity:0.77272728;fill:#585858;fill-opacity:0.51308899;fill-rule:evenodd;stroke:#636363;stroke-width:4.40098763;stroke-linecap:round;stroke-linejoin:round;stroke-miterlimit:4;stroke-opacity:1;stroke-dasharray:none;stroke-dashoffset:0;marker:none;visibility:visible;display:inline;overflow:visible" />
      <path
         d="m 4.4590384,3.613216 c 0,0 6.0170886,-1.8960796 14.8518386,-0.2790603 3.368647,-2.54991505 -7.944918,-2.73649441 -7.944918,-2.73649441 0,0 -9.7035323,0.52783261 -6.9069206,3.01555471 z"
         id="path2522"
         style="fill:#d9dcd5;fill-opacity:1;fill-rule:evenodd;stroke:none" />
      <path
         d="m 4.4590384,3.613216 c 0,0 6.0170886,-1.8960796 14.8518386,-0.2790603 3.368647,-2.54991505 -7.944918,-2.73649441 -7.944918,-2.73649441 0,0 -9.7035323,0.52783261 -6.9069206,3.01555471 z"
         id="path2524"
         style="fill:url(#linearGradient3471);fill-opacity:1;fill-rule:evenodd;stroke:#636363;stroke-width:0.96135771;stroke-linecap:round;stroke-linejoin:round;stroke-miterlimit:4;stroke-opacity:1;stroke-dasharray:none" />
      <path
         d="m 18.214424,1.4255928 c 0.0088,0.00234 0.01877,0.00439 0.0276,0.00675 0.03947,0.010556 0.07786,0.022763 0.117315,0.033762 0.0095,0.00263 0.01813,0.00409 0.0276,0.00675 0.02296,0.00647 0.04612,0.013616 0.06901,0.020258 0.0067,0.00194 0.01399,0.0048 0.0207,0.00675 0.0044,0.00129 0.0094,-0.00129 0.0138,0 0.01208,0.00355 0.02246,0.00991 0.0345,0.013505 0.01413,0.00424 0.02733,0.00919 0.04141,0.013505 0.0098,0.00297 0.01787,0.00374 0.0276,0.00675 0.02261,0.00703 0.04659,0.013016 0.06901,0.020257 0.0059,0.00191 0.01478,0.00483 0.0207,0.00675 0.01882,0.00616 0.03656,0.013938 0.05521,0.020258 0.0067,0.00225 0.01406,0.00448 0.0207,0.00675 0.04408,0.015171 0.08833,0.031086 0.131116,0.047268 0.01133,0.00426 0.02328,0.00917 0.0345,0.013505 0.01316,0.00511 0.0215,0.00829 0.03451,0.013505 0.02682,0.010742 0.05671,0.022547 0.08281,0.033763 0.0088,0.00375 0.01889,0.0097 0.0276,0.013505 0.002,8.918e-4 0.0049,-8.947e-4 0.0069,0 0.01308,0.00582 0.02854,0.01431 0.0414,0.020258 0.0069,0.0032 0.01384,0.00351 0.0207,0.00675 0.0025,0.00119 0.0044,0.00556 0.0069,0.00675 0.02468,0.011764 0.05212,0.021473 0.07591,0.033762 0.0063,0.00327 0.01444,0.010198 0.0207,0.013505 0.008,0.00422 0.01971,0.00922 0.0276,0.013505 0.0046,0.0025 0.0093,0.00423 0.0138,0.00675 0.0048,0.00266 0.009,0.00407 0.0138,0.00675 0.0045,0.00255 0.0024,0.00418 0.0069,0.00675 0.0045,0.00257 0.0093,0.00416 0.0138,0.00675 0.0044,0.00259 0.0094,0.00414 0.0138,0.00675 0.0023,0.00134 0.0046,0.00541 0.0069,0.00675 0.01089,0.00656 0.02388,0.013548 0.0345,0.020257 0.0045,0.00283 0.0093,0.0039 0.0138,0.00675 0.0059,0.00379 0.008,0.00967 0.0138,0.013505 0.0066,0.00439 0.0142,0.00906 0.0207,0.013505 0.02242,0.015244 0.04806,0.031267 0.06901,0.047268 0.0019,0.00146 0.005,0.00528 0.0069,0.00675 0.02113,0.016325 0.04261,0.030123 0.06211,0.047268 0.0014,0.00123 -0.0014,0.00551 0,0.00675 0.006,0.0053 0.01491,0.00813 0.0207,0.013505 0.0034,0.00314 0.0036,0.010339 0.0069,0.013505 0.0045,0.00435 0.0094,0.00911 0.0138,0.013505 0.0016,0.0016 0.0053,-0.00161 0.0069,0 0.0017,0.00165 0.0053,0.00509 0.0069,0.00675 0.0044,0.00453 0.0095,0.00892 0.0138,0.013505 0.0011,0.00112 -0.0011,0.00563 0,0.00675 0.0018,0.00197 0.0051,0.00477 0.0069,0.00675 0.02079,0.022659 0.03735,0.043478 0.05521,0.067525 0.0036,0.0049 0.01028,0.00855 0.0138,0.013505 0.0011,0.00152 -0.0011,0.00523 0,0.00675 0.0015,0.00213 0.0054,0.00461 0.0069,0.00675 0.0042,0.00615 0.0098,0.01402 0.0138,0.020258 0.0016,0.00321 0.0054,0.00353 0.0069,0.00675 0.0031,0.0064 0.0042,0.013871 0.0069,0.020258 0.0067,0.016284 0.0096,0.030684 0.0138,0.047267 0.0027,0.00964 0.0052,0.024013 0.0069,0.033762 5.33e-4,0.00334 -4.26e-4,0.00341 0,0.00675 7.74e-4,0.00489 0.0064,0.00858 0.0069,0.013505 6.64e-4,0.00838 1.1e-5,0.018619 0,0.02701 -5.22e-4,0.00539 7.2e-4,0.014922 0,0.020258 -5.24e-4,0.00354 -0.0063,0.00998 -0.0069,0.013505 -9.16e-4,0.00528 0.0011,0.00828 0,0.013505 -0.0049,0.024471 -0.01177,0.044225 -0.0207,0.067525 -0.0013,0.00333 0.0014,0.00345 0,0.00675 -0.0021,0.00531 -0.0046,0.00825 -0.0069,0.013505 -0.0022,0.00492 -0.0046,0.00864 -0.0069,0.013505 -0.003,0.00652 -0.0036,0.00708 -0.0069,0.013505 -0.0017,0.00321 -0.0052,0.010316 -0.0069,0.013505 -0.0044,0.00798 -0.009,0.019177 -0.0138,0.02701 -9.79e-4,0.00156 -0.0059,-0.00156 -0.0069,0 -0.002,0.00312 0.002,0.00365 0,0.00675 -0.01015,0.015496 -0.02262,0.032321 -0.0345,0.047268 -0.0024,0.00299 -0.0045,0.00378 -0.0069,0.00675 -0.0024,0.00297 -0.0044,0.010559 -0.0069,0.013505 -0.02007,0.023579 -0.04498,0.045284 -0.06901,0.067525 -0.003,0.00278 -0.0038,0.00399 -0.0069,0.00675 -0.0049,0.00442 -0.01566,0.00914 -0.0207,0.013505 -0.0032,0.00272 -0.0037,0.010807 -0.0069,0.013505 -0.01163,0.00972 -0.02909,0.017547 -0.0414,0.02701 -0.0021,0.00157 -0.0048,0.00519 -0.0069,0.00675 -0.02147,0.016201 -0.04567,0.031798 -0.06901,0.047268 -0.0053,0.00349 -0.0084,0.010048 -0.0138,0.013505 -0.0096,0.00615 -0.02461,0.014226 -0.03451,0.020258 -0.08075,0.049252 -0.174457,0.092809 -0.269135,0.13505 -0.01862,0.00824 -0.03623,0.019015 -0.05521,0.02701 -0.02117,0.00897 -0.04055,0.018333 -0.06211,0.02701 -0.01929,0.00776 -0.03567,0.012723 -0.05521,0.020258 -0.0098,0.00377 -0.02468,0.00979 -0.0345,0.013505 -0.0019,7.113e-4 -0.005,-7.09e-4 -0.0069,0 -0.0177,0.00666 -0.03047,0.013772 -0.0483,0.020257 -0.02972,0.010802 -0.05977,0.023426 -0.08971,0.033763 -0.04992,0.017237 -0.101956,0.03123 -0.15182,0.047268 -0.02992,0.00962 -0.06006,0.017784 -0.08971,0.02701 -0.02275,0.00708 -0.04651,0.020153 -0.06901,0.02701 -0.03616,0.011022 -0.06829,0.016516 -0.103513,0.02701 -0.01665,0.00441 -0.03853,0.00915 -0.05521,0.013505 -0.02683,0.00701 -0.04899,0.013403 -0.07591,0.020257 -0.01673,0.00426 -0.03844,0.0093 -0.05521,0.013505 -0.02697,0.00676 -0.04886,0.013643 -0.07591,0.020257 -0.02924,0.00715 -0.06038,0.013278 -0.08971,0.020258 -0.088,0.02094 -0.173433,0.041332 -0.262234,0.060773 -0.0296,0.00648 -0.06003,0.01394 -0.08971,0.020258 -0.04675,0.00995 -0.09796,0.017456 -0.144918,0.02701 -0.0234,0.00476 -0.04556,0.015593 -0.06901,0.020258 -0.0022,4.463e-4 -0.0047,-4.447e-4 -0.0069,0 -0.09174,0.018211 -0.183582,0.030501 -0.276034,0.047268 -0.03012,0.00546 -0.05953,0.014945 -0.08971,0.020257 -0.06038,0.010626 -0.118773,0.016968 -0.179423,0.02701 -0.04549,0.00753 -0.09238,0.019799 -0.138017,0.02701 -0.09127,0.014423 -0.184213,0.027331 -0.276035,0.040515 -0.03061,0.00442 -0.05904,0.00922 -0.08971,0.013505 -0.06133,0.00852 -0.124776,0.012256 -0.186323,0.020258 -0.03078,0.00402 -0.05888,0.00961 -0.08971,0.013505 -0.03314,0.00416 -0.07032,0.00949 -0.103514,0.013505 -0.05505,0.00667 -0.110424,0.013979 -0.165621,0.020258 -0.0023,2.657e-4 -0.0046,-2.654e-4 -0.0069,0 -0.249921,0.028354 -0.499861,0.0532 -0.752195,0.074277 -0.06253,0.00527 -0.12368,0.00864 -0.186323,0.013505 -0.219229,0.016863 -0.442347,0.03491 -0.662483,0.047268 -0.06067,0.00343 -0.12562,0.00363 -0.186323,0.00675 -0.03147,0.0016 -0.06514,0.00523 -0.09661,0.00675 -0.06072,0.00296 -0.125591,0.00408 -0.186323,0.00675 -0.251859,0.010942 -0.500703,0.020293 -0.752194,0.02701 -0.06287,0.0017 -0.123511,0.00528 -0.186323,0.00675 -0.127858,0.00298 -0.252042,0.00459 -0.379548,0.00675 -0.06553,2.689e-4 -0.134504,-4.88e-5 -0.200125,0 -0.0023,1.4e-6 -0.0046,-8e-7 -0.0069,0 -0.03168,1.97e-5 -0.06491,3.38e-5 -0.09661,0 -0.0023,-2.9e-6 -0.0046,3.2e-6 -0.0069,0 -0.133596,-1.588e-4 -0.266393,0.00119 -0.40025,0 -0.0023,-2.11e-5 -0.0046,2.14e-5 -0.0069,0 -0.06581,-6.211e-4 -0.134266,-0.00586 -0.200125,-0.00675 -0.06811,-9.033e-4 -0.138885,0.00121 -0.207026,0 -0.06817,-0.00124 -0.131942,-0.00519 -0.200126,-0.00675 -0.0023,-5.24e-5 -0.0046,5.23e-5 -0.0069,0 -0.03408,-7.649e-4 -0.06253,8.476e-4 -0.09661,0 -0.06819,-0.00173 -0.13884,-0.00468 -0.207025,-0.00675 -0.06818,-0.00208 -0.131957,-0.00431 -0.200125,-0.00675 -0.0023,-8.12e-5 -0.0046,8.2e-5 -0.0069,0 -0.0659,-0.00237 -0.134261,-0.00403 -0.200126,-0.00675 -0.09989,-0.00407 -0.203858,-0.00859 -0.303637,-0.013505 -0.0023,-1.131e-4 -0.0046,1.136e-4 -0.0069,0 -0.2698301,-0.013356 -0.5390236,-0.033785 -0.8074016,-0.05402 -0.00225,-1.717e-4 -0.00465,1.719e-4 -0.0069,0 -0.2007398,-0.015183 -0.4008964,-0.03451 -0.6003756,-0.05402 -0.00223,-2.207e-4 -0.00467,2.204e-4 -0.0069,0 -0.1344428,-0.013184 -0.2665261,-0.025208 -0.4002501,-0.040515 -0.033449,-0.00385 -0.063212,-0.00952 -0.096612,-0.013505 -0.050073,-0.00595 -0.1018631,-0.00724 -0.1518191,-0.013505 -0.1498675,-0.018784 -0.2998468,-0.039037 -0.448556,-0.060773 -0.04957,-0.00725 -0.1023909,-0.019424 -0.1518197,-0.02701 -0.065905,-0.010115 -0.127582,-0.016275 -0.1932237,-0.02701 -0.032821,-0.00537 -0.06386,-0.014732 -0.096612,-0.020258 -0.018392,-0.0031 -0.036837,-0.0036 -0.055207,-0.00675 -0.016364,-0.00281 -0.03196,-0.0039 -0.048306,-0.00675 -0.032682,-0.00569 -0.064002,-0.01441 -0.096612,-0.020257 -0.016305,-0.00292 -0.032019,-0.00379 -0.048306,-0.00675 -0.032573,-0.00593 -0.064114,-0.014164 -0.096612,-0.020257 -0.016249,-0.00305 -0.032076,-0.00366 -0.048306,-0.00675 -0.03246,-0.00618 -0.06423,-0.013913 -0.096612,-0.020258 C 6.4914113,3.4326618 6.3627064,3.4051448 6.234492,3.3770088 6.202438,3.3699788 6.169847,3.3639628 6.13788,3.3567518 6.105913,3.3495418 6.073147,3.3438848 6.041268,3.3364938 6.025329,3.3327938 6.008879,3.3267338 5.992962,3.3229888 5.950688,3.3115578 5.905213,3.3010818 5.8618462,3.2892258 c -0.021684,-0.00593 -0.040227,-0.014205 -0.062108,-0.020257 -0.043762,-0.012106 -0.086867,-0.021086 -0.1311164,-0.033763 -0.022125,-0.00634 -0.046837,-0.013758 -0.069009,-0.020257 -0.022171,-0.0065 -0.039941,-0.013585 -0.062108,-0.020258 -0.022167,-0.00667 -0.046896,-0.013399 -0.069009,-0.020257 -0.022112,-0.00686 -0.047001,-0.013202 -0.069008,-0.020258 -0.03301,-0.010585 -0.063981,-0.022699 -0.096612,-0.033763 -0.021754,-0.00738 -0.040585,-0.012653 -0.062108,-0.020257 -0.010761,-0.0038 -0.02381,-0.00964 -0.034504,-0.013505 -0.021388,-0.00772 -0.041027,-0.012288 -0.062108,-0.020257 C 5.1020236,3.050517 5.0605995,3.0294327 5.0199698,3.0124351 4.9488676,2.9826896 4.8776538,2.9512994 4.8129439,2.9179 4.7870599,2.90454 4.7616529,2.891388 4.7370339,2.877385 c -0.00175,-10e-4 -0.00516,0.001 -0.0069,0 -0.014232,-0.00815 -0.020739,-0.01863 -0.034505,-0.02701 -0.00424,-0.00257 -0.00961,-0.00416 -0.013801,-0.00675 C 4.6356119,2.81508 4.5908329,2.787161 4.5507114,2.755842 c -0.00364,-0.00284 -0.00331,-0.00389 -0.0069,-0.00675 -0.00503,-0.00402 -0.00888,-0.00944 -0.013802,-0.013505 -0.00353,-0.00289 -0.00343,-0.00384 -0.0069,-0.00675 -0.029231,-0.024528 -0.05784,-0.047961 -0.082811,-0.074278 -0.00299,-0.00312 -0.00397,-0.00361 -0.0069,-0.00675 -0.00514,-0.00551 -0.00887,-0.014666 -0.013802,-0.020257 -0.00112,-0.00128 -0.00579,0.00128 -0.0069,0 -0.012339,-0.014087 -0.016571,-0.025905 -0.027603,-0.040515 -0.00253,-0.00331 -0.00444,-0.00342 -0.0069,-0.00675 -0.00838,-0.011346 -0.01314,-0.022093 -0.020703,-0.033763 -0.00225,-0.00342 -0.00472,-0.00331 -0.0069,-0.00675 -0.00872,-0.013796 -0.020071,-0.026259 -0.027603,-0.040515 -0.00188,-0.00356 -0.00509,-0.00991 -0.0069,-0.013505 -0.00632,-0.012576 -0.00844,-0.027576 -0.013802,-0.040515 -0.0023,-0.00555 -0.00478,-0.00789 -0.0069,-0.013505 -9.799e-4,-0.0052 7.601e-4,-0.015098 0,-0.020258 -7.595e-4,-0.00516 -0.00636,-0.00839 -0.0069,-0.013505 -7.232e-4,-0.00682 3.437e-4,-0.013507 0,-0.020258 -1.73e-4,-0.00338 7.98e-5,-0.00339 0,-0.00675 -7.79e-5,-0.00336 -1.44e-5,-0.010166 0,-0.013505 1.29e-5,-0.00334 -1.037e-4,-0.00343 0,-0.00675 2.122e-4,-0.00664 -5.736e-4,-0.01369 0,-0.020258 2.844e-4,-0.00329 -3.729e-4,-0.00348 0,-0.00675 5.636e-4,-0.0049 0.00614,-0.00865 0.0069,-0.013505 7.615e-4,-0.00486 -9.555e-4,-0.015441 0,-0.020258 6.338e-4,-0.00321 -7.184e-4,-0.00356 0,-0.00675 7.228e-4,-0.00319 0.00609,-0.01033 0.0069,-0.013505 8.03e-4,-0.00318 -8.861e-4,-0.00359 0,-0.00675 8.905e-4,-0.00316 -9.727e-4,-0.00361 0,-0.00675 0.00387,-0.012573 0.00865,-0.028224 0.013802,-0.040515 0.00129,-0.00307 0.00553,-0.0037 0.0069,-0.00675 0.00206,-0.00458 0.00467,-0.00897 0.0069,-0.013505 0.00223,-0.00454 0.0045,-0.00901 0.0069,-0.013505 0.0024,-0.0045 0.00433,-0.00905 0.0069,-0.013505 8.562e-4,-0.00149 -8.738e-4,-0.00527 0,-0.00675 0.00348,-0.00594 0.010031,-0.014391 0.013802,-0.020257 0.00568,-0.00878 0.0075,-0.011631 0.013802,-0.020258 0.0021,-0.00288 0.00473,-0.010647 0.0069,-0.013505 0.00216,-0.00286 0.00467,-0.00391 0.0069,-0.00675 0.00224,-0.00284 0.0046,-0.00393 0.0069,-0.00675 0.00459,-0.00566 0.00895,-0.014665 0.013802,-0.020257 0.0034,-0.00391 0.010275,-0.00288 0.013801,-0.00675 0.00497,-0.00556 0.00858,-0.00801 0.013802,-0.013505 0.00262,-0.00274 0.00422,-0.010783 0.0069,-0.013505 0.00534,-0.00546 0.00822,-0.00812 0.013802,-0.013505 0.0028,-0.00269 0.00405,-0.00408 0.0069,-0.00675 0.00569,-0.00536 0.014785,-0.014968 0.020703,-0.020258 0.00297,-0.00264 0.00388,-0.00413 0.0069,-0.00675 0.00904,-0.00788 0.018083,-0.012522 0.027603,-0.020258 0.00318,-0.00257 0.010569,-0.0042 0.013802,-0.00675 0.012898,-0.010248 0.020822,-0.023777 0.034504,-0.033763 0.010288,-0.00747 0.023804,-0.012938 0.034504,-0.020258 0.010674,-0.00734 0.023443,-0.013061 0.034504,-0.020257 0.00739,-0.00478 0.013148,-0.00879 0.020703,-0.013505 C 4.6930274,1.853548 4.7289464,1.826601 4.771536,1.803783 4.804509,1.786118 4.840344,1.773187 4.8750493,1.756515 4.9010773,1.744012 4.9241863,1.727953 4.9509583,1.716 c 0.017849,-0.00797 0.037101,-0.01253 0.055206,-0.020257 0.00905,-0.00386 0.018498,-0.0097 0.027604,-0.013505 0.018213,-0.00761 0.036824,-0.012889 0.055206,-0.020258 0.00919,-0.00368 0.018381,-0.00988 0.027604,-0.013505 0.018446,-0.00725 0.036679,-0.013242 0.055206,-0.020258 0.018528,-0.00702 0.036656,-0.013474 0.055208,-0.020258 0.018551,-0.00678 0.03669,-0.013704 0.055207,-0.020257 0.018516,-0.00655 0.036784,-0.013932 0.055206,-0.020258 0.00922,-0.00316 0.018421,-0.00365 0.027604,-0.00675 0.018354,-0.00621 0.037033,-0.014269 0.055207,-0.020258 0.02726,-0.00898 0.056122,-0.018526 0.08281,-0.02701 0.010052,-0.00294 0.017568,-0.00386 0.027604,-0.00675 0.030108,-0.00869 0.059591,-0.018613 0.089711,-0.02701 0.00201,-5.599e-4 0.00489,5.588e-4 0.0069,0 0.038165,-0.010619 0.07867,-0.023333 0.117315,-0.033763 -1.4040862,0.1655945 -2.2634796,0.441499 -2.2634796,0.931795 0,0.09548 0,1.5994026 0,1.6948831 0,1.0357191 3.8263951,1.8772007 8.5432713,1.8772007 4.716875,0 8.543271,-0.8414816 8.543271,-1.8772007 0,-0.09548 0,-1.5994027 0,-1.6948831 0,-0.5008973 -0.89556,-0.7836548 -2.353195,-0.9521052 z"
         id="path2526"
         style="fill:#ffffff;fill-opacity:1;fill-rule:evenodd;stroke:#808389;stroke-width:0.96135771;stroke-linecap:round;stroke-linejoin:round;stroke-miterlimit:4;stroke-opacity:1;stroke-dasharray:none;stroke-dashoffset:0;marker:none;visibility:visible;display:inline;overflow:visible" />
      <path
         d="m 18.214424,1.4255928 c 0.0088,0.00234 0.01877,0.00439 0.0276,0.00675 0.03947,0.010556 0.07786,0.022763 0.117315,0.033762 0.0095,0.00263 0.01813,0.00409 0.0276,0.00675 0.02296,0.00647 0.04612,0.013616 0.06901,0.020258 0.0067,0.00194 0.01399,0.0048 0.0207,0.00675 0.0044,0.00129 0.0094,-0.00129 0.0138,0 0.01208,0.00355 0.02246,0.00991 0.0345,0.013505 0.01413,0.00424 0.02733,0.00919 0.04141,0.013505 0.0098,0.00297 0.01787,0.00374 0.0276,0.00675 0.02261,0.00703 0.04659,0.013016 0.06901,0.020257 0.0059,0.00191 0.01478,0.00483 0.0207,0.00675 0.01882,0.00616 0.03656,0.013938 0.05521,0.020258 0.0067,0.00225 0.01406,0.00448 0.0207,0.00675 0.04408,0.015171 0.08833,0.031086 0.131116,0.047268 0.01133,0.00426 0.02328,0.00917 0.0345,0.013505 0.01316,0.00511 0.0215,0.00829 0.03451,0.013505 0.02682,0.010742 0.05671,0.022547 0.08281,0.033763 0.0088,0.00375 0.01889,0.0097 0.0276,0.013505 0.002,8.918e-4 0.0049,-8.947e-4 0.0069,0 0.01308,0.00582 0.02854,0.01431 0.0414,0.020258 0.0069,0.0032 0.01384,0.00351 0.0207,0.00675 0.0025,0.00119 0.0044,0.00556 0.0069,0.00675 0.02468,0.011764 0.05212,0.021473 0.07591,0.033762 0.0063,0.00327 0.01444,0.010198 0.0207,0.013505 0.008,0.00422 0.01971,0.00922 0.0276,0.013505 0.0046,0.0025 0.0093,0.00423 0.0138,0.00675 0.0048,0.00266 0.009,0.00407 0.0138,0.00675 0.0045,0.00255 0.0024,0.00418 0.0069,0.00675 0.0045,0.00257 0.0093,0.00416 0.0138,0.00675 0.0044,0.00259 0.0094,0.00414 0.0138,0.00675 0.0023,0.00134 0.0046,0.00541 0.0069,0.00675 0.01089,0.00656 0.02388,0.013548 0.0345,0.020257 0.0045,0.00283 0.0093,0.0039 0.0138,0.00675 0.0059,0.00379 0.008,0.00967 0.0138,0.013505 0.0066,0.00439 0.0142,0.00906 0.0207,0.013505 0.02242,0.015244 0.04806,0.031267 0.06901,0.047268 0.0019,0.00146 0.005,0.00528 0.0069,0.00675 0.02113,0.016325 0.04261,0.030123 0.06211,0.047268 0.0014,0.00123 -0.0014,0.00551 0,0.00675 0.006,0.0053 0.01491,0.00813 0.0207,0.013505 0.0034,0.00314 0.0036,0.010339 0.0069,0.013505 0.0045,0.00435 0.0094,0.00911 0.0138,0.013505 0.0016,0.0016 0.0053,-0.00161 0.0069,0 0.0017,0.00165 0.0053,0.00509 0.0069,0.00675 0.0044,0.00453 0.0095,0.00892 0.0138,0.013505 0.0011,0.00112 -0.0011,0.00563 0,0.00675 0.0018,0.00197 0.0051,0.00477 0.0069,0.00675 0.02079,0.022659 0.03735,0.043478 0.05521,0.067525 0.0036,0.0049 0.01028,0.00855 0.0138,0.013505 0.0011,0.00152 -0.0011,0.00523 0,0.00675 0.0015,0.00213 0.0054,0.00461 0.0069,0.00675 0.0042,0.00615 0.0098,0.01402 0.0138,0.020258 0.0016,0.00321 0.0054,0.00353 0.0069,0.00675 0.0031,0.0064 0.0042,0.013871 0.0069,0.020258 0.0067,0.016284 0.0096,0.030684 0.0138,0.047267 0.0027,0.00964 0.0052,0.024013 0.0069,0.033762 5.33e-4,0.00334 -4.26e-4,0.00341 0,0.00675 7.74e-4,0.00489 0.0064,0.00858 0.0069,0.013505 6.64e-4,0.00838 1.1e-5,0.018619 0,0.02701 -5.22e-4,0.00539 7.2e-4,0.014922 0,0.020258 -5.24e-4,0.00354 -0.0063,0.00998 -0.0069,0.013505 -9.16e-4,0.00528 0.0011,0.00828 0,0.013505 -0.0049,0.024471 -0.01177,0.044225 -0.0207,0.067525 -0.0013,0.00333 0.0014,0.00345 0,0.00675 -0.0021,0.00531 -0.0046,0.00825 -0.0069,0.013505 -0.0022,0.00492 -0.0046,0.00864 -0.0069,0.013505 -0.003,0.00652 -0.0036,0.00708 -0.0069,0.013505 -0.0017,0.00321 -0.0052,0.010316 -0.0069,0.013505 -0.0044,0.00798 -0.009,0.019177 -0.0138,0.02701 -9.79e-4,0.00156 -0.0059,-0.00156 -0.0069,0 -0.002,0.00312 0.002,0.00365 0,0.00675 -0.01015,0.015496 -0.02262,0.032321 -0.0345,0.047268 -0.0024,0.00299 -0.0045,0.00378 -0.0069,0.00675 -0.0024,0.00297 -0.0044,0.010559 -0.0069,0.013505 -0.02007,0.023579 -0.04498,0.045284 -0.06901,0.067525 -0.003,0.00278 -0.0038,0.00399 -0.0069,0.00675 -0.0049,0.00442 -0.01566,0.00914 -0.0207,0.013505 -0.0032,0.00272 -0.0037,0.010807 -0.0069,0.013505 -0.01163,0.00972 -0.02909,0.017547 -0.0414,0.02701 -0.0021,0.00157 -0.0048,0.00519 -0.0069,0.00675 -0.02147,0.016201 -0.04567,0.031798 -0.06901,0.047268 -0.0053,0.00349 -0.0084,0.010048 -0.0138,0.013505 -0.0096,0.00615 -0.02461,0.014226 -0.03451,0.020258 -0.08075,0.049253 -0.174457,0.09281 -0.269135,0.1350501 -0.01862,0.00824 -0.03623,0.019015 -0.05521,0.02701 -0.02117,0.00897 -0.04055,0.018333 -0.06211,0.02701 -0.01929,0.00776 -0.03567,0.012723 -0.05521,0.020257 -0.0098,0.00377 -0.02468,0.00979 -0.0345,0.013505 -0.0019,7.113e-4 -0.005,-7.091e-4 -0.0069,0 -0.0177,0.00666 -0.03047,0.013772 -0.0483,0.020258 -0.02972,0.010802 -0.05977,0.023426 -0.08971,0.033762 -0.04992,0.017237 -0.101956,0.03123 -0.15182,0.047268 -0.02992,0.00962 -0.06006,0.017784 -0.08971,0.02701 -0.02275,0.00708 -0.04651,0.020153 -0.06901,0.02701 -0.03616,0.011021 -0.06829,0.016516 -0.103513,0.02701 -0.01665,0.00441 -0.03853,0.00915 -0.05521,0.013505 -0.02683,0.00701 -0.04899,0.013403 -0.07591,0.020257 -0.01673,0.00426 -0.03844,0.0093 -0.05521,0.013505 -0.02697,0.00676 -0.04886,0.013643 -0.07591,0.020258 -0.02924,0.00715 -0.06038,0.013277 -0.08971,0.020258 -0.088,0.02094 -0.173433,0.041332 -0.262234,0.060773 -0.0296,0.00648 -0.06003,0.01394 -0.08971,0.020258 -0.04675,0.00995 -0.09796,0.017456 -0.144918,0.02701 -0.0234,0.00476 -0.04556,0.015593 -0.06901,0.020258 -0.0022,4.463e-4 -0.0047,-4.447e-4 -0.0069,0 -0.09174,0.018211 -0.183582,0.030501 -0.276034,0.047268 -0.03012,0.00546 -0.05953,0.014945 -0.08971,0.020257 -0.06038,0.010626 -0.118773,0.016968 -0.179423,0.02701 -0.04549,0.00753 -0.09238,0.019799 -0.138017,0.02701 -0.09127,0.014423 -0.184213,0.027331 -0.276035,0.040515 -0.03061,0.00442 -0.05904,0.00922 -0.08971,0.013505 -0.06133,0.00852 -0.124776,0.012256 -0.186323,0.020258 -0.03078,0.00402 -0.05888,0.00961 -0.08971,0.013505 -0.03314,0.00416 -0.07032,0.00949 -0.103514,0.013505 -0.05505,0.00667 -0.110424,0.013979 -0.165621,0.020258 -0.0023,2.657e-4 -0.0046,-2.654e-4 -0.0069,0 -0.249921,0.028354 -0.499861,0.0532 -0.752195,0.074277 -0.06253,0.00527 -0.12368,0.00864 -0.186323,0.013505 -0.219229,0.016863 -0.442347,0.03491 -0.662483,0.047268 -0.06067,0.00343 -0.12562,0.00363 -0.186323,0.00675 -0.03147,0.0016 -0.06514,0.00523 -0.09661,0.00675 -0.06072,0.00296 -0.125591,0.00408 -0.186323,0.00675 -0.251859,0.010942 -0.500703,0.020293 -0.752194,0.02701 -0.06287,0.0017 -0.123511,0.00528 -0.186323,0.00675 -0.127858,0.00298 -0.252042,0.00459 -0.379548,0.00675 -0.06553,2.689e-4 -0.134504,-4.88e-5 -0.200125,0 -0.0023,1.4e-6 -0.0046,-8e-7 -0.0069,0 -0.03168,1.97e-5 -0.06491,3.38e-5 -0.09661,0 -0.0023,-2.9e-6 -0.0046,3.2e-6 -0.0069,0 -0.133596,-1.588e-4 -0.266393,0.00119 -0.40025,0 -0.0023,-2.11e-5 -0.0046,2.14e-5 -0.0069,0 -0.06581,-6.211e-4 -0.134266,-0.00586 -0.200125,-0.00675 -0.06811,-9.033e-4 -0.138885,0.00121 -0.207026,0 -0.06817,-0.00124 -0.131942,-0.00519 -0.200126,-0.00675 -0.0023,-5.24e-5 -0.0046,5.23e-5 -0.0069,0 -0.03408,-7.649e-4 -0.06253,8.476e-4 -0.09661,0 -0.06819,-0.00173 -0.13884,-0.00468 -0.207025,-0.00675 -0.06818,-0.00208 -0.131957,-0.00431 -0.200125,-0.00675 -0.0023,-8.12e-5 -0.0046,8.2e-5 -0.0069,0 -0.0659,-0.00237 -0.134261,-0.00403 -0.200126,-0.00675 -0.09989,-0.00407 -0.203858,-0.00859 -0.303637,-0.013505 -0.0023,-1.131e-4 -0.0046,1.136e-4 -0.0069,0 -0.2698301,-0.013356 -0.5390236,-0.033785 -0.8074016,-0.05402 -0.00225,-1.717e-4 -0.00465,1.719e-4 -0.0069,0 -0.2007398,-0.015183 -0.4008964,-0.03451 -0.6003756,-0.05402 -0.00223,-2.207e-4 -0.00467,2.204e-4 -0.0069,0 -0.1344428,-0.013184 -0.2665261,-0.025208 -0.4002501,-0.040515 -0.033449,-0.00385 -0.063212,-0.00952 -0.096612,-0.013505 -0.050073,-0.00595 -0.1018631,-0.00724 -0.1518191,-0.013505 -0.1498675,-0.018784 -0.2998468,-0.039037 -0.448556,-0.060773 -0.04957,-0.00725 -0.1023909,-0.019424 -0.1518197,-0.02701 -0.065905,-0.010115 -0.127582,-0.016275 -0.1932237,-0.02701 -0.032821,-0.00537 -0.06386,-0.014732 -0.096612,-0.020258 -0.018392,-0.0031 -0.036837,-0.0036 -0.055207,-0.00675 -0.016364,-0.00281 -0.03196,-0.0039 -0.048306,-0.00675 -0.032682,-0.00569 -0.064002,-0.01441 -0.096612,-0.020257 -0.016305,-0.00292 -0.032019,-0.00379 -0.048306,-0.00675 -0.032573,-0.00593 -0.064114,-0.014164 -0.096612,-0.020257 -0.016249,-0.00305 -0.032076,-0.00366 -0.048306,-0.00675 -0.03246,-0.00618 -0.06423,-0.013913 -0.096612,-0.020258 C 6.4914113,3.4326619 6.3627064,3.4051449 6.234492,3.3770089 6.202438,3.3699789 6.169847,3.3639629 6.13788,3.3567519 6.105913,3.3495419 6.073147,3.3438849 6.041268,3.3364939 6.025329,3.3327939 6.008879,3.3267339 5.992962,3.3229889 5.950688,3.3115579 5.905213,3.3010819 5.8618462,3.2892259 c -0.021684,-0.00593 -0.040227,-0.014205 -0.062108,-0.020257 -0.043762,-0.012106 -0.086867,-0.021086 -0.1311164,-0.033763 -0.022125,-0.00634 -0.046837,-0.013758 -0.069009,-0.020258 -0.022171,-0.0065 -0.039941,-0.013585 -0.062108,-0.020258 -0.022167,-0.00667 -0.046896,-0.013399 -0.069009,-0.020257 -0.022112,-0.00686 -0.047001,-0.013201 -0.069008,-0.020258 -0.03301,-0.010585 -0.063981,-0.022699 -0.096612,-0.033763 -0.021754,-0.00738 -0.040585,-0.012653 -0.062108,-0.020257 -0.010761,-0.0038 -0.02381,-0.00964 -0.034504,-0.013505 -0.021388,-0.00772 -0.041027,-0.012288 -0.062108,-0.020258 -0.042162,-0.015938 -0.083586,-0.037023 -0.1242155,-0.05402 -0.071102,-0.029745 -0.142316,-0.061136 -0.2070259,-0.094535 -0.025884,-0.01336 -0.051291,-0.026512 -0.07591,-0.040515 -0.00175,-10e-4 -0.00516,10e-4 -0.0069,0 -0.014232,-0.00815 -0.020739,-0.01863 -0.034505,-0.02701 -0.00424,-0.00257 -0.00961,-0.00416 -0.013801,-0.00675 -0.046216,-0.028545 -0.090995,-0.056464 -0.1311165,-0.087783 -0.00364,-0.00284 -0.00331,-0.00389 -0.0069,-0.00675 -0.00503,-0.00402 -0.00888,-0.00944 -0.013802,-0.013505 -0.00353,-0.00289 -0.00343,-0.00384 -0.0069,-0.00675 -0.029231,-0.024528 -0.05784,-0.047961 -0.082811,-0.074278 -0.00299,-0.00312 -0.00397,-0.00361 -0.0069,-0.00675 -0.00514,-0.00551 -0.00887,-0.014667 -0.013802,-0.020257 -0.00112,-0.00128 -0.00579,0.00128 -0.0069,0 -0.012339,-0.014087 -0.016571,-0.025904 -0.027603,-0.040515 -0.00253,-0.00331 -0.00444,-0.00342 -0.0069,-0.00675 -0.00838,-0.011346 -0.01314,-0.022093 -0.020703,-0.033763 -0.00225,-0.00342 -0.00472,-0.00331 -0.0069,-0.00675 -0.00872,-0.013796 -0.020071,-0.026259 -0.027603,-0.040515 -0.00188,-0.00356 -0.00509,-0.00991 -0.0069,-0.013505 -0.00632,-0.012576 -0.00844,-0.027576 -0.013802,-0.040515 -0.0023,-0.00555 -0.00478,-0.00789 -0.0069,-0.013505 -9.799e-4,-0.0052 7.601e-4,-0.015098 0,-0.020258 -7.595e-4,-0.00516 -0.00636,-0.00839 -0.0069,-0.013505 -7.232e-4,-0.00682 3.437e-4,-0.013507 0,-0.020258 -1.73e-4,-0.00338 7.98e-5,-0.00339 0,-0.00675 -7.79e-5,-0.00336 -1.44e-5,-0.010166 0,-0.013505 1.29e-5,-0.00334 -1.037e-4,-0.00343 0,-0.00675 2.122e-4,-0.00664 -5.736e-4,-0.01369 0,-0.020258 2.844e-4,-0.00329 -3.729e-4,-0.00348 0,-0.00675 5.636e-4,-0.0049 0.00614,-0.00865 0.0069,-0.013505 7.615e-4,-0.00486 -9.555e-4,-0.015441 0,-0.020258 6.338e-4,-0.00321 -7.184e-4,-0.00356 0,-0.00675 7.228e-4,-0.00319 0.00609,-0.01033 0.0069,-0.013505 8.03e-4,-0.00318 -8.861e-4,-0.00359 0,-0.00675 8.905e-4,-0.00316 -9.727e-4,-0.00361 0,-0.00675 0.00387,-0.012573 0.00865,-0.028224 0.013802,-0.040515 0.00129,-0.00307 0.00553,-0.0037 0.0069,-0.00675 0.00206,-0.00458 0.00467,-0.00897 0.0069,-0.013505 0.00223,-0.00454 0.0045,-0.00901 0.0069,-0.013505 0.0024,-0.0045 0.00433,-0.00905 0.0069,-0.013505 8.562e-4,-0.00149 -8.738e-4,-0.00527 0,-0.00675 0.00348,-0.00594 0.010031,-0.014391 0.013802,-0.020257 0.00568,-0.00878 0.0075,-0.011631 0.013802,-0.020258 0.0021,-0.00288 0.00473,-0.010647 0.0069,-0.013505 0.00216,-0.00286 0.00467,-0.00391 0.0069,-0.00675 0.00224,-0.00284 0.0046,-0.00393 0.0069,-0.00675 0.00459,-0.00566 0.00895,-0.014665 0.013802,-0.020257 0.0034,-0.00391 0.010275,-0.00288 0.013801,-0.00675 0.00497,-0.00556 0.00858,-0.00801 0.013802,-0.013505 0.00262,-0.00274 0.00422,-0.010783 0.0069,-0.013505 0.00534,-0.00546 0.00822,-0.00812 0.013802,-0.013505 0.0028,-0.00269 0.00405,-0.00408 0.0069,-0.00675 0.00569,-0.00536 0.014785,-0.014968 0.020703,-0.020258 0.00297,-0.00264 0.00388,-0.00413 0.0069,-0.00675 0.00904,-0.00788 0.018083,-0.012522 0.027603,-0.020258 0.00318,-0.00257 0.010569,-0.0042 0.013802,-0.00675 0.012898,-0.010248 0.020822,-0.023777 0.034504,-0.033763 0.010288,-0.00747 0.023804,-0.012938 0.034504,-0.020258 0.010674,-0.00734 0.023443,-0.013061 0.034504,-0.020257 0.00739,-0.00478 0.013148,-0.00879 0.020703,-0.013505 0.038806,-0.024513 0.074725,-0.05146 0.1173146,-0.074278 0.032973,-0.017665 0.068808,-0.030596 0.1035133,-0.047268 0.026028,-0.012503 0.049137,-0.028562 0.075909,-0.040515 0.017849,-0.00797 0.037101,-0.01253 0.055206,-0.020257 0.00905,-0.00386 0.018498,-0.0097 0.027604,-0.013505 0.018213,-0.00761 0.036824,-0.012889 0.055206,-0.020258 0.00919,-0.00368 0.018381,-0.00988 0.027604,-0.013505 0.018446,-0.00725 0.036679,-0.013242 0.055206,-0.020258 0.018528,-0.00702 0.036656,-0.013474 0.055208,-0.020258 0.018551,-0.00678 0.03669,-0.013704 0.055207,-0.020257 0.018516,-0.00655 0.036784,-0.013932 0.055206,-0.020258 0.00922,-0.00316 0.018421,-0.00365 0.027604,-0.00675 0.018354,-0.00621 0.037033,-0.014269 0.055207,-0.020258 0.02726,-0.00898 0.056122,-0.018526 0.08281,-0.02701 0.010052,-0.00294 0.017568,-0.00386 0.027604,-0.00675 0.030108,-0.00869 0.059591,-0.018613 0.089711,-0.02701 0.00201,-5.599e-4 0.00489,5.588e-4 0.0069,0 0.038165,-0.010619 0.07867,-0.023333 0.117315,-0.033763 C 4.3404701,1.6114975 3.4810767,1.887402 3.4810767,2.377698 c 0,0.09548 0,1.5994026 0,1.6948831 0,1.0357191 3.8263951,1.8772007 8.5432713,1.8772007 4.716875,0 8.543271,-0.8414816 8.543271,-1.8772007 0,-0.09548 0,-1.5994027 0,-1.6948831 0,-0.5008973 -0.89556,-0.7836548 -2.353195,-0.9521052 z"
         id="path2528"
         style="fill:url(#linearGradient3473);fill-opacity:1;fill-rule:evenodd;stroke:#808389;stroke-width:0.96135771;stroke-linecap:round;stroke-linejoin:round;stroke-miterlimit:4;stroke-opacity:1;stroke-dasharray:none;stroke-dashoffset:0;marker:none;visibility:visible;display:inline;overflow:visible" />
      <path
         d="m 11.769015,0.50724987 c -0.278916,0.001536 -0.557281,0.007619 -0.835004,0.0135051 C 8.8548365,0.59584932 6.720681,0.7651173 4.8267453,1.3715724 4.19821,1.5903296 3.3956463,1.9424901 3.4879776,2.4789859 3.6876357,3.0579227 4.6183178,3.3383298 5.3650131,3.5593893 7.6141478,4.1380963 10.071174,4.2656544 12.466003,4.2548987 14.67887,4.213857 16.948552,4.0653334 18.99422,3.4716065 19.667112,3.2521297 20.518481,2.9404809 20.567618,2.3844508 20.567704,2.3195428 20.555021,2.2506649 20.526212,2.1886276 20.198988,1.6269062 19.268375,1.3717391 18.483556,1.1554918 16.34089,0.64279326 14.040192,0.49474746 11.769015,0.50724987 z m -0.407151,0.29711078 c 2.19696,-0.0296813 4.437314,0.0794952 6.514417,0.53344925 0.710913,0.1789144 1.553022,0.3928242 1.849431,0.8575702 0.02609,0.051328 0.04148,0.101606 0.04141,0.1553081 -0.04451,0.4600373 -0.818951,0.7164986 -1.428479,0.8980852 C 16.485607,3.7399994 14.42909,3.8698112 12.424602,3.9037677 10.255283,3.9126665 8.0303325,3.8018505 5.9929914,3.3230512 5.3166097,3.1401552 4.4762355,2.9107079 4.2953787,2.4317183 4.2117418,1.9878429 4.9336824,1.6943663 5.50303,1.5133754 7.2186193,1.0116182 9.1541389,0.8732435 11.037524,0.81111346 c 0.107816,-0.002087 0.216293,-0.005293 0.32434,-0.006753 z"
         id="path2530"
         style="fill:#d9dcd5;fill-opacity:1;fill-rule:evenodd;stroke:url(#linearGradient3475);stroke-width:0.96135771;stroke-linecap:round;stroke-linejoin:round;stroke-miterlimit:4;stroke-opacity:1;stroke-dasharray:none;stroke-dashoffset:0;marker:none;visibility:visible;display:inline;overflow:visible" />
      <path
         d="m 11.769016,0.50724987 c -0.278917,0.001536 -0.557282,0.007619 -0.835005,0.0135051 C 8.854837,0.59584932 6.720681,0.7651173 4.8267457,1.3715725 4.1982105,1.5903296 3.3956463,1.9424901 3.4879776,2.478986 3.6876357,3.057923 4.6183178,3.33833 5.3650131,3.5593893 7.6141482,4.1380965 10.071174,4.2656544 12.466004,4.2548989 14.67887,4.213857 16.948553,4.0653335 18.994221,3.4716067 19.667113,3.2521296 20.518482,2.940481 20.567619,2.3844508 20.567705,2.3195428 20.555022,2.250665 20.526212,2.1886276 20.198988,1.6269063 19.268375,1.3717391 18.483557,1.1554918 16.340891,0.64279326 14.040192,0.49474746 11.769016,0.50724987 z M 11.361864,0.8043607 c 2.19696,-0.0296814 4.437315,0.0794951 6.514417,0.5334492 0.710914,0.1789144 1.553023,0.3928242 1.849432,0.8575703 0.0261,0.051328 0.04148,0.101606 0.04141,0.155308 -0.04451,0.4600375 -0.818951,0.7164988 -1.42848,0.8980854 C 16.485608,3.7399996 14.42909,3.8698113 12.424602,3.9037677 10.255284,3.9126667 8.030333,3.8018505 5.9929914,3.3230512 5.3166102,3.1401553 4.4762355,2.9107081 4.2953787,2.4317184 4.2117418,1.9878429 4.9336828,1.6943663 5.50303,1.5133754 7.2186193,1.0116182 9.1541389,0.8732435 11.037524,0.81111346 c 0.107816,-0.002087 0.216294,-0.005293 0.32434,-0.006753 z"
         id="path2532"
         style="fill:url(#linearGradient3477);fill-opacity:1;fill-rule:evenodd;stroke:none;stroke-width:1;marker:none;visibility:visible;display:inline;overflow:visible" />
    </g>
  </g>
</svg>
