<?xml version="1.0" encoding="UTF-8" standalone="no"?>
<!-- Created with Inkscape (http://www.inkscape.org/) -->

<svg
   xmlns:svg="http://www.w3.org/2000/svg"
   xmlns="http://www.w3.org/2000/svg"
   xmlns:xlink="http://www.w3.org/1999/xlink"
   version="1.0"
   width="24"
   height="24"
   id="svg3272">
  <defs
     id="defs3274">
    <linearGradient
       x1="18.03083"
       y1="16.407909"
       x2="20.054544"
       y2="24.627615"
       id="linearGradient3404"
       xlink:href="#linearGradient8265-821-176-38-919-66-249"
       gradientUnits="userSpaceOnUse" />
    <linearGradient
       id="linearGradient3752">
      <stop
         id="stop3754"
         style="stop-color:#ffffff;stop-opacity:1"
         offset="0" />
      <stop
         id="stop3760"
         style="stop-color:#ffffff;stop-opacity:1"
         offset="0.84754151" />
      <stop
         id="stop3756"
         style="stop-color:#ffffff;stop-opacity:0"
         offset="1" />
    </linearGradient>
    <radialGradient
       cx="4.02005"
       cy="5.5926585"
       r="10.273108"
       fx="4.02005"
       fy="5.5926585"
       id="radialGradient3402"
       xlink:href="#linearGradient3752"
       gradientUnits="userSpaceOnUse"
       gradientTransform="matrix(-0.01680222,1.3942814,-1.79662,-0.02165073,-5.3658054,-19.339419)" />
    <linearGradient
       x1="9.7045717"
       y1="20.882006"
       x2="9.7045717"
       y2="4.3030405"
       id="linearGradient3400"
       xlink:href="#linearGradient3390-178-986-453"
       gradientUnits="userSpaceOnUse"
       gradientTransform="matrix(0.9945751,0,0,0.9945751,-19.857339,-19.77827)" />
    <radialGradient
       cx="7.8185525"
       cy="8.5608768"
       r="11.268134"
       fx="7.8185525"
       fy="8.5608768"
       id="radialGradient3398"
       xlink:href="#linearGradient7012-661-145-733-759-865-745-661-970-94"
       gradientUnits="userSpaceOnUse"
       gradientTransform="matrix(1.6899516,0,0,1.0436086,-24.967043,-20.53429)" />
    <linearGradient
       id="linearGradient5157">
      <stop
         id="stop5159"
         style="stop-color:#c1c1c1;stop-opacity:1"
         offset="0" />
      <stop
         id="stop5161"
         style="stop-color:#909090;stop-opacity:1"
         offset="1" />
    </linearGradient>
    <linearGradient
       x1="9.8763561"
       y1="2.6014566"
       x2="9.8763561"
       y2="23.061668"
       id="linearGradient3396"
       xlink:href="#linearGradient5157"
       gradientUnits="userSpaceOnUse"
       gradientTransform="translate(-19.518072,-21.496043)" />
    <linearGradient
       id="linearGradient11111">
      <stop
         id="stop11113"
         style="stop-color:#ffffff;stop-opacity:1"
         offset="0" />
      <stop
         id="stop11115"
         style="stop-color:#cdcdcd;stop-opacity:1"
         offset="0.91013825" />
      <stop
         id="stop11117"
         style="stop-color:#a1a1a1;stop-opacity:1"
         offset="1" />
    </linearGradient>
    <linearGradient
       x1="-28.531403"
       y1="17.955765"
       x2="-28.531403"
       y2="37.502914"
       id="linearGradient3394"
       xlink:href="#linearGradient11111"
       gradientUnits="userSpaceOnUse"
       gradientTransform="translate(14.859932,-35.997365)" />
    <radialGradient
       cx="605.71429"
       cy="486.64789"
       r="117.14286"
       fx="605.71429"
       fy="486.64789"
       id="radialGradient3392"
       xlink:href="#linearGradient5060"
       gradientUnits="userSpaceOnUse"
       gradientTransform="matrix(-2.774389,0,0,1.969706,112.7623,-872.8854)" />
    <linearGradient
       id="linearGradient5060">
      <stop
         id="stop5062"
         style="stop-color:#000000;stop-opacity:1"
         offset="0" />
      <stop
         id="stop5064"
         style="stop-color:#000000;stop-opacity:0"
         offset="1" />
    </linearGradient>
    <radialGradient
       cx="605.71429"
       cy="486.64789"
       r="117.14286"
       fx="605.71429"
       fy="486.64789"
       id="radialGradient3390"
       xlink:href="#linearGradient5060"
       gradientUnits="userSpaceOnUse"
       gradientTransform="matrix(2.774389,0,0,1.969706,-1891.633,-872.8854)" />
    <linearGradient
       id="linearGradient5048">
      <stop
         id="stop5050"
         style="stop-color:#000000;stop-opacity:0"
         offset="0" />
      <stop
         id="stop5056"
         style="stop-color:#000000;stop-opacity:1"
         offset="0.5" />
      <stop
         id="stop5052"
         style="stop-color:#000000;stop-opacity:0"
         offset="1" />
    </linearGradient>
    <linearGradient
       x1="302.85715"
       y1="366.64789"
       x2="302.85715"
       y2="609.50507"
       id="linearGradient3388"
       xlink:href="#linearGradient5048"
       gradientUnits="userSpaceOnUse"
       gradientTransform="matrix(2.774389,0,0,1.969706,-1892.179,-872.8854)" />
    <linearGradient
       id="linearGradient3390-178-986-453">
      <stop
         id="stop3624"
         style="stop-color:#bb2b12;stop-opacity:1"
         offset="0" />
      <stop
         id="stop3626"
         style="stop-color:#cd7233;stop-opacity:1"
         offset="1" />
    </linearGradient>
    <linearGradient
       id="linearGradient7012-661-145-733-759-865-745-661-970-94">
      <stop
         id="stop3618"
         style="stop-color:#edb763;stop-opacity:1"
         offset="0" />
      <stop
         id="stop3270"
         style="stop-color:#de7f32;stop-opacity:1"
         offset="0.5" />
      <stop
         id="stop3620"
         style="stop-color:#d24413;stop-opacity:1"
         offset="1" />
    </linearGradient>
    <linearGradient
       id="linearGradient8265-821-176-38-919-66-249">
      <stop
         id="stop2687"
         style="stop-color:#ffffff;stop-opacity:0.27450982"
         offset="0" />
      <stop
         id="stop2689"
         style="stop-color:#ffffff;stop-opacity:0.07843138"
         offset="1" />
    </linearGradient>
    <radialGradient
       cx="32"
       cy="41.5"
       r="21"
       fx="32"
       fy="41.5"
       id="radialGradient4148-0"
       xlink:href="#linearGradient5060-9-6"
       gradientUnits="userSpaceOnUse"
       gradientTransform="matrix(0.35714286,0,0,0.14285716,-3.9285714,13.072062)" />
    <linearGradient
       id="linearGradient5060-9-6">
      <stop
         id="stop5062-9-1"
         style="stop-color:#000000;stop-opacity:1"
         offset="0" />
      <stop
         id="stop5064-1-5"
         style="stop-color:#000000;stop-opacity:0"
         offset="1" />
    </linearGradient>
    <radialGradient
       cx="24.999998"
       cy="28.659998"
       r="16"
       fx="24.999998"
       fy="28.659998"
       id="radialGradient4170-9"
       xlink:href="#linearGradient6954"
       gradientUnits="userSpaceOnUse"
       gradientTransform="matrix(0.55040653,0,0,0.15669563,-7.8569507,10.341911)" />
    <linearGradient
       id="linearGradient6954">
      <stop
         id="stop6960"
         style="stop-color:#f5f5f5;stop-opacity:1"
         offset="0" />
      <stop
         id="stop6962"
         style="stop-color:#d2d2d2;stop-opacity:1"
         offset="1" />
    </linearGradient>
    <linearGradient
       x1="30"
       y1="25.084745"
       x2="30"
       y2="45"
       id="linearGradient4172-4"
       xlink:href="#linearGradient3785"
       gradientUnits="userSpaceOnUse"
       gradientTransform="matrix(0.41935736,0,0,0.41979504,-4.5807222,1.8191637)" />
    <linearGradient
       id="linearGradient3785">
      <stop
         id="stop3787"
         style="stop-color:#b8b8b8;stop-opacity:1"
         offset="0" />
      <stop
         id="stop3789"
         style="stop-color:#878787;stop-opacity:1"
         offset="1" />
    </linearGradient>
    <linearGradient
       x1="29.968306"
       y1="21.68708"
       x2="30.000004"
       y2="43.308842"
       id="linearGradient4118-9"
       xlink:href="#linearGradient3341-0"
       gradientUnits="userSpaceOnUse"
       gradientTransform="matrix(0.41935736,0,0,0.41979504,-4.5807222,1.8191637)" />
    <linearGradient
       id="linearGradient3341-0">
      <stop
         id="stop3343-9"
         style="stop-color:#ffffff;stop-opacity:1"
         offset="0" />
      <stop
         id="stop3345-1"
         style="stop-color:#ffffff;stop-opacity:0"
         offset="1" />
    </linearGradient>
    <radialGradient
       cx="26.375898"
       cy="12.31301"
       r="8"
       fx="26.375898"
       fy="12.31301"
       id="radialGradient4176-7"
       xlink:href="#linearGradient6954"
       gradientUnits="userSpaceOnUse"
       gradientTransform="matrix(0.54674217,-0.04801515,0.04270621,0.57397107,-8.1327232,0.58825117)" />
    <linearGradient
       x1="30"
       y1="5"
       x2="30"
       y2="44.678879"
       id="linearGradient4174-7"
       xlink:href="#linearGradient3785"
       gradientUnits="userSpaceOnUse"
       gradientTransform="matrix(0.33334585,0,0,0.36215328,-2.0003758,2.4813805)" />
    <linearGradient
       x1="22"
       y1="39"
       x2="17"
       y2="37.4375"
       id="linearGradient4168-1"
       xlink:href="#linearGradient5060-1"
       gradientUnits="userSpaceOnUse"
       gradientTransform="matrix(0.61956519,0,0,0.35916826,-8.1665637,4.2839318)" />
    <linearGradient
       id="linearGradient5060-1">
      <stop
         id="stop5062-59"
         style="stop-color:#000000;stop-opacity:1"
         offset="0" />
      <stop
         id="stop5064-7"
         style="stop-color:#000000;stop-opacity:0"
         offset="1" />
    </linearGradient>
    <linearGradient
       x1="29.998489"
       y1="6.7808113"
       x2="30"
       y2="26.2834"
       id="linearGradient2924-7"
       xlink:href="#linearGradient3341-0"
       gradientUnits="userSpaceOnUse"
       gradientTransform="matrix(0.33334585,0,0,0.36215328,-2.0003758,2.4813805)" />
    <linearGradient
       x1="22"
       y1="39"
       x2="17"
       y2="37.4375"
       id="linearGradient3017"
       xlink:href="#linearGradient5060-1"
       gradientUnits="userSpaceOnUse"
       gradientTransform="matrix(-0.61956519,0,0,0.35916826,24.08887,4.2843446)" />
  </defs>
  <g
     id="g2701">
    <g
       id="g2902">
      <g
         transform="translate(0.03630422,-1.2165904e-7)"
         id="g2589">
        <g
           transform="translate(19.518072,21.496043)"
           id="g3377">
          <g
             transform="matrix(0.5459263,0,0,0.5168524,-20.520108,-22.074225)"
             id="g3490"
             style="stroke-width:1.88256383;stroke-miterlimit:4;stroke-dasharray:none">
            <g
               transform="matrix(0.02165152,0,0,0.01485743,43.0076,42.68539)"
               id="g5022"
               style="stroke-width:104.96237946;stroke-miterlimit:4;stroke-dasharray:none;display:inline">
              <rect
                 width="1339.6335"
                 height="478.35718"
                 x="-1559.2523"
                 y="-150.69685"
                 id="rect2527"
                 style="opacity:0.40206185;fill:url(#linearGradient3388);fill-opacity:1;fill-rule:nonzero;stroke:none;stroke-width:104.96237946;marker:none;visibility:visible;display:inline;overflow:visible" />
              <path
                 d="m -219.61876,-150.68038 c 0,0 0,478.33079 0,478.33079 142.874166,0.90045 345.40022,-107.16966 345.40014,-239.196175 0,-132.026537 -159.436816,-239.134595 -345.40014,-239.134615 l 0,0 z"
                 id="path2529"
                 style="opacity:0.40206185;fill:url(#radialGradient3390);fill-opacity:1;fill-rule:nonzero;stroke:none;stroke-width:104.96237946;marker:none;visibility:visible;display:inline;overflow:visible" />
              <path
                 d="m -1559.2523,-150.68038 c 0,0 0,478.33079 0,478.33079 -142.8742,0.90045 -345.4002,-107.16966 -345.4002,-239.196175 0,-132.026537 159.4368,-239.134595 345.4002,-239.134615 l 0,0 z"
                 id="path2531"
                 style="opacity:0.40206185;fill:url(#radialGradient3392);fill-opacity:1;fill-rule:nonzero;stroke:none;stroke-width:104.96237946;marker:none;visibility:visible;display:inline;overflow:visible" />
            </g>
          </g>
          <path
             d="m -18.840791,-18.926548 c -0.08554,0 -0.158869,0.09275 -0.158869,0.188543 0,5.86916 -0.04308,12.2440893 -0.04914,18.2247216 0.02908,0.895035 0.537241,1.505142 0.889665,1.508342 1.012736,0.009195 0.539272,-0.004029 1.048535,0 6.470333,-0.016099 13.5789166,-0.078173 20.0492476,-0.094271 0.054214,0.006918 -1.476715,-0.107725 -1.461594,-1.445495 10e-7,-4.672947 -0.50204704,-11.1869916 -0.50204704,-15.8599406 0,-0.186878 -0.01544,-0.290886 -0.031774,-0.377085 -0.012614,-0.06656 -0.028696,-0.09887 -0.063547,-0.125695 -0.027862,-0.02445 -0.054549,-0.05704 -0.095321,-0.06285 l -8.82013886,0 c -0.8153157,0 -1.0020562,-1.991963 -2.2136897,-1.991963 l -8.591324,0.03569 -3e-6,3e-6 z"
             id="path3496"
             style="fill:url(#linearGradient3394);fill-opacity:1;stroke:url(#linearGradient3396);stroke-width:1.01114547;stroke-linecap:round;stroke-linejoin:round;stroke-miterlimit:4;stroke-opacity:1;stroke-dasharray:none;display:inline" />
          <path
             d="m -16.018718,-14.948917 c 10.5699016,0 13.0304436,4.6e-4 19.9935046,-0.02754 0,1.570444 0.258156,16.0402746 -0.484112,16.0402746 -0.714048,0 -14.0456506,-0.094351 -21.0087096,-0.066352 1.471684,0 1.499317,-0.622748 1.499317,-15.9463836 l 0,1e-6 z"
             id="path3498"
             style="fill:url(#radialGradient3398);fill-opacity:1;stroke:url(#linearGradient3400);stroke-width:1;stroke-linecap:round;stroke-linejoin:round;stroke-miterlimit:4;stroke-opacity:1;stroke-dasharray:none;display:inline" />
          <path
             d="m 3.4207266,-13.887201 c 0,0 -16.8318006,0.09361 -18.3967956,-0.09237 -0.08294,13.8294336 -0.500948,14.4390416 -0.500948,14.4390416"
             id="path3211"
             style="opacity:0.4;fill:none;stroke:url(#radialGradient3402);stroke-width:0.98119503;stroke-linecap:butt;stroke-linejoin:miter;stroke-miterlimit:4;stroke-opacity:1;stroke-dasharray:none;display:inline" />
          <path
             d="m 3.21875,5.34375 c -1.5389481,0 -2.8125,1.273552 -2.8125,2.8125 l 0,16 c 0.005894,0.286233 0.14841957,0.612577 0.375,0.8125 0.2265775,0.199921 0.5161946,0.284272 0.84375,0.25 0.010415,2.66e-4 0.020835,2.66e-4 0.03125,0 l 45,-7.125 c 0.521773,-0.08229 0.930206,-0.53433 0.9375,-1.0625 l 0,-8.875 c 0,-1.538948 -1.273552,-2.8125 -2.8125,-2.8125 l -41.5625,0 0,0 z"
             transform="matrix(0.4450331,0,0,0.4023652,-16.698867,-17.646182)"
             id="path2608"
             style="fill:url(#linearGradient3404);fill-opacity:1;fill-rule:evenodd;stroke:none" />
        </g>
      </g>
      <rect
         width="7"
         height="1"
         rx="0.53846157"
         ry="0.5"
         x="2"
         y="4"
         id="rect2545"
         style="fill:#eda374;fill-opacity:1;fill-rule:nonzero;stroke:none;stroke-width:1;marker:none;visibility:visible;display:block;overflow:visible;enable-background:accumulate" />
    </g>
  </g>
  <g
     transform="translate(8,2.9995872)"
     id="g4140">
    <path
       d="M 15,19.000632 A 7.5,3 0 0 1 4.0027698e-8,19.000632 7.5,3 0 1 1 15,19.000632 z"
       id="path3823-1"
       style="opacity:0.8;fill:url(#radialGradient4148-0);fill-opacity:1;stroke:none" />
    <path
       d="M 6.513,10.424959 6.457,12.94373 C 5.2363792,13.957484 1.9146379,14.413014 1.9193169,15.4625 l -0.4193572,3.148465 c 0,1.043308 2.9101663,1.889075 6.5000399,1.889075 3.5898714,0 6.5000404,-0.845767 6.5000404,-1.889075 L 14.080681,15.4625 C 14.075781,14.564282 10.735651,13.99322 9.53,12.94373 l -0.043,-2.518771 -2.974,0 z"
       id="path3766-9"
       style="fill:url(#radialGradient4170-9);fill-opacity:1;stroke:url(#linearGradient4172-4);stroke-width:0.99991947;stroke-miterlimit:4;stroke-opacity:1;stroke-dasharray:none" />
    <path
       d="m 7.5,11.4375 c -0.08094,0.691654 0.1318657,1.450708 -0.2235148,2.087545 -0.5288217,0.667037 -1.389003,0.904775 -2.1389656,1.229786 -0.7736519,0.277628 -1.5744675,0.510298 -2.2797645,0.944145 0.06985,0.137296 -0.065526,0.621724 -0.078159,0.907996 -0.082782,0.66226 -0.1655648,1.324519 -0.2483472,1.986778 0.6400316,0.191418 1.2404938,0.510821 1.9149171,0.578815 2.3665096,0.469752 4.8219149,0.415371 7.191225,-0.0036 0.601839,-0.114874 1.179595,-0.331813 1.731993,-0.587727 0.184056,-0.31394 -0.04004,-0.704525 -0.03164,-1.0593 C 13.26683,16.94168 13.195915,16.361465 13.125,15.78125 11.736562,14.916552 9.9650672,14.747924 8.7644547,13.570405 8.3409285,12.960694 8.6020186,12.193261 8.4915178,11.512817 8.2293671,11.340917 7.855393,11.476623 7.5405916,11.4375 l -0.029974,0 -0.010617,0 z"
       id="path4094"
       style="fill:none;stroke:url(#linearGradient4118-9);stroke-width:0.99991947;stroke-miterlimit:4;stroke-opacity:1;stroke-dasharray:none" />
    <path
       d="m 7.9999999,4.4732229 c -1.3807633,0 -2.5000936,1.1349914 -2.5000936,2.5350727 0.010821,0.5181431 0.051513,1.1336776 0.3333444,2.5350729 0.1666733,0.5432295 1.6533164,1.9918425 1.6667298,2.1729185 0.3232373,0.181075 0.8333645,0.181075 1.1667122,0 0,-0.181076 1.3333833,-1.629689 1.5000553,-2.1729185 0.317138,-1.456468 0.316333,-1.9918428 0.333345,-2.5350729 0,-1.4000813 -1.1193297,-2.5350727 -2.5000931,-2.5350727 z"
       id="path3764-3"
       style="fill:url(#radialGradient4176-7);fill-opacity:1;stroke:url(#linearGradient4174-7);stroke-width:0.99981266;stroke-miterlimit:4;stroke-opacity:1;stroke-dasharray:none" />
    <path
       d="M 4.8443056,19.8 C 3.3806764,19.088058 4.078603,17.50748 4.22474,16.495652 3.6051749,17.213989 3.9171305,19.221739 2.678,19.221739 3.5040869,19.515513 4.0695756,19.71588 4.8443056,19.8 z"
       id="path3848-9"
       style="opacity:0.5;fill:url(#linearGradient4168-1);fill-opacity:1;stroke:none" />
    <path
       d="M 8,5.4375 C 7.2011494,5.4149723 6.4714864,6.1276223 6.4745866,6.9273472 6.4622824,7.5772581 6.5980797,8.218564 6.7052603,8.8567444 6.7329944,9.1071067 6.8044753,9.3386069 6.9869607,9.5208284 7.3214047,9.9705041 7.6934675,10.391109 8.0625,10.8125 8.4411508,10.315283 8.8285568,9.824363 9.1875,9.3125 9.3400569,8.4660789 9.5793589,7.6163122 9.5141846,6.748773 9.4152107,6.0221837 8.7407332,5.4168489 8,5.4375 z"
       id="path4066"
       style="fill:none;stroke:url(#linearGradient2924-7);stroke-width:0.99981266;stroke-miterlimit:4;stroke-opacity:1;stroke-dasharray:none" />
    <path
       d="m 11.078,19.800413 c 1.46363,-0.711942 0.765703,-2.29252 0.619566,-3.304348 0.619565,0.718337 0.307609,2.726087 1.54674,2.726087 -0.826087,0.293774 -1.391576,0.494141 -2.166306,0.578261 z"
       id="path3015"
       style="opacity:0.5;fill:url(#linearGradient3017);fill-opacity:1;stroke:none" />
  </g>
</svg>
