<?xml version="1.0" encoding="UTF-8" standalone="no"?>
<!-- Created with Inkscape (http://www.inkscape.org/) -->
<svg
   xmlns:svg="http://www.w3.org/2000/svg"
   xmlns="http://www.w3.org/2000/svg"
   xmlns:xlink="http://www.w3.org/1999/xlink"
   version="1.0"
   width="24"
   height="24"
   id="svg2">
  <defs
     id="defs4">
    <linearGradient
       id="linearGradient8838">
      <stop
         id="stop8840"
         style="stop-color:#000000;stop-opacity:1"
         offset="0" />
      <stop
         id="stop8842"
         style="stop-color:#000000;stop-opacity:0"
         offset="1" />
    </linearGradient>
    <radialGradient
       cx="62.625"
       cy="4.625"
       r="10.625"
       fx="62.625"
       fy="4.625"
       id="radialGradient2487"
       xlink:href="#linearGradient8838"
       gradientUnits="userSpaceOnUse"
       gradientTransform="matrix(1.1294118,0,0,0.2823525,-58.729414,19.694118)" />
    <linearGradient
       id="linearGradient2490-182-124">
      <stop
         id="stop2788"
         style="stop-color:#1f4b6a;stop-opacity:1"
         offset="0" />
      <stop
         id="stop2790"
         style="stop-color:#4083c2;stop-opacity:1"
         offset="1" />
    </linearGradient>
    <linearGradient
       x1="18.379412"
       y1="44.980297"
       x2="18.379412"
       y2="3.0816143"
       id="linearGradient2484"
       xlink:href="#linearGradient2490-182-124"
       gradientUnits="userSpaceOnUse"
       gradientTransform="matrix(0.5160413,0,0,0.5160413,-0.384991,-0.3849911)" />
    <linearGradient
       id="linearGradient3242-187-536">
      <stop
         id="stop2778"
         style="stop-color:#8badea;stop-opacity:1"
         offset="0" />
      <stop
         id="stop2780"
         style="stop-color:#6396cd;stop-opacity:1"
         offset="0.26238" />
      <stop
         id="stop2782"
         style="stop-color:#3b7caf;stop-opacity:1"
         offset="0.66093999" />
      <stop
         id="stop2784"
         style="stop-color:#194c70;stop-opacity:1"
         offset="1" />
    </linearGradient>
    <radialGradient
       cx="23.895569"
       cy="3.9900031"
       r="20.397499"
       fx="23.895569"
       fy="3.9900031"
       id="radialGradient2482"
       xlink:href="#linearGradient3242-187-536"
       gradientUnits="userSpaceOnUse"
       gradientTransform="matrix(0,1.2316137,-1.6257082,0,18.486581,-28.720783)" />
    <linearGradient
       id="linearGradient4873">
      <stop
         id="stop4875"
         style="stop-color:#ffffff;stop-opacity:1"
         offset="0" />
      <stop
         id="stop4877"
         style="stop-color:#ffffff;stop-opacity:0"
         offset="1" />
    </linearGradient>
    <linearGradient
       x1="63.397362"
       y1="-12.489107"
       x2="63.397362"
       y2="5.4675598"
       id="linearGradient2479"
       xlink:href="#linearGradient4873"
       gradientUnits="userSpaceOnUse"
       gradientTransform="matrix(1.0862728,0,0,1.0862481,-55.56661,15.813638)" />
  </defs>
  <g
     id="layer1">
    <path
       d="M 24,21 C 24,22.656854 18.627417,24 12,24 C 5.3725828,24 -2.5e-07,22.656854 -2.5e-07,21 C -2.5e-07,19.343146 5.3725828,18 12,18 C 18.627417,18 24,19.343146 24,21 L 24,21 z"
       id="path8836"
       style="opacity:0.3;fill:url(#radialGradient2487);fill-opacity:1;fill-rule:evenodd;stroke:none;stroke-width:0.99999988;stroke-linecap:butt;stroke-linejoin:round;marker:none;marker-start:none;marker-mid:none;marker-end:none;stroke-miterlimit:4;stroke-dasharray:none;stroke-dashoffset:0;stroke-opacity:1;visibility:visible;display:inline;overflow:visible" />
    <path
       d="M 12.000002,1.501785 C 6.207449,1.501785 1.501785,6.2074466 1.501785,11.999999 C 1.501785,17.792553 6.207449,22.498218 12.000002,22.498215 C 17.792552,22.498215 22.498221,17.792553 22.498215,11.999999 C 22.498215,6.2074466 17.792552,1.501785 12.000002,1.501785 z"
       id="path2555"
       style="fill:url(#radialGradient2482);fill-opacity:1;stroke:url(#linearGradient2484);stroke-width:1.00365424;stroke-linecap:round;stroke-linejoin:round;stroke-miterlimit:4;stroke-dasharray:none;stroke-dashoffset:0;stroke-opacity:1" />
    <path
       d="M 21.499999,11.999663 C 21.499999,17.246537 17.24639,21.499999 12.00012,21.499999 C 6.7533674,21.499999 2.4999999,17.24649 2.4999999,11.999663 C 2.4999999,6.7530318 6.7533674,2.5000007 12.00012,2.5000007 C 17.24639,2.5000007 21.499999,6.7530318 21.499999,11.999663 L 21.499999,11.999663 z"
       id="path2463"
       style="opacity:0.4;fill:none;fill-opacity:1;fill-rule:nonzero;stroke:url(#linearGradient2479);stroke-width:0.99999994;stroke-miterlimit:4;stroke-dasharray:none;stroke-opacity:1" />
    <path
       d="M 12.455219,14.081774 C 12.422179,12.902393 12.686406,11.757466 13.800654,10.94647 C 14.977584,10.029286 16.111061,8.8817637 15.991276,7.5290943 C 15.965121,6.2245668 14.445156,5.2023273 12.807503,5.0553479 C 10.96541,4.8001549 8.7364896,5.4312157 8.1192159,6.8698186 C 7.8061491,7.5695064 8.096465,8.8248269 9.1471134,8.8248269 C 9.7616394,8.8248269 10.043895,8.4278602 10.090265,8.0647284 C 10.125349,7.7899714 10.012548,7.544616 9.9459321,7.3176647 C 9.8700267,7.0590683 10.194058,6.5578819 10.546974,6.3536788 C 10.841875,6.1830422 11.150417,6.1258249 11.195897,6.1148943 C 12.25497,5.8603717 13.310713,6.4225779 13.751187,7.1068508 C 14.191662,7.7911238 13.706833,8.8290335 13.00976,9.8383604 C 12.312686,10.847688 11.564602,11.994078 11.56759,13.211732 C 11.56759,13.675293 11.526287,13.832775 11.555634,14.020321 C 11.579082,14.170164 12.075247,14.152056 12.455219,14.081774 z M 11.971892,15.669158 C 10.95925,15.614185 10.258363,16.762156 10.866707,17.493571 C 11.409988,18.301124 12.93322,18.101773 13.194302,17.1873 C 13.465732,16.476179 12.81253,15.657287 11.971892,15.669157 L 11.971892,15.669158 z"
       id="path9053"
       style="font-size:72px;font-style:normal;font-weight:bold;opacity:0.2;fill:#000000;fill-opacity:1;stroke:none;stroke-width:0.75;stroke-linecap:round;stroke-linejoin:round;stroke-miterlimit:4;stroke-dasharray:none;stroke-opacity:1;font-family:Standard Symbols L" />
    <path
       d="M 12.455219,15.081774 C 12.422179,13.902393 12.686406,12.757465 13.800654,11.94647 C 14.977584,11.029286 16.111061,9.8817633 15.991276,8.5290939 C 15.965121,7.2245664 14.445156,6.2023279 12.807503,6.0553476 C 10.96541,5.8001545 8.7364896,6.4312153 8.1192159,7.8698182 C 7.8061491,8.5695061 8.096465,9.8248274 9.1471134,9.8248274 C 9.7616394,9.8248274 10.043895,9.4278598 10.090265,9.064728 C 10.125349,8.789971 10.012548,8.5446165 9.9459321,8.3176643 C 9.8700267,8.0590689 10.194058,7.5578815 10.546974,7.3536794 C 10.841875,7.1830418 11.150417,7.1258255 11.195897,7.1148948 C 12.25497,6.8603722 13.310713,7.4225776 13.751187,8.1068514 C 14.191662,8.7911243 13.706833,9.829034 13.00976,10.838362 C 12.312686,11.847688 11.564602,12.994078 11.56759,14.211731 C 11.56759,14.675293 11.526287,14.832775 11.555634,15.020321 C 11.579082,15.170165 12.075247,15.152056 12.455219,15.081774 z M 11.971892,16.669157 C 10.95925,16.614185 10.258363,17.762157 10.866707,18.49357 C 11.409988,19.301124 12.93322,19.101774 13.194302,18.187299 C 13.465732,17.476179 12.81253,16.657287 11.971892,16.669157 L 11.971892,16.669157 z"
       id="path3298"
       style="font-size:72px;font-style:normal;font-weight:bold;fill:#ffffff;fill-opacity:1;stroke:none;stroke-width:0.75;stroke-linecap:round;stroke-linejoin:round;stroke-miterlimit:4;stroke-dasharray:none;stroke-opacity:1;font-family:Standard Symbols L" />
  </g>
</svg>
