<?xml version="1.0" encoding="UTF-8" standalone="no"?>
<!-- Created with Inkscape (http://www.inkscape.org/) -->

<svg
   xmlns:svg="http://www.w3.org/2000/svg"
   xmlns="http://www.w3.org/2000/svg"
   xmlns:xlink="http://www.w3.org/1999/xlink"
   version="1.0"
   width="24"
   height="24"
   id="svg2622">
  <defs
     id="defs2624">
    <linearGradient
       id="linearGradient5048">
      <stop
         id="stop5050"
         style="stop-color:#000000;stop-opacity:0"
         offset="0" />
      <stop
         id="stop5056"
         style="stop-color:#000000;stop-opacity:1"
         offset="0.5" />
      <stop
         id="stop5052"
         style="stop-color:#000000;stop-opacity:0"
         offset="1" />
    </linearGradient>
    <linearGradient
       x1="302.85715"
       y1="366.64789"
       x2="302.85715"
       y2="609.50507"
       id="linearGradient2616"
       xlink:href="#linearGradient5048"
       gradientUnits="userSpaceOnUse"
       gradientTransform="matrix(0.0352071,0,0,0.00823529,-0.724852,18.980551)" />
    <radialGradient
       cx="605.71429"
       cy="486.64789"
       r="117.14286"
       fx="605.71429"
       fy="486.64789"
       id="radialGradient2613"
       xlink:href="#linearGradient5060"
       gradientUnits="userSpaceOnUse"
       gradientTransform="matrix(-0.01204859,0,0,0.00823529,10.761206,18.980568)" />
    <linearGradient
       id="linearGradient5060">
      <stop
         id="stop5062"
         style="stop-color:#000000;stop-opacity:1"
         offset="0" />
      <stop
         id="stop5064"
         style="stop-color:#000000;stop-opacity:0"
         offset="1" />
    </linearGradient>
    <radialGradient
       cx="605.71429"
       cy="486.64789"
       r="117.14286"
       fx="605.71429"
       fy="486.64789"
       id="radialGradient2610"
       xlink:href="#linearGradient5060"
       gradientUnits="userSpaceOnUse"
       gradientTransform="matrix(0.01204859,0,0,0.00823529,13.238794,18.980568)" />
    <linearGradient
       x1="-51.786404"
       y1="50.786446"
       x2="-51.786404"
       y2="2.9062471"
       id="linearGradient2607"
       xlink:href="#linearGradient3104"
       gradientUnits="userSpaceOnUse"
       gradientTransform="matrix(0.3922135,0,0,0.4473607,29.199293,-1.2386997)" />
    <linearGradient
       id="linearGradient3600">
      <stop
         id="stop3602"
         style="stop-color:#f4f4f4;stop-opacity:1"
         offset="0" />
      <stop
         id="stop3604"
         style="stop-color:#dbdbdb;stop-opacity:1"
         offset="1" />
    </linearGradient>
    <linearGradient
       x1="25.132275"
       y1="0.98520643"
       x2="25.132275"
       y2="47.013336"
       id="linearGradient2605"
       xlink:href="#linearGradient3600"
       gradientUnits="userSpaceOnUse"
       gradientTransform="matrix(0.4857154,0,0,0.4780255,0.3428305,-0.7059501)" />
    <linearGradient
       id="linearGradient3211">
      <stop
         id="stop3213"
         style="stop-color:#ffffff;stop-opacity:1"
         offset="0" />
      <stop
         id="stop3215"
         style="stop-color:#ffffff;stop-opacity:0"
         offset="1" />
    </linearGradient>
    <linearGradient
       x1="24"
       y1="1.9999999"
       x2="24"
       y2="46.01725"
       id="linearGradient2599"
       xlink:href="#linearGradient3211"
       gradientUnits="userSpaceOnUse"
       gradientTransform="matrix(0.4545444,0,0,0.4651153,1.0909345,0.3372293)" />
    <linearGradient
       id="linearGradient3104">
      <stop
         id="stop3106"
         style="stop-color:#aaaaaa;stop-opacity:1"
         offset="0" />
      <stop
         id="stop3108"
         style="stop-color:#c8c8c8;stop-opacity:1"
         offset="1" />
    </linearGradient>
    <linearGradient
       id="linearGradient8589">
      <stop
         id="stop8591"
         style="stop-color:#fefefe;stop-opacity:1"
         offset="0" />
      <stop
         id="stop8593"
         style="stop-color:#cbcbcb;stop-opacity:1"
         offset="1" />
    </linearGradient>
    <linearGradient
       x1="32.892288"
       y1="8.0590115"
       x2="36.358372"
       y2="5.4565363"
       id="linearGradient2595"
       xlink:href="#linearGradient8589"
       gradientUnits="userSpaceOnUse"
       gradientTransform="matrix(0.4778466,0,0,0.5524833,0.3722548,-0.0761283)" />
  </defs>
  <g
     id="layer1">
    <rect
       width="17"
       height="1.9999981"
       x="3.5000005"
       y="21.999998"
       id="rect2879"
       style="opacity:0.15;fill:url(#linearGradient2616);fill-opacity:1;fill-rule:nonzero;stroke:none;stroke-width:1;marker:none;visibility:visible;display:inline;overflow:visible" />
    <path
       d="m 3.5,22.000086 c 0,0 0,1.999889 0,1.999889 C 2.8795275,24.00374 2,23.551901 2,22.999901 2,22.447902 2.6924,22.000086 3.5,22.000086 z"
       id="path2881"
       style="opacity:0.15;fill:url(#radialGradient2613);fill-opacity:1;fill-rule:nonzero;stroke:none;stroke-width:1;marker:none;visibility:visible;display:inline;overflow:visible" />
    <path
       d="m 20.5,22.000086 c 0,0 0,1.999889 0,1.999889 0.620472,0.0038 1.5,-0.448074 1.5,-1.000074 0,-0.551999 -0.692401,-0.999815 -1.5,-0.999815 z"
       id="path2883"
       style="opacity:0.15;fill:url(#radialGradient2610);fill-opacity:1;fill-rule:nonzero;stroke:none;stroke-width:1;marker:none;visibility:visible;display:inline;overflow:visible" />
    <path
       d="m 3.4999617,0.49996097 c 3.8955799,0 7.6044553,0 11.5000383,0 C 15.683368,0.73725787 19.541325,3.628131 20.5,5.5 c 0,5.729157 3.9e-5,11.270881 3.9e-5,17.000039 -5.666693,0 -11.3333845,0 -17.0000773,0 0,-7.33336 0,-14.6667201 0,-22.00007803 z"
       id="path4160"
       style="fill:url(#linearGradient2605);fill-opacity:1;stroke:url(#linearGradient2607);stroke-width:0.99992162;stroke-linecap:butt;stroke-linejoin:round;stroke-miterlimit:4;stroke-opacity:1;stroke-dasharray:none;stroke-dashoffset:0;display:inline" />
    <path
       d="m 19.500001,5.6770357 c 0,5.2083053 0,10.6146573 0,15.8229643 -5,0 -9.9999998,0 -15.000001,0 0,-6.66667 0,-13.3333343 0,-20.0000001 3.4372614,0 6.956499,0 10.393761,0"
       id="path2435"
       style="opacity:0.6;fill:none;stroke:url(#linearGradient2599);stroke-width:0.99999988;stroke-linecap:butt;stroke-linejoin:miter;stroke-miterlimit:4;stroke-opacity:1;stroke-dasharray:none;stroke-dashoffset:0;display:inline" />
    <path
       d="m 6,4.5050062 2.34375,0 -2.34375,0 z m 2.6875,0 2.1875,0 -2.1875,0 z m 2.53125,0 1.9375,0 -1.9375,0 z m 2.25,0 0.84375,0 -0.84375,0 z m 1.1875,0 0,0 z m -8.65625,2 3.65625,0 -3.65625,0 z m 4.0625,0 1.75,0 -1.75,0 z m 2.0625,0 0.875,0 -0.875,0 z m 1.21875,0 1.59375,0 -1.59375,0 z m 1.9375,0 1.625,0 -1.625,0 z M 6,8.5350541 l 1.59375,0 -1.59375,0 z m 2.09375,0 5.90625,0 -5.90625,0 z M 6,11.5 9.09375,11.5 6,11.5 z m 3.40625,0 5.0625,0 -5.0625,0 z m 5.375,0 2.46875,0 -2.46875,0 z M 6,13.5 8.34375,13.5 6,13.5 z m 2.6875,0 2.15625,0 -2.15625,0 z m 2.53125,0 1.9375,0 -1.9375,0 z m 2.25,0 0.84375,0 -0.84375,0 z m 1.1875,0 1.875,0 -1.875,0 z M 6,16.5 9.09375,16.5 6,16.5 z m 3.40625,0 5.0625,0 -5.0625,0 z m 5.375,0 2.46875,0 -2.46875,0 z M 6,18.5 9.8750002,18.5 6,18.5 z m 4.21875,0 1.75,0 -1.75,0 z m 2.0625,0 2.75,0 -2.75,0 z"
       id="path2590"
       style="fill:none;stroke:#aaaaaa;stroke-width:1px;stroke-linecap:butt;stroke-linejoin:miter;stroke-opacity:1" />
    <path
       d="m 14.075474,1 c 1.156303,0.3287671 0.339059,4.6143789 0.339059,4.6143789 0,0 4.515388,-0.4277362 5.60771,1.1949961 C 21.511396,9.0216317 19.954018,6.1742029 19.848796,5.9876778 19.092868,4.6476323 15.982456,1.4405918 14.803387,1.0464703 14.715155,1.0169778 14.519511,1 14.075474,1 z"
       id="path3370"
       style="fill:#c0c0c0;fill-opacity:1;fill-rule:evenodd;stroke:none;display:inline" />
    <path
       d="m 14,1 c 1.526166,0 1,4 1,4 0,0 4.992074,-0.45326 4.992074,2 0,-0.5977419 0.05575,-1.4784338 -0.06407,-1.6559326 C 19.088897,4.1010616 16.184239,1.4821803 15.129935,1.0464703 15.043957,1.0109384 14.444037,1 14,1 z"
       id="path4474"
       style="fill:url(#linearGradient2595);fill-opacity:1;fill-rule:evenodd;stroke:none;display:inline" />
  </g>
</svg>
