<?xml version="1.0" encoding="UTF-8" standalone="no"?>
<!-- Created with Inkscape (http://www.inkscape.org/) -->

<svg
   xmlns:svg="http://www.w3.org/2000/svg"
   xmlns="http://www.w3.org/2000/svg"
   xmlns:xlink="http://www.w3.org/1999/xlink"
   version="1.0"
   width="24"
   height="24"
   id="svg11300">
  <defs
     id="defs3">
    <radialGradient
       cx="26.78167"
       cy="42.343147"
       r="14.407301"
       fx="26.78167"
       fy="42.343147"
       id="radialGradient6075"
       xlink:href="#linearGradient6975"
       gradientUnits="userSpaceOnUse"
       gradientTransform="matrix(1,0,0,0.282209,0,30.39355)" />
    <linearGradient
       id="linearGradient6975">
      <stop
         id="stop6977"
         style="stop-color:black;stop-opacity:1"
         offset="0" />
      <stop
         id="stop6979"
         style="stop-color:black;stop-opacity:0"
         offset="1" />
    </linearGradient>
    <radialGradient
       cx="26.78167"
       cy="42.343147"
       r="14.407301"
       fx="26.78167"
       fy="42.343147"
       id="radialGradient6073"
       xlink:href="#linearGradient6975"
       gradientUnits="userSpaceOnUse"
       gradientTransform="matrix(1,0,0,0.282209,0,30.39355)" />
    <linearGradient
       id="linearGradient6468">
      <stop
         id="stop6470"
         style="stop-color:#cd8033;stop-opacity:1"
         offset="0" />
      <stop
         id="stop6472"
         style="stop-color:#bb5e12;stop-opacity:1"
         offset="1" />
    </linearGradient>
    <linearGradient
       id="linearGradient6951">
      <stop
         id="stop6953"
         style="stop-color:#6e3d09;stop-opacity:1"
         offset="0" />
      <stop
         id="stop6959"
         style="stop-color:#ea8113;stop-opacity:1"
         offset="0.24242425" />
      <stop
         id="stop6961"
         style="stop-color:#5c3307;stop-opacity:1"
         offset="0.62121212" />
      <stop
         id="stop6955"
         style="stop-color:#e07c12;stop-opacity:1"
         offset="1" />
    </linearGradient>
    <linearGradient
       id="linearGradient6963">
      <stop
         id="stop6965"
         style="stop-color:#696969;stop-opacity:1"
         offset="0" />
      <stop
         id="stop6967"
         style="stop-color:black;stop-opacity:1"
         offset="1" />
    </linearGradient>
    <linearGradient
       id="linearGradient6629">
      <stop
         id="stop6631"
         style="stop-color:#aeaeae;stop-opacity:1"
         offset="0" />
      <stop
         id="stop6633"
         style="stop-color:#c4c4c4;stop-opacity:0"
         offset="1" />
    </linearGradient>
    <linearGradient
       id="linearGradient6651">
      <stop
         id="stop6653"
         style="stop-color:#f2f2f2;stop-opacity:1"
         offset="0" />
      <stop
         id="stop6655"
         style="stop-color:#c3c3c3;stop-opacity:1"
         offset="1" />
    </linearGradient>
    <linearGradient
       id="linearGradient6835">
      <stop
         id="stop6837"
         style="stop-color:white;stop-opacity:1"
         offset="0" />
      <stop
         id="stop6839"
         style="stop-color:white;stop-opacity:0"
         offset="1" />
    </linearGradient>
    <linearGradient
       id="linearGradient4103">
      <stop
         id="stop4105"
         style="stop-color:#edd563;stop-opacity:1"
         offset="0" />
      <stop
         id="stop4107"
         style="stop-color:#e08223;stop-opacity:1"
         offset="1" />
    </linearGradient>
    <linearGradient
       id="linearGradient5113">
      <stop
         id="stop5115"
         style="stop-color:white;stop-opacity:1"
         offset="0" />
      <stop
         id="stop5117"
         style="stop-color:white;stop-opacity:0"
         offset="1" />
    </linearGradient>
    <linearGradient
       x1="48.25"
       y1="52"
       x2="48.25"
       y2="74.5"
       id="linearGradient5532"
       xlink:href="#linearGradient6835"
       gradientUnits="userSpaceOnUse"
       gradientTransform="matrix(0.2222274,0,0,0.2666668,4.7775344,-3.866673)" />
    <radialGradient
       cx="12.994796"
       cy="11.209234"
       r="4.0000005"
       fx="12.994796"
       fy="11.209234"
       id="radialGradient5535"
       xlink:href="#linearGradient5113"
       gradientUnits="userSpaceOnUse"
       gradientTransform="matrix(1,0,0,1.6250001,0.9999965,-8.0625028)" />
    <linearGradient
       x1="60.168766"
       y1="40.119797"
       x2="60.440994"
       y2="43.869797"
       id="linearGradient5539"
       xlink:href="#linearGradient6651"
       gradientUnits="userSpaceOnUse"
       gradientTransform="matrix(0.4058776,0,0,0.3916624,-7.7895373,5.0489042)" />
    <linearGradient
       x1="42.816425"
       y1="64.563896"
       x2="54.0648"
       y2="64.520432"
       id="linearGradient5542"
       xlink:href="#linearGradient4103"
       gradientUnits="userSpaceOnUse"
       gradientTransform="matrix(0.4429464,0,0,0.4135479,-6.2382742,-12.648518)" />
    <linearGradient
       x1="61.871845"
       y1="29.615223"
       x2="61.871845"
       y2="41.459263"
       id="linearGradient5545"
       xlink:href="#linearGradient6629"
       gradientUnits="userSpaceOnUse"
       gradientTransform="matrix(0.4751347,0,0,0.2900951,-12.276741,8.9728704)" />
    <linearGradient
       x1="53.168766"
       y1="24.244797"
       x2="69.690994"
       y2="24.244797"
       id="linearGradient5548"
       xlink:href="#linearGradient6651"
       gradientUnits="userSpaceOnUse"
       gradientTransform="matrix(0.5426759,0,0,0.3373739,-15.797589,7.3326889)" />
    <linearGradient
       x1="52.717937"
       y1="2.3161638"
       x2="67.465988"
       y2="2.3161638"
       id="linearGradient5551"
       xlink:href="#linearGradient4103"
       gradientUnits="userSpaceOnUse"
       gradientTransform="matrix(0.6546131,0,0,0.4343892,-22.336979,6.2419012)" />
    <linearGradient
       x1="107.00001"
       y1="36"
       x2="114.99999"
       y2="36"
       id="linearGradient5553"
       xlink:href="#linearGradient6468"
       gradientUnits="userSpaceOnUse"
       gradientTransform="matrix(1.3157421,0,0,1.2395981,-129.04737,-38.125539)" />
    <radialGradient
       cx="15.415101"
       cy="35.356506"
       r="7.5791559"
       fx="15.415101"
       fy="35.356506"
       id="radialGradient5556"
       xlink:href="#linearGradient6963"
       gradientUnits="userSpaceOnUse"
       gradientTransform="matrix(0.472086,0,0,0.4751232,-2.0094528,2.0966293)" />
    <linearGradient
       x1="20.250818"
       y1="29.81082"
       x2="22.011618"
       y2="31.72422"
       id="linearGradient5559"
       xlink:href="#linearGradient6651"
       gradientUnits="userSpaceOnUse"
       gradientTransform="matrix(0.4925112,0,0,0.5272088,-1.7832111,-0.3189141)" />
    <linearGradient
       x1="28.058632"
       y1="18.867767"
       x2="33.436985"
       y2="23.742767"
       id="linearGradient5562"
       xlink:href="#linearGradient6951"
       gradientUnits="userSpaceOnUse"
       gradientTransform="matrix(0.492941,0,0,0.5186452,-1.7923829,-0.0285044)" />
  </defs>
  <g
     id="g6084">
    <path
       d="m 41.188971,42.343147 c 0,2.245515 -6.450368,4.065864 -14.407301,4.065864 -7.956933,0 -14.407301,-1.820349 -14.407301,-4.065864 0,-2.245515 6.450368,-4.065864 14.407301,-4.065864 7.956933,0 14.407301,1.820349 14.407301,4.065864 z"
       transform="matrix(0.4858648,0,0,0.2459504,3.9877299,12.585686)"
       id="path8424"
       style="opacity:0.3;fill:url(#radialGradient6075);fill-opacity:1;fill-rule:nonzero;stroke:none;stroke-width:1.57544935;marker:none;visibility:visible;display:inline;overflow:visible;enable-background:new" />
    <path
       d="M 9.8206728,12.621049 11.824919,14.59226 C 15.367929,10.929329 20.590927,2.1565536 20.590927,2.1565536 20.80265,1.5214988 20.054962,1.1213935 19.680782,1.5494809 c 0,0 -6.748405,7.3113886 -9.8601092,11.0715681 z"
       id="path8625"
       style="fill:url(#linearGradient5562);fill-opacity:1;fill-rule:nonzero;stroke:#673907;stroke-width:0.74303877;stroke-linecap:round;stroke-linejoin:miter;stroke-miterlimit:4;stroke-opacity:1;stroke-dasharray:none;stroke-dashoffset:0;marker:none;visibility:visible;display:inline;overflow:visible" />
    <path
       d="m 5.4134287,18.464015 1.2719645,1.161572 5.3541658,-4.940184 c -0.21548,-0.823764 -1.448732,-2.310995 -2.3722089,-2.310995 l -4.2539214,6.089607 z"
       id="path8627"
       style="fill:url(#linearGradient5559);fill-opacity:1;fill-rule:nonzero;stroke:#787a75;stroke-width:0.74882138;stroke-linecap:round;stroke-linejoin:miter;stroke-miterlimit:4;stroke-opacity:1;stroke-dasharray:none;stroke-dashoffset:0;marker:none;visibility:visible;display:inline;overflow:visible" />
    <path
       d="m 0.99999999,21.976546 c 3.13503741,0 5.51425671,0.385561 5.96470211,-1.96999 0.3629712,-1.898247 -2.1644396,-2.807816 -3.4168806,-1.11318 -1.2064934,1.632468 -2.54782151,3.08317 -2.54782151,3.08317 z"
       id="path8629"
       style="fill:url(#radialGradient5556);fill-opacity:1;fill-rule:nonzero;stroke:none;stroke-width:0.69999999;marker:none;visibility:visible;display:inline;overflow:visible" />
    <path
       d="m 16.662757,3.501601 c -2.320888,0.065293 -4.162585,0.7899737 -4.162585,1.663848 0,0.2077257 0,2.462803 0,2.6705287 0,0.9168515 2.027217,1.6638447 4.50947,1.6638447 2.482289,0 4.490178,-0.7469932 4.490178,-1.6638447 0,-0.2077257 0,-2.462803 0,-2.6705287 0,-0.9168537 -2.007889,-1.663848 -4.490178,-1.663848 -0.116379,0 -0.232757,-0.00321 -0.346885,0 z"
       id="path8641"
       style="fill:url(#linearGradient5551);fill-opacity:1;fill-rule:nonzero;stroke:url(#linearGradient5553);stroke-width:1.00035167;stroke-linecap:round;stroke-linejoin:miter;stroke-miterlimit:4;stroke-opacity:1;stroke-dasharray:none;stroke-dashoffset:0;marker:none;visibility:visible;display:inline;overflow:visible" />
    <path
       d="m 12.575363,21.262761 -0.07526,-10.89683 1.238092,-1.6421822 c 1.486927,-0.2981985 5.073732,-0.2981985 6.416788,0 l 1.313022,1.6421822 0.03189,11.133965 -8.924533,-0.237135 z"
       id="path8645"
       style="fill:url(#linearGradient5548);fill-opacity:1;fill-rule:nonzero;stroke:#828282;stroke-width:1.00020409;stroke-linecap:round;stroke-linejoin:miter;stroke-miterlimit:4;stroke-opacity:1;stroke-dasharray:none;stroke-dashoffset:0;marker:none;visibility:visible;display:inline;overflow:visible" />
    <path
       d="m 12.921105,20.846152 c 0,0 1.385188,-3.846154 4.031642,-3.846154 2.730458,0 4.367611,4 4.367611,4 l -8.399253,-0.153846 z"
       id="path8647"
       style="fill:url(#linearGradient5545);fill-opacity:1;fill-rule:nonzero;stroke:none;stroke-width:1;marker:none;visibility:visible;display:inline;overflow:visible" />
    <path
       d="m 12.999996,11.468978 0.06084,4.385587 c 1.024313,-0.620318 6.470742,-0.804941 7.919324,0.145433 L 21,11.468978 c -0.861314,-0.548293 -6.297438,-0.697863 -8.000001,0 z"
       id="path8649"
       style="fill:url(#linearGradient5542);fill-opacity:1;fill-rule:nonzero;stroke:none;stroke-width:1;marker:none;visibility:visible;display:inline;overflow:visible" />
    <rect
       width="10.995647"
       height="1.9956478"
       rx="0.48656639"
       ry="0.44909146"
       x="11.502172"
       y="20.502176"
       id="rect8653"
       style="fill:url(#linearGradient5539);fill-opacity:1;fill-rule:nonzero;stroke:#828282;stroke-width:1.00435174;stroke-linecap:round;stroke-linejoin:miter;stroke-miterlimit:4;stroke-opacity:1;stroke-dasharray:none;stroke-dashoffset:0;marker:none;visibility:visible;display:inline;overflow:visible" />
    <path
       d="m 13.001997,10.769723 c 1.250709,-0.603413 5.666291,-0.462811 8.082999,2.75e-4 L 19.892862,9.2469138 c -1.641669,-0.3426379 -3.814745,-0.4457914 -5.774342,0 l -1.116523,1.5228092 z"
       id="path8655"
       style="fill:#f0f0f0;fill-opacity:1;fill-rule:nonzero;stroke:none;stroke-width:1;marker:none;visibility:visible;display:inline;overflow:visible" />
    <path
       d="M 13.70926,21.499566 13.500428,10.859181 14.396469,9.6997436 c 1.024682,-0.2657522 4.189539,-0.2657522 5.115021,0 l 0.988074,1.1594374 -0.08174,10.627626 -6.708562,0.01276 z"
       id="path8651"
       style="opacity:0.6;fill:none;stroke:url(#radialGradient5535);stroke-width:1.00086355;stroke-linecap:round;stroke-linejoin:miter;stroke-miterlimit:4;stroke-opacity:1;stroke-dasharray:none;stroke-dashoffset:0;marker:none;visibility:visible;display:inline;overflow:visible" />
    <path
       d="m 14.999996,10.266665 0,5.733333 1,-1.333333 -0.111086,-4.6666668 -0.888914,0.2666668 z"
       id="path8657"
       style="opacity:0.6;fill:url(#linearGradient5532);fill-opacity:1;fill-rule:nonzero;stroke:none;stroke-width:1;marker:none;visibility:visible;display:inline;overflow:visible" />
    <g
       transform="matrix(0.5339967,0,0,0.5863235,-1.8849934,-0.0838479)"
       id="g8659"
       style="opacity:0.57777782;stroke-width:2.19232106;stroke-miterlimit:4;stroke-dasharray:none">
      <path
         d="m 29.747356,8.8417702 0,3.2400348 c 0,0 1.386165,-0.08252 2.246684,-0.09616 l 0,-3.3149303 c -1.160303,0.025805 -2.246684,0.1710515 -2.246684,0.1710515 z"
         id="path8663"
         style="fill:#e6e7e6;fill-opacity:1;fill-rule:nonzero;stroke:none;stroke-width:2.19232106;marker:none;visibility:visible;display:inline;overflow:visible" />
      <path
         d="m 34.240516,8.7721984 0,3.2952776 c 0,0 1.260992,-0.0052 2.246892,0.01433 l 0,-3.337027 c -1.135348,-0.051535 -2.246892,0.02742 -2.246892,0.02742 z"
         id="path8665"
         style="opacity:0.44444448;fill:#e6e7e6;fill-opacity:1;fill-rule:nonzero;stroke:none;stroke-width:2.19232106;marker:none;visibility:visible;display:inline;overflow:visible" />
    </g>
    <path
       d="m 41.188971,42.343147 c 0,2.245515 -6.450368,4.065864 -14.407301,4.065864 -7.956933,0 -14.407301,-1.820349 -14.407301,-4.065864 0,-2.245515 6.450368,-4.065864 14.407301,-4.065864 7.956933,0 14.407301,1.820349 14.407301,4.065864 z"
       transform="matrix(0.5205694,0,0,0.4919004,-6.4417171,0.1713877)"
       id="path8430"
       style="opacity:0.2;fill:url(#radialGradient6073);fill-opacity:1;fill-rule:nonzero;stroke:none;stroke-width:1.37607908;marker:none;visibility:visible;display:inline;overflow:visible;enable-background:new" />
  </g>
</svg>
