<?xml version="1.0" encoding="UTF-8" standalone="no"?>
<svg
   viewBox="0 0 100 100"
   version="1.1"
   id="svg1071"
   sodipodi:docname="tar.svg"
   inkscape:version="1.1 (c68e22c387, 2021-05-23)"
   xmlns:inkscape="http://www.inkscape.org/namespaces/inkscape"
   xmlns:sodipodi="http://sodipodi.sourceforge.net/DTD/sodipodi-0.dtd"
   xmlns="http://www.w3.org/2000/svg"
   xmlns:svg="http://www.w3.org/2000/svg">
  <defs
     id="defs1075" />
  <sodipodi:namedview
     id="namedview1073"
     pagecolor="#505050"
     bordercolor="#eeeeee"
     borderopacity="1"
     inkscape:pageshadow="0"
     inkscape:pageopacity="0"
     inkscape:pagecheckerboard="0"
     showgrid="false"
     inkscape:zoom="8.73"
     inkscape:cx="50"
     inkscape:cy="50"
     inkscape:window-width="3440"
     inkscape:window-height="1361"
     inkscape:window-x="-9"
     inkscape:window-y="-9"
     inkscape:window-maximized="1"
     inkscape:current-layer="svg1071" />
  <path
     d="M65.8 53.9L50 46.5l31.5-14.7 15.8 7.4-15.8 7.4c0-.1-15.7 7.3-15.7 7.3zm15.7-36.7L65.8 9.8 50 17.2l31.5 14.7 15.8-7.4-15.8-7.3zM34.2 39.1l-15.7-7.4-15.7 7.4 31.5 14.7L50 46.5l-15.8-7.4zm0-14.6L50 17.2 34.2 9.8 2.8 24.5l15.7 7.4 15.7-7.4zm47.3 26.3l-14.1 6.5-1.7.8-1.7-.8-14-6.5-14.1 6.5-1.7.8-1.7-.8-14.1-6.5v23L50 90.2l31.5-16.4v-23z"
     fill="#dce675"
     id="path1069"
     style="fill:#b5c222;fill-opacity:1" />
</svg>
