<?xml version="1.0" encoding="UTF-8" standalone="no"?>
<svg
   xmlns:dc="http://purl.org/dc/elements/1.1/"
   xmlns:cc="http://creativecommons.org/ns#"
   xmlns:rdf="http://www.w3.org/1999/02/22-rdf-syntax-ns#"
   xmlns:svg="http://www.w3.org/2000/svg"
   xmlns="http://www.w3.org/2000/svg"
   xmlns:sodipodi="http://sodipodi.sourceforge.net/DTD/sodipodi-0.dtd"
   xmlns:inkscape="http://www.inkscape.org/namespaces/inkscape"
   data-name="Layer 1"
   id="Layer_1"
   viewBox="0 0 32 32"
   version="1.1"
   sodipodi:docname="build.svg"
   inkscape:version="0.92.4 (5da689c313, 2019-01-14)">
  <metadata
     id="metadata15">
    <rdf:RDF>
      <cc:Work
         rdf:about="">
        <dc:format>image/svg+xml</dc:format>
        <dc:type
           rdf:resource="http://purl.org/dc/dcmitype/StillImage" />
      </cc:Work>
    </rdf:RDF>
  </metadata>
  <sodipodi:namedview
     pagecolor="#ffffff"
     bordercolor="#666666"
     borderopacity="1"
     objecttolerance="10"
     gridtolerance="10"
     guidetolerance="10"
     inkscape:pageopacity="0"
     inkscape:pageshadow="2"
     inkscape:window-width="2473"
     inkscape:window-height="934"
     id="namedview13"
     showgrid="false"
     inkscape:zoom="7.375"
     inkscape:cx="-51.932203"
     inkscape:cy="14.847458"
     inkscape:window-x="0"
     inkscape:window-y="0"
     inkscape:window-maximized="0"
     inkscape:current-layer="Layer_1" />
  <defs
     id="defs4">
    <style
       id="style2">.cls-1{fill:#515151;}</style>
  </defs>
  <title
     id="title6" />
  <path
     id="path4557"
     d="m 30.854221,30.142504 c -1.527707,1.527723 -4.037511,1.527723 -5.565218,0 L 13.72208,18.575601 l 5.12873,-5.128744 0.436488,-0.436459 11.566923,11.566903 c 1.527706,1.527723 1.527706,4.037518 0,5.565203 z M 19.287298,14.647198 c -0.654732,0.654727 -3.164535,3.164522 -3.819267,3.81925 0.218245,0.218079 1.200341,1.20034 2.400682,2.400718 l 3.819267,-3.819288 c -1.200341,-1.20034 -2.182439,-2.182413 -2.400682,-2.40068 z m 10.693947,10.803099 -7.856777,-7.856769 -3.819267,3.819251 c 3.164535,3.164522 7.856777,7.856768 7.856777,7.856768 1.09122,1.091225 2.728048,1.091225 3.819267,0 1.091219,-1.091263 1.091219,-2.837178 0,-3.81925 z M 17.213981,8.8637265 l -1.418584,1.4186075 2.618926,2.618911 -4.692243,4.692283 -2.728047,-2.728063 v 0 c -0.982097,-0.545612 -2.2915599,-0.436535 -3.1645349,0.43646 -0.654732,0.654728 -0.872976,1.527723 -0.654732,2.40068 0.218245,0.545651 0.109119,1.200378 -0.327367,1.636838 -0.54561,0.545613 -1.527707,0.545613 -2.182438,0 L 0.40920611,15.083657 c -0.545609,-0.545574 -0.545609,-1.527647 0,-2.182412 0.436488,-0.436498 1.20034199,-0.545575 1.74595099,-0.218079 v 0 c 0.763854,0.109228 1.636829,-0.109228 2.29156,-0.654727 0.872975,-0.872996 0.982098,-2.1824511 0.327368,-3.1645235 l 0.218245,-0.2180787 v 0 L 9.0298401,4.6083187 9.4663281,4.1718589 10.884913,2.753251 c 0.872975,0.4365355 1.636828,0.2180788 2.400682,-0.327307 0.763853,-0.5456126 2.837169,-2.07333543 6.32907,-1.63683783 3.601023,0.32730703 5.67434,3.16452283 5.67434,3.16452283 L 24.525151,4.7174715 C 15.031545,3.5171314 17.213983,8.8641423 17.213983,8.8641423 Z"
     inkscape:connector-curvature="0"
     style="clip-rule:evenodd;fill:#666666;fill-opacity:1;fill-rule:evenodd;stroke-width:1.09121919" />
</svg>
