<?xml version="1.0" encoding="UTF-8" standalone="no"?>
<svg
   xmlns:dc="http://purl.org/dc/elements/1.1/"
   xmlns:cc="http://creativecommons.org/ns#"
   xmlns:rdf="http://www.w3.org/1999/02/22-rdf-syntax-ns#"
   xmlns:svg="http://www.w3.org/2000/svg"
   xmlns="http://www.w3.org/2000/svg"
   xmlns:sodipodi="http://sodipodi.sourceforge.net/DTD/sodipodi-0.dtd"
   xmlns:inkscape="http://www.inkscape.org/namespaces/inkscape"
   id="Layer_1"
   style="enable-background:new 0 0 512 512;"
   version="1.1"
   viewBox="0 0 512 512"
   xml:space="preserve"
   inkscape:version="0.91 r13725"
   sodipodi:docname="if_CMYK_1994549.svg"><metadata
     id="metadata21"><rdf:RDF><cc:Work
         rdf:about=""><dc:format>image/svg+xml</dc:format><dc:type
           rdf:resource="http://purl.org/dc/dcmitype/StillImage" /><dc:title></dc:title></cc:Work></rdf:RDF></metadata><defs
     id="defs19" /><sodipodi:namedview
     pagecolor="#ffffff"
     bordercolor="#666666"
     borderopacity="1"
     objecttolerance="10"
     gridtolerance="10"
     guidetolerance="10"
     inkscape:pageopacity="0"
     inkscape:pageshadow="2"
     inkscape:window-width="1707"
     inkscape:window-height="913"
     id="namedview17"
     showgrid="false"
     inkscape:zoom="0.4609375"
     inkscape:cx="586.84746"
     inkscape:cy="237.55932"
     inkscape:window-x="-8"
     inkscape:window-y="-8"
     inkscape:window-maximized="1"
     inkscape:current-layer="Layer_1" /><style
     type="text/css"
     id="style3">
	.st0{fill:#474B4F;}
	.st1{fill:#FFDE40;}
	.st2{fill:#EF5BA1;}
	.st3{fill:#00BFF3;}
	.st4{fill:#FFFFFF;}
</style><g
     id="g5"
     transform="matrix(1.222043,0,0,1.222043,-56.880104,-57.196178)"><path
       class="st0"
       d="m 416.8,193.2 c 0,0 -5.1,-14.3 -19.4,-9.3 l -241.9,85.6 c 0,0 -14.3,5.1 -9.3,19.4 l 45.2,127.7 c 0,0 5.1,14.3 19.4,9.3 l 241.9,-85.6 c 0,0 14.3,-5.1 9.3,-19.4 l -45.2,-127.7 0,0 z"
       id="path7"
       inkscape:connector-curvature="0"
       style="fill:#474b4f" /><path
       class="st1"
       d="m 336.6,122.6 c 0,0 -9.8,-11.6 -21.4,-1.9 l -208.4,175 c 0,0 -11.6,9.8 -1.9,21.4 L 192,420.9 c 0,0 9.8,11.6 21.4,1.9 L 421.9,247.9 c 0,0 11.6,-9.8 1.9,-21.4 l -87.2,-103.9 0,0 z"
       id="path9"
       inkscape:connector-curvature="0"
       style="fill:#ffde40" /><path
       class="st2"
       d="m 231.5,78.1 c 0,0 -13.2,-7.5 -20.7,5.7 L 69.5,333.7 c 0,0 -7.5,13.2 5.7,20.7 l 117.9,66.7 c 0,0 13.2,7.5 20.7,-5.7 L 355.1,165.6 c 0,0 7.5,-13.2 -5.7,-20.7 l -117.9,-66.8 0,0 z"
       id="path11"
       inkscape:connector-curvature="0"
       style="fill:#ef5ba1" /><path
       class="st3"
       d="m 64.2,85.3 c 0,0 -15.2,0 -15.2,15.2 l 0,320.9 c 0,0 0,15.2 15.2,15.2 l 135.5,0 c 0,0 15.2,0 15.2,-15.2 l 0,-320.9 c 0,0 0,-15.2 -15.2,-15.2 l -135.5,0 0,0 z"
       id="path13"
       inkscape:connector-curvature="0"
       style="fill:#00bff3" /><path
       class="st4"
       d="m 183.4,418.4 c 5.6,0 10.1,-4.5 10.1,-10.1 0,-5.6 -4.5,-10.1 -10.1,-10.1 -5.6,0 -10.1,4.5 -10.1,10.1 -0.1,5.6 4.5,10.1 10.1,10.1 l 0,0 z"
       id="path15"
       inkscape:connector-curvature="0"
       style="fill:#ffffff" /></g></svg>