<?xml version="1.0" encoding="UTF-8" standalone="no"?>
<!-- Uploaded to: SVG Repo, www.svgrepo.com, Transformed by: SVG Repo Mixer Tools -->

<svg
   fill="#deddda"
   width="64px"
   height="64px"
   viewBox="0 0 32 32"
   version="1.1"
   id="svg1"
   sodipodi:docname="detail.svg"
   inkscape:version="1.4.2 (ebf0e940d0, 2025-05-08)"
   xmlns:inkscape="http://www.inkscape.org/namespaces/inkscape"
   xmlns:sodipodi="http://sodipodi.sourceforge.net/DTD/sodipodi-0.dtd"
   xmlns="http://www.w3.org/2000/svg"
   xmlns:svg="http://www.w3.org/2000/svg">
  <defs
     id="defs1" />
  <sodipodi:namedview
     id="namedview1"
     pagecolor="#ffffff"
     bordercolor="#000000"
     borderopacity="0.25"
     inkscape:showpageshadow="2"
     inkscape:pageopacity="0.0"
     inkscape:pagecheckerboard="0"
     inkscape:deskcolor="#d1d1d1"
     inkscape:zoom="17.453125"
     inkscape:cx="32"
     inkscape:cy="32"
     inkscape:window-width="2560"
     inkscape:window-height="1368"
     inkscape:window-x="0"
     inkscape:window-y="0"
     inkscape:window-maximized="1"
     inkscape:current-layer="svg1" />
  <g
     id="SVGRepo_bgCarrier"
     stroke-width="0"
     style="display:inline" />
  <g
     id="SVGRepo_tracerCarrier"
     stroke-linecap="round"
     stroke-linejoin="round"
     style="display:none" />
  <g
     id="SVGRepo_iconCarrier"
     style="display:inline">
    <title
       id="title1">snowflake</title>
    <path
       d="M 28.285,16.575 23.81,19.065 18.501,16 l 5.305,-3.063 4.487,2.488 c 0.173,0.099 0.38,0.157 0.601,0.157 0.001,0 0.002,0 0.003,0 v 0 c 0.001,0 0.002,0 0.003,0 0.69,0 1.249,-0.559 1.249,-1.249 0,-0.468 -0.258,-0.876 -0.639,-1.09 L 29.504,13.24 26.33,11.481 28.75,10.084 c 0.377,-0.22 0.625,-0.623 0.625,-1.083 0,-0.691 -0.56,-1.25 -1.25,-1.25 -0.23,0 -0.446,0.062 -0.631,0.171 L 27.5,7.919 25.082,9.315 25.14,5.69 c 0,-0.006 0,-0.013 0,-0.02 0,-0.684 -0.549,-1.239 -1.23,-1.25 H 23.909 C 23.225,4.427 22.669,4.969 22.64,5.647 V 5.65 l -0.082,5.124 -5.308,3.065 V 7.712 l 4.4,-2.636 c 0.366,-0.222 0.607,-0.619 0.607,-1.072 0,-0.69 -0.56,-1.25 -1.25,-1.25 -0.237,0 -0.459,0.066 -0.648,0.181 L 20.365,2.932 17.25,4.798 V 2.004 c 0,-0.69 -0.56,-1.25 -1.25,-1.25 -0.69,0 -1.25,0.56 -1.25,1.25 v 0 2.792 L 11.644,2.93 C 11.461,2.819 11.24,2.754 11.004,2.754 c -0.69,0 -1.25,0.56 -1.25,1.25 0,0.451 0.239,0.846 0.597,1.066 l 0.005,0.003 4.394,2.639 V 13.84 L 9.444,10.776 9.361,5.65 C 9.333,4.968 8.776,4.426 8.091,4.421 H 8.09 c -0.682,0.012 -1.23,0.567 -1.23,1.25 0,0.007 0,0.014 0,0.021 V 5.691 L 6.919,9.319 4.501,7.923 C 4.322,7.818 4.106,7.756 3.876,7.756 c -0.691,0 -1.25,0.56 -1.25,1.25 0,0.46 0.249,0.863 0.619,1.08 l 0.006,0.003 2.418,1.396 -3.172,1.758 c -0.388,0.217 -0.646,0.626 -0.646,1.095 0,0.69 0.56,1.25 1.25,1.25 0.224,0 0.434,-0.059 0.616,-0.162 l -0.006,0.003 4.484,-2.486 5.306,3.063 -5.306,3.063 -4.483,-2.493 C 3.537,16.477 3.328,16.419 3.105,16.419 c -0.691,0 -1.25,0.56 -1.25,1.25 0,0.467 0.257,0.875 0.637,1.09 l 0.006,0.003 3.175,1.764 -2.421,1.398 c -0.381,0.219 -0.633,0.623 -0.633,1.087 0,0.69 0.559,1.25 1.25,1.25 0.234,0 0.452,-0.064 0.639,-0.176 L 4.502,24.088 6.92,22.692 6.857,26.316 c 0,0.006 0,0.014 0,0.021 0,0.683 0.548,1.238 1.228,1.251 h 10e-4 0.021 c 0,0 0,0 0,0 0.683,0 1.238,-0.547 1.25,-1.227 V 26.36 l 0.089,-5.125 5.305,-3.063 v 6.124 l -4.397,2.642 c -0.366,0.223 -0.607,0.619 -0.607,1.072 0,0.691 0.56,1.251 1.251,1.251 0.238,0 0.46,-0.066 0.649,-0.181 l -0.006,0.003 3.11,-1.869 v 2.792 c 0,0.69 0.56,1.25 1.25,1.25 0.69,0 1.25,-0.56 1.25,-1.25 v 0 -2.792 l 3.111,1.864 c 0.182,0.112 0.403,0.178 0.639,0.178 10e-4,0 10e-4,0 0.002,0 v 0 c 0.001,0 0.001,0 0.002,0 0.69,0 1.25,-0.56 1.25,-1.25 0,-0.453 -0.241,-0.85 -0.602,-1.069 L 21.647,26.934 17.251,24.3 v -6.129 l 5.303,3.062 0.089,5.131 c 0.012,0.681 0.566,1.229 1.249,1.229 0,0 0.001,0 0.001,0 h 0.021 c 0.681,-0.012 1.229,-0.567 1.229,-1.25 0,-0.008 0,-0.015 0,-0.023 v 0.001 l -0.063,-3.63 2.421,1.397 c 0.177,0.102 0.39,0.163 0.616,0.163 0.69,0 1.25,-0.559 1.25,-1.25 0,-0.456 -0.245,-0.856 -0.61,-1.074 l -0.006,-0.003 -2.418,-1.396 3.168,-1.762 c 0.384,-0.218 0.639,-0.625 0.639,-1.09 0,-0.69 -0.56,-1.25 -1.25,-1.25 -0.222,0 -0.43,0.058 -0.61,0.159 l 0.006,-0.003 z"
       id="path1"
       style="display:inline;fill:#4b4b4b;fill-opacity:1" />
  </g>
</svg>
