<?xml version="1.0" encoding="UTF-8" standalone="no"?>
<svg
   viewBox="0 0 100 100"
   version="1.1"
   id="svg36504"
   sodipodi:docname="execute.svg"
   inkscape:version="1.1 (c68e22c387, 2021-05-23)"
   xmlns:inkscape="http://www.inkscape.org/namespaces/inkscape"
   xmlns:sodipodi="http://sodipodi.sourceforge.net/DTD/sodipodi-0.dtd"
   xmlns="http://www.w3.org/2000/svg"
   xmlns:svg="http://www.w3.org/2000/svg">
  <defs
     id="defs36508" />
  <sodipodi:namedview
     id="namedview36506"
     pagecolor="#505050"
     bordercolor="#eeeeee"
     borderopacity="1"
     inkscape:pageshadow="0"
     inkscape:pageopacity="0"
     inkscape:pagecheckerboard="0"
     showgrid="false"
     inkscape:zoom="8.73"
     inkscape:cx="9.908362"
     inkscape:cy="56.185567"
     inkscape:window-width="2031"
     inkscape:window-height="1147"
     inkscape:window-x="287"
     inkscape:window-y="59"
     inkscape:window-maximized="0"
     inkscape:current-layer="svg36504" />
  <path
     d="M35.7 39.3h28.4v7H35.7v-7zm0 14.2h28.4v7H35.7v-7zm0 14.2h28.4v7H35.7v-7zM85.3 4H28.7C21 4 14.6 10.2 14.6 18.1v63.7H.4C.4 89.6 6.6 96 14.6 96h56.7c7.7 0 14.2-6.3 14.2-14.2V25.1h14.2v-7C99.4 10.2 93.2 4 85.3 4zm-7 76.6c0 4.6-3.7 8.3-8.3 8.3H18.1c3.5-2.4 3.5-7 3.5-7V18.1c0-3.9 3.1-7 7-7s7 3.1 7 7v7h42.5v55.4h.2zM42.9 18.1v-7h42.5c6.4 0 7 4.1 7 7H42.9z"
     fill="#bababa"
     stroke="#bababa"
     stroke-width=".75"
     stroke-miterlimit="10"
     id="path36502"
     style="fill:#cc66ff;stroke:#cc66ff;stroke-opacity:1" />
</svg>
