<?xml version="1.0" encoding="UTF-8" standalone="no"?>
<svg
   viewBox="0 0 100 100"
   version="1.1"
   id="svg10065"
   sodipodi:docname="executable.svg"
   inkscape:version="1.1 (c68e22c387, 2021-05-23)"
   xmlns:inkscape="http://www.inkscape.org/namespaces/inkscape"
   xmlns:sodipodi="http://sodipodi.sourceforge.net/DTD/sodipodi-0.dtd"
   xmlns="http://www.w3.org/2000/svg"
   xmlns:svg="http://www.w3.org/2000/svg">
  <defs
     id="defs10069" />
  <sodipodi:namedview
     id="namedview10067"
     pagecolor="#505050"
     bordercolor="#eeeeee"
     borderopacity="1"
     inkscape:pageshadow="0"
     inkscape:pageopacity="0"
     inkscape:pagecheckerboard="0"
     showgrid="false"
     inkscape:zoom="8.73"
     inkscape:cx="50"
     inkscape:cy="50"
     inkscape:window-width="3440"
     inkscape:window-height="1361"
     inkscape:window-x="-9"
     inkscape:window-y="-9"
     inkscape:window-maximized="1"
     inkscape:current-layer="svg10065" />
  <path
     d="M98.2 59.8c-4.3-1.4-6.9-5.3-6.9-9.8s2.9-8.3 6.9-9.8c1.2-.4 2-1.8 1.6-3.1-1.2-4.7-3.1-9-5.5-13.2-.6-1.2-2.2-1.6-3.5-1-1.4.8-3.3 1.2-4.9 1.2-5.7 0-10.2-4.7-10.2-10.2 0-1.6.4-3.5 1.2-4.9.6-1.2.2-2.6-1-3.5C72 3.2 67.5 1.4 62.8.2c-1.2-.4-2.6.4-3.1 1.6-1.4 4.3-5.3 6.9-9.8 6.9s-8.3-2.9-9.8-6.9C39.7.6 38.3-.2 37 .2c-4.7 1.2-9 3.1-13.2 5.5-1.2.6-1.6 2.2-1 3.5.8 1.4 1.2 3.3 1.2 4.9 0 5.7-4.7 10.2-10.2 10.2-1.6 0-3.5-.4-4.9-1.2-1.2-.6-2.6-.2-3.5 1C3 28.2 1.1 32.7-.1 37.3c-.4 1.2.4 2.6 1.6 3.1 4.3 1.4 6.9 5.3 6.9 9.8S5.5 58.5 1.5 60c-1.2.4-2 1.8-1.6 3.1 1.2 4.7 3.1 9 5.5 13.2.6 1.2 2.2 1.6 3.5 1 1.4-.8 3.3-1.2 4.9-1.2 5.7 0 10.2 4.7 10.2 10.2 0 1.6-.4 3.5-1.2 4.9-.6 1.2-.2 2.6 1 3.5 4.1 2.4 8.6 4.3 13.2 5.5h.6c1 0 2-.6 2.4-1.8 1.4-4.3 5.3-6.9 9.8-6.9s8.3 2.9 9.8 6.9c.4 1.2 1.8 2 3.1 1.6 4.7-1.2 9-3.1 13.2-5.5 1.2-.6 1.6-2.2 1-3.5-.8-1.4-1.2-3.3-1.2-4.9 0-5.7 4.7-10.2 10.2-10.2 1.6 0 3.5.4 4.9 1.2 1.2.6 2.6.2 3.5-1 2.4-4.1 4.3-8.6 5.5-13.2.5-1.2-.1-2.7-1.6-3.1zm-48 5.7c-8.6 0-15.5-6.9-15.5-15.5s6.9-15.5 15.5-15.5S65.7 41.4 65.7 50s-7 15.5-15.5 15.5z"
     fill="#abb3d6"
     id="path10063" />
</svg>
