<?xml version="1.0" encoding="UTF-8" standalone="no"?>
<!-- Uploaded to: SVG Repo, www.svgrepo.com, Generator: SVG Repo Mixer Tools -->

<svg
   width="800px"
   height="800px"
   viewBox="0 0 16 16"
   fill="#000000"
   version="1.1"
   id="svg4"
   sodipodi:docname="file_save_as.svg"
   inkscape:version="1.1 (c68e22c387, 2021-05-23)"
   xmlns:inkscape="http://www.inkscape.org/namespaces/inkscape"
   xmlns:sodipodi="http://sodipodi.sourceforge.net/DTD/sodipodi-0.dtd"
   xmlns="http://www.w3.org/2000/svg"
   xmlns:svg="http://www.w3.org/2000/svg">
  <defs
     id="defs8" />
  <sodipodi:namedview
     id="namedview6"
     pagecolor="#505050"
     bordercolor="#eeeeee"
     borderopacity="1"
     inkscape:pageshadow="0"
     inkscape:pageopacity="0"
     inkscape:pagecheckerboard="0"
     showgrid="false"
     inkscape:zoom="1.09125"
     inkscape:cx="400"
     inkscape:cy="400"
     inkscape:window-width="3440"
     inkscape:window-height="1361"
     inkscape:window-x="-9"
     inkscape:window-y="-9"
     inkscape:window-maximized="1"
     inkscape:current-layer="svg4" />
  <path
     fill-rule="evenodd"
     clip-rule="evenodd"
     d="M11.04 1.33L12.71 3l.29.71v.33h-.5l-.5.5v-.83l-1.67-1.67H10v4H4v-4H2v10h3l-.5 1H2l-1-1v-10l1-1h8.33l.71.29zM7 5h2V2H7v3zm6.5 0L15 6.5l-.02.69-5.5 5.5-.13.12-.37.37-.1.09-3 1.5-.67-.67 1.5-3 .09-.1.37-.37.12-.13 5.5-5.5h.71zm-6.22 7.24l-.52 1 1.04-.48-.52-.52zm.69-1.03l.79.79 5.15-5.15-.79-.79-5.15 5.15z"
     id="path2"
     style="fill:#808080" />
</svg>
