<?xml version="1.0" encoding="UTF-8" standalone="no"?>
<svg
   xmlns:dc="http://purl.org/dc/elements/1.1/"
   xmlns:cc="http://creativecommons.org/ns#"
   xmlns:rdf="http://www.w3.org/1999/02/22-rdf-syntax-ns#"
   xmlns:svg="http://www.w3.org/2000/svg"
   xmlns="http://www.w3.org/2000/svg"
   xmlns:sodipodi="http://sodipodi.sourceforge.net/DTD/sodipodi-0.dtd"
   xmlns:inkscape="http://www.inkscape.org/namespaces/inkscape"
   enable-background="new 0 0 32 32"
   height="32px"
   id="Слой_1"
   version="1.1"
   viewBox="0 0 32 32"
   width="32px"
   xml:space="preserve"
   sodipodi:docname="file_close.svg"
   inkscape:version="0.92.1 r15371"><metadata
     id="metadata20"><rdf:RDF><cc:Work
         rdf:about=""><dc:format>image/svg+xml</dc:format><dc:type
           rdf:resource="http://purl.org/dc/dcmitype/StillImage" /><dc:title></dc:title></cc:Work></rdf:RDF></metadata><defs
     id="defs18" /><sodipodi:namedview
     pagecolor="#ffffff"
     bordercolor="#666666"
     borderopacity="1"
     objecttolerance="10"
     gridtolerance="10"
     guidetolerance="10"
     inkscape:pageopacity="0"
     inkscape:pageshadow="2"
     inkscape:window-width="2111"
     inkscape:window-height="1008"
     id="namedview16"
     showgrid="false"
     inkscape:zoom="7.375"
     inkscape:cx="8.1355932"
     inkscape:cy="6.0338987"
     inkscape:window-x="2065"
     inkscape:window-y="176"
     inkscape:window-maximized="0"
     inkscape:current-layer="Слой_1" /><path
     d="m 17.746695,16.01678 9.86362,-9.8207704 c 0.472889,-0.4686255 0.472889,-1.2272962 0,-1.6947236 -0.471691,-0.468626 -1.237891,-0.468626 -1.709582,0 l -9.855241,9.81238 -9.9462255,-9.9586009 c -0.4716914,-0.4734201 -1.2378909,-0.4734201 -1.7095825,0 -0.4716915,0.4746186 -0.4716915,1.2428774 0,1.7162972 l 9.939043,9.9514097 -9.9749586,9.931034 c -0.4716915,0.468626 -0.4716915,1.227297 0,1.694725 0.4716916,0.468625 1.237891,0.468625 1.7095826,0 l 9.966578,-9.922646 9.90672,9.919049 c 0.47169,0.473421 1.237891,0.473421 1.709581,0 0.471693,-0.474618 0.471693,-1.242877 0,-1.716298 z"
     id="Close"
     inkscape:connector-curvature="0"
     style="fill:#dd4814;fill-opacity:1;stroke-width:1.19785893" /><g
     id="g3" /><g
     id="g5" /><g
     id="g7" /><g
     id="g9" /><g
     id="g11" /><g
     id="g13" /></svg>