<?xml version="1.0" encoding="UTF-8" standalone="no"?>
<!-- Uploaded to: SVG Repo, www.svgrepo.com, Generator: SVG Repo Mixer Tools -->

<svg
   width="800px"
   height="800px"
   viewBox="0 0 512 512"
   version="1.1"
   id="svg7"
   sodipodi:docname="folder-yellow-symlink.svg"
   inkscape:version="1.1 (c68e22c387, 2021-05-23)"
   xmlns:inkscape="http://www.inkscape.org/namespaces/inkscape"
   xmlns:sodipodi="http://sodipodi.sourceforge.net/DTD/sodipodi-0.dtd"
   xmlns="http://www.w3.org/2000/svg"
   xmlns:svg="http://www.w3.org/2000/svg"
   xmlns:rdf="http://www.w3.org/1999/02/22-rdf-syntax-ns#"
   xmlns:cc="http://creativecommons.org/ns#"
   xmlns:dc="http://purl.org/dc/elements/1.1/">
  <defs
     id="defs11" />
  <sodipodi:namedview
     id="namedview9"
     pagecolor="#505050"
     bordercolor="#eeeeee"
     borderopacity="1"
     inkscape:pageshadow="0"
     inkscape:pageopacity="0"
     inkscape:pagecheckerboard="0"
     showgrid="false"
     inkscape:zoom="0.97375"
     inkscape:cx="399.48652"
     inkscape:cy="399.48652"
     inkscape:window-width="3840"
     inkscape:window-height="2080"
     inkscape:window-x="-11"
     inkscape:window-y="-11"
     inkscape:window-maximized="1"
     inkscape:current-layer="svg7" />
  <title
     id="title2">folder-filled</title>
  <g
     id="Page-1"
     stroke="none"
     stroke-width="1"
     fill="none"
     fill-rule="evenodd"
     style="fill:#ffd700"
     transform="matrix(1.05,0,0,1,-12.800002,2e-6)">
    <g
       id="folder-outline"
       fill="#000000"
       transform="translate(42.666667,85.333333)"
       style="fill:#ffd700">
      <polygon
         id="Shape"
         points="178.08341,1.4210855e-14 232.04181,42.666667 426.66667,42.666667 426.66667,341.33333 3.5527137e-14,341.33333 3.5527137e-14,1.4210855e-14 "
         style="fill:#ffd700" />
    </g>
  </g>
  <path
     fill="#000000"
     d="M 315.0827,250.47953 H 179.27029 a 7.3072451,5.5260717 0 1 0 0,11.05214 H 315.0827 l -53.29902,40.2961 a 7.3164751,5.5330515 0 0 0 10.34705,7.82491 l 65.76518,-49.73463 a 7.3072425,5.5260697 0 0 0 0,-7.82492 l -65.76518,-49.73462 a 7.3164751,5.5330515 0 1 0 -10.34705,7.82491 z"
     id="path2-5"
     style="fill:#ffffff;stroke:#ffffff;stroke-width:12.1805;stroke-miterlimit:4;stroke-dasharray:none;stroke-opacity:1" />
  <metadata
     id="metadata828">
    <rdf:RDF>
      <cc:Work
         rdf:about="">
        <dc:title>folder-filled</dc:title>
      </cc:Work>
    </rdf:RDF>
  </metadata>
</svg>
