<?xml version="1.0" encoding="UTF-8" standalone="no"?>
<svg
   version="1.1"
   width="256"
   height="256"
   viewBox="0 0 256 256"
   xml:space="preserve"
   id="svg10"
   sodipodi:docname="folder-yellow-opened-symlink.svg"
   inkscape:version="1.1 (c68e22c387, 2021-05-23)"
   xmlns:inkscape="http://www.inkscape.org/namespaces/inkscape"
   xmlns:sodipodi="http://sodipodi.sourceforge.net/DTD/sodipodi-0.dtd"
   xmlns="http://www.w3.org/2000/svg"
   xmlns:svg="http://www.w3.org/2000/svg"><sodipodi:namedview
   id="namedview12"
   pagecolor="#505050"
   bordercolor="#eeeeee"
   borderopacity="1"
   inkscape:pageshadow="0"
   inkscape:pageopacity="0"
   inkscape:pagecheckerboard="0"
   showgrid="false"
   inkscape:zoom="3.0429688"
   inkscape:cx="12.980744"
   inkscape:cy="128.16431"
   inkscape:window-width="2529"
   inkscape:window-height="1242"
   inkscape:window-x="362"
   inkscape:window-y="378"
   inkscape:window-maximized="0"
   inkscape:current-layer="svg10" />

<defs
   id="defs2">
</defs>
<g
   style="stroke: none; stroke-width: 0; stroke-dasharray: none; stroke-linecap: butt; stroke-linejoin: miter; stroke-miterlimit: 10; fill: none; fill-rule: nonzero; opacity: 1;"
   transform="translate(1.4065934065934016 1.4065934065934016) scale(2.81 2.81)"
   id="g8">
	<path
   d="M 73.538 35.162 l -52.548 1.952 c -1.739 0 -2.753 0.651 -3.232 2.323 L 6.85 76.754 c -0.451 1.586 -2.613 2.328 -4.117 2.328 h 0 C 1.23 79.082 0 77.852 0 76.349 l 0 -10.458 V 23.046 v -2.047 v -6.273 c 0 -2.103 1.705 -3.808 3.808 -3.808 h 27.056 c 1.01 0 1.978 0.401 2.692 1.115 l 7.85 7.85 c 0.714 0.714 1.683 1.115 2.692 1.115 H 69.73 c 2.103 0 3.808 1.705 3.808 3.808 v 1.301 C 73.538 26.106 73.538 35.162 73.538 35.162 z"
   style="stroke: none; stroke-width: 1; stroke-dasharray: none; stroke-linecap: butt; stroke-linejoin: miter; stroke-miterlimit: 10; fill: rgb(224,173,49); fill-rule: nonzero; opacity: 1;"
   transform=" matrix(1 0 0 1 0 0) "
   stroke-linecap="round"
   id="path4" />
	<path
   d="M 2.733 79.082 L 2.733 79.082 c 1.503 0 2.282 -1.147 2.733 -2.733 l 10.996 -38.362 c 0.479 -1.672 2.008 -2.824 3.748 -2.824 h 67.379 c 1.609 0 2.765 1.546 2.311 3.09 L 79.004 75.279 c -0.492 1.751 -1.571 3.818 -3.803 3.803 C 75.201 79.082 2.733 79.082 2.733 79.082 z"
   style="stroke: none; stroke-width: 1; stroke-dasharray: none; stroke-linecap: butt; stroke-linejoin: miter; stroke-miterlimit: 10; fill: rgb(255,200,67); fill-rule: nonzero; opacity: 1;"
   transform=" matrix(1 0 0 1 0 0) "
   stroke-linecap="round"
   id="path6" />
</g>
<path
   fill="#000000"
   d="M 171.26222,158.69658 H 78.677504 a 4.9814235,3.8134155 0 1 0 0,7.62683 h 92.584716 l -36.33449,27.80741 a 4.9877158,3.8182321 0 0 0 7.05369,5.39979 l 44.8328,-34.32072 a 4.9814218,3.8134141 0 0 0 0,-5.3998 l -44.8328,-34.32072 a 4.9877158,3.8182321 0 1 0 -7.05369,5.39979 z"
   id="path2-5"
   style="fill:#ffffff;stroke:#ffffff;stroke-width:8.35436;stroke-miterlimit:4;stroke-dasharray:none;stroke-opacity:1" /></svg>
