<?xml version="1.0" encoding="UTF-8" standalone="no"?>
<!-- Uploaded to: SVG Repo, www.svgrepo.com, Generator: SVG Repo Mixer Tools -->

<svg
   fill="#000000"
   width="800px"
   height="800px"
   viewBox="0 0 512 512"
   version="1.1"
   id="svg4"
   sodipodi:docname="folder-yellow-opened-symlink.svg"
   inkscape:version="1.1 (c68e22c387, 2021-05-23)"
   xmlns:inkscape="http://www.inkscape.org/namespaces/inkscape"
   xmlns:sodipodi="http://sodipodi.sourceforge.net/DTD/sodipodi-0.dtd"
   xmlns="http://www.w3.org/2000/svg"
   xmlns:svg="http://www.w3.org/2000/svg">
  <defs
     id="defs8" />
  <sodipodi:namedview
     id="namedview6"
     pagecolor="#505050"
     bordercolor="#eeeeee"
     borderopacity="1"
     inkscape:pageshadow="0"
     inkscape:pageopacity="0"
     inkscape:pagecheckerboard="0"
     showgrid="false"
     inkscape:zoom="0.97375"
     inkscape:cx="399.48652"
     inkscape:cy="399.48652"
     inkscape:window-width="3840"
     inkscape:window-height="2080"
     inkscape:window-x="-11"
     inkscape:window-y="-11"
     inkscape:window-maximized="1"
     inkscape:current-layer="svg4" />
  <path
     fill-rule="evenodd"
     d="M 213.72468,85.333335 270.7256,128 h 160.5268 v 63.95933 L 103.75576,191.95989 27.012389,426.66633 25.6,426.66666 V 85.333335 Z m -76.7315,149.287745 349.40682,0.004 -61.57403,192.04133 -350.632193,-3.3e-4 z"
     id="path2"
     style="fill:#ffd700;stroke-width:1.02781" />
  <path
     fill="#000000"
     d="M 326.58175,327.70184 H 190.76934 a 7.3072451,5.5260717 0 1 0 0,11.05214 h 135.81241 l -53.29902,40.2961 a 7.3164751,5.5330515 0 0 0 10.34705,7.82491 l 65.76518,-49.73463 a 7.3072425,5.5260697 0 0 0 0,-7.82492 l -65.76518,-49.73462 a 7.3164751,5.5330515 0 1 0 -10.34705,7.82491 z"
     id="path2-5"
     style="fill:#ffffff;stroke:#ffffff;stroke-width:12.1805;stroke-miterlimit:4;stroke-dasharray:none;stroke-opacity:1" />
</svg>
