<?xml version="1.0" encoding="UTF-8" standalone="no"?>
<!-- Uploaded to: SVG Repo, www.svgrepo.com, Generator: SVG Repo Mixer Tools -->

<svg
   width="800px"
   height="800px"
   viewBox="0 0 24 24"
   fill="#000000"
   version="1.1"
   id="svg4"
   sodipodi:docname="git.svg"
   inkscape:version="1.1 (c68e22c387, 2021-05-23)"
   xmlns:inkscape="http://www.inkscape.org/namespaces/inkscape"
   xmlns:sodipodi="http://sodipodi.sourceforge.net/DTD/sodipodi-0.dtd"
   xmlns="http://www.w3.org/2000/svg"
   xmlns:svg="http://www.w3.org/2000/svg">
  <defs
     id="defs8" />
  <sodipodi:namedview
     id="namedview6"
     pagecolor="#505050"
     bordercolor="#eeeeee"
     borderopacity="1"
     inkscape:pageshadow="0"
     inkscape:pageopacity="0"
     inkscape:pagecheckerboard="0"
     showgrid="false"
     inkscape:zoom="1.09125"
     inkscape:cx="400"
     inkscape:cy="400"
     inkscape:window-width="3440"
     inkscape:window-height="1361"
     inkscape:window-x="-9"
     inkscape:window-y="-9"
     inkscape:window-maximized="1"
     inkscape:current-layer="svg4" />
  <path
     d="M21.007 8.222A3.738 3.738 0 0 0 15.045 5.2a3.737 3.737 0 0 0 1.156 6.583 2.988 2.988 0 0 1-2.668 1.67h-2.99a4.456 4.456 0 0 0-2.989 1.165V7.4a3.737 3.737 0 1 0-1.494 0v9.117a3.776 3.776 0 1 0 1.816.099 2.99 2.99 0 0 1 2.668-1.667h2.99a4.484 4.484 0 0 0 4.223-3.039 3.736 3.736 0 0 0 3.25-3.687zM4.565 3.738a2.242 2.242 0 1 1 4.484 0 2.242 2.242 0 0 1-4.484 0zm4.484 16.441a2.242 2.242 0 1 1-4.484 0 2.242 2.242 0 0 1 4.484 0zm8.221-9.715a2.242 2.242 0 1 1 0-4.485 2.242 2.242 0 0 1 0 4.485z"
     id="path2"
     style="fill:#808080" />
</svg>
