<?xml version="1.0" encoding="UTF-8" standalone="no"?>
<!-- Created with Inkscape (http://www.inkscape.org/) -->

<svg
   xmlns:dc="http://purl.org/dc/elements/1.1/"
   xmlns:cc="http://creativecommons.org/ns#"
   xmlns:rdf="http://www.w3.org/1999/02/22-rdf-syntax-ns#"
   xmlns:svg="http://www.w3.org/2000/svg"
   xmlns="http://www.w3.org/2000/svg"
   xmlns:sodipodi="http://sodipodi.sourceforge.net/DTD/sodipodi-0.dtd"
   xmlns:inkscape="http://www.inkscape.org/namespaces/inkscape"
   width="32"
   height="32"
   viewBox="0 0 8.4666659 8.4666669"
   version="1.1"
   id="svg8"
   inkscape:version="0.92.4 (5da689c313, 2019-01-14)"
   sodipodi:docname="intersection.svg">
  <defs
     id="defs2" />
  <sodipodi:namedview
     id="base"
     pagecolor="#ffffff"
     bordercolor="#666666"
     borderopacity="1.0"
     inkscape:pageopacity="0.0"
     inkscape:pageshadow="2"
     inkscape:zoom="16"
     inkscape:cx="17.96875"
     inkscape:cy="3.2869924"
     inkscape:document-units="px"
     inkscape:current-layer="layer1"
     showgrid="false"
     units="px"
     showborder="false"
     inkscape:window-width="2560"
     inkscape:window-height="1369"
     inkscape:window-x="-11"
     inkscape:window-y="-11"
     inkscape:window-maximized="1" />
  <metadata
     id="metadata5">
    <rdf:RDF>
      <cc:Work
         rdf:about="">
        <dc:format>image/svg+xml</dc:format>
        <dc:type
           rdf:resource="http://purl.org/dc/dcmitype/StillImage" />
        <dc:title />
      </cc:Work>
    </rdf:RDF>
  </metadata>
  <g
     inkscape:label="Layer 1"
     inkscape:groupmode="layer"
     id="layer1"
     transform="translate(0,-288.53332)">
    <path
       style="opacity:1;fill:#445016;fill-opacity:1;fill-rule:evenodd;stroke:#445016;stroke-width:2.00000024;stroke-linecap:butt;stroke-linejoin:miter;stroke-miterlimit:20;stroke-dasharray:none;stroke-opacity:1"
       d="M 11.169922 9 C 9.9676859 9 9 9.9676542 9 11.169922 L 9 23 L 20.830078 23 C 22.032314 23 23 22.032384 23 20.830078 L 23 9 L 11.169922 9 z "
       transform="matrix(0.26458333,0,0,0.26458333,0,288.53332)"
       id="path831" />
    <path
       inkscape:connector-curvature="0"
       style="opacity:1;fill:none;fill-opacity:1;fill-rule:evenodd;stroke:#445016;stroke-width:0.52916665;stroke-linecap:butt;stroke-linejoin:miter;stroke-miterlimit:20;stroke-dasharray:none;stroke-opacity:1"
       d="m 2.9554213,290.91457 h 4.6724895 c 0.3180917,0 0.5741725,0.25607 0.5741725,0.57417 v 4.67249 c 0,0.3181 -0.2560808,0.57417 -0.5741725,0.57417 H 2.9554213 c -0.3180916,0 -0.5741713,-0.25607 -0.5741713,-0.57417 v -4.67249 c 0,-0.3181 0.2560797,-0.57417 0.5741713,-0.57417 z"
       id="path836" />
    <path
       id="path848"
       d="M 0.83875465,288.7979 H 5.5112441 c 0.3180917,0 0.5741725,0.25607 0.5741725,0.57417 v 4.67249 c 0,0.3181 -0.2560808,0.57417 -0.5741725,0.57417 H 0.83875465 c -0.3180916,0 -0.5741713,-0.25607 -0.5741713,-0.57417 v -4.67249 c 0,-0.3181 0.2560797,-0.57417 0.5741713,-0.57417 z"
       style="opacity:1;fill:none;fill-opacity:1;fill-rule:evenodd;stroke:#445016;stroke-width:0.5291667;stroke-linecap:butt;stroke-linejoin:miter;stroke-miterlimit:20;stroke-dasharray:none;stroke-opacity:1"
       inkscape:connector-curvature="0" />
  </g>
</svg>
