<?xml version="1.0" encoding="UTF-8" standalone="no"?>
<svg
   width="48"
   height="48"
   viewBox="0 0 48 48"
   version="1.1"
   id="svg4"
   sodipodi:docname="json.svg"
   inkscape:version="1.1 (c68e22c387, 2021-05-23)"
   xmlns:inkscape="http://www.inkscape.org/namespaces/inkscape"
   xmlns:sodipodi="http://sodipodi.sourceforge.net/DTD/sodipodi-0.dtd"
   xmlns="http://www.w3.org/2000/svg"
   xmlns:svg="http://www.w3.org/2000/svg">
  <defs
     id="defs8" />
  <sodipodi:namedview
     id="namedview6"
     pagecolor="#505050"
     bordercolor="#eeeeee"
     borderopacity="1"
     inkscape:pageshadow="0"
     inkscape:pageopacity="0"
     inkscape:pagecheckerboard="true"
     showgrid="false"
     inkscape:zoom="18.1875"
     inkscape:cx="23.972509"
     inkscape:cy="23.972509"
     inkscape:window-width="2215"
     inkscape:window-height="1192"
     inkscape:window-x="665"
     inkscape:window-y="53"
     inkscape:window-maximized="0"
     inkscape:current-layer="svg4" />
  <path
     fill="#FBC02D"
     d="M11.2857143,8 L15,8 L15,11.6666667 L11.2857143,11.6666667 L11.2857143,20.8333333 C11.2857143,22.8583774 9.62277193,24.5 7.57142857,24.5 C9.62277193,24.5 11.2857143,26.1416226 11.2857143,28.1666667 L11.2857143,37.3333333 L15,37.3333333 L15,41 L11.2857143,41 C9.29857143,40.505 7.57142857,39.35 7.57142857,37.3333333 L7.57142857,30 C7.57142857,27.9749559 5.90848621,26.3333333 3.85714286,26.3333333 L2,26.3333333 L2,22.6666667 L3.85714286,22.6666667 C5.90848621,22.6666667 7.57142857,21.0250441 7.57142857,19 L7.57142857,11.6666667 C7.57142857,9.64162258 9.23437093,8 11.2857143,8 Z M36.7142857,8 C38.7656291,8 40.4285714,9.64162258 40.4285714,11.6666667 L40.4285714,19 C40.4285714,21.0250441 42.0915138,22.6666667 44.1428571,22.6666667 L46,22.6666667 L46,26.3333333 L44.1428571,26.3333333 C42.0915138,26.3333333 40.4285714,27.9749559 40.4285714,30 L40.4285714,37.3333333 C40.4285714,39.3583774 38.7656291,41 36.7142857,41 L33,41 L33,37.3333333 L36.7142857,37.3333333 L36.7142857,28.1666667 C36.7142857,26.1416226 38.3772281,24.5 40.4285714,24.5 C38.3772281,24.5 36.7142857,22.8583774 36.7142857,20.8333333 L36.7142857,11.6666667 L33,11.6666667 L33,8 L36.7142857,8 Z M22.5,30 C23.3284271,30 24,30.6715729 24,31.5 C24,32.3284271 23.3284271,33 22.5,33 C21.6715729,33 21,32.3284271 21,31.5 C21,30.6715729 21.6715729,30 22.5,30 Z M16.5,30 C17.3284271,30 18,30.6715729 18,31.5 C18,32.3284271 17.3284271,33 16.5,33 C15.6715729,33 15,32.3284271 15,31.5 C15,30.6715729 15.6715729,30 16.5,30 Z M31.5,30 C32.3284271,30 33,30.6715729 33,31.5 C33,32.3284271 32.3284271,33 31.5,33 C30.6715729,33 30,32.3284271 30,31.5 C30,30.6715729 30.6715729,30 31.5,30 Z"
     id="path2"
     style="fill:#241f1c" />
</svg>
