<?xml version="1.0" encoding="UTF-8" standalone="no"?>
<!-- Uploaded to: SVG Repo, www.svgrepo.com, Generator: SVG Repo Mixer Tools -->

<svg
   fill="#000000"
   version="1.1"
   width="800px"
   height="800px"
   viewBox="0 0 512 512"
   enable-background="new 0 0 512 512"
   xml:space="preserve"
   id="svg1"
   sodipodi:docname="mime-csharp.svg"
   inkscape:version="1.4 (86a8ad7, 2024-10-11)"
   xmlns:inkscape="http://www.inkscape.org/namespaces/inkscape"
   xmlns:sodipodi="http://sodipodi.sourceforge.net/DTD/sodipodi-0.dtd"
   xmlns="http://www.w3.org/2000/svg"
   xmlns:svg="http://www.w3.org/2000/svg"><defs
   id="defs1" /><sodipodi:namedview
   id="namedview1"
   pagecolor="#ffffff"
   bordercolor="#000000"
   borderopacity="0.25"
   inkscape:showpageshadow="2"
   inkscape:pageopacity="0.0"
   inkscape:pagecheckerboard="0"
   inkscape:deskcolor="#d1d1d1"
   inkscape:zoom="2.2175"
   inkscape:cx="399.32356"
   inkscape:cy="400"
   inkscape:window-width="3840"
   inkscape:window-height="2036"
   inkscape:window-x="-12"
   inkscape:window-y="-12"
   inkscape:window-maximized="1"
   inkscape:current-layer="svg1" />

<g
   id="5151e0c8492e5103c096af88a51e54a6"
   style="fill:#0088aa">

<path
   display="inline"
   d="M233.274,286.089l89.802,27.145c-6.035,25.188-15.535,46.223-28.5,63.107   c-12.975,16.894-29.071,29.638-48.297,38.233c-19.229,8.596-43.697,12.894-73.412,12.894c-36.038,0-65.482-5.238-88.33-15.711   c-22.852-10.477-42.563-28.896-59.155-55.271C8.794,330.114,0.5,296.354,0.5,255.208c0-54.855,14.594-97.016,43.769-126.479   c29.18-29.461,70.464-44.197,123.855-44.197c41.776,0,74.614,8.451,98.51,25.336c23.91,16.892,41.659,42.834,53.273,77.816   l-90.481,20.131c-3.164-10.098-6.485-17.492-9.95-22.168c-5.733-7.839-12.745-13.871-21.043-18.095   c-8.294-4.22-17.564-6.337-27.82-6.337c-23.23,0-41.024,9.343-53.391,28.021c-9.342,13.861-14.018,35.626-14.018,65.294   c0,36.756,5.576,61.948,16.732,75.584c11.16,13.627,26.848,20.439,47.059,20.439c19.599,0,34.413-5.503,44.449-16.516   C221.474,323.04,228.751,307.046,233.274,286.089z M485.345,239.259l-6.854,34.292H511.5v37.262h-40.452l-9.5,47.522h-38.41   l9.527-47.522h-29.769l-9.595,47.522h-38.14l9.527-47.522h-18.572v-37.262h26.047l6.876-34.292h-32.923v-37.262h40.398   l9.688-48.332h38.409l-9.752,48.332h29.625l9.694-48.332h38.273l-9.657,48.332H511.5v37.262H485.345z M447.017,239.259h-29.68   l-6.921,34.292h29.724L447.017,239.259z"
   id="path1"
   style="fill:#0088aa">

</path>

</g>

</svg>
