<?xml version="1.0" encoding="UTF-8" standalone="no"?>
<svg
   xmlns:dc="http://purl.org/dc/elements/1.1/"
   xmlns:cc="http://creativecommons.org/ns#"
   xmlns:rdf="http://www.w3.org/1999/02/22-rdf-syntax-ns#"
   xmlns:svg="http://www.w3.org/2000/svg"
   xmlns="http://www.w3.org/2000/svg"
   xmlns:sodipodi="http://sodipodi.sourceforge.net/DTD/sodipodi-0.dtd"
   xmlns:inkscape="http://www.inkscape.org/namespaces/inkscape"
   enable-background="new 0 0 128 128"
   height="32"
   id="Layer_1"
   version="1.1"
   viewBox="0 0 32 32"
   width="32"
   xml:space="preserve"
   inkscape:version="0.91 r13725"
   sodipodi:docname="mime-bmp.svg"><metadata
     id="metadata17"><rdf:RDF><cc:Work
         rdf:about=""><dc:format>image/svg+xml</dc:format><dc:type
           rdf:resource="http://purl.org/dc/dcmitype/StillImage" /><dc:title></dc:title></cc:Work></rdf:RDF></metadata><defs
     id="defs15" /><sodipodi:namedview
     pagecolor="#ffffff"
     bordercolor="#666666"
     borderopacity="1"
     objecttolerance="10"
     gridtolerance="10"
     guidetolerance="10"
     inkscape:pageopacity="0"
     inkscape:pageshadow="2"
     inkscape:window-width="2560"
     inkscape:window-height="1385"
     id="namedview13"
     showgrid="false"
     inkscape:zoom="1.84375"
     inkscape:cx="64"
     inkscape:cy="59.389831"
     inkscape:window-x="-8"
     inkscape:window-y="-8"
     inkscape:window-maximized="1"
     inkscape:current-layer="Layer_1" /><g
     id="g4147"
     transform="matrix(0.25,0,0,0.25,0,24)"><g
       transform="translate(0,-96)"
       id="g5"><path
         d="M 120,16 8,16 c -4.418,0 -8,3.582 -8,8 l 0,80 c 0,4.418 3.582,8 8,8 l 112,0 c 4.418,0 8,-3.582 8,-8 l 0,-80 c 0,-4.418 -3.582,-8 -8,-8 z m 0,88 -112,0 0,-80 112,0 0,80 z"
         id="path7"
         inkscape:connector-curvature="0"
         style="fill:#546e7a" /></g><path
       style="fill:#ffa000"
       inkscape:connector-curvature="0"
       id="path9"
       d="m 32,-56 c 4.422,0 8,3.578 8,8 0,4.422 -3.578,8 -8,8 -4.422,0 -8,-3.578 -8,-8 0,-4.422 3.578,-8 8,-8 m 0,-8 c -8.824,0 -16,7.176 -16,16 0,8.824 7.176,16 16,16 8.824,0 16,-7.176 16,-16 0,-8.824 -7.176,-16 -16,-16 l 0,0 z" /><path
       style="fill:#b0bec5"
       inkscape:connector-curvature="0"
       id="path11"
       d="m 28,0 c -1.023,0 -2.047,-0.391 -2.828,-1.172 -1.563,-1.563 -1.563,-4.094 0,-5.656 l 24,-24 c 1.227,-1.219 3.086,-1.52 4.617,-0.75 l 13.016,6.508 21.996,-29.328 c 0.773,-1.039 2.055,-1.645 3.309,-1.602 1.301,0.039 2.5,0.699 3.219,1.781 l 16,24 c 1.227,1.84 0.73,4.32 -1.109,5.547 -1.844,1.215 -4.328,0.727 -5.547,-1.109 l -12.864,-19.297 -20.61,27.476 c -1.156,1.551 -3.258,2.047 -4.988,1.18 L 52.789,-23.133 30.828,-1.172 C 30.047,-0.391 29.023,0 28,0 Z" /></g></svg>