<?xml version="1.0" encoding="UTF-8" standalone="no"?>
<!-- Uploaded to: SVG Repo, www.svgrepo.com, Generator: SVG Repo Mixer Tools -->

<svg
   width="800px"
   height="800px"
   viewBox="0 0 16 16"
   fill="none"
   version="1.1"
   id="svg4"
   sodipodi:docname="mime-java.svg"
   inkscape:version="1.1 (c68e22c387, 2021-05-23)"
   xmlns:inkscape="http://www.inkscape.org/namespaces/inkscape"
   xmlns:sodipodi="http://sodipodi.sourceforge.net/DTD/sodipodi-0.dtd"
   xmlns="http://www.w3.org/2000/svg"
   xmlns:svg="http://www.w3.org/2000/svg">
  <defs
     id="defs8" />
  <sodipodi:namedview
     id="namedview6"
     pagecolor="#ffffff"
     bordercolor="#eeeeee"
     borderopacity="1"
     inkscape:pageshadow="0"
     inkscape:pageopacity="0"
     inkscape:pagecheckerboard="0"
     showgrid="false"
     inkscape:zoom="0.97375"
     inkscape:cx="399.48652"
     inkscape:cy="399.48652"
     inkscape:window-width="3840"
     inkscape:window-height="2080"
     inkscape:window-x="-11"
     inkscape:window-y="-11"
     inkscape:window-maximized="1"
     inkscape:current-layer="svg4" />
  <path
     fill-rule="nonzero"
     clip-rule="nonzero"
     d="M 4.6322332,0.99113263 C 4.8849262,0.68790576 5.3355812,0.64693678 5.638809,0.89962599 6.3610779,1.5015123 6.6415874,2.212085 6.4866127,2.9131925 6.3546602,3.5101165 5.9388469,3.9357557 5.6147141,4.1621417 5.4121761,4.3357715 5.3277394,4.4720531 5.2928502,4.5569075 5.2595464,4.6378885 5.2602679,4.6972809 5.2716413,4.7487366 5.301385,4.8832334 5.4299768,5.0436385 5.5777457,5.1421543 5.9061697,5.3610973 5.9949166,5.8048314 5.7759641,6.133246 5.557021,6.46167 5.1132869,6.5504168 4.7848629,6.3314738 4.4561731,6.1123409 4.0129991,5.6771701 3.8759674,5.0572809 3.7209643,4.3561734 4.0014737,3.6455912 4.7237426,3.043702 L 4.7530686,3.019256 4.7848346,2.998085 C 4.9326034,2.8995691 5.0611857,2.7391735 5.0909198,2.6046767 5.1022932,2.5532305 5.1030148,2.4938286 5.069711,2.4128476 5.0334641,2.3246989 4.9437584,2.1810502 4.7237426,1.9977084 4.4205148,1.7450154 4.3795496,1.2943604 4.6322332,0.99113263 Z M 9.0655681,2.8969773 C 9.3182611,3.2002051 9.277296,3.6508601 8.9740681,3.9035532 8.7540523,4.0868949 8.6643467,4.2305341 8.6280903,4.3186829 8.5947865,4.3996734 8.5955176,4.4590658 8.606891,4.510512 8.6366156,4.6450183 8.7652074,4.8054138 8.9129669,4.9039201 9.2413909,5.1228726 9.3301377,5.5665973 9.1111852,5.8950213 8.8922422,6.2234453 8.4485081,6.3121826 8.1200936,6.0932396 7.7913942,5.8741067 7.3482297,5.4389264 7.2111981,4.8190372 7.0562139,4.1179297 7.3367329,3.407357 8.0589923,2.8054678 8.3622201,2.5527748 8.8128846,2.5937495 9.0655681,2.8969773 Z M 0.60238774,7.4693186 C 0.68192666,7.1511572 0.96779055,6.9279611 1.2957389,6.9279611 H 12.268543 c 0.328006,0 0.613861,0.2231961 0.693418,0.5413575 0.103291,0.4134303 0.129588,0.9408986 0.07358,1.531253 h 1.749778 c 0.394747,0 0.714683,0.3199746 0.714683,0.7146835 0,0.7014199 -0.04263,1.8375279 -0.756645,2.7893629 -0.703101,0.937215 -1.92712,1.539778 -3.885474,1.60424 -0.255855,0.320886 -0.537627,0.63807 -0.847406,0.947848 -0.1340315,0.134051 -0.3158163,0.209336 -0.5053669,0.209336 H 4.0592142 c -0.1895506,0 -0.3713354,-0.07529 -0.505367,-0.209336 C 2.1783663,13.681169 1.3543614,12.161232 0.915451,10.811327 0.48407867,9.4846823 0.4051981,8.2580717 0.60238774,7.4693186 Z M 9.2030839,13.836675 C 9.4708814,13.552814 9.7122674,13.263637 9.9293025,12.972656 10.814872,11.785188 11.294587,10.567909 11.504113,9.5685779 11.604271,9.0909513 11.639303,8.6804261 11.634556,8.357347 H 1.9297841 c -0.00727,0.499462 0.080611,1.1989081 0.3449999,2.01205 0.3531646,1.086076 1.0051329,2.321107 2.0864524,3.467278 z m 2.6831491,-1.269494 c 0.952595,-0.185316 1.443702,-0.560506 1.713702,-0.920316 0.266013,-0.354589 0.385158,-0.777437 0.435855,-1.216899 h -1.271677 c -0.18845,0.67481 -0.47364,1.401171 -0.87788,2.137215 z"
     fill="#000000"
     id="path2"
     style="fill:#3465a4;stroke-width:0.949367" />
</svg>
