<?xml version="1.0" encoding="UTF-8" standalone="no"?>
<svg
   id="Layer_1"
   viewBox="0 0 100 100"
   version="1.1"
   sodipodi:docname="phar.svg"
   inkscape:version="1.1 (c68e22c387, 2021-05-23)"
   xmlns:inkscape="http://www.inkscape.org/namespaces/inkscape"
   xmlns:sodipodi="http://sodipodi.sourceforge.net/DTD/sodipodi-0.dtd"
   xmlns="http://www.w3.org/2000/svg"
   xmlns:svg="http://www.w3.org/2000/svg">
  <defs
     id="defs15" />
  <sodipodi:namedview
     id="namedview13"
     pagecolor="#505050"
     bordercolor="#eeeeee"
     borderopacity="1"
     inkscape:pageshadow="0"
     inkscape:pageopacity="0"
     inkscape:pagecheckerboard="0"
     showgrid="false"
     inkscape:zoom="8.73"
     inkscape:cx="50"
     inkscape:cy="54.810997"
     inkscape:window-width="3440"
     inkscape:window-height="1361"
     inkscape:window-x="-9"
     inkscape:window-y="-9"
     inkscape:window-maximized="1"
     inkscape:current-layer="Layer_1" />
  <style
     id="style2">.st2{fill:#6781b2}</style>
  <path
     d="m 11.011948,56.038911 c 1.059457,0.317837 1.907024,0.529729 2.542699,0.317837 0.529729,-0.211891 1.271349,-0.74162 1.801078,-1.589187 0.529729,-0.847566 0.741621,-1.377295 0.529729,-1.801078 C 15.567617,52.5427 15.037888,52.118916 13.97843,51.801079 l -1.589187,-0.74162 -2.860537,4.449723 c 0,0.211891 1.483242,0.529729 1.483242,0.529729 z M 3.2779046,59.958905 3.066013,59.747014 v -0.211892 l 7.31026,-11.971875 c 0,-0.211891 0.211891,-0.211891 0.317837,-0.211891 l 5.29729,1.907024 c 1.589187,0.741621 2.648645,1.589187 3.178374,2.860536 0.529729,1.27135 0.211891,2.648645 -0.741621,4.131886 -0.317837,0.529729 -0.847566,1.059458 -1.271349,1.589187 -0.529729,0.317838 -1.059458,0.741621 -1.801079,1.059458 -0.74162,0.317838 -1.589187,0.529729 -2.330807,0.317838 -0.741621,-0.211892 -1.801079,-0.211892 -2.860537,-0.741621 L 8.045465,57.628098 6.138441,60.700526 c 0,0.211891 -0.2118915,0.211891 -0.3178373,0.211891 0.2118915,0.105946 -2.5426991,-0.953512 -2.5426991,-0.953512 z M 24.573009,64.302683 24.361118,64.090791 V 63.8789 l 3.178373,-5.29729 c 0.317838,-0.529729 0.317838,-0.847566 0.317838,-1.059458 0,-0.211892 -0.211892,-0.317837 -1.059458,-0.741621 l -1.801079,-0.847566 -4.131886,6.568639 c 0,0.211892 -0.211891,0.211892 -0.317837,0.211892 L 17.898424,61.654038 17.686533,61.442146 V 61.230255 L 24.996792,49.25838 c 0,-0.211892 0.211892,-0.211892 0.317838,-0.211892 l 2.648645,1.059458 0.211891,0.211892 v 0.211892 l -1.801078,2.860536 2.118916,0.741621 c 1.589186,0.529729 2.542699,1.271349 3.072428,2.118915 0.317837,0.847567 0.317837,1.907025 -0.529729,3.178374 l -3.28432,5.509182 c 0,0.211891 -0.211892,0.211891 -0.317837,0.211891 -0.105946,0 -2.860537,-0.847566 -2.860537,-0.847566 z m 11.3362,1.377295 c 1.059458,0.317837 1.907024,0.529729 2.648645,0.317837 0.74162,-0.211891 1.271349,-0.74162 1.801078,-1.589186 0.529729,-0.847567 0.741621,-1.377296 0.529729,-1.801079 -0.211891,-0.317837 -0.74162,-0.847566 -1.801078,-1.271349 L 37.498396,60.59458 34.63786,65.044303 Z M 28.06922,69.599972 27.857329,69.388081 V 69.176189 L 35.37948,57.204315 c 0,-0.211892 0.211892,-0.211892 0.317838,-0.211892 l 5.509181,2.118916 c 1.801078,0.74162 2.860536,1.589187 3.178374,2.860536 0.529729,1.27135 0.211891,2.648645 -0.741621,4.131886 -0.317837,0.529729 -0.847566,1.059458 -1.271349,1.589187 -0.529729,0.317838 -1.059458,0.741621 -1.801079,1.059458 -0.741621,0.317837 -1.589187,0.317837 -2.542699,0.317837 -0.741621,0 -1.801079,-0.317837 -2.860536,-0.74162 l -2.118916,-0.847566 -1.907025,3.072428 c 0,0.211891 -0.211891,0.211891 -0.317837,0.211891 z"
     fill="#ffffff"
     id="path4"
     style="stroke-width:1.05946" />
  <path
     fill="#eaeaea"
     d="M 50,2.536285 100.00642,22.56004 V 77.545907 L 50,97.463715 -0.006415,77.545907 V 22.56004"
     id="path6"
     style="stroke-width:1.05946" />
  <path
     class="st2"
     d="M 98.099395,21.712474 50,2.536285 30.929757,10.164382 79.029147,29.446517 Z M 11.011948,55.721073 c 1.059457,0.317838 1.907024,0.529729 2.542699,0.317838 0.529729,-0.211892 1.271349,-0.741621 1.801078,-1.589187 0.529729,-0.847566 0.741621,-1.377295 0.529729,-1.801079 -0.211892,-0.529729 -0.74162,-0.847566 -1.801078,-1.271349 l -1.589187,-0.741621 -2.860537,4.449724 c -0.105946,0.317837 1.377296,0.635674 1.377296,0.635674 z m 27.545906,10.064851 c 0.74162,-0.211892 1.271349,-0.741621 1.801078,-1.589187 0.529729,-0.847566 0.741621,-1.377295 0.529729,-1.801079 -0.211891,-0.317837 -0.74162,-0.847566 -1.801078,-1.271349 l -1.589187,-0.741621 -2.860536,4.449724 1.271349,0.529729 c 1.059458,0.423783 2.01297,0.529729 2.648645,0.423783 z"
     id="path8"
     style="stroke-width:1.05946;fill:#1d88e5" />
  <path
     class="st2"
     d="m -0.006415,77.545907 48.629119,19.38808 V 43.431361 L -0.006415,24.043281 Z m 35.703733,-20.765376 5.509181,2.118916 c 1.801078,0.741621 2.860536,1.589187 3.178374,2.860537 0.529729,1.271349 0.211891,2.648645 -0.741621,4.131886 -0.317837,0.529729 -0.847566,1.059458 -1.271349,1.589187 -0.529729,0.317837 -1.059458,0.74162 -1.801079,1.059458 -0.741621,0.317837 -1.589187,0.317837 -2.542699,0.317837 -0.741621,0 -1.801079,-0.317837 -2.860536,-0.741621 l -2.118916,-0.847566 -1.907025,3.072428 c 0,0.211892 -0.211891,0.211892 -0.317837,0.211892 l -2.860536,-1.27135 -0.105946,-0.211892 V 68.858352 L 35.37948,56.886477 c 0,-0.105946 0.211892,-0.105946 0.317838,-0.105946 z m -10.276742,-7.945934 2.648644,1.059458 0.211892,0.211891 v 0.211892 l -1.801079,2.860536 2.118916,0.741621 c 1.589187,0.529729 2.542699,1.27135 3.072428,2.118916 0.317838,0.847566 0.317838,1.907024 -0.529729,3.178374 l -3.390265,5.403235 c 0,0.211892 -0.211892,0.211892 -0.317837,0.211892 l -2.860537,-0.847567 -0.211891,-0.211891 v -0.211892 l 3.178373,-5.297289 c 0.317838,-0.529729 0.317838,-0.847567 0.317838,-1.059458 0,-0.211892 -0.211892,-0.317838 -1.059458,-0.741621 l -1.801079,-0.847566 -4.131886,6.568639 c 0,0.211891 -0.211891,0.211891 -0.317837,0.211891 l -2.648645,-1.059457 -0.211891,-0.211892 v -0.211892 l 7.416205,-11.971874 c 0,-0.105946 0.105946,-0.105946 0.317838,-0.105946 z M 3.1719588,59.32323 10.482219,47.351356 c 0,-0.211892 0.211891,-0.211892 0.317837,-0.211892 l 5.29729,1.907024 c 1.589187,0.741621 2.648644,1.589187 3.178373,2.860537 0.529729,1.271349 0.211892,2.648645 -0.74162,4.131886 -0.317837,0.529729 -0.847566,1.059458 -1.27135,1.589187 -0.529729,0.317837 -1.059458,0.74162 -1.801078,1.059458 -0.741621,0.317837 -1.589187,0.529729 -2.330808,0.317837 -0.74162,-0.211892 -1.801078,-0.211892 -2.860536,-0.74162 L 8.151411,57.416206 6.3503326,60.59458 c 0,0.211892 -0.2118916,0.211892 -0.3178374,0.211892 L 3.3838504,59.747014 3.1719588,59.535122 Z M 18.957882,14.931943 1.9006093,21.712474 50,40.994608 67.057272,34.214077 Z m 62.084235,16.633489 v 15.150249 l -2.01297,-1.27135 -1.907024,2.860537 -2.224862,-1.27135 -1.907024,2.860537 -2.01297,-1.27135 -1.907024,2.860537 V 36.332993 L 51.377295,43.431361 V 96.933987 L 100.00641,77.545907 V 24.043281 Z"
     id="path10"
     style="stroke-width:1.05946;fill:#1d88e5" />
  <rect
     style="fill:#1d88e5;fill-rule:evenodd;stroke:#1d88e5"
     id="rect10330"
     width="44.444443"
     height="30.813288"
     x="1.1454754"
     y="44.100803"
     rx="2.90909"
     ry="2.90909" />
</svg>
