<?xml version="1.0" encoding="UTF-8" standalone="no"?>
<!-- Uploaded to: SVG Repo, www.svgrepo.com, Generator: SVG Repo Mixer Tools -->

<svg
   fill="#000000"
   width="32"
   height="32"
   viewBox="0 0 32 32"
   id="Layer_1"
   data-name="Layer 1"
   version="1.1"
   sodipodi:docname="symbols.svg"
   inkscape:version="1.4.2 (ebf0e940d0, 2025-05-08)"
   inkscape:export-filename="symbol-constructor.svg"
   inkscape:export-xdpi="96"
   inkscape:export-ydpi="96"
   xmlns:inkscape="http://www.inkscape.org/namespaces/inkscape"
   xmlns:sodipodi="http://sodipodi.sourceforge.net/DTD/sodipodi-0.dtd"
   xmlns="http://www.w3.org/2000/svg"
   xmlns:svg="http://www.w3.org/2000/svg"
   xmlns:rdf="http://www.w3.org/1999/02/22-rdf-syntax-ns#"
   xmlns:cc="http://creativecommons.org/ns#"
   xmlns:dc="http://purl.org/dc/elements/1.1/">
  <defs
     id="defs1" />
  <sodipodi:namedview
     id="namedview1"
     pagecolor="#ffffff"
     bordercolor="#000000"
     borderopacity="0.25"
     inkscape:showpageshadow="2"
     inkscape:pageopacity="0.0"
     inkscape:pagecheckerboard="0"
     inkscape:deskcolor="#d1d1d1"
     inkscape:zoom="11.17"
     inkscape:cx="-10.519248"
     inkscape:cy="25.649061"
     inkscape:window-width="2560"
     inkscape:window-height="1368"
     inkscape:window-x="0"
     inkscape:window-y="0"
     inkscape:window-maximized="1"
     inkscape:current-layer="layer3"
     inkscape:export-bgcolor="#ffffff00"
     showguides="false">
    <inkscape:page
       x="0"
       y="0"
       width="32"
       height="32"
       id="page2"
       margin="0"
       bleed="0" />
  </sodipodi:namedview>
  <title
     id="title1">cog</title>
  <metadata
     id="metadata1">
    <rdf:RDF>
      <cc:Work
         rdf:about="">
        <dc:title>cog</dc:title>
      </cc:Work>
    </rdf:RDF>
  </metadata>
  <g
     inkscape:groupmode="layer"
     id="g60"
     inkscape:label="Container-dark"
     style="display:inline">
    <path
       d="m 9.5172965,9.9366235 q 0,-1.3841956 0.7522805,-1.9258372 0.752279,-0.5717328 1.835563,-0.5717328 1.053192,0 1.805472,0.5717328 0.75228,0.5416416 0.75228,1.9258372 0,1.3240115 -0.75228,1.9258365 -0.75228,0.571733 -1.805472,0.571733 -1.083284,0 -1.835563,-0.571733 Q 9.5172965,11.260635 9.5172965,9.9366235 Z m 0,12.1267525 q 0,-1.384194 0.7522805,-1.925837 0.752279,-0.571732 1.835563,-0.571732 1.053192,0 1.805472,0.571732 0.75228,0.541642 0.75228,1.925837 0,1.324013 -0.75228,1.925838 -0.75228,0.571733 -1.805472,0.571733 -1.083284,0 -1.835563,-0.571733 Q 9.5172965,23.387389 9.5172965,22.063376 Z M 16.997104,9.9366235 q 0,-1.3841956 0.752279,-1.9258372 0.75228,-0.5717328 1.835565,-0.5717328 1.053191,0 1.805471,0.5717328 0.75228,0.5416416 0.75228,1.9258372 0,1.3240115 -0.75228,1.9258365 -0.75228,0.571733 -1.805472,0.571733 -1.083284,0 -1.835564,-0.571733 -0.75228,-0.601825 -0.752279,-1.9258365 z m 0,12.1267525 q 0,-1.384194 0.752279,-1.925837 0.75228,-0.571732 1.835565,-0.571732 1.053191,0 1.805471,0.571732 0.75228,0.541642 0.75228,1.925837 0,1.324013 -0.75228,1.925838 -0.75228,0.571733 -1.805472,0.571733 -1.083284,0 -1.835564,-0.571733 -0.75228,-0.601825 -0.752279,-1.925838 z"
       id="text60"
       style="font-weight:bold;font-size:30.0912px;-inkscape-font-specification:'sans-serif Bold';letter-spacing:-1.09618px;display:inline;fill:#1cc3e8;fill-opacity:1;stroke-width:0.043;stroke-miterlimit:3.7;stroke-dasharray:none;paint-order:stroke fill markers"
       aria-label="::" />
    <path
       style="font-size:26.3583px;-inkscape-font-specification:sans-serif;letter-spacing:-0.988436px;display:inline;fill:#1cc3e8;fill-opacity:1;stroke-width:0.0416786;stroke-dasharray:none"
       d="m 23.368035,29.36967 q 1.347444,-0.07307 2.098903,-0.876775 0.777371,-0.767179 0.777371,-2.557264 v -5.29719 q 0,-3.762831 2.824449,-4.456946 V 15.962301 Q 26.244309,15.268187 26.244309,11.505355 V 6.1716334 q 0,-1.7900847 -0.751459,-2.5572639 Q 24.741392,2.810658 23.368035,2.7741256 V 0.143797 q 2.383938,0.0365308 3.757296,1.4612937 1.373356,1.4247614 1.373356,4.3473486 v 5.3337227 q 0,1.863149 0.803283,2.66686 0.829195,0.76718 2.358026,0.76718 v 2.66686 q -1.528831,0.03653 -2.358026,0.803712 -0.803283,0.767179 -0.803283,2.593798 v 5.443317 q 0,2.886055 -1.425183,4.310818 Q 25.648325,32 23.368035,32 Z"
       id="path59" />
    <path
       style="font-size:26.3583px;-inkscape-font-specification:sans-serif;letter-spacing:-0.988436px;display:inline;fill:#1cc3e8;fill-opacity:1;stroke-width:0.0416786;stroke-dasharray:none"
       d="M 8.291961,29.36967 Q 6.944517,29.2966 6.193058,28.492895 5.415687,27.725716 5.415687,25.935631 v -5.29719 q 0,-3.762831 -2.824449,-4.456946 V 15.962301 Q 5.415687,15.268187 5.415687,11.505355 V 6.1716334 q 0,-1.7900847 0.751459,-2.5572639 Q 6.918604,2.810658 8.291961,2.7741256 V 0.143797 Q 5.908023,0.1803278 4.534665,1.6050907 3.161309,3.0298521 3.161309,5.9524393 v 5.3337227 q 0,1.863149 -0.803283,2.66686 Q 1.528831,14.720202 0,14.720202 v 2.66686 q 1.528831,0.03653 2.358026,0.803712 0.803283,0.767179 0.803283,2.593798 v 5.443317 q 0,2.886055 1.425183,4.310818 Q 6.011671,32 8.291961,32 Z"
       id="path14" />
  </g>
</svg>
