<?xml version="1.0" encoding="UTF-8" standalone="no"?>
<svg
   xmlns:dc="http://purl.org/dc/elements/1.1/"
   xmlns:cc="http://creativecommons.org/ns#"
   xmlns:rdf="http://www.w3.org/1999/02/22-rdf-syntax-ns#"
   xmlns:svg="http://www.w3.org/2000/svg"
   xmlns="http://www.w3.org/2000/svg"
   xmlns:sodipodi="http://sodipodi.sourceforge.net/DTD/sodipodi-0.dtd"
   xmlns:inkscape="http://www.inkscape.org/namespaces/inkscape"
   height="24px"
   id="Layer_1"
   version="1.2"
   viewBox="0 0 24 24"
   width="24px"
   xml:space="preserve"
   sodipodi:docname="ToolPin.svg"
   inkscape:version="0.92.3 (2405546, 2018-03-11)"><metadata
     id="metadata9"><rdf:RDF><cc:Work
         rdf:about=""><dc:format>image/svg+xml</dc:format><dc:type
           rdf:resource="http://purl.org/dc/dcmitype/StillImage" /></cc:Work></rdf:RDF></metadata><defs
     id="defs7" /><sodipodi:namedview
     pagecolor="#ffffff"
     bordercolor="#666666"
     borderopacity="1"
     objecttolerance="10"
     gridtolerance="10"
     guidetolerance="10"
     inkscape:pageopacity="0"
     inkscape:pageshadow="2"
     inkscape:window-width="1390"
     inkscape:window-height="1023"
     id="namedview5"
     showgrid="false"
     inkscape:zoom="9.8333333"
     inkscape:cx="12"
     inkscape:cy="12"
     inkscape:window-x="0"
     inkscape:window-y="0"
     inkscape:window-maximized="0"
     inkscape:current-layer="Layer_1" /><path
     d="M16.729,4.271c-0.389-0.391-1.021-0.393-1.414-0.004c-0.104,0.104-0.176,0.227-0.225,0.355  c-0.832,1.736-1.748,2.715-2.904,3.293C10.889,8.555,9.4,9,7,9C6.87,9,6.74,9.025,6.618,9.076C6.373,9.178,6.179,9.373,6.077,9.617  c-0.101,0.244-0.101,0.52,0,0.764c0.051,0.123,0.124,0.234,0.217,0.326l3.243,3.243L5,20l6.05-4.537l3.242,3.242  c0.092,0.094,0.203,0.166,0.326,0.217C14.74,18.973,14.87,19,15,19s0.26-0.027,0.382-0.078c0.245-0.102,0.44-0.295,0.541-0.541  C15.974,18.26,16,18.129,16,18c0-2.4,0.444-3.889,1.083-5.166c0.577-1.156,1.556-2.072,3.293-2.904  c0.129-0.049,0.251-0.121,0.354-0.225c0.389-0.393,0.387-1.025-0.004-1.414L16.729,4.271z"
     id="path2"
     style="stroke:#267cb5;stroke-opacity:1;fill:#267cb5;fill-opacity:1" /></svg>