<?xml version="1.0" encoding="UTF-8" standalone="no"?>
<svg
   viewBox="0 0 100 100"
   version="1.1"
   id="svg1151"
   sodipodi:docname="archive.svg"
   inkscape:version="1.1 (c68e22c387, 2021-05-23)"
   xmlns:inkscape="http://www.inkscape.org/namespaces/inkscape"
   xmlns:sodipodi="http://sodipodi.sourceforge.net/DTD/sodipodi-0.dtd"
   xmlns="http://www.w3.org/2000/svg"
   xmlns:svg="http://www.w3.org/2000/svg">
  <defs
     id="defs1155" />
  <sodipodi:namedview
     id="namedview1153"
     pagecolor="#505050"
     bordercolor="#eeeeee"
     borderopacity="1"
     inkscape:pageshadow="0"
     inkscape:pageopacity="0"
     inkscape:pagecheckerboard="0"
     showgrid="false"
     inkscape:zoom="8.73"
     inkscape:cx="50"
     inkscape:cy="50"
     inkscape:window-width="3440"
     inkscape:window-height="1361"
     inkscape:window-x="-9"
     inkscape:window-y="-9"
     inkscape:window-maximized="1"
     inkscape:current-layer="svg1151" />
  <path
     d="M91.6 28.7H76.9V14.1l14.7 14.6zM52.1 14.1v53.3h39.6V32.2H73.4V13.9H52.1v.2zM58.2 0H14.5v10.4h17.2l-10.9 8.3v8.9l15.9-12.2v-5h55.7V6.1L58.2 0zM36.9 22.4L21 34.6v8.9l15.9-12.2v-8.9zm-16.1 37l15.9-12.2v-8.9L20.8 50.6v8.8zm16.1 3.7v-8.9L21 66.5v4.8h-6.3v10.4h9.8v7h-5.9c-1.1-1.9-3-3-5.2-3-3.3 0-5.9 2.6-5.9 5.9 0 3.3 2.6 5.9 5.9 5.9 2.2 0 4.1-1.1 5.2-3h5.7v5.4h8.9v-5.4H39c1.1 1.9 3 3 5.2 3 3.3 0 5.9-2.6 5.9-5.9 0-3.3-2.6-5.9-5.9-5.9-2.2 0-4.1 1.1-5.2 3h-5.7v-7h25l34.3-6.1v-4.3H26.2l10.7-8.2z"
     fill="#fc3"
     id="path1149" />
</svg>
