/* XPM */
static const char * icon_git_xpm[] = {
"16 16 23 1",
" 	c None",
".	c #C7321D",
"+	c #C7301B",
"@	c #CD4333",
"#	c #CA3726",
"$	c #C7311C",
"%	c #C62F1A",
"&	c #C8331F",
"*	c #CA3B29",
"=	c #168105",
"-	c #55A449",
";	c #2D8E1D",
">	c #1C8608",
",	c #137F00",
"'	c #379527",
")	c #288E17",
"!	c #178204",
"~	c #188303",
"{	c #1F870C",
"]	c #2C8F1A",
"^	c #359225",
"/	c #5EA952",
"(	c #469B38",
"                ",
"                ",
"                ",
"                ",
"                ",
"                ",
"   .+@#$% &$*   ",
"                ",
"    =  -   ;    ",
"   >,')!~ {,]   ",
"    ^  /   (    ",
"                ",
"                ",
"                ",
"                ",
"                "};
